<?xml version="1.0" encoding="UTF-8" standalone="no"?>
<!DOCTYPE svg PUBLIC "-//W3C//DTD SVG 1.0//EN" "http://www.w3.org/TR/2001/REC-SVG-20010904/DTD/svg10.dtd">
<!-- Created with Inkscape (http://www.inkscape.org/) -->
<svg
   xmlns:svg="http://www.w3.org/2000/svg"
   xmlns="http://www.w3.org/2000/svg"
   version="1.0"
   width="600"
   height="230"
   id="svg2924">
  <defs
     id="defs2926">
    <clipPath
       id="clipPath71">
      <path
         d="M 224.875,118.875 L 571.091,118.875 L 571.091,312.143 L 224.875,312.143 L 224.875,118.875 z"
         id="path73" />
    </clipPath>
  </defs>
  <g
     transform="translate(-113.15747,-137.99238)"
     id="layer1">
    <g
       transform="matrix(1.3532128,0,0,1.3532128,-32.468658,-126.72675)"
       id="g3584">
      <g
         transform="matrix(1.25,0,0,-1.25,124.75947,335.98476)"
         id="g63">
        <path
           d="M 0,0 L -2.877,0 L -5.659,-17.566 L -7.442,-17.566 L -4.659,0 L -7.536,0 L -7.277,1.63 L 0.258,1.63 L 0,0 z"
           id="path65"
           style="fill:#00539b;fill-opacity:1;fill-rule:nonzero;stroke:none" />
      </g>
      <path
         d="M 127.38198,342.92151 C 128.36073,341.96651 129.57073,341.36276 130.84323,341.36276 C 133.83573,341.36276 133.58198,343.97151 133.21698,346.26276 L 131.36823,357.94151 L 129.29948,357.94151 L 131.09323,346.61276 C 131.49823,344.06776 131.37198,343.04901 129.81323,343.04901 C 127.45823,343.04901 126.95323,345.62651 126.68323,347.34526 L 125.00448,357.94151 L 122.93448,357.94151 L 126.96823,332.48401 L 129.03573,332.48401 L 127.38198,342.92151 z"
         id="path77"
         style="fill:#00539b;fill-opacity:1;fill-rule:nonzero;stroke:none" />
      <path
         d="M 142.16197,348.45826 L 142.17572,348.17201 C 142.35822,346.61326 142.81947,343.30326 140.65447,343.30326 C 138.68197,343.30326 137.65197,346.99451 137.41947,348.45826 L 142.16197,348.45826 z M 137.11072,350.20951 L 137.03572,350.68576 C 136.77822,352.30826 136.44072,356.25451 138.69822,356.25451 C 140.51322,356.25451 141.17072,353.71076 141.37822,352.40576 L 143.51072,352.40576 C 143.08447,354.88826 141.60572,358.19576 138.58322,358.19576 C 134.28572,358.19576 134.52072,353.10451 135.03822,349.82701 C 135.50322,346.89951 137.01697,341.36326 140.96197,341.36326 C 144.78072,341.36326 144.59447,346.35951 144.14072,349.22326 L 143.98572,350.20951 L 137.11072,350.20951 z"
         id="path81"
         style="fill:#00539b;fill-opacity:1;fill-rule:nonzero;stroke:none" />
      <path
         d="M 164.78022,357.94188 L 162.74272,357.94188 L 162.88647,341.77563 C 162.89022,340.94813 163.10897,339.16688 163.21897,337.86188 L 163.09147,337.86188 C 162.75897,339.16688 162.37522,340.98063 162.12147,341.77563 L 156.76022,357.94188 L 154.72522,357.94188 L 154.70647,333.94688 L 156.99772,333.94688 L 156.59022,349.98688 C 156.56272,351.16438 156.46522,352.37188 156.40647,353.54938 L 156.53522,353.54938 C 156.88022,352.37188 157.16647,351.16438 157.54522,349.98688 L 162.85397,333.94688 L 164.76272,333.94688 L 164.51272,349.98688 C 164.48522,351.16438 164.45397,352.37188 164.42647,353.54938 L 164.55397,353.54938 C 164.86647,352.37188 165.15272,351.16438 165.53147,349.98688 L 170.55272,333.94688 L 172.81397,333.94688 L 164.78022,357.94188 z"
         id="path85"
         style="fill:#00539b;fill-opacity:1;fill-rule:nonzero;stroke:none" />
      <path
         d="M 173.20523,349.76376 C 172.95273,351.35501 172.24148,356.25501 174.72273,356.25501 C 177.20523,356.25501 178.04523,351.35501 178.29648,349.76376 C 178.54398,348.20501 179.25648,343.30376 176.77398,343.30376 C 174.29273,343.30376 173.45273,348.20501 173.20523,349.76376 M 180.42898,349.76376 C 179.94023,352.85001 178.71023,358.19626 174.41523,358.19626 C 170.12023,358.19626 170.58398,352.85001 171.07273,349.76376 C 171.55773,346.70751 172.78648,341.36251 177.08273,341.36251 C 181.37773,341.36251 180.91398,346.70751 180.42898,349.76376"
         id="path89"
         style="fill:#00539b;fill-opacity:1;fill-rule:nonzero;stroke:none" />
      <path
         d="M 185.8636,343.78138 L 185.92735,343.78138 C 186.5536,342.63513 187.6511,341.33013 189.01485,341.36263 L 188.6311,343.78138 L 188.2236,343.74888 C 186.0911,343.74888 185.5411,345.81638 185.1261,348.42763 L 183.6211,357.94138 L 181.5511,357.94138 L 184.13735,341.61638 L 186.20485,341.61638 L 185.8636,343.78138 z"
         id="path93"
         style="fill:#00539b;fill-opacity:1;fill-rule:nonzero;stroke:none" />
      <path
         d="M 190.14347,357.94188 L 188.07347,357.94188 L 192.10597,332.48313 L 194.17472,332.48313 L 190.14347,357.94188 z"
         id="path97"
         style="fill:#00539b;fill-opacity:1;fill-rule:nonzero;stroke:none" />
      <path
         d="M 199.43848,343.04963 C 197.11598,343.04963 196.37348,347.12213 196.00598,349.44588 C 195.76473,350.97213 194.56973,356.51088 197.21223,356.51088 C 199.40723,356.51088 200.02598,353.80588 200.70723,349.50838 C 201.29598,345.78588 201.34848,343.04963 199.43848,343.04963 M 199.38098,356.66963 L 199.31848,356.66963 C 198.56723,357.59088 197.54848,358.19588 196.37098,358.19588 C 192.96598,358.19588 193.14473,354.05838 193.84973,349.60463 C 194.55598,345.14838 195.60098,341.36213 199.22848,341.36213 C 200.37473,341.36213 201.03098,341.83963 201.52598,342.72963 L 201.58973,342.72963 L 203.21223,332.48338 L 205.28098,332.48338 L 201.24848,357.94213 L 199.17973,357.94213 L 199.38098,356.66963 z"
         id="path101"
         style="fill:#00539b;fill-opacity:1;fill-rule:nonzero;stroke:none" />
      <path
         d="M 207.97772,341.77526 L 206.56772,341.04526 L 210.22397,333.63026 L 212.28397,334.68026 L 207.97772,341.77526 z"
         id="path105"
         style="fill:#00539b;fill-opacity:1;fill-rule:nonzero;stroke:none" />
      <path
         d="M 217.78747,344.95888 L 217.72372,344.95888 C 217.25622,344.09888 216.42622,343.30263 215.27997,343.30263 C 214.04122,343.30263 213.09372,344.25763 212.90122,345.46763 C 212.65497,347.02763 213.84122,347.98263 214.97372,349.06263 C 216.13372,350.17763 217.24747,351.38638 216.90872,353.51888 C 216.49622,356.12763 214.41872,358.19638 211.71372,358.19638 C 210.69497,358.19638 209.62497,357.71888 208.93122,357.08263 L 209.31372,354.66263 C 209.97872,355.49138 210.71622,356.25513 211.95747,356.25513 C 213.38872,356.25513 214.52122,355.14138 214.73622,353.77263 C 214.99372,352.15013 213.86122,351.06888 212.70997,349.89138 C 211.58747,348.74513 210.45122,347.47263 210.75872,345.53013 C 211.14747,343.08013 213.04372,341.36263 215.49372,341.36263 C 216.54372,341.36263 217.46497,341.77513 218.19122,342.41263 L 217.78747,344.95888 z"
         id="path109"
         style="fill:#00539b;fill-opacity:1;fill-rule:nonzero;stroke:none" />
      <path
         d="M 236.58323,335.98476 L 231.14323,335.98476 L 229.80198,344.44976 L 234.95698,344.44976 L 234.63448,346.48476 L 229.47823,346.48476 L 227.66448,357.94226 L 225.43698,357.94226 L 229.23698,333.94726 L 236.90573,333.94726 L 236.58323,335.98476 z"
         id="path113"
         style="fill:#00539b;fill-opacity:1;fill-rule:nonzero;stroke:none" />
      <path
         d="M 238.82423,349.76376 C 238.57173,351.35501 237.86048,356.25501 240.34173,356.25501 C 242.82423,356.25501 243.66298,351.35501 243.91548,349.76376 C 244.16298,348.20501 244.87548,343.30376 242.39298,343.30376 C 239.91173,343.30376 239.07048,348.20501 238.82423,349.76376 M 246.04798,349.76376 C 245.55923,352.85001 244.32923,358.19626 240.03423,358.19626 C 235.73923,358.19626 236.20298,352.85001 236.69173,349.76376 C 237.17673,346.70751 238.40548,341.36251 242.70173,341.36251 C 246.99673,341.36251 246.53298,346.70751 246.04798,349.76376"
         id="path117"
         style="fill:#00539b;fill-opacity:1;fill-rule:nonzero;stroke:none" />
      <path
         d="M 251.48085,343.78138 L 251.5446,343.78138 C 252.17085,342.63513 253.26835,341.33013 254.6321,341.36263 L 254.24835,343.78138 L 253.84085,343.74888 C 251.70835,343.74888 251.15835,345.81638 250.74335,348.42763 L 249.23835,357.94138 L 247.16835,357.94138 L 249.7546,341.61638 L 251.8221,341.61638 L 251.48085,343.78138 z"
         id="path121"
         style="fill:#00539b;fill-opacity:1;fill-rule:nonzero;stroke:none" />
      <path
         d="M 258.46598,341.61663 L 256.84348,351.86288 C 256.49098,354.09163 256.27473,356.25538 258.31223,356.25538 C 260.41223,356.25538 260.84973,354.09163 261.23473,351.86288 L 262.85848,341.61663 L 264.92598,341.61663 L 263.02723,353.61413 C 262.59223,356.35038 260.96348,358.19538 258.03598,358.19538 C 255.14098,358.19538 254.05973,356.38288 254.49848,353.61413 L 256.39723,341.61663 L 258.46598,341.61663 z"
         id="path125"
         style="fill:#00539b;fill-opacity:1;fill-rule:nonzero;stroke:none" />
      <path
         d="M 269.5171,342.98551 L 269.58085,342.98551 C 270.46335,342.03051 271.6821,341.36301 272.92335,341.36301 C 274.2596,341.36301 275.2946,342.06176 275.6396,343.30301 C 276.69085,342.09426 277.8246,341.36301 279.3196,341.36301 C 282.37585,341.36301 282.24585,343.78176 281.86335,346.20051 L 280.00335,357.94176 L 277.9346,357.94176 L 279.7846,346.26301 C 280.03085,344.70301 280.1346,343.04926 278.44835,343.04926 C 275.99835,343.04926 275.49585,345.81676 275.1671,347.88551 L 273.57585,357.94176 L 271.5071,357.94176 L 273.35085,346.29551 C 273.59335,344.76676 273.77085,343.04926 272.0846,343.04926 C 269.57085,343.04926 269.01335,346.16801 268.6846,348.23551 L 267.14835,357.94176 L 265.07835,357.94176 L 267.6646,341.61676 L 269.7321,341.61676 L 269.5171,342.98551 z"
         id="path129"
         style="fill:#00539b;fill-opacity:1;fill-rule:nonzero;stroke:none" />
      <path
         d="M 296.85885,343.52588 L 294.15385,343.52588 L 291.87135,357.94213 L 289.8026,357.94213 L 292.0851,343.52588 L 290.3351,343.52588 L 290.63885,341.61713 L 292.3876,341.61713 L 293.14885,336.81213 C 293.5876,334.04213 294.6076,332.22963 296.9301,332.22963 C 297.53385,332.22963 298.1551,332.32463 298.68885,332.57963 L 298.3301,334.83838 C 297.93885,334.48838 297.55135,334.13963 296.9451,334.13963 C 295.8001,334.13963 295.4851,335.12463 295.2276,336.74713 L 294.4576,341.61713 L 297.16135,341.61713 L 296.85885,343.52588 z"
         id="path133"
         style="fill:#00539b;fill-opacity:1;fill-rule:nonzero;stroke:none" />
      <path
         d="M 299.05322,349.76376 C 298.80072,351.35501 298.08947,356.25501 300.57072,356.25501 C 303.05322,356.25501 303.89197,351.35501 304.14447,349.76376 C 304.39072,348.20501 305.10447,343.30376 302.62197,343.30376 C 300.14072,343.30376 299.29947,348.20501 299.05322,349.76376 M 306.27697,349.76376 C 305.78822,352.85001 304.55822,358.19626 300.26322,358.19626 C 295.96822,358.19626 296.43197,352.85001 296.92072,349.76376 C 297.40572,346.70751 298.63322,341.36251 302.93072,341.36251 C 307.22572,341.36251 306.76197,346.70751 306.27697,349.76376"
         id="path137"
         style="fill:#00539b;fill-opacity:1;fill-rule:nonzero;stroke:none" />
      <path
         d="M 311.71335,343.78138 L 311.7771,343.78138 C 312.40335,342.63513 313.4996,341.33013 314.8646,341.36263 L 314.48085,343.78138 L 314.07335,343.74888 C 311.94085,343.74888 311.3896,345.81638 310.97585,348.42763 L 309.47085,357.94138 L 307.40085,357.94138 L 309.9871,341.61638 L 312.0546,341.61638 L 311.71335,343.78138 z"
         id="path141"
         style="fill:#00539b;fill-opacity:1;fill-rule:nonzero;stroke:none" />
      <path
         d="M 328.18685,351.06863 L 328.05185,341.87238 C 328.0231,340.24863 328.1581,338.59363 328.2256,336.96988 L 328.09685,336.96988 C 327.61685,338.59363 327.1956,340.24863 326.68435,341.87238 L 323.8281,351.06863 L 328.18685,351.06863 z M 330.72685,357.94238 L 328.33935,357.94238 L 328.22935,353.00988 L 323.13935,353.00988 L 321.49685,357.94238 L 319.1106,357.94238 L 327.6206,333.94738 L 329.72185,333.94738 L 330.72685,357.94238 z"
         id="path145"
         style="fill:#00539b;fill-opacity:1;fill-rule:nonzero;stroke:none" />
      <path
         d="M 340.08572,348.45826 L 340.09947,348.17201 C 340.28197,346.61326 340.74322,343.30326 338.57822,343.30326 C 336.60447,343.30326 335.57572,346.99451 335.34322,348.45826 L 340.08572,348.45826 z M 335.03447,350.20951 L 334.95947,350.68576 C 334.70197,352.30826 334.36447,356.25451 336.62197,356.25451 C 338.43697,356.25451 339.09447,353.71076 339.30197,352.40576 L 341.43447,352.40576 C 341.00697,354.88826 339.52947,358.19576 336.50697,358.19576 C 332.20947,358.19576 332.44447,353.10451 332.96197,349.82701 C 333.42697,346.89951 334.94072,341.36326 338.88572,341.36326 C 342.70447,341.36326 342.51822,346.35951 342.06447,349.22326 L 341.90822,350.20951 L 335.03447,350.20951 z"
         id="path149"
         style="fill:#00539b;fill-opacity:1;fill-rule:nonzero;stroke:none" />
      <path
         d="M 347.38148,343.78138 L 347.44523,343.78138 C 348.07273,342.63513 349.16898,341.33013 350.53273,341.36263 L 350.14898,343.78138 L 349.74148,343.74888 C 347.60898,343.74888 347.05898,345.81638 346.64398,348.42763 L 345.13898,357.94138 L 343.06898,357.94138 L 345.65523,341.61638 L 347.72273,341.61638 L 347.38148,343.78138 z"
         id="path153"
         style="fill:#00539b;fill-opacity:1;fill-rule:nonzero;stroke:none" />
      <path
         d="M 352.54185,349.76376 C 352.28935,351.35501 351.5781,356.25501 354.05935,356.25501 C 356.54185,356.25501 357.38185,351.35501 357.6331,349.76376 C 357.8806,348.20501 358.5931,343.30376 356.1106,343.30376 C 353.62935,343.30376 352.7881,348.20501 352.54185,349.76376 M 359.7656,349.76376 C 359.27685,352.85001 358.04685,358.19626 353.75185,358.19626 C 349.45685,358.19626 349.9206,352.85001 350.40935,349.76376 C 350.89435,346.70751 352.1231,341.36251 356.41935,341.36251 C 360.71435,341.36251 360.2506,346.70751 359.7656,349.76376"
         id="path157"
         style="fill:#00539b;fill-opacity:1;fill-rule:nonzero;stroke:none" />
      <path
         d="M 369.18335,344.95888 L 369.1196,344.95888 C 368.6521,344.09888 367.82335,343.30263 366.6771,343.30263 C 365.4371,343.30263 364.48835,344.25763 364.2971,345.46763 C 364.05085,347.02763 365.23585,347.98263 366.3696,349.06263 C 367.5296,350.17763 368.64335,351.38638 368.3046,353.51888 C 367.8921,356.12763 365.8146,358.19638 363.1096,358.19638 C 362.09085,358.19638 361.02085,357.71888 360.3271,357.08263 L 360.7096,354.66263 C 361.3746,355.49138 362.1121,356.25513 363.35335,356.25513 C 364.7846,356.25513 365.9171,355.14138 366.1321,353.77263 C 366.3896,352.15013 365.2571,351.06888 364.10585,349.89138 C 362.98335,348.74513 361.8471,347.47263 362.1546,345.53013 C 362.54335,343.08013 364.4396,341.36263 366.88835,341.36263 C 367.9396,341.36263 368.86085,341.77513 369.5871,342.41263 L 369.18335,344.95888 z"
         id="path161"
         style="fill:#00539b;fill-opacity:1;fill-rule:nonzero;stroke:none" />
      <path
         d="M 377.64447,349.60488 C 378.04197,347.09113 378.65072,343.04988 376.26322,343.04988 C 374.06947,343.04988 373.43947,346.42363 372.97947,349.31863 C 372.48072,352.46863 371.96822,356.51113 374.22822,356.51113 C 376.13697,356.51113 376.84697,354.63238 377.64447,349.60488 M 374.21447,342.72988 L 374.27822,342.72988 C 375.05447,341.83988 375.86322,341.36238 377.04072,341.36238 C 380.82572,341.36238 380.29947,346.29488 379.77697,349.60488 C 379.19072,353.29613 378.31947,358.19613 374.53322,358.19613 C 373.35572,358.19613 372.52947,357.59113 372.06947,356.66988 L 372.00572,356.66988 L 370.81697,364.17988 L 368.74822,364.17988 L 372.32197,341.61613 L 374.38947,341.61613 L 374.21447,342.72988 z"
         id="path165"
         style="fill:#00539b;fill-opacity:1;fill-rule:nonzero;stroke:none" />
      <path
         d="M 387.27297,343.04963 C 384.98172,343.04963 384.27922,346.67713 383.84047,349.44588 C 382.77172,356.19088 383.83547,356.51088 385.04547,356.51088 C 387.05047,356.51088 387.72922,354.63213 388.54172,349.50838 C 389.10172,345.97588 389.31047,343.04963 387.27297,343.04963 M 389.08172,357.94213 L 387.01422,357.94213 L 387.21672,356.66963 L 387.15172,356.66963 C 386.40047,357.59088 385.38297,358.19588 384.20547,358.19588 C 381.59672,358.19588 380.55547,356.73338 381.68422,349.60463 C 382.26422,345.94463 383.11797,341.36213 387.06172,341.36213 C 388.20797,341.36213 388.86422,341.83963 389.36047,342.72963 L 389.42422,342.72963 L 389.60047,341.61713 L 391.66797,341.61713 L 389.08172,357.94213 z"
         id="path169"
         style="fill:#00539b;fill-opacity:1;fill-rule:nonzero;stroke:none" />
      <path
         d="M 400.65135,344.38576 C 400.2276,343.84576 399.6451,343.30326 398.8501,343.30326 C 396.17635,343.30326 395.18635,347.94951 394.88885,349.82701 C 394.63135,351.45076 394.2201,356.25451 396.67135,356.25451 C 397.62635,356.25451 398.34635,355.52326 398.9401,354.79076 L 399.0026,354.79076 L 398.5951,357.36826 C 397.9101,357.87826 396.9051,358.19576 396.10885,358.19576 C 392.35385,358.19576 392.2676,352.91451 392.71135,350.11451 C 393.2001,347.02701 394.7351,341.36326 398.87135,341.36326 C 399.63385,341.36326 400.42635,341.58576 401.02885,341.99826 L 400.65135,344.38576 z"
         id="path173"
         style="fill:#00539b;fill-opacity:1;fill-rule:nonzero;stroke:none" />
      <path
         d="M 408.7261,348.45826 L 408.73985,348.17201 C 408.92235,346.61326 409.3836,343.30326 407.2186,343.30326 C 405.24485,343.30326 404.2161,346.99451 403.9836,348.45826 L 408.7261,348.45826 z M 403.6736,350.20951 L 403.59985,350.68576 C 403.34235,352.30826 403.00485,356.25451 405.26235,356.25451 C 407.07735,356.25451 407.73485,353.71076 407.94235,352.40576 L 410.0736,352.40576 C 409.64735,354.88826 408.16985,358.19576 405.14735,358.19576 C 400.84985,358.19576 401.08485,353.10451 401.60235,349.82701 C 402.06735,346.89951 403.5811,341.36326 407.5261,341.36326 C 411.34485,341.36326 411.1586,346.35951 410.70485,349.22326 L 410.5486,350.20951 L 403.6736,350.20951 z"
         id="path177"
         style="fill:#00539b;fill-opacity:1;fill-rule:nonzero;stroke:none" />
      <path
         d="M 421.35648,355.90463 L 426.57523,355.90463 L 426.25273,357.94213 L 418.80648,357.94213 L 422.60648,333.94713 L 424.83398,333.94713 L 421.35648,355.90463 z"
         id="path181"
         style="fill:#00539b;fill-opacity:1;fill-rule:nonzero;stroke:none" />
      <path
         d="M 435.61335,348.45826 L 435.6271,348.17201 C 435.81085,346.61326 436.27085,343.30326 434.10585,343.30326 C 432.13335,343.30326 431.1046,346.99451 430.87085,348.45826 L 435.61335,348.45826 z M 430.5621,350.20951 L 430.4871,350.68576 C 430.23085,352.30826 429.8921,356.25451 432.15085,356.25451 C 433.9646,356.25451 434.6221,353.71076 434.8296,352.40576 L 436.9621,352.40576 C 436.53585,354.88826 435.0571,358.19576 432.0346,358.19576 C 427.7371,358.19576 427.9721,353.10451 428.49085,349.82701 C 428.9546,346.89951 430.46835,341.36326 434.41335,341.36326 C 438.2321,341.36326 438.04585,346.35951 437.5921,349.22326 L 437.4371,350.20951 L 430.5621,350.20951 z"
         id="path185"
         style="fill:#00539b;fill-opacity:1;fill-rule:nonzero;stroke:none" />
      <path
         d="M 445.02948,343.04963 C 442.73823,343.04963 442.03573,346.67713 441.59698,349.44588 C 440.52823,356.19088 441.59198,356.51088 442.80198,356.51088 C 444.80698,356.51088 445.48573,354.63213 446.29823,349.50838 C 446.85823,345.97588 447.06698,343.04963 445.02948,343.04963 M 446.83823,357.94213 L 444.77073,357.94213 L 444.97198,356.66963 L 444.90823,356.66963 C 444.15698,357.59088 443.13948,358.19588 441.96198,358.19588 C 439.35323,358.19588 438.31198,356.73338 439.44073,349.60463 C 440.02073,345.94463 440.87448,341.36213 444.81948,341.36213 C 445.96573,341.36213 446.62073,341.83963 447.11698,342.72963 L 447.18073,342.72963 L 447.35698,341.61713 L 449.42573,341.61713 L 446.83823,357.94213 z"
         id="path189"
         style="fill:#00539b;fill-opacity:1;fill-rule:nonzero;stroke:none" />
      <path
         d="M 456.13747,343.04963 C 453.81497,343.04963 453.07247,347.12213 452.70497,349.44588 C 452.46372,350.97213 451.26872,356.51088 453.90997,356.51088 C 456.10622,356.51088 456.72497,353.80588 457.40622,349.50838 C 457.99497,345.78588 458.04747,343.04963 456.13747,343.04963 M 456.07997,356.66963 L 456.01747,356.66963 C 455.26497,357.59088 454.24747,358.19588 453.06997,358.19588 C 449.66497,358.19588 449.84372,354.05838 450.54872,349.60463 C 451.25497,345.14838 452.29997,341.36213 455.92747,341.36213 C 457.07372,341.36213 457.72872,341.83963 458.22497,342.72963 L 458.28872,342.72963 L 459.91122,332.48338 L 461.97997,332.48338 L 457.94622,357.94213 L 455.87872,357.94213 L 456.07997,356.66963 z"
         id="path193"
         style="fill:#00539b;fill-opacity:1;fill-rule:nonzero;stroke:none" />
      <path
         d="M 468.73935,348.45826 L 468.7531,348.17201 C 468.93685,346.61326 469.39685,343.30326 467.2331,343.30326 C 465.2606,343.30326 464.2306,346.99451 463.9981,348.45826 L 468.73935,348.45826 z M 463.68935,350.20951 L 463.61435,350.68576 C 463.3581,352.30826 463.01935,356.25451 465.27685,356.25451 C 467.09185,356.25451 467.74935,353.71076 467.9581,352.40576 L 470.08935,352.40576 C 469.66185,354.88826 468.18435,358.19576 465.16185,358.19576 C 460.86435,358.19576 461.09935,353.10451 461.61685,349.82701 C 462.08185,346.89951 463.5956,341.36326 467.5406,341.36326 C 471.35935,341.36326 471.17185,346.35951 470.71935,349.22326 L 470.56435,350.20951 L 463.68935,350.20951 z"
         id="path197"
         style="fill:#00539b;fill-opacity:1;fill-rule:nonzero;stroke:none" />
      <path
         d="M 476.0371,343.78138 L 476.10085,343.78138 C 476.7271,342.63513 477.8221,341.33013 479.1871,341.36263 L 478.80585,343.78138 L 478.39585,343.74888 C 476.26335,343.74888 475.71585,345.81638 475.29835,348.42763 L 473.79585,357.94138 L 471.72335,357.94138 L 474.3121,341.61638 L 476.3796,341.61638 L 476.0371,343.78138 z"
         id="path201"
         style="fill:#00539b;fill-opacity:1;fill-rule:nonzero;stroke:none" />
      <path
         d="M 486.54185,344.95888 L 486.47435,344.95888 C 486.0081,344.09888 485.1806,343.30263 484.0356,343.30263 C 482.79435,343.30263 481.84685,344.25763 481.6556,345.46763 C 481.4081,347.02763 482.59185,347.98263 483.72685,349.06263 C 484.88685,350.17763 486.0006,351.38638 485.66185,353.51888 C 485.2481,356.12763 483.17185,358.19638 480.46685,358.19638 C 479.44935,358.19638 478.3781,357.71888 477.68435,357.08263 L 478.06685,354.66263 C 478.73185,355.49138 479.4706,356.25513 480.71185,356.25513 C 482.13935,356.25513 483.27435,355.14138 483.4906,353.77263 C 483.7481,352.15013 482.6131,351.06888 481.46435,349.89138 C 480.3406,348.74513 479.2056,347.47263 479.5131,345.53013 C 479.90185,343.08013 481.79685,341.36263 484.24685,341.36263 C 485.29685,341.36263 486.21685,341.77513 486.94435,342.41263 L 486.54185,344.95888 z"
         id="path205"
         style="fill:#00539b;fill-opacity:1;fill-rule:nonzero;stroke:none" />
      <path
         d="M 491.54147,342.92151 C 492.51772,341.96651 493.73022,341.36276 495.00272,341.36276 C 497.99397,341.36276 497.74022,343.97151 497.37522,346.26276 L 495.52647,357.94151 L 493.45772,357.94151 L 495.25022,346.61276 C 495.65772,344.06776 495.53022,343.04901 493.97022,343.04901 C 491.61522,343.04901 491.11397,345.62651 490.84147,347.34526 L 489.16147,357.94151 L 487.09397,357.94151 L 491.12397,332.48401 L 493.19272,332.48401 L 491.54147,342.92151 z"
         id="path209"
         style="fill:#00539b;fill-opacity:1;fill-rule:nonzero;stroke:none" />
      <path
         d="M 502.54472,338.33963 C 501.68597,338.33963 501.09847,337.63838 501.23347,336.78088 C 501.36347,335.95213 502.17722,335.25338 503.03597,335.25338 C 503.85972,335.25338 504.45097,335.95213 504.31972,336.78088 C 504.18597,337.63838 503.37222,338.33963 502.54472,338.33963 M 500.46222,357.94213 L 498.38972,357.94213 L 500.97847,341.61713 L 503.04722,341.61713 L 500.46222,357.94213 z"
         id="path213"
         style="fill:#00539b;fill-opacity:1;fill-rule:nonzero;stroke:none" />
      <path
         d="M 511.2286,349.60488 C 511.6286,347.09113 512.2361,343.04988 509.84985,343.04988 C 507.6536,343.04988 507.02485,346.42363 506.56485,349.31863 C 506.0661,352.46863 505.5536,356.51113 507.8136,356.51113 C 509.72235,356.51113 510.4336,354.63238 511.2286,349.60488 M 507.7986,342.72988 L 507.86235,342.72988 C 508.63985,341.83988 509.44985,341.36238 510.62735,341.36238 C 514.4111,341.36238 513.8836,346.29488 513.3636,349.60488 C 512.77735,353.29613 511.9036,358.19613 508.1211,358.19613 C 506.9436,358.19613 506.1161,357.59113 505.6561,356.66988 L 505.59235,356.66988 L 504.4011,364.17988 L 502.33235,364.17988 L 505.90735,341.61613 L 507.9761,341.61613 L 507.7986,342.72988 z"
         id="path217"
         style="fill:#00539b;fill-opacity:1;fill-rule:nonzero;stroke:none" />
      <path
         d="M 527.9281,265.82701 L 526.2981,263.71451 L 511.4306,263.71451 L 511.73435,265.82701 L 527.9281,265.82701 z"
         id="path221"
         style="fill:#00539b;fill-opacity:1;fill-rule:nonzero;stroke:none" />
      <path
         d="M 532.36185,271.64863 L 530.68185,269.45988 L 512.28185,269.45988 L 512.65685,271.64863 L 532.36185,271.64863 z"
         id="path225"
         style="fill:#00539b;fill-opacity:1;fill-rule:nonzero;stroke:none" />
      <path
         d="M 536.71447,277.43563 L 535.07697,275.24688 L 513.14197,275.24688 L 513.45322,277.43563 L 536.71447,277.43563 z"
         id="path229"
         style="fill:#00539b;fill-opacity:1;fill-rule:nonzero;stroke:none" />
      <path
         d="M 541.11998,283.21588 L 539.68123,281.05463 L 514.03248,281.05463 L 514.31873,283.21588 L 541.11998,283.21588 z"
         id="path233"
         style="fill:#00539b;fill-opacity:1;fill-rule:nonzero;stroke:none" />
      <path
         d="M 545.46197,288.94063 L 543.99072,286.86188 L 514.73197,286.86188 L 515.10322,288.94063 L 545.46197,288.94063 z"
         id="path237"
         style="fill:#00539b;fill-opacity:1;fill-rule:nonzero;stroke:none" />
      <path
         d="M 158.79285,244.10138 C 171.0591,244.10138 180.99785,254.04513 180.99785,266.32388 C 180.99785,278.58888 171.0591,288.53388 158.79285,288.53388 C 146.52285,288.53388 136.5766,278.58888 136.5766,266.32388 C 136.5766,254.04513 146.52285,244.10138 158.79285,244.10138"
         id="path241"
         style="fill:#00539b;fill-opacity:1;fill-rule:nonzero;stroke:none" />
      <path
         d="M 167.13497,241.87788 C 177.17622,245.37163 184.38622,254.91538 184.38622,266.15163 C 184.38622,280.35038 172.88122,291.85538 158.68747,291.85538 C 144.50122,291.85538 132.98747,280.35038 132.98747,266.15163 C 132.98747,253.09288 143.00747,243.34163 154.05497,241.09038 L 154.05497,220.68413 C 131.25997,223.19038 113.15747,242.50663 113.15747,265.97163 C 113.15747,291.13038 133.55372,311.52913 158.71497,311.52913 C 183.87622,311.52913 204.26997,291.13038 204.26997,265.97163 C 204.26997,244.14288 188.72747,225.90413 168.23872,221.45788 L 168.23872,217.13413 L 152.92622,231.13913 L 167.13497,246.77413 L 167.13497,241.87788 z"
         id="path245"
         style="fill:#00539b;fill-opacity:1;fill-rule:nonzero;stroke:none" />
      <path
         d="M 185.7081,232.03013 L 185.7081,211.79638 L 179.72935,211.79638 L 194.7081,197.03138 L 209.38185,211.79638 L 204.21685,211.79638 L 204.21685,266.59388"
         id="path249"
         style="fill:#00539b;fill-opacity:1;fill-rule:nonzero;stroke:none" />
      <path
         d="M 506.99285,289.03751 L 508.4316,297.89126 C 509.6091,303.76751 512.9016,305.49376 513.0891,305.55626 L 513.0891,306.15001 L 476.05785,306.15001 L 476.05785,305.55626 C 478.7141,305.55626 479.4491,303.05001 479.1591,301.57126 L 477.50035,289.03751 L 506.99285,289.03751 z"
         id="path253"
         style="fill:#00539b;fill-opacity:1;fill-rule:nonzero;stroke:none" />
      <path
         d="M 445.37322,289.05138 L 440.59072,297.89138 C 438.08572,302.60763 439.18697,304.38263 442.43322,305.55638 L 442.43322,306.15013 L 408.21072,306.15013 L 408.21072,305.55638 C 410.86697,305.55638 414.03822,301.35763 416.84072,296.48888 L 421.19447,289.03763 L 445.37322,289.05138 z"
         id="path257"
         style="fill:#00539b;fill-opacity:1;fill-rule:nonzero;stroke:none" />
      <path
         d="M 435.81385,263.63088 L 460.7976,220.53213 C 461.9851,218.46713 464.2051,214.93838 458.80135,212.78338 L 458.80135,212.26588 L 494.57135,212.26588 L 502.90135,263.62463 L 474.1876,263.63088 L 471.19635,240.88338 L 458.94635,263.63088 L 435.81385,263.63088 z"
         id="path261"
         style="fill:#00539b;fill-opacity:1;fill-rule:nonzero;stroke:none" />
      <path
         d="M 503.88122,269.39738 L 503.24122,265.88863 L 434.54997,265.88863 L 432.51247,269.39738 L 503.88122,269.39738 z"
         id="path265"
         style="fill:#00539b;fill-opacity:1;fill-rule:nonzero;stroke:none" />
      <path
         d="M 504.71922,275.18439 L 504.22797,271.66939 L 431.20297,271.66939 L 429.09797,275.18439 L 504.71922,275.18439 z"
         id="path269"
         style="fill:#00539b;fill-opacity:1;fill-rule:nonzero;stroke:none" />
      <path
         d="M 505.71635,280.96463 L 505.2076,277.45588 L 427.9701,277.45588 L 425.7576,280.96463 L 505.71635,280.96463 z"
         id="path273"
         style="fill:#00539b;fill-opacity:1;fill-rule:nonzero;stroke:none" />
      <path
         d="M 506.6286,286.74464 L 506.1336,283.22964 L 424.5161,283.22964 L 422.4511,286.74464 L 506.6286,286.74464 z"
         id="path277"
         style="fill:#00539b;fill-opacity:1;fill-rule:nonzero;stroke:none" />
      <path
         d="M 301.7966,263.63088 L 310.93785,220.53213 C 311.1966,219.26838 312.8091,214.33088 308.94285,212.78338 L 308.94285,212.26588 L 346.3666,212.26588 L 346.3666,212.85213 C 344.01035,213.73713 341.2816,218.01838 340.69035,221.40838 L 332.2616,263.62463 L 301.7966,263.63088 z"
         id="path281"
         style="fill:#00539b;fill-opacity:1;fill-rule:nonzero;stroke:none" />
      <path
         d="M 323.74847,306.20551 L 286.22597,306.15051 L 286.22597,305.55676 C 288.88597,305.55676 292.05597,301.35801 294.85847,296.48926 L 296.45347,289.03801 L 327.22597,288.96801 L 323.74847,306.13676 L 323.74847,306.20551 z"
         id="path285"
         style="fill:#00539b;fill-opacity:1;fill-rule:nonzero;stroke:none" />
      <path
         d="M 331.10635,269.39738 L 331.8526,265.88863 L 301.33885,265.88863 L 300.57635,269.39738 L 331.10635,269.39738 z"
         id="path289"
         style="fill:#00539b;fill-opacity:1;fill-rule:nonzero;stroke:none" />
      <path
         d="M 329.95148,275.18439 L 330.69523,271.66939 L 300.12523,271.66939 L 299.36023,275.18439 L 329.95148,275.18439 z"
         id="path293"
         style="fill:#00539b;fill-opacity:1;fill-rule:nonzero;stroke:none" />
      <path
         d="M 328.81547,280.96463 L 329.53922,277.45588 L 298.90297,277.45588 L 298.12297,280.96463 L 328.81547,280.96463 z"
         id="path297"
         style="fill:#00539b;fill-opacity:1;fill-rule:nonzero;stroke:none" />
      <path
         d="M 327.58785,286.74464 L 328.38535,283.22964 L 297.6891,283.22964 L 296.8366,286.74464 L 327.58785,286.74464 z"
         id="path301"
         style="fill:#00539b;fill-opacity:1;fill-rule:nonzero;stroke:none" />
      <path
         d="M 420.28085,289.03751 L 421.7246,297.89126 C 422.8996,303.76751 426.18585,305.49376 426.37335,305.55626 L 426.37335,306.15001 L 389.3446,306.15001 L 389.3446,305.55626 C 392.0071,305.55626 392.7371,303.05001 392.4421,301.57126 L 390.78835,289.03751 L 420.28085,289.03751 z"
         id="path305"
         style="fill:#00539b;fill-opacity:1;fill-rule:nonzero;stroke:none" />
      <path
         d="M 322.42072,306.11576 L 332.82572,289.03701 L 358.65697,289.05201 L 353.87822,297.89076 C 351.36947,302.60701 352.47447,304.38201 355.72072,305.55701 L 355.14697,306.21201 L 322.29947,306.21201 L 322.42072,306.11576 z"
         id="path309"
         style="fill:#00539b;fill-opacity:1;fill-rule:nonzero;stroke:none" />
      <path
         d="M 348.13948,263.63088 L 374.08448,220.53213 C 375.28073,218.46713 377.48948,214.93838 372.09948,212.78338 L 372.09948,212.26588 L 407.85573,212.26588 L 416.18073,263.62463 L 387.46823,263.63088 L 384.48323,240.88338 L 372.22823,263.63088 L 348.13948,263.63088 z"
         id="path313"
         style="fill:#00539b;fill-opacity:1;fill-rule:nonzero;stroke:none" />
      <path
         d="M 417.1716,269.39738 L 416.5241,265.88863 L 346.73035,265.88863 L 344.6991,269.39738 L 417.1716,269.39738 z"
         id="path317"
         style="fill:#00539b;fill-opacity:1;fill-rule:nonzero;stroke:none" />
      <path
         d="M 418.0141,275.18439 L 417.51535,271.66939 L 343.11785,271.66939 L 341.0116,275.18439 L 418.0141,275.18439 z"
         id="path321"
         style="fill:#00539b;fill-opacity:1;fill-rule:nonzero;stroke:none" />
      <path
         d="M 419.0016,280.96463 L 418.4891,277.45588 L 339.74785,277.45588 L 337.5241,280.96463 L 419.0016,280.96463 z"
         id="path325"
         style="fill:#00539b;fill-opacity:1;fill-rule:nonzero;stroke:none" />
      <path
         d="M 419.9096,286.74464 L 419.41085,283.22964 L 336.29085,283.22964 L 334.2246,286.74464 L 419.9096,286.74464 z"
         id="path329"
         style="fill:#00539b;fill-opacity:1;fill-rule:nonzero;stroke:none" />
      <path
         d="M 294.75448,289.03751 L 296.19948,297.89126 C 297.36573,303.76751 300.66073,305.49376 300.84198,305.55626 L 300.84198,306.15001 L 263.81948,306.15001 L 263.81948,305.55626 C 266.48073,305.55626 267.21698,303.05001 266.91823,301.57126 L 265.26448,289.03751 L 294.75448,289.03751 z"
         id="path333"
         style="fill:#00539b;fill-opacity:1;fill-rule:nonzero;stroke:none" />
      <path
         d="M 233.13048,289.05138 L 228.35548,297.89138 C 225.84173,302.60763 226.94548,304.38263 230.19173,305.55638 L 230.19173,306.15013 L 195.97173,306.15013 L 195.97173,305.55638 C 198.62923,305.55638 201.79923,301.35763 204.60048,296.48888 L 208.94798,289.03763 L 233.13048,289.05138 z"
         id="path337"
         style="fill:#00539b;fill-opacity:1;fill-rule:nonzero;stroke:none" />
      <path
         d="M 223.5726,263.63088 L 248.55885,220.53213 C 249.7501,218.46713 251.9626,214.93838 246.5676,212.78338 L 246.5676,212.26588 L 282.33135,212.26588 L 290.6576,263.62463 L 261.9426,263.63088 L 258.9551,240.88338 L 246.7001,263.63088 L 223.5726,263.63088 z"
         id="path341"
         style="fill:#00539b;fill-opacity:1;fill-rule:nonzero;stroke:none" />
      <path
         d="M 291.64147,269.39738 L 290.99397,265.88863 L 222.30897,265.88863 L 220.27522,269.39738 L 291.64147,269.39738 z"
         id="path345"
         style="fill:#00539b;fill-opacity:1;fill-rule:nonzero;stroke:none" />
      <path
         d="M 292.48047,275.18439 L 291.98797,271.66939 L 218.96797,271.66939 L 216.86047,275.18439 L 292.48047,275.18439 z"
         id="path349"
         style="fill:#00539b;fill-opacity:1;fill-rule:nonzero;stroke:none" />
      <path
         d="M 293.47485,280.96463 L 292.96235,277.45588 L 215.7311,277.45588 L 213.51485,280.96463 L 293.47485,280.96463 z"
         id="path353"
         style="fill:#00539b;fill-opacity:1;fill-rule:nonzero;stroke:none" />
      <path
         d="M 294.37947,286.74464 L 293.88697,283.22964 L 212.27447,283.22964 L 210.20947,286.74464 L 294.37947,286.74464 z"
         id="path357"
         style="fill:#00539b;fill-opacity:1;fill-rule:nonzero;stroke:none" />
    </g>
  </g>
</svg>
