<?xml version="1.0" encoding="UTF-8"?>
<svg version="1.1" xmlns="http://www.w3.org/2000/svg" width="3840" height="1107">
<path d="M0 0 C3.82349452 1.27449817 4.1362998 2.48076464 6.08203125 5.94140625 C6.67693359 6.98748047 7.27183594 8.03355469 7.88476562 9.11132812 C8.52091797 10.25021484 9.15707031 11.38910156 9.8125 12.5625 C10.48399187 13.74863294 11.15653267 14.93417261 11.83007812 16.11914062 C13.21612675 18.5583344 14.59856985 20.99951954 15.97900391 23.44189453 C18.93410355 28.65817169 21.96791008 33.82822379 25 39 C30.50086738 48.40907159 35.95449784 57.84471585 41.39453125 67.2890625 C45.57349128 74.5395149 49.77740506 81.77488269 54 89 C59.49945536 98.4099033 64.95449196 107.84470563 70.39453125 117.2890625 C74.57349158 124.53951541 78.77747989 131.77483863 83 139 C91.02281678 152.73046817 98.95858328 166.51078086 106.89550781 180.29101562 C113.56956312 191.87681766 120.25464084 203.45553353 127 215 C133.74701194 226.54729516 140.43339318 238.12902027 147.10888672 249.71777344 C150.23680146 255.14659938 153.36853731 260.57322007 156.5 266 C160.26363919 272.52233275 164.02644622 279.04513762 167.78515625 285.5703125 C173.83055159 296.06232094 179.89110219 306.54481676 186 317 C192.74701194 328.54729516 199.43339318 340.12902027 206.10888672 351.71777344 C209.23680148 357.14659942 212.36858448 362.57319281 215.5 368 C216.75001879 370.16665583 218.00001878 372.3333225 219.25 374.5 C220.178125 376.10875 220.178125 376.10875 221.125 377.75 C283 485 344.875 592.25 558.62548828 962.75097656 C559.87371034 964.91447476 561.12208239 967.07788643 562.37060547 969.24121094 C565.52405256 974.70565017 568.67476096 980.17163645 571.8203125 985.640625 C573.08839113 987.84383665 574.35661906 990.04696237 575.625 992.25 C576.23802979 993.31541016 576.85105957 994.38082031 577.48266602 995.47851562 C580.565307 1000.82399409 583.67398363 1006.15179959 586.83203125 1011.453125 C587.43901855 1012.47245117 588.04600586 1013.49177734 588.67138672 1014.54199219 C589.82383722 1016.47219544 590.98023579 1018.40004851 592.14111328 1020.32519531 C592.65013184 1021.17694336 593.15915039 1022.02869141 593.68359375 1022.90625 C594.13275146 1023.65197266 594.58190918 1024.39769531 595.04467773 1025.16601562 C596 1027 596 1027 596 1029 C232.34 1029 -131.32 1029 -506 1029 C-505.67 1028.34 -505.34 1027.68 -505 1027 C-501.95673262 1026.28355547 -498.96302492 1025.69638999 -495.88493347 1025.17033386 C-494.91378306 1024.9971977 -493.94263265 1024.82406153 -492.94205344 1024.64567882 C-489.65314897 1024.06158402 -486.36215249 1023.49024204 -483.07104492 1022.91870117 C-480.71270648 1022.50255293 -478.35450547 1022.08562516 -475.9964323 1021.66797638 C-470.8731676 1020.76239578 -465.74896912 1019.86230705 -460.62389755 1018.96701622 C-453.09583636 1017.65191841 -445.56956125 1016.32682134 -438.0436618 1014.99941538 C-425.57072286 1012.79972711 -413.09639686 1010.60800627 -400.62124634 1008.42089844 C-383.6998252 1005.45422023 -366.78018088 1002.47750921 -349.86103332 999.497895 C-342.166645 998.14284997 -334.47218043 996.78823812 -326.7776947 995.43374634 C-326.01852288 995.300104 -325.25935105 995.16646167 -324.47717402 995.02876957 C-312.98819472 993.0063521 -301.4988673 990.98592055 -290.0092926 988.96688843 C-288.88470443 988.7692668 -288.88470443 988.7692668 -287.73739731 988.56765281 C-284.73783244 988.0405517 -281.73826541 987.51346294 -278.73869668 986.98638388 C-249.4820521 981.8454557 -220.22732849 976.69381986 -190.9765625 971.51953125 C-190.10680212 971.36568128 -189.23704174 971.21183131 -188.34092498 971.05331922 C-179.16489828 969.43012904 -169.98900634 967.80617825 -160.8132019 966.18173218 C-151.32822946 964.50255688 -141.842971 962.82500075 -132.35766602 961.14770508 C-81.9451148 952.2328618 -31.53489791 943.3048327 18.875 934.375 C19.80196544 934.21079433 20.72893088 934.04658867 21.68398619 933.87740707 C28.02069497 932.75489895 34.35739688 931.63235204 40.6940918 930.50976562 C41.56803278 930.35494201 42.44197376 930.2001184 43.34239781 930.04060316 C52.69490122 928.38373132 62.04735274 926.72656736 71.39967346 925.06866455 C73.84126739 924.63584752 76.28286152 924.2030316 78.72445595 923.77021742 C80.32574375 923.48636027 81.92703057 923.20249757 83.52831638 922.91862917 C93.72128116 921.11173322 103.91467056 919.30725754 114.10851097 917.50530815 C119.27408701 916.59216817 124.4395006 915.67811101 129.60486472 914.76377308 C133.02055013 914.15921435 136.4363235 913.555163 139.85232162 912.9523735 C143.53474767 912.30235663 147.21687047 911.65064823 150.89892578 910.99853516 C151.97653294 910.80878742 153.05414009 910.61903969 154.16440201 910.42354202 C155.63825174 910.16199892 155.63825174 910.16199892 157.14187622 909.89517212 C157.9897275 909.74533686 158.83757877 909.59550159 159.71112251 909.44112587 C161.83157932 909.03245902 163.91136582 908.54673399 166 908 C165.38253906 907.33355469 164.76507812 906.66710937 164.12890625 905.98046875 C159.03629025 900.4382763 154.1442881 894.80767837 149.4140625 888.94921875 C146.66138127 885.5863153 143.83818231 882.29070431 141 879 C136.70004869 874.01078981 132.49513968 868.95778077 128.34375 863.84375 C125.60697951 860.52313514 122.8089705 857.25953218 120 854 C115.70027287 849.01059233 111.49514591 843.95778844 107.34375 838.84375 C104.60697951 835.52313514 101.8089705 832.25953218 99 829 C94.70027287 824.01059233 90.49514591 818.95778844 86.34375 813.84375 C83.60697951 810.52313514 80.8089705 807.25953218 78 804 C74.44546839 799.87531796 70.93207857 795.72792288 67.5 791.5 C63.11287098 786.09923828 58.58776588 780.825323 54.05078125 775.55078125 C47.80572679 768.28968997 41.6036885 760.99446571 35.5625 753.5625 C31.60491812 748.69870975 27.53457554 743.94118769 23.44165039 739.19165039 C19.66665609 734.8019965 15.99271539 730.33885229 12.34375 725.84375 C9.60697951 722.52313514 6.8089705 719.25953218 4 716 C-0.29972713 711.01059233 -4.50485409 705.95778844 -8.65625 700.84375 C-11.39302049 697.52313514 -14.1910295 694.25953218 -17 691 C-21.29972713 686.01059233 -25.50485409 680.95778844 -29.65625 675.84375 C-32.39302049 672.52313514 -35.1910295 669.25953218 -38 666 C-42.29972713 661.01059233 -46.50485409 655.95778844 -50.65625 650.84375 C-53.39302049 647.52313514 -56.1910295 644.25953218 -59 641 C-63.29972713 636.01059233 -67.50485409 630.95778844 -71.65625 625.84375 C-74.39302138 622.52313406 -77.19106385 619.25956291 -80 616 C-84.32172863 610.98408311 -88.55479196 605.90824701 -92.73046875 600.76953125 C-97.08505794 595.45558334 -101.55078435 590.23473234 -106 585 C-111.19219022 578.89111965 -116.38123581 572.78489359 -121.4375 566.5625 C-124.89274151 562.31607618 -128.42697834 558.14703706 -132 554 C-136.31928956 548.98680512 -140.55097119 543.9146268 -144.72265625 538.77734375 C-147.28204217 535.65603433 -149.88601545 532.57556761 -152.5 529.5 C-157.4055841 523.72457726 -162.21677319 517.87726273 -167 512 C-169.35093478 509.13620206 -171.70224519 506.27271598 -174.0546875 503.41015625 C-175.01761719 502.21712891 -175.01761719 502.21712891 -176 501 C-176.60070312 500.35933594 -177.20140625 499.71867187 -177.8203125 499.05859375 C-179.54865127 496.04258536 -178.75506078 494.38397754 -178 491 C-177.05552595 487.91510298 -175.97690696 484.88369586 -174.88671875 481.84765625 C-174.56571198 480.94170715 -174.2447052 480.03575806 -173.91397095 479.10235596 C-172.84370527 476.08718384 -171.76580657 473.07480501 -170.6875 470.0625 C-169.92126063 467.91112532 -169.15523326 465.75967511 -168.3894043 463.6081543 C-161.93813617 445.51309751 -155.37786326 427.45758515 -148.79541016 409.40991211 C-144.36703847 397.26703704 -139.95354034 385.11909384 -135.578125 372.95703125 C-135.35176676 372.32791903 -135.12540852 371.6988068 -134.89219093 371.05063057 C-133.74328949 367.8574079 -132.59459734 364.66410997 -131.44595337 361.47079468 C-123.33006179 338.90921325 -115.11190312 316.38896757 -106.79373169 293.90093994 C-100.75587088 277.57091267 -94.83658219 261.20501131 -89.04257202 244.78701782 C-83.47962667 229.03513604 -77.73538351 213.35429467 -71.9375 197.6875 C-64.28122567 176.99835124 -56.75183804 156.26796816 -49.3125 135.5 C-41.8538727 114.68107662 -34.32537338 93.89050521 -26.67553711 73.14086914 C-20.69721969 56.92262115 -14.77749475 40.68345367 -8.875 24.4375 C-8.4264566 23.20305145 -7.97791321 21.96860291 -7.51577759 20.69674683 C-5.00940197 13.79823638 -2.50405488 6.89935317 0 0 Z " fill="#0089D6" transform="translate(833,78)"/>
<path d="M0 0 C-1.8587274 5.96473064 -4.05180275 11.58680139 -6.7734375 17.20703125 C-7.13335785 17.96155075 -7.4932782 18.71607025 -7.86410522 19.49345398 C-8.63219834 21.10234939 -9.40260673 22.71014126 -10.1751709 24.31689453 C-11.81031454 27.71794008 -13.43385904 31.12447711 -15.05786133 34.53085327 C-15.87812472 36.25134477 -16.69892488 37.97158046 -17.52026367 39.69155884 C-20.97903384 46.93880146 -24.37943246 54.21132659 -27.75 61.5 C-28.26425537 62.61109131 -28.77851074 63.72218262 -29.30834961 64.86694336 C-30.34324458 67.10295995 -31.37799442 69.33904372 -32.41259766 71.57519531 C-35.24246903 77.68061451 -38.09018164 83.77770425 -40.9375 89.875 C-41.52506953 91.13346148 -42.11263463 92.39192502 -42.70019531 93.65039062 C-43.87798413 96.17290216 -45.05590361 98.69535263 -46.23388672 101.21777344 C-47.99117103 104.98083466 -49.74766543 108.74426418 -51.50390625 112.5078125 C-51.93672913 113.43533325 -51.93672913 113.43533325 -52.3782959 114.3815918 C-53.25221064 116.25438829 -54.12610867 118.12719258 -55 120 C-58.21616191 126.89244953 -61.43234261 133.78488964 -64.65066528 140.67633057 C-70.61356167 153.44482504 -76.56930771 166.21650353 -82.5 179 C-88.72394973 192.41560741 -94.97611725 205.81792111 -101.23388672 219.21777344 C-103.86574346 224.85365032 -106.49580879 230.49036317 -109.12600708 236.12701416 C-110.58393113 239.25137712 -112.04197146 242.37568581 -113.5 245.5 C-114.08333389 246.74999974 -114.66666722 247.99999974 -115.25 249.25 C-116.41666667 251.75 -117.58333333 254.25 -118.75 256.75 C-119.03874496 257.36873993 -119.32748993 257.98747986 -119.62498474 258.62496948 C-120.20836671 259.87507225 -120.79175091 261.12517397 -121.37513733 262.37527466 C-122.83274481 265.49869384 -124.29031367 268.62213103 -125.74780273 271.74560547 C-128.38142338 277.38949208 -131.01532822 283.03324517 -133.65066528 288.67633057 C-139.61356167 301.44482504 -145.56930771 314.21650353 -151.5 327 C-157.72394973 340.41560741 -163.97611725 353.81792111 -170.23388672 367.21777344 C-172.86574346 372.85365032 -175.49580879 378.49036317 -178.12600708 384.12701416 C-179.58393113 387.25137712 -181.04197146 390.37568581 -182.5 393.5 C-183.08333389 394.74999974 -183.66666722 395.99999974 -184.25 397.25 C-185.41666667 399.75 -186.58333333 402.25 -187.75 404.75 C-188.03874496 405.36873993 -188.32748993 405.98747986 -188.62498474 406.62496948 C-189.20836671 407.87507225 -189.79175091 409.12517397 -190.37513733 410.37527466 C-191.83274481 413.49869384 -193.29031367 416.62213103 -194.74780273 419.74560547 C-197.38142338 425.38949208 -200.01532822 431.03324517 -202.65066528 436.67633057 C-208.61356167 449.44482504 -214.56930771 462.21650353 -220.5 475 C-226.72394973 488.41560741 -232.97611725 501.81792111 -239.23388672 515.21777344 C-241.86574346 520.85365032 -244.49580879 526.49036317 -247.12600708 532.12701416 C-248.58393113 535.25137712 -250.04197146 538.37568581 -251.5 541.5 C-252.08333389 542.74999974 -252.66666722 543.99999974 -253.25 545.25 C-254.41666667 547.75 -255.58333333 550.25 -256.75 552.75 C-257.18316277 553.67820808 -257.18316277 553.67820808 -257.62507629 554.62516785 C-258.20815086 555.87461044 -258.79122988 557.12405095 -259.37431335 558.37348938 C-260.83664245 561.50700069 -262.29889307 564.64054857 -263.76098633 567.77416992 C-266.61369359 573.88800461 -269.46757121 580.00128617 -272.32421875 586.11328125 C-277.41299316 597.00441807 -282.4940689 607.89890278 -287.54296875 618.80859375 C-287.93607742 619.65801544 -288.3291861 620.50743713 -288.73420715 621.38259888 C-289.54069749 623.12534245 -290.34718037 624.86808947 -291.15365601 626.61083984 C-297.84554673 641.07111595 -304.57367465 655.5130361 -311.37097168 669.92407227 C-316.88951921 681.62429358 -322.35360984 693.34863857 -327.79296875 705.0859375 C-331.16207923 712.35475969 -334.54815529 719.61559814 -337.9375 726.875 C-338.52856456 728.14119461 -339.11962901 729.40738927 -339.71069336 730.67358398 C-342.58174356 736.82342123 -345.45442455 742.97249441 -348.328125 749.12109375 C-349.44805678 751.51816371 -350.56784676 753.91529992 -351.6875 756.3125 C-352.10940109 757.21576019 -352.10940109 757.21576019 -352.53982544 758.13726807 C-356.22139823 766.02131107 -359.88848184 773.91195803 -363.54296875 781.80859375 C-363.93607742 782.65801544 -364.3291861 783.50743713 -364.73420715 784.38259888 C-365.54069749 786.12534245 -366.34718037 787.86808947 -367.15365601 789.61083984 C-373.84554673 804.07111595 -380.57367465 818.5130361 -387.37097168 832.92407227 C-392.88951921 844.62429358 -398.35360984 856.34863857 -403.79296875 868.0859375 C-407.16207898 875.35475913 -410.54803776 882.61565343 -413.9375 889.875 C-414.3735556 890.80898621 -414.3735556 890.80898621 -414.81842041 891.76184082 C-416.29007881 894.91389482 -417.76193013 898.06585868 -419.23388672 901.21777344 C-420.99117103 904.98083466 -422.74765871 908.74426731 -424.50390625 912.5078125 C-424.79263611 913.12652222 -425.08136597 913.74523193 -425.37884521 914.38269043 C-426.83238959 917.49752981 -428.2857282 920.61246499 -429.73876953 923.72753906 C-432.40657927 929.44633228 -435.07594216 935.1643788 -437.75222778 940.87921143 C-438.97903896 943.49920304 -440.20476191 946.11970314 -441.43041992 948.74023438 C-442.2670247 950.52783164 -443.1051485 952.31471777 -443.94335938 954.1015625 C-448.73835484 964.35574479 -453.35285607 974.67301348 -458 985 C-566.57 985 -675.14 985 -787 985 C-786.14588131 980.72940654 -785.53016966 978.80129002 -783.40234375 975.24609375 C-782.85642578 974.32376953 -782.31050781 973.40144531 -781.74804688 972.45117188 C-781.15056641 971.45666016 -780.55308594 970.46214844 -779.9375 969.4375 C-778.65366966 967.27028796 -777.37117043 965.10228697 -776.08984375 962.93359375 C-775.41808105 961.79905762 -774.74631836 960.66452148 -774.05419922 959.49560547 C-770.98204525 954.28509678 -767.99540439 949.02577508 -765.00540161 943.76785278 C-759.72356086 934.48050257 -754.39876758 925.22003823 -749 916 C-743.9681021 907.4048271 -738.99610876 898.77687778 -734.0625 890.125 C-727.03396493 877.79974804 -719.95759566 865.50277933 -712.85888672 853.21777344 C-709.73675395 847.81329355 -706.61858796 842.40652588 -703.5 837 C-702.25001878 834.8333225 -701.00001879 832.66665583 -699.75 830.5 C-699.13125 829.4275 -698.5125 828.355 -697.875 827.25 C-677.25 791.49999999 -677.25 791.49999999 -675.37524414 788.25048828 C-674.1243552 786.08223736 -672.87354148 783.91394303 -671.62280273 781.74560547 C-668.51201665 776.35282085 -665.39995762 770.96077907 -662.28515625 765.5703125 C-655.46497363 753.76370516 -648.6767674 741.93973 -641.92263794 730.09527588 C-636.76664555 721.05670572 -631.54679327 712.05722862 -626.28881836 703.07763672 C-621.80810607 695.41397748 -617.39484244 687.71305362 -613 680 C-607.48736165 670.32518781 -601.91575433 660.68717863 -596.2890625 651.078125 C-591.80833735 643.41426026 -587.39505776 635.71314165 -583 628 C-577.4593297 618.27733187 -571.86396578 608.58860003 -566.21435547 598.92871094 C-556.34368846 582.04665925 -546.61229626 565.08495049 -536.92391968 548.09783936 C-531.74014875 539.01204122 -526.49805979 529.96178959 -521.21630859 520.93261719 C-515.06207011 510.40888681 -508.97620913 499.8460408 -502.89111328 489.28222656 C-499.76319852 483.85340058 -496.63141552 478.42680719 -493.5 473 C-492.24998121 470.83334417 -490.99998122 468.6666775 -489.75 466.5 C-471 434 -471 434 -452.25 401.5 C-451.63044434 400.42580811 -451.01088867 399.35161621 -450.37255859 398.24487305 C-449.13173125 396.09469882 -447.88988163 393.94511419 -446.64697266 391.79614258 C-443.72256741 386.73703679 -440.80869367 381.672705 -437.93145752 376.5866394 C-436.57680567 374.19352786 -435.21624487 371.80380068 -433.85522461 369.41430664 C-432.90096651 367.73324375 -431.95524225 366.0473456 -431.00976562 364.36132812 C-428.10975706 359.27589875 -425.49409153 354.851069 -421 351 C-420.49807129 350.55551514 -419.99614258 350.11103027 -419.47900391 349.65307617 C-417.79361358 348.16577556 -416.087907 346.70549777 -414.375 345.25 C-413.75818359 344.72341797 -413.14136719 344.19683594 -412.50585938 343.65429688 C-408.00212743 339.82123442 -403.43536587 336.07106171 -398.84375 332.34375 C-395.52313514 329.60697951 -392.25953218 326.8089705 -389 324 C-384.01059233 319.70027287 -378.95778844 315.49514591 -373.84375 311.34375 C-370.52313514 308.60697951 -367.25953218 305.8089705 -364 303 C-359.01059233 298.70027287 -353.95778844 294.49514591 -348.84375 290.34375 C-345.52313514 287.60697951 -342.25953218 284.8089705 -339 282 C-334.01059233 277.70027287 -328.95778844 273.49514591 -323.84375 269.34375 C-320.52313406 266.60697862 -317.25956291 263.80893615 -314 261 C-308.98408311 256.67827137 -303.90824701 252.44520804 -298.76953125 248.26953125 C-293.45558334 243.91494206 -288.23473234 239.44921565 -283 235 C-276.89111965 229.80780978 -270.78489359 224.61876419 -264.5625 219.5625 C-259.69870975 215.60491812 -254.94118769 211.53457554 -250.19165039 207.44165039 C-245.8019965 203.66665609 -241.33885229 199.99271539 -236.84375 196.34375 C-233.52313406 193.60697862 -230.25956291 190.80893615 -227 188 C-221.98408311 183.67827137 -216.90824701 179.44520804 -211.76953125 175.26953125 C-206.45558334 170.91494206 -201.23473234 166.44921565 -196 162 C-189.89111965 156.80780978 -183.78489359 151.61876419 -177.5625 146.5625 C-173.31607618 143.10725849 -169.14703706 139.57302166 -165 136 C-159.98403597 131.67832458 -154.90824892 127.44520959 -149.76953125 123.26953125 C-144.45558334 118.91494206 -139.23473234 114.44921565 -134 110 C-127.89111965 104.80780978 -121.78489359 99.61876419 -115.5625 94.5625 C-111.31607618 91.10725849 -107.14703706 87.57302166 -103 84 C-97.98403597 79.67832458 -92.90824892 75.44520959 -87.76953125 71.26953125 C-82.45558334 66.91494206 -77.23473234 62.44921565 -72 58 C-64.98765442 52.0399173 -57.95039195 46.12241205 -50.8125 40.3125 C-47.68200334 37.73853608 -44.58827539 35.12430914 -41.5 32.5 C-36.65319138 28.38135042 -31.75469269 24.33399201 -26.8203125 20.3203125 C-23.64228542 17.70570296 -20.50803615 15.04314279 -17.375 12.375 C-2.79885357 0 -2.79885357 0 0 0 Z " fill="#0089D6" transform="translate(787,0)"/>
<path d="M0 0 C26.4 0 52.8 0 80 0 C89.625 24.9375 89.625 24.9375 94.30529785 37.06430054 C98.75469155 48.59270306 103.20484304 60.12081216 107.65625 71.6484375 C116.86328067 95.49294894 126.05940534 119.34156957 135.2300415 143.20010376 C141.8053171 160.30576062 148.39833695 177.40451076 155 194.5 C162.42483788 213.72716066 169.83471973 232.95998766 177.22949219 252.19873047 C183.80495578 269.30484333 190.3982376 286.40402063 197 303.5 C204.05344116 321.76631488 211.0976367 340.03613563 218.125 358.3125 C218.73942963 359.91044907 218.73942963 359.91044907 219.36627197 361.54067993 C222.65454434 370.09292412 225.94191844 378.64551352 229.22924805 387.19812012 C232.11073877 394.69474412 234.99259743 402.19122654 237.875 409.6875 C238.28445862 410.75239655 238.69391724 411.81729309 239.11578369 412.91445923 C245.73014264 430.11494019 252.36176849 447.3087198 259 464.5 C266.05335734 482.76634734 273.09763858 501.03613474 280.125 519.3125 C280.53295807 520.373479 280.94091614 521.43445801 281.36123657 522.52758789 C284.2413162 530.01820289 287.12072108 537.50907719 290 545 C292.55061634 551.63578684 295.10138404 558.2715153 297.65283203 564.90698242 C299.32545369 569.25699455 300.99688459 573.60746147 302.66748047 577.95825195 C306.76265989 588.61841171 310.87947707 599.26951875 315.03515625 609.90625 C316.22638775 612.96234979 317.41716531 616.01862608 318.6078186 619.07495117 C319.72476767 621.93538172 320.8489657 624.79289161 321.97338867 627.65039062 C322.64408299 629.3709513 323.31443245 631.09164646 323.984375 632.8125 C324.44681358 633.97730896 324.44681358 633.97730896 324.91859436 635.16564941 C326.28540162 638.6980755 327 641.1611612 327 645 C299.28 645 271.56 645 243 645 C237.37510867 631.50026081 237.37510867 631.50026081 235.19189453 625.66308594 C234.95159232 625.02247569 234.71129011 624.38186544 234.46370602 623.72184277 C233.68465455 621.64346133 232.90870537 619.56393741 232.1328125 617.484375 C231.57591475 615.99679873 231.01881662 614.50929745 230.46153259 613.02186584 C229.28712502 609.88603863 228.11407665 606.74970795 226.94216919 603.61294556 C225.10485942 598.69515259 223.26444295 593.77852586 221.42358398 588.86206055 C219.01181879 582.42004557 216.60123813 575.97758901 214.19189453 569.53466797 C210.76511967 560.37106607 207.33495686 551.20873848 203.90036011 542.04806519 C203.06707335 539.82470253 202.23477635 537.60097121 201.40258789 535.37719727 C198.31155171 527.12359943 195.19757816 518.87898713 192.06642151 510.64051819 C190.19251528 505.70938132 188.32199596 500.77696186 186.4513855 495.84457397 C185.53146791 493.42233927 184.60971848 491.00079941 183.68606567 488.57998657 C182.40222368 485.21512362 181.12436177 481.84804463 179.84765625 478.48046875 C179.45787598 477.46383148 179.0680957 476.44719421 178.66650391 475.39974976 C178.31386475 474.46627716 177.96122559 473.53280457 177.59790039 472.57104492 C177.28784561 471.75681564 176.97779083 470.94258636 176.65834045 470.10368347 C176 468 176 468 176 465 C41.36 465.495 41.36 465.495 -96 466 C-107.385 498.175 -107.385 498.175 -119 531 C-128.625 557.875 -128.625 557.875 -133.1875 570.57421875 C-136.74758806 580.48696488 -140.28470861 590.40775857 -143.8125 600.33203125 C-144.0561668 601.01738953 -144.2998336 601.7027478 -144.55088425 602.40887451 C-146.94648184 609.14709511 -149.3408709 615.88574155 -151.73173904 622.62564182 C-152.81245763 625.67131663 -153.89468053 628.71645704 -154.9765625 631.76171875 C-155.37037109 632.87352005 -155.76417969 633.98532135 -156.16992188 635.1308136 C-156.52973145 636.14298447 -156.88954102 637.15515533 -157.26025391 638.19799805 C-157.57378815 639.08182663 -157.88732239 639.96565521 -158.21035767 640.87626648 C-159 643 -159 643 -160 645 C-170.65692625 645.02313598 -181.31384655 645.04092152 -191.97079277 645.05181217 C-196.91885132 645.05703824 -201.86689273 645.06413091 -206.81494141 645.07543945 C-211.58706964 645.0862781 -216.35918136 645.09227892 -221.13132095 645.09487724 C-222.95504135 645.09672972 -224.77876082 645.10034696 -226.60247421 645.10573006 C-229.15020475 645.11295343 -231.69786639 645.11399039 -234.24560547 645.11352539 C-235.00517548 645.11712067 -235.76474548 645.12071594 -236.54733276 645.12442017 C-241.77189568 645.11405216 -241.77189568 645.11405216 -244 644 C-242.77692732 637.68895198 -240.99048857 631.85526791 -238.640625 625.87890625 C-238.30421494 625.00737411 -237.96780487 624.13584198 -237.62120056 623.23789978 C-236.88901049 621.34291536 -236.15395675 619.44903545 -235.41635132 617.55615234 C-233.79913621 613.40527626 -232.19633601 609.24887903 -230.59269714 605.09274292 C-229.73253616 602.8635826 -228.8716921 600.63468575 -228.01020813 598.40603638 C-223.47711872 586.67140142 -219.01917585 574.90858944 -214.56643677 563.14328003 C-206.84771829 542.74970323 -199.09687544 522.36860078 -191.3125 502 C-184.6509885 484.56843381 -178.00128536 467.13248991 -171.375 449.6875 C-170.79110001 448.15033829 -170.79110001 448.15033829 -170.19540405 446.5821228 C-167.46295617 439.38832733 -164.73136895 432.19420519 -162 425 C-158.87560751 416.77060254 -155.75080935 408.54135941 -152.625 400.3125 C-152.23616638 399.28885345 -151.84733276 398.26520691 -151.44671631 397.21054077 C-144.70707959 379.4702113 -137.94083573 361.74010588 -131.1675415 344.01260376 C-124.53589331 326.65504229 -117.92513435 309.28967284 -111.32998657 291.91821289 C-105.1359063 275.60444253 -98.91703215 259.30026265 -92.6875 243 C-85.43038391 224.01054622 -78.20349138 205.00985875 -71 186 C-63.36116696 165.84128398 -55.69320596 145.69395351 -47.99661255 125.55722046 C-42.18187686 110.34398315 -36.38498031 95.12415398 -30.60766602 79.89666748 C-20.49052672 53.23126139 -10.2527913 26.61362848 0 0 Z M39 81 C37.78680065 84.97995263 36.7761292 88.93155356 35.95703125 93.01171875 C35.76947266 93.93662109 35.58191406 94.86152344 35.38867188 95.81445312 C35.01509821 97.67725605 34.6499838 99.54178328 34.29492188 101.40820312 C32.38166522 110.69480771 29.16400902 119.46538308 25.94985962 128.36251831 C24.72983772 131.75016143 23.53471507 135.14630489 22.34008789 138.54296875 C13.2790241 164.28840843 3.92826381 189.92397501 -5.51423645 215.53147888 C-9.86827049 227.34502349 -14.18372303 239.1726207 -18.5 251 C-24.25853752 266.77605148 -30.0336983 282.54582128 -35.83197021 298.30731201 C-45.62278137 324.92190755 -55.34893609 351.56055462 -64.98968506 378.22991943 C-65.69813341 380.17234246 -66.41773462 382.11071695 -67.14556885 384.04595947 C-67.51277039 385.02868835 -67.87997192 386.01141724 -68.25830078 387.02392578 C-68.75923752 388.34905685 -68.75923752 388.34905685 -69.27029419 389.70095825 C-70.15126156 392.07455998 -70.15126156 392.07455998 -70 395 C3.35478233 395.91551349 76.64957407 396.49316287 150 395 C147.9805968 387.95159651 145.64160724 381.07945322 143.0703125 374.21484375 C142.68810043 373.18639343 142.30588837 372.15794312 141.91209412 371.09832764 C141.08566507 368.87554345 140.25783508 366.65327972 139.42874146 364.43148804 C137.40098785 358.99716914 135.38194291 353.55961694 133.36181068 348.12246132 C132.65516813 346.22095243 131.94813263 344.31959003 131.24101257 342.41825867 C126.32029858 329.18494324 121.43933705 315.93704111 116.5625 302.6875 C115.6872852 300.31045469 114.81204093 297.93342023 113.93676758 295.55639648 C112.61657637 291.97097803 111.29644075 288.38553916 109.97648621 284.80003357 C106.42099118 275.14204182 102.8624781 265.48516432 99.30323792 255.82855225 C95.79590018 246.31248045 92.29039239 236.7957357 88.78587341 227.27862549 C86.71609143 221.65810473 84.64550144 216.0378849 82.57275391 210.41845703 C45.09020677 108.795208 45.09020677 108.795208 40 81 C39.67 81 39.34 81 39 81 Z " fill="#0089D6" transform="translate(1806,342)"/>
<path d="M0 0 C0.9164328 0.00021149 1.8328656 0.00042297 2.77706909 0.00064087 C17.33066682 0.03405373 31.1865685 0.875689 45.375 4.375 C46.12813477 4.55160156 46.88126953 4.72820313 47.65722656 4.91015625 C76.94358528 11.94826649 103.73815193 27.63818721 125.375 48.375 C126.67630859 49.5815625 126.67630859 49.5815625 128.00390625 50.8125 C140.58194458 62.83588799 150.1648644 77.1032233 158.375 92.375 C158.7251416 93.02452637 159.0752832 93.67405273 159.43603516 94.34326172 C186.97101235 146.50301526 184.375 205.05236583 184.375 262.375 C77.125 262.375 -30.125 262.375 -140.625 262.375 C-138.62342432 288.21469201 -138.62342432 288.21469201 -133.625 313.375 C-133.43099609 314.08624023 -133.23699219 314.79748047 -133.03710938 315.53027344 C-127.97914229 333.45795676 -119.85274295 351.4687888 -108.625 366.375 C-108.05394531 367.15359375 -107.48289062 367.9321875 -106.89453125 368.734375 C-105.19034684 370.99622159 -103.42645109 373.19001417 -101.625 375.375 C-100.99464844 376.16390625 -100.36429688 376.9528125 -99.71484375 377.765625 C-79.30523467 402.02826308 -44.5270121 415.94305494 -13.625 419.375 C-7.96960598 419.76913257 -2.31454977 419.76912215 3.35180664 419.71118164 C5.80844111 419.68753906 8.26398274 419.69066351 10.72070312 419.69726562 C25.96605478 419.67175428 41.12104294 418.52211524 56 415.0625 C56.9681665 414.84231201 57.93633301 414.62212402 58.93383789 414.39526367 C61.75287668 413.74195522 64.56486234 413.06549984 67.375 412.375 C68.12990723 412.19098633 68.88481445 412.00697266 69.66259766 411.81738281 C98.64333302 404.55037107 124.55262837 389.97786312 148.51953125 372.5546875 C150.375 371.375 150.375 371.375 152.375 371.375 C152.75573861 376.37239113 153.07315624 381.37235818 153.375 386.375 C153.46560699 387.83715942 153.46560699 387.83715942 153.55804443 389.32885742 C153.96947375 396.2090687 154.25390896 403.08362986 154.43920898 409.97363281 C154.52169114 412.41641118 154.63816516 414.85826833 154.7878418 417.29785156 C155.97033462 437.08110219 155.97033462 437.08110219 151.67282104 442.53533936 C147.47197837 446.13879865 142.78940322 448.41448133 137.67262268 450.44184875 C134.77502425 451.61867279 132.0696707 453.0599812 129.32618713 454.55476379 C126.07457085 456.29744558 122.72476397 457.83190093 119.375 459.375 C118.19429932 459.92003174 118.19429932 459.92003174 116.98974609 460.47607422 C94.08911215 470.92596458 70.06775999 478.22355621 45.1875 482.125 C44.46546387 482.24069336 43.74342773 482.35638672 42.99951172 482.47558594 C27.44337661 484.71686838 11.54335257 484.5867941 -4.13671875 484.61523438 C-7.35703318 484.62494582 -10.57670883 484.65610289 -13.796875 484.6875 C-68.37697692 484.9655073 -117.38611631 464.71347535 -156.5 426.75 C-201.99191322 379.81524625 -217.06694919 312.26324771 -216.94067383 248.81689453 C-216.93750871 245.50910561 -216.9611179 242.20221115 -216.98632812 238.89453125 C-217.19084556 170.01140073 -191.27103081 103.86375971 -143.125 54.6875 C-117.20804943 29.10093549 -83.4913024 11.87516536 -48.0625 4.125 C-47.38050537 3.97377686 -46.69851074 3.82255371 -45.99584961 3.66674805 C-30.81045986 0.5766268 -15.44668125 -0.03315755 0 0 Z M-84.625 93.375 C-85.48222656 94.10976563 -86.33945313 94.84453125 -87.22265625 95.6015625 C-92.46757005 100.20569498 -97.23360303 104.95363786 -101.625 110.375 C-102.76388672 111.75751953 -102.76388672 111.75751953 -103.92578125 113.16796875 C-121.81756093 135.34319914 -139.625 169.17133338 -139.625 198.375 C-57.785 198.375 24.055 198.375 108.375 198.375 C106.53700254 157.93905578 97.5124286 118.76714063 67.0625 90.125 C24.30773539 54.11699789 -42.86978115 57.43210762 -84.625 93.375 Z " fill="#0089D6" transform="translate(3655.625,513.625)"/>
<path d="M0 0 C24.75 0 49.5 0 75 0 C75.0501123 8.69593506 75.10022461 17.39187012 75.15185547 26.35131836 C75.31380807 54.22251378 75.48510552 82.09364484 75.66223388 109.96474778 C75.68977075 114.29900783 75.71722528 118.6332684 75.74462891 122.9675293 C75.75008551 123.8303483 75.75554212 124.69316731 75.76116408 125.58213235 C75.84914747 139.52538329 75.93047184 153.46866545 76.00930522 167.41197079 C76.09043492 181.73500756 76.17879046 196.05798682 76.2737571 210.38093859 C76.33206105 219.20830108 76.38482887 228.03566014 76.43035795 236.86309791 C76.46218402 242.92868667 76.50107257 248.99420542 76.54533683 255.05971604 C76.57061471 258.55135205 76.59294975 262.04293599 76.60683823 265.53463745 C76.68608881 283.51042849 77.29205638 300.83202796 81.25 318.4375 C81.57532715 319.8918042 81.57532715 319.8918042 81.90722656 321.37548828 C88.47215493 349.79705226 101.01385529 375.86612596 126.1875 392.1875 C144.02552193 402.66942177 162.90634721 406.73261537 183.40405273 406.57641602 C185.93411507 406.56251859 188.46047861 406.59684742 190.99023438 406.63476562 C218.33972651 406.76343799 244.58957913 395.83805673 264.19140625 376.80859375 C265.11824219 375.88175781 266.04507813 374.95492188 267 374 C267.87527344 373.12472656 268.75054688 372.24945312 269.65234375 371.34765625 C280.33688583 360.13629546 287.56765396 346.96648056 294 333 C294.80244141 331.26556641 294.80244141 331.26556641 295.62109375 329.49609375 C304.46506864 308.93672356 306.90901521 288.66199612 306.78093672 266.4433291 C306.76709142 262.86491874 306.7884882 259.28667239 306.80516052 255.70829773 C306.82928907 249.53879854 306.8321056 243.36960291 306.81957626 237.20007324 C306.80149425 228.28052881 306.81690673 219.36127677 306.83995558 210.44175506 C306.87648392 195.96326258 306.88669549 181.48487994 306.87988281 167.00634766 C306.87333051 152.95910923 306.87946735 138.91196874 306.90234375 124.86474609 C306.90445973 123.56141958 306.90445973 123.56141958 306.90661846 122.23176324 C306.91377397 117.87192523 306.9211755 113.51208768 306.92869925 109.15225029 C306.99059487 73.10145287 307.0046471 37.0508623 307 1 C332.41 1 357.82 1 384 1 C384 152.47 384 303.94 384 460 C358.92 460 333.84 460 308 460 C307.67 436.9 307.34 413.8 307 390 C303.37 395.94 299.74 401.88 296 408 C292.39684277 412.47425019 288.83906622 416.75712956 285 421 C284.278125 421.84175781 283.55625 422.68351562 282.8125 423.55078125 C259.21694618 450.97139555 222.7861264 467.84562507 187 471 C180.35959177 471.3635948 173.7107046 471.34021287 167.0625 471.3125 C165.70496613 471.30976578 165.70496613 471.30976578 164.32000732 471.30697632 C121.59647516 471.16215238 81.71756021 460.9081692 50 431 C49.33484375 430.39929688 48.6696875 429.79859375 47.984375 429.1796875 C13.74789692 397.03079955 2.47511043 342.92911923 0.92911911 297.93720245 C0.78999382 292.59696724 0.73682851 287.25571728 0.68359375 281.9140625 C0.66267167 280.06467053 0.64163011 278.21527991 0.6204834 276.3658905 C0.56366956 271.21368341 0.51442623 266.0614289 0.46757126 260.90912247 C0.43733886 257.60740194 0.40540874 254.30570078 0.37332153 251.0039978 C-0.42189791 167.34092917 -0.082884 83.66565606 0 0 Z " fill="#0089D6" transform="translate(2622,527)"/>
<path d="M0 0 C117.48 0 234.96 0 356 0 C356 25.19577782 356 25.19577782 347.484375 34.86328125 C343.91391942 39.04909189 340.73911934 43.44933474 337.5625 47.9375 C336.47198909 49.44801489 335.37953412 50.95712815 334.28515625 52.46484375 C331.01866647 56.97312352 327.75878026 61.48614565 324.5 66 C323.41669638 67.50002146 322.33336304 69.00002146 321.25 70.5 C320.71375 71.2425 320.1775 71.985 319.625 72.75 C313.66666667 81 307.70833333 89.25 301.75 97.5 C301.21383057 98.24241943 300.67766113 98.98483887 300.12524414 99.74975586 C299.04121584 101.2506555 297.95706858 102.75146922 296.87280273 104.25219727 C294.17412345 107.98773967 291.47748688 111.72472254 288.78515625 115.46484375 C283.17096822 123.25915847 277.52114617 131.024536 271.8125 138.75 C266.99713071 145.26722873 262.24135527 151.82113315 257.546875 158.42578125 C254.61457267 162.54889574 251.65151724 166.64965194 248.6875 170.75 C248.13956787 171.50804932 247.59163574 172.26609863 247.02709961 173.04711914 C245.90927547 174.59333097 244.79135496 176.13947313 243.67333984 177.68554688 C240.94736861 181.45593019 238.22378466 185.22803694 235.5 189 C234.41667856 190.50000859 233.33334521 192.00000858 232.25 193.5 C231.71375 194.2425 231.1775 194.985 230.625 195.75 C216 216 201.375 236.25 186.75 256.5 C185.94574585 257.61362915 185.94574585 257.61362915 185.12524414 258.74975586 C184.04121584 260.2506555 182.95706858 261.75146922 181.87280273 263.25219727 C179.17412345 266.98773967 176.47748688 270.72472254 173.78515625 274.46484375 C168.17096822 282.25915847 162.52114617 290.024536 156.8125 297.75 C151.99713071 304.26722873 147.24135527 310.82113315 142.546875 317.42578125 C139.61457267 321.54889574 136.65151724 325.64965194 133.6875 329.75 C133.13956787 330.50804932 132.59163574 331.26609863 132.02709961 332.04711914 C130.90927547 333.59333097 129.79135496 335.13947313 128.67333984 336.68554688 C125.94736863 340.45593017 123.22375451 344.22801519 120.5 348 C117.2160604 352.54775578 113.93154955 357.09509374 110.64453125 361.640625 C105.56341147 368.6683835 100.48613093 375.69885012 95.4375 382.75 C94.67308594 383.81734375 93.90867187 384.8846875 93.12109375 385.984375 C91.0313361 388.9554485 89.01489567 391.9776565 87 395 C174.78 395.33 262.56 395.66 353 396 C353 417.12 353 438.24 353 460 C228.26 460 103.52 460 -25 460 C-25 431.3647541 -25 431.3647541 -16.55078125 422.09765625 C-12.76159704 417.78495944 -9.42404799 413.21170932 -6.0625 408.5625 C-4.87935194 406.95964591 -3.69445649 405.35808017 -2.5078125 403.7578125 C0.8797579 399.17308856 4.22863159 394.56137795 7.5625 389.9375 C8.09552734 389.19822266 8.62855469 388.45894531 9.17773438 387.69726562 C10.78587553 385.46536063 12.39311858 383.23281209 14 381 C21.20122344 370.9936743 28.44255899 361.02060494 35.76928711 351.10571289 C39.71407041 345.76164384 43.61962408 340.39098455 47.5 335 C51.96020953 328.80345586 56.46259635 322.64023977 61 316.5 C67.73553059 307.38251634 74.37863637 298.20059231 81 289 C88.20063208 278.99449602 95.44250786 269.02311522 102.76708984 259.10791016 C108.90919634 250.78497251 114.95790683 242.39567785 121 234 C128.20063208 223.99449602 135.44250786 214.02311522 142.76708984 204.10791016 C148.90919634 195.78497251 154.95790683 187.39567785 161 179 C168.20063208 168.99449602 175.44250786 159.02311522 182.76708984 149.10791016 C188.90919634 140.78497251 194.95790683 132.39567785 201 124 C208.19326031 114.00473932 215.42598512 104.04223166 222.74511719 94.13867188 C227.4837147 87.71966416 232.16616591 81.26139815 236.82617188 74.78515625 C237.33083984 74.08390625 237.83550781 73.38265625 238.35546875 72.66015625 C239.01518677 71.74182007 239.01518677 71.74182007 239.68823242 70.80493164 C241.10561997 68.8546718 242.55175856 66.92741983 244 65 C218.58731632 63.87749555 193.17878022 63.78804654 167.74535608 63.69667697 C161.82777197 63.67447766 155.91021076 63.64725863 149.99264526 63.62062073 C138.83762731 63.57114429 127.68259634 63.52604267 116.52755344 63.48259836 C103.80640743 63.43283531 91.08528442 63.37806493 78.36416078 63.32291877 C52.24279445 63.20979233 26.12140649 63.1034689 0 63 C0 42.21 0 21.42 0 0 Z " fill="#0089D6" transform="translate(2183,527)"/>
<path d="M0 0 C2.3959796 0.00314116 4.79069717 -0.02030815 7.18652344 -0.0456543 C20.40870493 -0.09984774 32.56268462 1.67761274 45.29589844 5.31567383 C45.29589844 31.05567383 45.29589844 56.79567383 45.29589844 83.31567383 C40.79273518 82.41504118 37.44134439 81.02682814 33.42089844 79.00317383 C10.94281498 68.10589271 -16.53122563 67.00468332 -40.09521484 75.1574707 C-52.40571054 79.66652905 -62.75215152 85.90325197 -72.70410156 94.31567383 C-73.36925781 94.87770508 -74.03441406 95.43973633 -74.71972656 96.01879883 C-102.71198614 121.91817918 -117.62450695 170.66050477 -119.26548767 207.75968933 C-119.30665142 208.66545564 -119.34781517 209.57122195 -119.3902263 210.50443572 C-119.86463184 221.88258815 -119.88087271 233.26266751 -119.90942383 244.64892578 C-119.91902926 247.11504775 -119.92904077 249.58116816 -119.93942261 252.04728699 C-119.96067965 257.30984647 -119.97917704 262.57240751 -119.99502754 267.83498573 C-120.01794838 275.44335823 -120.04605751 283.05170497 -120.07534682 290.6600553 C-120.1227544 303.01050063 -120.16608932 315.36095665 -120.20678711 327.71142578 C-120.24627994 339.69353055 -120.28773807 351.67562592 -120.33178711 363.65771484 C-120.33451138 364.39894654 -120.33723565 365.14017825 -120.34004248 365.90387151 C-120.35372422 369.62320612 -120.36744404 373.34254059 -120.38118279 377.06187499 C-120.49472488 407.81312173 -120.60155638 438.56438835 -120.70410156 469.31567383 C-130.33522868 469.33879848 -139.9663463 469.35658953 -149.59749508 469.367486 C-154.06915705 469.37271456 -158.5408001 469.37981172 -163.01245117 469.39111328 C-167.32422129 469.40194312 -171.63597315 469.40795087 -175.94775581 469.41055107 C-177.59646454 469.41240515 -179.24517222 469.41602543 -180.89387321 469.42140388 C-183.19514028 469.42861561 -185.49633096 469.42966472 -187.79760742 469.42919922 C-189.10998886 469.43141983 -190.4223703 469.43364044 -191.77452087 469.43592834 C-194.70410156 469.31567383 -194.70410156 469.31567383 -195.70410156 468.31567383 C-195.80288875 465.87593479 -195.83588592 463.46450818 -195.82714939 461.02425289 C-195.82830324 460.24813553 -195.82945708 459.47201816 -195.83064589 458.67238209 C-195.83331981 456.03823529 -195.82878407 453.40414805 -195.82435608 450.77000427 C-195.82479162 448.8758577 -195.82566622 446.98171119 -195.82694525 445.087565 C-195.82919351 439.85649436 -195.82516441 434.62544398 -195.82016718 429.39437592 C-195.8158676 423.76312071 -195.81730876 418.13186674 -195.81806946 412.50061035 C-195.81859501 402.73540918 -195.81544499 392.97021467 -195.80983162 383.20501518 C-195.80172079 369.08599855 -195.79910183 354.96698515 -195.79784363 340.84796644 C-195.79565245 317.94340127 -195.78899915 295.03884043 -195.77954102 272.13427734 C-195.77036134 249.87841816 -195.7632754 227.62255992 -195.7590332 205.36669922 C-195.75883591 204.33823901 -195.75883591 204.33823901 -195.75863464 203.28900183 C-195.75731616 196.40372089 -195.75604034 189.51843995 -195.75479578 182.633159 C-195.74434905 124.86066138 -195.72642003 67.088168 -195.70410156 9.31567383 C-170.95410156 9.31567383 -146.20410156 9.31567383 -120.70410156 9.31567383 C-120.37410156 39.01567383 -120.04410156 68.71567383 -119.70410156 99.31567383 C-117.06410156 92.71567383 -114.42410156 86.11567383 -111.70410156 79.31567383 C-103.35460436 62.37812237 -93.2864082 48.31193046 -80.70410156 34.31567383 C-79.70830078 33.19225586 -79.70830078 33.19225586 -78.69238281 32.04614258 C-58.21426881 10.23539643 -29.36084043 -0.08013978 0 0 Z " fill="#0089D6" transform="translate(3348.7041015625,517.684326171875)"/>
</svg>
