<?xml version="1.0" encoding="UTF-8"?>
<svg version="1.1" xmlns="http://www.w3.org/2000/svg" width="3000" height="2000">
<path d="M0 0 C2.85756519 2.54580113 4.56810527 5.42672368 6.484375 8.72265625 C6.98269081 9.57552216 6.98269081 9.57552216 7.49107361 10.44561768 C8.5819099 12.3153161 9.66599695 14.18883292 10.75 16.0625 C11.51371918 17.37480244 12.27780283 18.68689283 13.04223633 19.9987793 C15.36853531 23.99511972 17.68556644 27.99677874 20 32 C20.34343445 32.59385498 20.6868689 33.18770996 21.04071045 33.79956055 C23.87963882 38.7095574 26.7143253 43.62198651 29.54394531 48.53735352 C33.67107841 55.70625151 37.82588384 62.85836646 42 70 C48.74718659 81.54719215 55.43339396 93.12902163 62.10888672 104.71777344 C65.23680146 110.14659938 68.36853731 115.57322007 71.5 121 C75.26363919 127.52233275 79.02644622 134.04513762 82.78515625 140.5703125 C88.83055159 151.06232094 94.89110219 161.54481676 101 172 C107.74701194 183.54729516 114.43339318 195.12902027 121.10888672 206.71777344 C124.23680148 212.14659942 127.36858448 217.57319281 130.5 223 C131.75001879 225.16665583 133.00001878 227.3333225 134.25 229.5 C134.86875 230.5725 135.4875 231.645 136.125 232.75 C198 340 259.875 447.25 323.6262207 557.75219727 C324.8720577 559.91159395 326.11798818 562.07093669 327.36401367 564.23022461 C330.55348953 569.75767597 333.74116885 575.28615121 336.92578125 580.81640625 C338.22131657 583.06512583 339.51688896 585.31382405 340.8125 587.5625 C341.43326416 588.64080078 342.05402832 589.71910156 342.69360352 590.83007812 C345.4911637 595.68241733 348.30120151 600.52569306 351.1640625 605.33984375 C351.63739014 606.13640381 352.11071777 606.93296387 352.59838867 607.75366211 C353.4642552 609.2061394 354.33395536 610.65634118 355.20825195 612.10375977 C358 616.78197057 358 616.78197057 358 619 C139.21 619 -79.58 619 -305 619 C-302.30637896 616.30637896 -300.2837377 616.3189314 -296.53604126 615.66386414 C-295.86212459 615.5438122 -295.18820793 615.42376027 -294.49386954 615.30007041 C-292.21674868 614.89644773 -289.9377918 614.50433942 -287.65869141 614.11206055 C-286.01960139 613.82394981 -284.38063561 613.53513147 -282.74178505 613.24566174 C-278.23276705 612.45131217 -273.72206439 611.66691961 -269.21104145 610.88404799 C-264.37849708 610.04355724 -259.547586 609.19377972 -254.7164917 608.34500122 C-246.38435256 606.88236253 -238.05124953 605.42532817 -229.71746826 603.97207642 C-216.60270986 601.68500297 -203.48991475 599.386803 -190.37744141 597.08666992 C-185.93979993 596.30836256 -181.50214486 595.53013269 -177.06448364 594.75193787 C-175.96096003 594.55841541 -174.85743642 594.36489296 -173.72047269 594.16550618 C-165.83347301 592.78253486 -157.94620033 591.40112745 -150.05880737 590.020401 C-108.78205863 582.79418501 -67.5156584 575.51005884 -26.25252879 568.20652598 C-18.48753883 566.83221873 -10.72229996 565.45932138 -2.95702171 564.08664417 C2.73790954 563.07993316 8.4327579 562.07275366 14.12758243 561.06543916 C17.96071641 560.38744182 21.79388243 559.70962692 25.62713242 559.03228569 C39.39651912 556.5990847 53.16503635 554.16262963 66.92089844 551.65380859 C67.87049376 551.48109656 68.82008907 551.30838453 69.79846001 551.1304388 C73.96611008 550.37222184 78.13281822 549.60967588 82.29751587 548.83540344 C83.67405705 548.58367795 85.05063117 548.33213245 86.42724609 548.08081055 C87.56906342 547.86909714 88.71088074 547.65738373 89.88729858 547.43925476 C92.97035611 547.00418325 95.89104259 546.91888928 99 547 C93.76540117 540.55045724 88.46571027 534.16570266 83.08642578 527.83691406 C80.20634374 524.44256746 77.36883235 521.01839933 74.5625 517.5625 C70.15086945 512.14429421 65.60676358 506.8472915 61.05078125 501.55078125 C54.80572679 494.28968997 48.6036885 486.99446571 42.5625 479.5625 C38.60491812 474.69870975 34.53457554 469.94118769 30.44165039 465.19165039 C26.66665609 460.8019965 22.99271539 456.33885229 19.34375 451.84375 C16.60697951 448.52313514 13.8089705 445.25953218 11 442 C6.70027287 437.01059233 2.49514591 431.95778844 -1.65625 426.84375 C-4.39302049 423.52313514 -7.1910295 420.25953218 -10 417 C-14.29972713 412.01059233 -18.50485409 406.95778844 -22.65625 401.84375 C-25.39302049 398.52313514 -28.1910295 395.25953218 -31 392 C-35.29972713 387.01059233 -39.50485409 381.95778844 -43.65625 376.84375 C-46.39302049 373.52313514 -49.1910295 370.25953218 -52 367 C-56.29972713 362.01059233 -60.50485409 356.95778844 -64.65625 351.84375 C-67.39302138 348.52313406 -70.19106385 345.25956291 -73 342 C-77.31934272 336.98685227 -81.55097277 331.91462485 -85.72265625 326.77734375 C-87.82062859 324.21875313 -89.94456377 321.68634497 -92.08666992 319.16479492 C-93.02309935 318.06175255 -93.95689468 316.95646812 -94.88793945 315.84887695 C-97.12909858 313.18434805 -99.39252927 310.55326866 -101.734375 307.9765625 C-102.56453125 307.03554688 -103.3946875 306.09453125 -104.25 305.125 C-104.99765625 304.30257813 -105.7453125 303.48015625 -106.515625 302.6328125 C-108.48194492 299.14518191 -107.88525551 296.73714035 -107 293 C-105.89607166 289.42758148 -104.60551813 285.93303619 -103.30078125 282.4296875 C-102.91847351 281.38568787 -102.53616577 280.34168823 -102.14227295 279.26605225 C-100.87176856 275.80010003 -99.59198164 272.33764712 -98.3125 268.875 C-96.70885718 264.50726739 -95.10860898 260.13829317 -93.50828362 255.76934433 C-92.79024281 253.81002776 -92.07130475 251.85104231 -91.35218811 249.89212036 C-88.04215274 240.87150499 -84.76640538 231.8390042 -81.515625 222.796875 C-81.17885113 221.86027448 -81.17885113 221.86027448 -80.83527374 220.90475273 C-79.69967539 217.74619209 -78.56454254 214.58746434 -77.42956543 211.42868042 C-69.30208868 188.8118547 -61.06093212 166.24021946 -52.72634888 143.6987915 C-46.92896008 128.01535591 -41.21788673 112.30601967 -35.63015747 96.54675293 C-27.4035969 73.36142247 -18.83646004 50.29990926 -10.30078125 27.22705078 C-8.8139357 23.20643727 -7.33187942 19.18412483 -5.85546875 15.15966797 C-5.52901367 14.27041122 -5.20255859 13.38115448 -4.86621094 12.46495056 C-4.26561043 10.82791354 -3.66593767 9.19053572 -3.06738281 7.55274963 C-1.1106775 2.221355 -1.1106775 2.221355 0 0 Z " fill="#0089D6" transform="translate(847,714)"/>
<path d="M0 0 C1.32435335 3.97306006 0.31389226 5.06818631 -1.47265625 8.80078125 C-2.03533203 9.98994141 -2.59800781 11.17910156 -3.17773438 12.40429688 C-3.80591243 13.70706846 -4.43416987 15.00980176 -5.0625 16.3125 C-5.70611657 17.66552214 -6.34867871 19.01904631 -6.99023438 20.37304688 C-8.32549706 23.18898214 -9.66529853 26.00268963 -11.00830078 28.81494141 C-13.75530662 34.57583164 -16.44712788 40.36224786 -19.13873291 46.14916992 C-20.59640306 49.2816474 -22.05813715 52.41222734 -23.51953125 55.54296875 C-23.80938904 56.16412567 -24.09924683 56.78528259 -24.39788818 57.42526245 C-26.37185989 61.65529044 -28.34772302 65.88443188 -30.32421875 70.11328125 C-35.41299316 81.00441807 -40.4940689 91.89890278 -45.54296875 102.80859375 C-45.93607742 103.65801544 -46.3291861 104.50743713 -46.73420715 105.38259888 C-47.54069749 107.12534245 -48.34718037 108.86808947 -49.15365601 110.61083984 C-55.84554673 125.07111595 -62.57367465 139.5130361 -69.37097168 153.92407227 C-74.88951921 165.62429358 -80.35360984 177.34863857 -85.79296875 189.0859375 C-89.1620791 196.35475941 -92.54809505 203.61562647 -95.9375 210.875 C-96.2278714 211.4969928 -96.5182428 212.1189856 -96.81741333 212.75982666 C-99.17290748 217.80536553 -101.52911694 222.85057025 -103.88537598 227.89575195 C-105.94475663 232.30534292 -108.00385047 236.71506765 -110.0625 241.125 C-110.35277069 241.74679138 -110.64304138 242.36858276 -110.94210815 243.00921631 C-115.13921143 252.00098744 -119.32388312 260.99845805 -123.5 270 C-129.72394973 283.41560741 -135.97611725 296.81792111 -142.23388672 310.21777344 C-144.86574346 315.85365032 -147.49580879 321.49036317 -150.12600708 327.12701416 C-151.58393113 330.25137712 -153.04197146 333.37568581 -154.5 336.5 C-155.08333389 337.74999974 -155.66666722 338.99999974 -156.25 340.25 C-157.41666667 342.75 -158.58333333 345.25 -159.75 347.75 C-160.03877518 348.36880539 -160.32755035 348.98761078 -160.62507629 349.62516785 C-161.20815086 350.87461044 -161.79122988 352.12405095 -162.37431335 353.37348938 C-163.83664245 356.50700069 -165.29889307 359.64054857 -166.76098633 362.77416992 C-169.61369359 368.88800461 -172.46757121 375.00128617 -175.32421875 381.11328125 C-180.41299316 392.00441807 -185.4940689 402.89890278 -190.54296875 413.80859375 C-190.93607742 414.65801544 -191.3291861 415.50743713 -191.73420715 416.38259888 C-192.54069749 418.12534245 -193.34718037 419.86808947 -194.15365601 421.61083984 C-200.84554673 436.07111595 -207.57367465 450.5130361 -214.37097168 464.92407227 C-219.88951921 476.62429358 -225.35360984 488.34863857 -230.79296875 500.0859375 C-234.16207923 507.35475968 -237.54815238 514.6155995 -240.9375 521.875 C-241.37255859 522.80699219 -241.37255859 522.80699219 -241.81640625 523.7578125 C-244.76936248 530.08370095 -247.72362862 536.40897635 -250.67939758 542.73355103 C-251.87546839 545.29310135 -253.07107584 547.85286798 -254.26663208 550.41265869 C-255.07044693 552.13322886 -255.87492117 553.85349093 -256.67944336 555.57373047 C-262.49686008 568.0292111 -268.23896114 580.51774913 -274 593 C-339.34 593 -404.68 593 -472 593 C-471.05123696 589.20494784 -469.86386013 586.68752029 -467.97265625 583.30078125 C-467.35068359 582.1830835 -466.72871094 581.06538574 -466.08789062 579.91381836 C-465.41302431 578.71323053 -464.73788811 577.51279437 -464.0625 576.3125 C-463.37027728 575.0750437 -462.67822106 573.83749424 -461.98632812 572.59985352 C-457.63305245 564.82899392 -453.18779536 557.1175416 -448.63671875 549.4609375 C-445.31124241 543.85754227 -442.06500976 538.20845208 -438.8125 532.5625 C-438.17368896 531.45366455 -437.53487793 530.3448291 -436.87670898 529.20239258 C-435.56805043 526.93042274 -434.25953927 524.65836799 -432.95117188 522.38623047 C-431.05830863 519.10119378 -429.16257293 515.81783564 -427.265625 512.53515625 C-420.45120675 500.74069428 -413.67012849 488.92808761 -406.92263794 477.09527588 C-401.76583392 468.05528292 -396.54456231 459.05474679 -391.28662109 450.07324219 C-386.83083656 442.45094222 -382.43602854 434.79468689 -378.0625 427.125 C-371.03396493 414.79974804 -363.95759566 402.50277933 -356.85888672 390.21777344 C-353.73675395 384.81329355 -350.61858796 379.40652588 -347.5 374 C-346.25001878 371.8333225 -345.00001879 369.66665583 -343.75 367.5 C-342.821875 365.89125 -342.821875 365.89125 -341.875 364.25 C-325 335 -308.125 305.75 -291.25 276.5 C-290.63084717 275.4267749 -290.01169434 274.3535498 -289.3737793 273.24780273 C-288.1279423 271.08840605 -286.88201182 268.92906331 -285.63598633 266.76977539 C-281.79398524 260.11147946 -277.95530396 253.45128601 -274.12011719 246.7890625 C-272.84355809 244.57524197 -271.56431051 242.36296928 -270.28222656 240.15234375 C-267.54890722 235.43942545 -264.83301553 230.72370724 -262.22265625 225.94140625 C-257.26934601 216.9670045 -252.17081868 210.42403326 -244 204 C-242.20811 202.52110389 -240.416444 201.04193634 -238.625 199.5625 C-237.7175 198.82902344 -236.81 198.09554687 -235.875 197.33984375 C-232.75975403 194.80447373 -229.68751009 192.22356266 -226.625 189.625 C-226.08262695 189.16504639 -225.54025391 188.70509277 -224.98144531 188.23120117 C-223.32034728 186.82152451 -221.66003294 185.4109307 -220 184 C-213.89111965 178.80780978 -207.78489359 173.61876419 -201.5625 168.5625 C-196.69870975 164.60491812 -191.94118769 160.53457554 -187.19165039 156.44165039 C-182.8019965 152.66665609 -178.33885229 148.99271539 -173.84375 145.34375 C-170.52313406 142.60697862 -167.25956291 139.80893615 -164 137 C-158.98408311 132.67827137 -153.90824701 128.44520804 -148.76953125 124.26953125 C-143.45558334 119.91494206 -138.23473234 115.44921565 -133 111 C-125.98485196 105.03753537 -118.94352709 99.11922061 -111.8046875 93.3046875 C-106.48387304 88.93243049 -101.24733664 84.45992856 -96 80 C-89.89111965 74.80780978 -83.78489359 69.61876419 -77.5625 64.5625 C-73.31607618 61.10725849 -69.14703706 57.57302166 -65 54 C-59.98680512 49.68071044 -54.9146268 45.44902881 -49.77734375 41.27734375 C-46.65603733 38.71796028 -43.57546576 36.11410084 -40.5 33.5 C-36.55349519 30.14552873 -32.58357928 26.82778171 -28.5625 23.5625 C-24.26901174 20.0712986 -20.06307079 16.49092691 -15.875 12.875 C-10.70705762 8.41487927 -5.4597909 4.10206512 0 0 Z " fill="#0089D6" transform="translate(818,667)"/>
<path d="M0 0 C16.17 0 32.34 0 49 0 C53.269375 11.1065625 53.269375 11.1065625 57.625 22.4375 C65.06908506 41.79718349 72.52806723 61.15104471 80 80.5 C87.42485238 99.72715506 94.83471973 118.95998768 102.22949219 138.19873047 C108.80495578 155.30484333 115.3982376 172.40402063 122 189.5 C129.05344116 207.76631488 136.0976367 226.03613563 143.125 244.3125 C143.53461975 245.37779938 143.9442395 246.44309875 144.36627197 247.54067993 C147.65454434 256.09292412 150.94191844 264.64551352 154.22924805 273.19812012 C164.26619066 299.31070984 174.31274458 325.4195519 184.38455963 351.51871109 C185.12036147 353.42547965 185.85605938 355.33228829 186.59173584 357.23910522 C187.95923877 360.78323891 189.32718956 364.32719936 190.6953125 367.87109375 C191.10267639 368.92689636 191.51004028 369.98269897 191.92974854 371.07049561 C192.30629578 372.0455304 192.68284302 373.02056519 193.07080078 374.02514648 C193.3968631 374.86979965 193.72292542 375.71445282 194.05886841 376.58470154 C194.71074264 378.25765657 195.40082508 379.91603361 196.12057495 381.56092834 C197 384 197 384 197 388 C180.17 388 163.34 388 146 388 C144.28554687 383.44832031 142.57109375 378.89664062 140.8046875 374.20703125 C139.69062092 371.24974513 138.57653654 368.29246573 137.46240234 365.33520508 C135.66731024 360.57044541 133.87234612 355.80563767 132.07794189 351.0406189 C123.64345159 328.63534268 123.64345159 328.63534268 115.15625 306.25 C114.81836456 305.36140793 114.48047913 304.47281586 114.13235474 303.55729675 C112.6455383 299.64770512 111.15564692 295.73934677 109.65966797 291.83325195 C109.15579207 290.5099788 108.65203866 289.18665899 108.1484375 287.86328125 C107.72739746 286.76282471 107.30635742 285.66236816 106.87255859 284.52856445 C106 282 106 282 106 280 C52.21 280.33 -1.58 280.66 -57 281 C-64.26 301.46 -71.52 321.92 -79 343 C-84.33193079 358.00049861 -89.66468075 373.00070625 -95 388 C-111.83 388 -128.66 388 -146 388 C-147 386 -147 386 -146.54025269 384.23139954 C-146.12563278 383.15453133 -146.12563278 383.15453133 -145.70263672 382.0559082 C-145.2323127 380.81747917 -145.2323127 380.81747917 -144.75248718 379.55403137 C-144.39846329 378.64545883 -144.04443939 377.73688629 -143.6796875 376.80078125 C-143.31410233 375.84455368 -142.94851715 374.88832611 -142.57185364 373.90312195 C-141.34666268 370.70347727 -140.11072546 367.5080894 -138.875 364.3125 C-138.00680426 362.05042332 -137.13938638 359.78804797 -136.27270508 357.52539062 C-134.44516182 352.7571738 -132.61355728 347.99054646 -130.77880859 343.22509766 C-126.82631542 332.95529675 -122.9050067 322.67360795 -118.98223877 312.39242554 C-117.67308217 308.96222295 -116.36280278 305.53245109 -115.05224609 302.1027832 C-108.67537962 285.41172739 -102.33137376 268.70835912 -96 252 C-88.36079054 231.84029061 -80.69182463 211.69221131 -72.99560547 191.55419922 C-66.81290015 175.37608196 -60.64722147 159.19163287 -54.5 143 C-47.41650856 124.34269032 -40.30627474 105.69572283 -33.18310547 87.05352783 C-25.80842592 67.75194399 -18.45904457 48.44084768 -11.12695312 29.12304688 C-10.75135254 28.13370148 -10.37575195 27.14435608 -9.98876953 26.12503052 C-9.30132749 24.31415795 -8.61412494 22.50319442 -7.92724609 20.69210815 C-5.30579694 13.78643464 -2.65168637 6.89438457 0 0 Z M23 51 C22.77940918 52.09924805 22.55881836 53.19849609 22.33154297 54.33105469 C20.05376004 65.31588357 16.95124049 75.715545 13.125 86.25 C12.54534561 87.87034966 11.96642657 89.49096253 11.38818359 91.11181641 C9.61008127 96.08112239 7.80910567 101.04190712 6 106 C5.5968457 107.10510925 5.5968457 107.10510925 5.18554688 108.23254395 C2.78760315 114.79825368 0.37325357 121.35785976 -2.05517578 127.91235352 C-5.94710863 138.41725968 -9.80871313 148.93294509 -13.6484375 159.45703125 C-13.89782955 160.14054153 -14.1472216 160.82405182 -14.40417099 161.52827454 C-16.91673452 168.41511738 -19.42760205 175.30257788 -21.93751335 182.19038773 C-22.8858736 184.7925027 -23.8347452 187.39443104 -24.78371811 189.99632263 C-25.2489143 191.27218599 -25.71387447 192.54813544 -26.17859268 193.82417297 C-28.73241759 200.83613816 -31.30684166 207.83949164 -33.92773438 214.82666016 C-34.39914042 216.0865208 -34.87051551 217.34639302 -35.34185791 218.60627747 C-36.22928019 220.97401345 -37.12080773 223.34021608 -38.01702881 225.70463562 C-38.41005188 226.75383682 -38.80307495 227.80303802 -39.20800781 228.8840332 C-39.72902069 230.26302544 -39.72902069 230.26302544 -40.26055908 231.6698761 C-41.15123736 234.0691392 -41.15123736 234.0691392 -41 237 C-26.75940761 237.99331072 -12.57214225 238.14752118 1.69921875 238.1328125 C4.03326935 238.13348786 6.36731988 238.13445981 8.70137024 238.13571167 C13.55474528 238.13717451 18.40810175 238.13507785 23.26147461 238.13037109 C29.47288055 238.12463941 35.68424359 238.12798337 41.895648 238.13394356 C46.69892195 238.13755766 51.50218572 238.13640727 56.30545998 238.13381577 C58.59673887 238.13315066 60.8880187 238.1339603 63.17929649 238.13629532 C66.37305534 238.13883963 69.56674439 238.1349577 72.76049805 238.12939453 C73.69823059 238.13141876 74.63596313 238.13344299 75.60211182 238.13552856 C80.50942106 238.11972321 85.16172974 237.83216132 90 237 C87.99574091 230.04370852 85.71717744 223.23461683 83.21875 216.44140625 C82.85322021 215.44085205 82.48769043 214.44029785 82.11108398 213.40942383 C80.91040394 210.12600342 79.70530335 206.84422578 78.5 203.5625 C77.64767991 201.23498368 76.79546829 198.90742763 75.94335938 196.57983398 C70.57314507 181.92735237 65.13624564 167.30052522 59.6675415 152.68457031 C52.98885126 134.8253846 46.36318686 116.94706377 39.87670898 99.01705933 C39.05768215 96.75664831 38.23538255 94.49741978 37.40942383 92.23953247 C32.43996635 78.6409465 28.18109389 65.13022651 25 51 C24.34 51 23.68 51 23 51 Z " fill="#0089D6" transform="translate(1431,873)"/>
<path d="M0 0 C13.17700543 12.10230043 22.45402532 28.08072751 28 45 C28.33572021 46.01151123 28.33572021 46.01151123 28.67822266 47.04345703 C37.539764 74.42391442 36 101.24064447 36 130 C-28.35 130 -92.7 130 -159 130 C-156.8170698 152.92076707 -153.51200802 173.18690568 -140 192 C-139.40574219 192.85207031 -138.81148437 193.70414063 -138.19921875 194.58203125 C-125.75287592 211.35753681 -105.70278015 220.10690875 -85.6171875 223.5859375 C-51.2731231 227.51733148 -14.38276862 217.69512658 12.92578125 196.46875 C15 195 15 195 17 195 C17.22300529 200.87132905 17.3860246 206.74018051 17.49438477 212.61474609 C17.53956174 214.61127669 17.60092086 216.60751086 17.67895508 218.60302734 C18.30905102 235.13377975 18.30905102 235.13377975 15.22241211 239.53417969 C12.85618714 241.1411597 10.70142907 242.08115389 8 243 C6.71728075 243.68898182 5.44416349 244.39628294 4.18359375 245.125 C2.9394009 245.75892085 1.69056068 246.38379354 0.4375 247 C-0.24376953 247.33612305 -0.92503906 247.67224609 -1.62695312 248.01855469 C-20.89233675 257.33281041 -41.88927808 263.25182312 -63.37109375 263.37109375 C-64.41411148 263.38012222 -65.45712921 263.3891507 -66.53175354 263.39845276 C-68.72581157 263.41285348 -70.91991154 263.42181637 -73.11401367 263.42553711 C-76.39904986 263.4373616 -79.6821592 263.48659165 -82.96679688 263.53710938 C-103.17511156 263.69237218 -120.90374494 259.98753739 -139 251 C-139.969375 250.53980469 -140.93875 250.07960938 -141.9375 249.60546875 C-168.32294355 236.29769417 -187.07899059 210.94024 -196.62109375 183.4375 C-211.12300789 138.67116716 -210.26324207 85.68869381 -188.9375 43.25 C-187.66090462 40.81078546 -186.33765687 38.40724081 -185 36 C-184.42507812 34.92621094 -183.85015625 33.85242187 -183.2578125 32.74609375 C-173.05689824 14.34214013 -157.21254284 -1.5319994 -139 -12 C-138.37544922 -12.36174316 -137.75089844 -12.72348633 -137.10742188 -13.09619141 C-94.21871628 -37.41078835 -36.87135322 -33.3799646 0 0 Z M-134.94140625 37.22265625 C-147.25633537 51.77069816 -158 71.59262188 -158 91 C-109.16 91 -60.32 91 -10 91 C-10.54773373 77.4198433 -10.54773373 77.4198433 -13.0625 64.4375 C-13.38686035 63.26380859 -13.38686035 63.26380859 -13.71777344 62.06640625 C-18.8297782 44.63623277 -28.17486926 29.5410089 -44 20 C-74.73592008 3.53170869 -111.98123842 11.42237354 -134.94140625 37.22265625 Z " fill="#0089D6" transform="translate(2618,1004)"/>
<path d="M0 0 C14.85 0 29.7 0 45 0 C45.03963867 5.35323486 45.07927734 10.70646973 45.12011719 16.22192383 C45.25423533 33.95572351 45.40931588 51.68929482 45.57505417 69.42282581 C45.67498379 80.16927808 45.76787091 90.91570229 45.84375 101.66235352 C45.90996144 111.037192 45.98982368 120.41180176 46.08558011 129.78638667 C46.13574442 134.74286702 46.1794108 139.69919928 46.20668793 144.65586281 C46.23266601 149.33707301 46.2771216 154.01777035 46.33476639 158.69869423 C46.35265903 160.40157972 46.36423642 162.10454748 46.36842728 163.80752182 C46.4317457 185.66145688 50.4112219 208.95115344 65 226 C65.55429688 226.66515625 66.10859375 227.3303125 66.6796875 228.015625 C75.52381819 237.7484004 90.25117741 243.40160224 103.23217773 244.12426758 C124.73461791 244.80511143 142.7559594 241.10809371 159 226 C171.94210184 213.63310269 182.01295834 193.19683184 183.26171303 175.2357254 C183.26724379 173.93046654 183.27277454 172.62520767 183.2784729 171.28039551 C183.2871615 170.17983393 183.2871615 170.17983393 183.29602563 169.05703878 C183.31290154 166.62196444 183.31589132 164.18708102 183.31884766 161.75195312 C183.32815442 159.99709617 183.3383242 158.24224362 183.34928894 156.48739624 C183.37651863 151.7400968 183.39171747 146.99282692 183.40471697 142.24547005 C183.42037833 137.27799222 183.44715895 132.31057447 183.4727478 127.34313965 C183.51948243 117.94403101 183.55625225 108.54491099 183.58942068 99.14574575 C183.62767965 88.44197819 183.67707992 77.73827106 183.72740483 67.03455448 C183.83064563 45.02307544 183.91846093 23.01157087 184 1 C199.51 1 215.02 1 231 1 C231 92.08 231 183.16 231 277 C215.82 277 200.64 277 185 277 C184.67 263.47 184.34 249.94 184 236 C180.535 241.445 180.535 241.445 177 247 C174.18830095 250.52375271 171.11276432 253.74141248 168 257 C167.45988281 257.61488281 166.91976562 258.22976563 166.36328125 258.86328125 C152.84011024 273.68086158 130.48295818 282.55562076 110.7265625 283.91015625 C79.88600612 284.92639235 51.34257654 280.00198231 27.875 258.375 C2.9575582 232.28317057 -0.1916215 194.08008126 -0.11352539 159.95727539 C-0.11324257 158.2013906 -0.1134031 156.44550569 -0.1139679 154.68962097 C-0.11425217 149.97164083 -0.10841572 145.25368665 -0.10139394 140.53571248 C-0.09509836 135.58699634 -0.09455173 130.63827946 -0.09336853 125.68955994 C-0.09027338 116.34023844 -0.0820847 106.99092878 -0.07201904 97.64161247 C-0.06080121 86.98850641 -0.05533323 76.33539975 -0.05032361 65.68228924 C-0.03990038 43.78818477 -0.02157773 21.89409651 0 0 Z " fill="#0089D5" transform="translate(1922,984)"/>
<path d="M0 0 C70.62 0 141.24 0 214 0 C214 16.81761006 214 16.81761006 209.75 21.375 C208.82000426 22.43773286 207.89442653 23.50434363 206.97265625 24.57421875 C206.4842627 25.12384277 205.99586914 25.6734668 205.49267578 26.23974609 C202.82415448 29.38662843 200.52984298 32.79508784 198.1875 36.1875 C197.16914978 37.64275425 196.14960185 39.09717105 195.12890625 40.55078125 C194.61473145 41.28377441 194.10055664 42.01676758 193.57080078 42.77197266 C185.87716754 53.68463926 177.95617231 64.43472008 170.0222168 75.1730957 C165.8073457 80.88491391 161.65931543 86.64000299 157.546875 92.42578125 C154.61457267 96.54889574 151.65151724 100.64965194 148.6875 104.75 C148.13956787 105.50804932 147.59163574 106.26609863 147.02709961 107.04711914 C145.90927547 108.59333097 144.79135496 110.13947313 143.67333984 111.68554688 C140.94736861 115.45593019 138.22378466 119.22803694 135.5 123 C134.41667856 124.50000859 133.33334521 126.00000858 132.25 127.5 C131.71375 128.2425 131.1775 128.985 130.625 129.75 C116 150 101.375 170.25 86.75 190.5 C85.9453833 191.61411255 85.9453833 191.61411255 85.12451172 192.75073242 C84.04287732 194.24834254 82.96117177 195.74590126 81.87939453 197.2434082 C79.14447705 201.02955187 76.41086281 204.81662455 73.6796875 208.60546875 C72.84920898 209.75692383 72.84920898 209.75692383 72.00195312 210.93164062 C70.9767307 212.35316752 69.95193157 213.77499988 68.92773438 215.19726562 C63.66146872 222.49710923 58.32360319 229.7405411 53 237 C105.47 237.33 157.94 237.66 212 238 C212 250.87 212 263.74 212 277 C137.09 277 62.18 277 -15 277 C-15 258.66164463 -15 258.66164463 -9.3125 252.125 C-8.10833713 250.60629109 -6.90524183 249.0867352 -5.703125 247.56640625 C-5.08501953 246.81117676 -4.46691406 246.05594727 -3.83007812 245.27783203 C-0.91669078 241.65164421 1.74700041 237.85514693 4.4375 234.0625 C9.49469214 227.03857953 14.6244828 220.06940004 19.76708984 213.10791016 C25.90919634 204.78497251 31.95790683 196.39567785 38 188 C45.20063208 177.99449602 52.44250786 168.02311522 59.76708984 158.10791016 C65.90919634 149.78497251 71.95790683 141.39567785 78 133 C85.20063208 122.99449602 92.44250786 113.02311522 99.76708984 103.10791016 C105.90919634 94.78497251 111.95790683 86.39567785 118 78 C120.14463236 75.01996611 122.29027062 72.04066327 124.4375 69.0625 C124.96255127 68.33409912 125.48760254 67.60569824 126.02856445 66.85522461 C130.83285436 60.20419688 135.70263355 53.60199149 140.59545898 47.01586914 C141.43765991 45.87879517 141.43765991 45.87879517 142.296875 44.71875 C142.79541992 44.04779297 143.29396484 43.37683594 143.80761719 42.68554688 C145.06133735 41.00353626 145.06133735 41.00353626 146 39 C145.43928802 39.00222061 144.87857605 39.00444122 144.3008728 39.00672913 C109.27891565 39.13770669 74.26927185 38.92876011 39.25 38.5 C38.27298882 38.48804218 37.29597763 38.47608437 36.28936005 38.46376419 C24.19282364 38.31516282 12.09641611 38.15841892 0 38 C0 25.46 0 12.92 0 0 Z " fill="#0089D6" transform="translate(1658,984)"/>
<path d="M0 0 C1.29744141 -0.01160156 2.59488281 -0.02320313 3.93164062 -0.03515625 C5.20330078 -0.03128906 6.47496094 -0.02742187 7.78515625 -0.0234375 C8.91961182 -0.02005371 10.05406738 -0.01666992 11.22290039 -0.01318359 C14.9375 0.375 14.9375 0.375 24.9375 3.375 C24.9375 18.885 24.9375 34.395 24.9375 50.375 C15.9375 47.375 15.9375 47.375 13.20703125 46.20703125 C0.74960936 41.03789435 -15.72537173 41.42196903 -28.31640625 46.12109375 C-42.41310095 52.55784908 -51.75573119 61.73773212 -59.0625 75.375 C-59.66964844 76.50679687 -60.27679687 77.63859375 -60.90234375 78.8046875 C-75.02846599 107.05693198 -74.20422215 137.0109605 -74.36582303 167.78313231 C-74.38799288 171.82429882 -74.41522692 175.86543146 -74.44187927 179.90657043 C-74.49139411 187.52743513 -74.5364822 195.14831905 -74.57990164 202.76922065 C-74.62963093 211.45875657 -74.68441431 220.14825845 -74.73958123 228.83776128 C-74.85276695 246.68347707 -74.95907226 264.5292248 -75.0625 282.375 C-89.9125 282.375 -104.7625 282.375 -120.0625 282.375 C-120.0625 190.965 -120.0625 99.555 -120.0625 5.375 C-105.2125 5.375 -90.3625 5.375 -75.0625 5.375 C-74.7325 22.535 -74.4025 39.695 -74.0625 57.375 C-70.5975 49.455 -70.5975 49.455 -67.0625 41.375 C-55.72740669 22.48317782 -40.0915645 6.69885784 -18.24047852 0.97485352 C-12.18988773 -0.16721467 -6.13754995 -0.05504529 0 0 Z " fill="#0089D6" transform="translate(2361.0625,978.625)"/>
</svg>
