<?xml version="1.0" encoding="UTF-8"?>
<svg version="1.1" xmlns="http://www.w3.org/2000/svg" width="1500" height="645">
<path d="M0 0 C4.49994472 -0.05845252 8.99979063 -0.09374855 13.5 -0.125 C14.7684375 -0.14175781 16.036875 -0.15851563 17.34375 -0.17578125 C27.60319503 -0.22921586 35.75677167 0.13838709 43.59765625 7.5 C51.00540674 15.36277201 51.45325615 24.30952615 51.51171875 34.69140625 C51.52966995 35.87725815 51.54762115 37.06311005 51.56611633 38.28489685 C51.61996769 42.04406256 51.65403499 45.80310311 51.6875 49.5625 C51.7206952 52.12306419 51.75518687 54.68361193 51.79101562 57.24414062 C51.87567976 63.49598146 51.9441356 69.74783901 52 76 C52.54124512 75.51702957 53.08249023 75.03405914 53.64013672 74.53645325 C54.71158936 73.58798775 54.71158936 73.58798775 55.8046875 72.62036133 C56.86405518 71.67934319 56.86405518 71.67934319 57.94482422 70.71931458 C60.46739756 68.60898555 63.04096983 67.1147496 66 65.6875 C67.423125 64.98173828 67.423125 64.98173828 68.875 64.26171875 C76.66785235 61.11535461 83.66985333 60.64329149 92 60.6875 C93.10778809 60.69313965 94.21557617 60.6987793 95.35693359 60.70458984 C120.02656547 61.06732573 142.20215627 69.72351367 159.63623047 87.546875 C179.40991518 108.61615022 184.72698167 137.97691416 184 166 C182.82540763 192.24128305 176.90905846 216.01144043 157.3125 234.625 C137.7027925 251.62607668 110.93373514 260.71936366 85 259 C59.12023975 256.69957687 35.13704989 246.01528027 18 226 C2.66590604 205.64919629 -0.17052352 181.67313446 -0.11352539 157.00561523 C-0.11324297 155.29002382 -0.11340232 153.57443229 -0.1139679 151.85884094 C-0.11425374 147.22314741 -0.10839152 142.58747997 -0.10139394 137.95179248 C-0.09512485 133.09913438 -0.09455379 128.24647561 -0.09336853 123.39381409 C-0.09026568 114.21428935 -0.08206642 105.03477657 -0.07201904 95.85525709 C-0.06082538 85.40059355 -0.05533926 74.94592942 -0.05032361 64.49126136 C-0.03988291 42.99416757 -0.02230377 21.49708454 0 0 Z M60.8125 115.1875 C49.00357757 129.85238465 47.79413541 151.65173775 49.30859375 169.671875 C51.14485053 185.59693379 55.75853507 200.50059834 68.3359375 211.12109375 C72.29603108 213.91406298 76.36919345 215.6351307 81 217 C81.91265625 217.28617188 81.91265625 217.28617188 82.84375 217.578125 C92.61302291 219.48950448 103.83568867 218.79496691 112.3984375 213.5234375 C124.90274334 204.42562029 130.55056514 190.74657361 133.40234375 175.90625 C136.11946437 156.55141817 134.62609633 132.97189159 123.125 116.625 C117.05596349 109.18155064 109.61053522 103.78097331 100 102 C84.25348719 100.992091 72.03072589 103.2859304 60.8125 115.1875 Z " fill="#DE4C0C" transform="translate(1217,125)"/>
<path d="M0 0 C4.49994472 -0.05845252 8.99979063 -0.09374855 13.5 -0.125 C14.7684375 -0.14175781 16.036875 -0.15851563 17.34375 -0.17578125 C27.16127348 -0.22691418 36.33840225 0.1598519 44 7 C48.70826187 13.30151318 51.07940527 18.66009993 51.20532227 26.50292969 C51.2352401 28.15418854 51.2352401 28.15418854 51.26576233 29.83880615 C51.28247482 31.02121887 51.29918732 32.20363159 51.31640625 33.421875 C51.33718735 34.63699768 51.35796844 35.85212036 51.37937927 37.10406494 C51.44476828 40.98598573 51.50371051 44.8679742 51.5625 48.75 C51.60569532 51.38151742 51.64930994 54.01302799 51.69335938 56.64453125 C51.80043883 63.0962826 51.90222514 69.54810129 52 76 C52.8213166 75.27112579 52.8213166 75.27112579 53.65922546 74.52752686 C54.37842667 73.89292542 55.09762787 73.25832397 55.83862305 72.60449219 C56.90743965 71.65905548 56.90743965 71.65905548 57.99784851 70.69451904 C67.58832825 62.57762547 80.52237284 60.45272588 92.6875 60.625 C93.73478271 60.63515137 94.78206543 60.64530273 95.86108398 60.65576172 C119.02762623 61.11492803 138.42414098 68.89667708 156 84 C156.61617187 84.51949219 157.23234375 85.03898437 157.8671875 85.57421875 C166.54266092 93.51007807 172.82267779 105.12964482 177 116 C177.35707031 116.92296875 177.71414063 117.8459375 178.08203125 118.796875 C188.08014439 147.70527704 186.85066007 184.00133505 174.5390625 212.0234375 C167.75124264 225.15115002 158.38814609 235.03101714 146 243 C145.11828125 243.5878125 144.2365625 244.175625 143.328125 244.78125 C132.26188953 251.75114416 118.97221046 256.23834179 106 258 C105.19691406 258.10957031 104.39382813 258.21914063 103.56640625 258.33203125 C77.56723347 261.37405615 52.7432334 254.82471932 32 238.9375 C29.96989243 237.32314299 27.98460785 235.6713946 26 234 C25.32453125 233.43925781 24.6490625 232.87851562 23.953125 232.30078125 C6.84542483 216.72335701 1.30335922 192.08575406 0 170 C-0.13387979 164.34353992 -0.12700832 158.68996009 -0.11352539 153.03222656 C-0.11324274 151.35560101 -0.11340277 149.67897533 -0.1139679 148.00234985 C-0.11425283 143.48666451 -0.1084055 138.97100615 -0.10139394 134.45532703 C-0.09510954 129.72280327 -0.0945526 124.99027876 -0.09336853 120.25775146 C-0.09027014 111.31207185 -0.08207699 102.36640456 -0.07201904 93.42073035 C-0.0608114 83.22959566 -0.05533577 73.03846036 -0.05032361 62.84732103 C-0.03989302 41.89820716 -0.02232267 20.94910436 0 0 Z M60.8125 115.1875 C47.62952065 131.63040087 48.75160235 155.15826183 50 175 C51.59522908 188.59346862 58.03332672 202.84912486 68.87109375 211.4921875 C79.32427284 218.60119058 91.90433961 219.70757079 104.12109375 217.4140625 C114.96974796 214.05944319 122.238362 206.01969556 127.53125 196.2578125 C137.08442385 175.06805987 136.96603284 147.26852662 128.8125 125.5625 C124.72519705 116.65364806 118.95493806 109.24453712 110 105 C109.07380859 104.52433594 109.07380859 104.52433594 108.12890625 104.0390625 C91.7030362 97.05886821 72.61165038 102.66961965 60.8125 115.1875 Z " fill="#202390" transform="translate(282,125)"/>
<path d="M0 0 C1.28519531 -0.01160156 2.57039062 -0.02320313 3.89453125 -0.03515625 C28.16258845 0.03801377 51.16638715 8.09251875 68.5 25.375 C91.09163541 50.70817028 92.5 78.78513098 92.5 112.375 C47.95 112.375 3.4 112.375 -42.5 112.375 C-39.05334326 132.53245079 -39.05334326 132.53245079 -26.6640625 147.984375 C-14.07338652 156.07513429 -0.57463032 158.4663465 14.140625 155.6875 C22.43348029 153.3732148 28.09632563 149.77867437 34.125 143.75 C37.88683316 139.98816684 42.07716284 136.57392908 47.56913757 136.25474548 C48.75827507 136.2580764 48.75827507 136.2580764 49.97143555 136.26147461 C51.32249641 136.26158791 51.32249641 136.26158791 52.70085144 136.26170349 C53.66968765 136.26686478 54.63852386 136.27202606 55.63671875 136.27734375 C57.12858452 136.27946617 57.12858452 136.27946617 58.65058899 136.28163147 C61.82958982 136.28723239 65.00852043 136.29978504 68.1875 136.3125 C70.34179586 136.31751488 72.49609282 136.32207781 74.65039062 136.32617188 C79.93361774 136.33720212 85.21680385 136.35394114 90.5 136.375 C90.19661958 137.97392607 89.88869245 139.57198987 89.57885742 141.16967773 C89.40787033 142.05968979 89.23688324 142.94970184 89.06071472 143.86668396 C87.055897 152.83508851 81.36543411 160.51119412 75.5 167.375 C74.89414062 168.12523437 74.28828125 168.87546875 73.6640625 169.6484375 C58.41006838 187.89096925 35.60712148 195.88054993 12.5546875 198.0625 C-17.69497156 200.55381493 -45.30337029 191.73430882 -68.765625 172.51953125 C-86.22739216 156.39833283 -92.47893721 131.77255605 -93.6262207 108.85351562 C-94.47427782 80.96185919 -90.72026997 50.12865071 -70.9375 28.75 C-69.16009525 26.91573046 -67.34258408 25.14586674 -65.5 23.375 C-64.84515625 22.71242187 -64.1903125 22.04984375 -63.515625 21.3671875 C-46.60925518 5.25556156 -22.62424809 -0.20423093 0 0 Z M-31.5 54.375 C-37.22456343 62.09650416 -39.93393936 69.97863618 -41.5 79.375 C-14.44 79.375 12.62 79.375 40.5 79.375 C39.08410732 66.6319659 35.61243973 57.35795028 25.64453125 48.98046875 C8.36023265 36.04085723 -17.35371203 38.28706466 -31.5 54.375 Z " fill="#70166C" transform="translate(829.5,185.625)"/>
<path d="M0 0 C9.8878003 9.17644776 14.20179259 22.06271922 14.71569061 35.25721645 C14.80720863 39.63972127 14.80328778 44.01913943 14.78125 48.40234375 C14.7839528 50.31938371 14.78784173 52.23642231 14.79284668 54.15345764 C14.79870612 58.14988396 14.79029549 62.14594994 14.77148438 66.14233398 C14.74871267 71.22337309 14.76182958 76.30356586 14.78577423 81.38457394 C14.80034237 85.3372669 14.79557594 89.28976469 14.78526306 93.24246407 C14.78262527 95.11405097 14.78575962 96.98565655 14.79518127 98.8572216 C14.85176054 113.25132159 13.42420753 126.48316032 6.6875 139.5 C6.35234375 140.15798584 6.0171875 140.81597168 5.671875 141.49389648 C1.92914512 148.46000181 -3.08994125 153.86145375 -8.75 159.3125 C-9.73419922 160.32570313 -9.73419922 160.32570313 -10.73828125 161.359375 C-26.084124 176.21231059 -50.54211949 180.49678219 -71.08251953 180.39746094 C-94.51424481 179.65114569 -118.17248855 172.41974396 -134.75 155.3125 C-135.62398437 154.45205078 -135.62398437 154.45205078 -136.515625 153.57421875 C-144.98243347 144.6156512 -148.0527716 132.54886041 -147.7265625 120.49951172 C-146.95923479 104.9205458 -141.69143086 91.07851015 -130.1640625 80.21875 C-111.36748247 65.37614311 -87.73902361 61.72984097 -64.67163086 58.79467773 C-50.78396515 56.98295577 -50.78396515 56.98295577 -38.75 50.3125 C-35.97934286 45.86611895 -36.24384888 41.39007946 -36.75 36.3125 C-38.12917874 32.17496379 -39.88538096 29.44665173 -43.70703125 27.19140625 C-56.14724395 21.8394983 -71.12658304 21.40750661 -83.75 26.3125 C-89.36724194 29.56725571 -92.60060498 34.26159649 -94.75 40.3125 C-95.41 42.9525 -96.07 45.5925 -96.75 48.3125 C-112.92 48.3125 -129.09 48.3125 -145.75 48.3125 C-144.26033628 28.94687162 -139.80694122 13.12664142 -125.34765625 -0.50390625 C-94.17755313 -26.70554181 -31.90540067 -24.47249414 0 0 Z M-40.29296875 86.1015625 C-44.56546079 88.02203036 -48.84872366 89.11721989 -53.42578125 90.0234375 C-54.12162323 90.1612262 -54.81746521 90.29901489 -55.53439331 90.440979 C-58.43361112 91.00487232 -61.33537596 91.55347243 -64.23999023 92.08886719 C-80.93904362 94.99215021 -80.93904362 94.99215021 -93.9375 105 C-97.72061878 111.91397571 -98.10380218 120.24541184 -96.06640625 127.87109375 C-93.49854256 133.50760783 -89.64575878 135.93356725 -84.125 138.5625 C-72.19053227 141.21460394 -60.89066082 138.36700803 -50.3125 132.5625 C-41.72350698 126.99917497 -38.33930339 119.45347962 -36.1796875 109.75 C-35.56195805 104.80816441 -35.64577895 99.91193293 -35.6875 94.9375 C-35.69201172 93.91527344 -35.69652344 92.89304687 -35.70117188 91.83984375 C-35.712897 89.33066806 -35.72930824 86.8216151 -35.75 84.3125 C-37.26273386 84.23737448 -37.26273386 84.23737448 -40.29296875 86.1015625 Z " fill="#E43F20" transform="translate(1184.75,203.6875)"/>
<path d="M0 0 C4.65887791 -0.14974142 9.31631778 -0.25785683 13.97705078 -0.32958984 C15.55802853 -0.35952895 17.13884354 -0.40029705 18.71923828 -0.45263672 C28.55228895 -0.7698319 36.13062878 -0.75622762 44 6 C46.25390625 8.4140625 46.25390625 8.4140625 47.5625 10.625 C48.24505859 11.72714844 48.24505859 11.72714844 48.94140625 12.8515625 C51.33463695 17.70867278 51.15714485 22.57256968 51.17358398 27.89257812 C51.180271 28.79072235 51.18695801 29.68886658 51.19384766 30.61422729 C51.20788931 32.5643224 51.21978618 34.51443386 51.22979546 36.46455383 C51.24624593 39.55988432 51.26948951 42.65509536 51.29469299 45.75036621 C51.3653287 54.55128988 51.42533848 63.35226415 51.47680664 72.15332031 C51.50878299 77.5396681 51.55011175 82.92588096 51.59700203 88.31211853 C51.61291946 90.35641528 51.62528776 92.40074308 51.63390923 94.44508362 C51.35714106 118.15209091 51.35714106 118.15209091 61.6328125 138.9453125 C68.35586812 145.1680477 77.34920837 148.41187438 86.4375 148.27734375 C94.49949274 147.40478051 102.30861176 143.77875604 108 138 C119.26805656 123.88932008 117.46945092 105.5750862 117.51171875 88.57421875 C117.52858527 86.01446176 117.54673814 83.45471296 117.56611633 80.89497375 C117.60859106 74.87824076 117.63822624 68.86158087 117.66143972 62.84475404 C117.68863307 55.98597958 117.7325348 49.12734241 117.77772844 42.26866663 C117.87019925 28.179186 117.94205041 14.08966194 118 0 C122.65887791 -0.14974142 127.31631778 -0.25785683 131.97705078 -0.32958984 C133.55802853 -0.35952895 135.13884354 -0.40029705 136.71923828 -0.45263672 C146.54582144 -0.76962327 154.14077357 -0.7626089 162 6 C164.25390625 8.44921875 164.25390625 8.44921875 165.5625 10.6875 C166.01753906 11.43386719 166.47257813 12.18023437 166.94140625 12.94921875 C169.28256119 17.48466651 169.15450845 21.70661661 169.16113281 26.68383789 C169.16609772 27.57219833 169.17106262 28.46055878 169.17617798 29.37583923 C169.1908165 32.32478611 169.19760959 35.27367894 169.203125 38.22265625 C169.20888149 40.28275045 169.21463916 42.34284465 169.22039795 44.40293884 C169.23091712 48.73485564 169.23675168 53.06675386 169.24023438 57.39868164 C169.24567669 62.90217729 169.26960832 68.40542018 169.29820633 73.90883732 C169.31701305 78.17387048 169.32204811 82.43884546 169.32357025 86.70391655 C169.32656427 88.72933754 169.3344802 90.75475832 169.34775543 92.78013802 C169.44379468 108.57967608 168.59297014 124.25604928 163.3125 139.3125 C162.93121948 140.41948242 162.93121948 140.41948242 162.54223633 141.54882812 C155.10615112 162.07874431 139.73041366 176.16555776 120.4375 185.4375 C113.48298384 188.64192466 106.5853424 190.79630682 99 192 C97.78763672 192.19335938 97.78763672 192.19335938 96.55078125 192.390625 C74.70500613 195.28814491 51.99196207 189.95172058 34.14453125 176.9140625 C31.7200545 174.98737344 29.35483212 173.01072813 27 171 C26.17371094 170.37351562 25.34742188 169.74703125 24.49609375 169.1015625 C7.42923753 154.7322845 2.01372644 130.1861816 0 109 C-0.47669584 100.40915495 -0.35255533 91.80335689 -0.29296875 83.203125 C-0.28735758 80.78790554 -0.2830947 78.37268262 -0.28010559 75.9574585 C-0.26877645 69.67102243 -0.23941515 63.38480194 -0.20599365 57.09844971 C-0.17503221 50.65550653 -0.16154512 44.21252774 -0.14648438 37.76953125 C-0.11453144 25.17959675 -0.06407924 12.58980996 0 0 Z " fill="#2F1A85" transform="translate(551,191)"/>
<path d="M0 0 C4.29153445 -0.08807085 8.58283224 -0.14074921 12.875 -0.1875 C14.07898438 -0.21263672 15.28296875 -0.23777344 16.5234375 -0.26367188 C26.92820208 -0.34849333 35.57970095 0.66147747 43.30859375 8.03125 C48.71128287 14.31983041 50.13204659 20.83700582 50.09765625 28.953125 C50.0962413 29.61334656 50.09482635 30.27356812 50.09336853 30.95379639 C50.08779245 33.05257794 50.07524447 35.15125095 50.0625 37.25 C50.0574819 38.67708179 50.05291954 40.10416525 50.04882812 41.53125 C50.03783088 45.02086832 50.0205828 48.51042356 50 52 C50.90274658 51.97933472 50.90274658 51.97933472 51.82373047 51.95825195 C52.62182129 51.94753662 53.41991211 51.93682129 54.2421875 51.92578125 C55.02964355 51.91200439 55.81709961 51.89822754 56.62841797 51.8840332 C63.05602987 52.19833376 69.46149462 55.50566498 74 60 C80.57553466 69.49799451 80 75.58035919 80 88 C70.1 88 60.2 88 50 88 C50.08543459 101.88207937 50.17914991 115.76403454 50.28752708 129.64595413 C50.33751576 136.09158416 50.38384569 142.53719759 50.421875 148.98291016 C50.45869513 155.20103078 50.50504638 161.41901341 50.55806351 167.6370163 C50.57662483 170.01169163 50.59172632 172.38639657 50.60334396 174.76111603 C50.62017646 178.08209933 50.64920476 181.40276538 50.68115234 184.72363281 C50.68331253 185.70978073 50.68547272 186.69592865 50.68769836 187.71195984 C50.69886185 188.61777298 50.71002533 189.52358612 50.7215271 190.45684814 C50.72705786 191.24221577 50.73258862 192.02758339 50.73828697 192.83675003 C51.03884263 195.32106279 51.63411997 196.90540431 53 199 C58.65781818 201.30476168 64.3892283 201.41525634 70.4375 201.625 C75.1709375 201.810625 75.1709375 201.810625 80 202 C80 214.21 80 226.42 80 239 C25.29619313 243.20798514 25.29619313 243.20798514 8.9140625 229.21875 C-1.43568827 218.56331039 -0.558951 205.11095684 -0.45410156 191.2902832 C-0.45297188 189.20001752 -0.4536093 187.10975024 -0.45587158 185.01948547 C-0.45701494 179.37141599 -0.43356685 173.72368923 -0.40557575 168.07569909 C-0.38049894 162.16337354 -0.37821515 156.25103935 -0.37347412 150.33866882 C-0.36106279 139.15459726 -0.32826608 127.97068288 -0.28807616 116.7866804 C-0.2433011 104.04908405 -0.22135698 91.31148003 -0.20129442 78.57382452 C-0.15953187 52.38246268 -0.08921564 26.19124017 0 0 Z " fill="#C32F3A" transform="translate(940,140)"/>
<path d="M0 0 C35.8997093 0 35.8997093 0 44.30859375 8.03515625 C50.56240626 15.29997771 51.15084933 23.08913326 51.12025452 32.29499817 C51.12110894 33.23440378 51.12196337 34.1738094 51.12284368 35.14168185 C51.12449138 38.29084438 51.11898869 41.4399537 51.11352539 44.58911133 C51.11324334 46.84597777 51.1134016 49.1028443 51.1139679 51.35971069 C51.11425517 57.48939243 51.10836966 63.61905466 51.10139394 69.74873185 C51.09514883 76.15358777 51.09455568 82.55844412 51.09336853 88.96330261 C51.09061212 99.71439008 51.08436303 110.465469 51.07543945 121.21655273 C51.06625831 132.28946904 51.05918091 143.36238339 51.05493164 154.43530273 C51.05466892 155.1180111 51.05440619 155.80071947 51.05413551 156.50411598 C51.05283046 159.92911511 51.05156675 163.35411426 51.05032361 166.77911341 C51.03995945 195.18608161 51.02152569 223.59303794 51 252 C34.17 252 17.34 252 0 252 C0 168.84 0 85.68 0 0 Z " fill="#22218D" transform="translate(483,125)"/>
<path d="M0 0 C1.6933475 0.01507142 3.38670794 0.02875549 5.08007812 0.04101562 C9.19954222 0.07383296 13.3183763 0.12547937 17.4375 0.1875 C15.13817914 8.43304991 12.19798685 16.39745147 9.16015625 24.39453125 C8.63604417 25.78184437 8.11223807 27.16927312 7.5887146 28.55680847 C6.18719097 32.26892509 4.78157928 35.97948115 3.37519455 39.6897583 C1.90070898 43.58194211 0.43013265 47.47560226 -1.04077148 51.36914062 C-3.42087638 57.66816716 -5.802962 63.96644082 -8.18652344 70.26416016 C-11.17371897 78.15725989 -14.15503501 86.0525603 -17.1328125 93.94921875 C-17.55663208 95.07310501 -17.98045166 96.19699127 -18.41711426 97.35493469 C-19.24680136 99.55516979 -20.07647293 101.75541075 -20.90612793 103.95565796 C-28.03703426 122.86327217 -35.17681293 141.76755608 -42.32226562 160.66967773 C-45.54188501 169.18725718 -48.75894544 177.70577237 -51.96641541 186.22793579 C-53.4861553 190.26538154 -55.00738929 194.30226366 -56.52871704 198.33911133 C-57.24248819 200.23434132 -57.95555754 202.12983582 -58.66781616 204.02563477 C-60.6200675 209.22159693 -62.58469708 214.41250379 -64.57092285 219.59558105 C-65.2537147 221.38035507 -65.93295357 223.16649106 -66.60925293 224.95373535 C-67.65094039 227.69908931 -68.70830484 230.43792963 -69.76953125 233.17578125 C-70.23783104 234.42126488 -70.23783104 234.42126488 -70.71559143 235.69190979 C-73.21095028 242.05296363 -76.41651673 246.82938543 -82.5625 250.1875 C-87.71564971 252.32192913 -92.20336455 252.45157429 -97.6796875 252.3828125 C-98.53684357 252.3799826 -99.39399963 252.37715271 -100.27713013 252.37423706 C-102.99739932 252.36309999 -105.71733141 252.3380076 -108.4375 252.3125 C-110.28905772 252.30246182 -112.14062064 252.29333744 -113.9921875 252.28515625 C-118.5157536 252.26318188 -123.03906977 252.228697 -127.5625 252.1875 C-121.72866079 235.0564677 -115.33192853 218.14359332 -108.92641068 201.22082901 C-107.46012363 197.34541013 -105.99657918 193.46895598 -104.53295898 189.5925293 C-103.9459716 188.03794749 -103.35898125 186.4833668 -102.77198792 184.92878723 C-102.48341982 184.16453745 -102.19485172 183.40028767 -101.89753914 182.6128788 C-101.03206922 180.32110683 -100.16627822 178.0294564 -99.30039978 175.73783875 C-95.3424148 165.26163831 -91.40303915 154.77861698 -87.480896 144.28894043 C-81.07311191 127.15247044 -74.58031407 110.04890303 -68.06030273 92.95483398 C-63.85417198 81.91644103 -59.68743699 70.86448767 -55.58301926 59.7878952 C-54.86319202 57.84623354 -54.14221825 55.90500182 -53.42080688 53.96392822 C-53.18465857 53.32848209 -52.94851025 52.69303596 -52.70520592 52.03833389 C-52.23130263 50.76317883 -51.75735595 49.4880399 -51.28336525 48.21291733 C-50.12650362 45.09869281 -48.97440555 41.98286933 -47.82806396 38.86474609 C-46.55200522 35.39387571 -45.26526902 31.92712794 -43.9765625 28.4609375 C-43.60335876 27.43608246 -43.23015503 26.41122742 -42.84564209 25.35531616 C-38.95318667 14.94806332 -34.41336542 6.36210867 -23.98828125 1.53125 C-16.30522055 -0.90336795 -7.9629854 -0.12351133 0 0 Z " fill="#20238F" transform="translate(228.5625,124.8125)"/>
<path d="M0 0 C4.29 0 8.58 0 13 0 C18.28 10.23 23.56 20.46 29 31 C31.89146884 28.10853116 33.23316375 25.93984672 35.06640625 22.34375 C35.63423828 21.23902344 36.20207031 20.13429688 36.78710938 18.99609375 C37.37298828 17.84238281 37.95886719 16.68867188 38.5625 15.5 C39.72899835 13.21799777 40.89690345 10.93671394 42.06640625 8.65625 C42.58146729 7.64369141 43.09652832 6.63113281 43.62719727 5.58789062 C45 3 45 3 47 0 C50.96 0 54.92 0 59 0 C59 21.12 59 42.24 59 64 C55.7 64 52.4 64 49 64 C48.67 48.49 48.34 32.98 48 17 C46.30875 20.238125 44.6175 23.47625 42.875 26.8125 C38.98608115 34.24748446 35.07211674 41.6633171 31 49 C30.01 49 29.02 49 28 49 C27.41605469 47.79730469 27.41605469 47.79730469 26.8203125 46.5703125 C21.85833532 36.48629435 16.47968186 26.86342734 11 17 C10.67 32.51 10.34 48.02 10 64 C6.7 64 3.4 64 0 64 C0 42.88 0 21.76 0 0 Z " fill="#000000" transform="translate(498,439)"/>
<path d="M0 0 C5.32125 -0.061875 10.6425 -0.12375 16.125 -0.1875 C18.62731201 -0.22846802 18.62731201 -0.22846802 21.18017578 -0.27026367 C22.51854735 -0.27903444 23.85692698 -0.28667698 25.1953125 -0.29296875 C25.877146 -0.30831665 26.55897949 -0.32366455 27.26147461 -0.33947754 C31.92288002 -0.34200268 35.03631069 0.56437019 39 3 C42.88448797 7.10029286 44.74070608 10.70957035 45.375 16.3125 C44.9180095 20.80623989 43.55851666 24.27774332 41 28 C40.01 28.66 39.02 29.32 38 30 C38.48210937 30.37511719 38.96421875 30.75023437 39.4609375 31.13671875 C43.90284935 34.73557386 46.5343618 37.15663705 47.24609375 43.03125 C47.57466795 48.84601767 46.38861283 53.24350676 43 58 C39.28801524 61.90582208 36.02505485 63.93358837 30.53833008 64.11352539 C29.11538733 64.11327615 27.69243798 64.10778398 26.26953125 64.09765625 C25.60417358 64.09664917 24.93881592 64.09564209 24.2532959 64.09460449 C21.77301301 64.08938106 19.29275474 64.07541978 16.8125 64.0625 C11.264375 64.041875 5.71625 64.02125 0 64 C0 42.88 0 21.76 0 0 Z M10 8 C10 14.27 10 20.54 10 27 C13.25049988 27.08096264 16.49898234 27.14048115 19.75 27.1875 C20.67039062 27.21263672 21.59078125 27.23777344 22.5390625 27.26367188 C23.42851562 27.27333984 24.31796875 27.28300781 25.234375 27.29296875 C26.05131836 27.3086792 26.86826172 27.32438965 27.70996094 27.34057617 C30.57634189 26.91428604 31.90840308 25.97845159 34 24 C35.53784153 19.3864754 35.74741859 15.56278431 33.625 11.125 C32.17239958 8.90335175 32.17239958 8.90335175 30 8 C28.47851674 7.91627341 26.95344222 7.89269973 25.4296875 7.90234375 C24.08583984 7.90717773 24.08583984 7.90717773 22.71484375 7.91210938 C21.77769531 7.92048828 20.84054687 7.92886719 19.875 7.9375 C18.45767578 7.94426758 18.45767578 7.94426758 17.01171875 7.95117188 C14.6744523 7.96297625 12.33721831 7.98091201 10 8 Z M10 35 C10 41.93 10 48.86 10 56 C13.3825 56.04125 16.765 56.0825 20.25 56.125 C21.83989746 56.15231201 21.83989746 56.15231201 23.46191406 56.18017578 C24.30463867 56.1851709 25.14736328 56.19016602 26.015625 56.1953125 C27.30388184 56.21102295 27.30388184 56.21102295 28.61816406 56.22705078 C31.21569979 55.97943821 32.79689768 55.37682469 35 54 C37.6983952 49.94812403 37.56156458 45.70205569 37 41 C35.2880813 37.23601432 35.2880813 37.23601432 32 35 C30.3325394 34.91573906 28.66174813 34.89274857 26.9921875 34.90234375 C26.00605469 34.90556641 25.01992188 34.90878906 24.00390625 34.91210938 C22.45509766 34.92467773 22.45509766 34.92467773 20.875 34.9375 C19.83472656 34.94201172 18.79445313 34.94652344 17.72265625 34.95117188 C15.14841313 34.96298033 12.57419947 34.98091615 10 35 Z " fill="#000000" transform="translate(439,439)"/>
<path d="M0 0 C2.4375 2.1875 2.4375 2.1875 4 4 C4.721875 3.21625 5.44375 2.4325 6.1875 1.625 C9.92706925 -1.86526463 12.31429975 -2.84391664 17.375 -3.3125 C22.73240263 -2.85065495 26.52729592 -1.51250689 30.3125 2.375 C33.73240502 7.69485225 34.27999164 12.11524121 34.1953125 18.36328125 C34.1924826 19.15526413 34.18965271 19.94724701 34.18673706 20.76322937 C34.17558863 23.27980999 34.15049422 25.79602789 34.125 28.3125 C34.11496329 30.02408338 34.10583864 31.73567237 34.09765625 33.44726562 C34.07566681 37.63164906 34.04117408 41.81576314 34 46 C31.03 46 28.06 46 25 46 C24.970271 44.53977417 24.970271 44.53977417 24.93994141 43.05004883 C24.86364633 39.42495649 24.77496664 35.80025306 24.68261719 32.17553711 C24.64442591 30.60920919 24.60955606 29.04279651 24.578125 27.47631836 C24.53225929 25.219582 24.47430231 22.96342417 24.4140625 20.70703125 C24.40251129 20.01100296 24.39096008 19.31497467 24.37905884 18.59785461 C24.2607965 14.66777477 23.88604798 11.47995275 22 8 C18.29873141 5.53248761 16.37776468 5.69278844 12 6 C9.23857335 7.01736771 8.31914629 7.36170741 7 10 C6.84323225 12.69655446 6.74163685 15.37129977 6.68359375 18.0703125 C6.66281265 18.86654022 6.64203156 19.66276794 6.62062073 20.48312378 C6.55515851 23.03032685 6.49625585 25.57763425 6.4375 28.125 C6.3943116 29.85027127 6.35069721 31.57553193 6.30664062 33.30078125 C6.19948055 37.53374685 6.09820377 41.76681753 6 46 C3.03 46 0.06 46 -3 46 C-3.01981934 45.09757568 -3.03963867 44.19515137 -3.06005859 43.26538086 C-3.13855165 39.88996242 -3.22525668 36.51495602 -3.31738281 33.13989258 C-3.35546427 31.68424482 -3.390352 30.22850963 -3.421875 28.77270508 C-3.46798255 26.66976852 -3.52589547 24.56742325 -3.5859375 22.46484375 C-3.63306885 20.57173462 -3.63306885 20.57173462 -3.68115234 18.64038086 C-4.01505786 14.82807986 -4.67906577 11.59161961 -6 8 C-9.72579089 5.51613941 -11.58711402 5.6195788 -16 6 C-18.80053243 6.86108741 -18.80053243 6.86108741 -21 9 C-21.52523427 11.9765868 -21.72180719 14.40404077 -21.70703125 17.38671875 C-21.72215256 18.20372757 -21.73727386 19.02073639 -21.75285339 19.86250305 C-21.79582961 22.47111392 -21.80457742 25.07856997 -21.8125 27.6875 C-21.83563677 29.45641112 -21.8610004 31.22529463 -21.88867188 32.99414062 C-21.95162163 37.3295296 -21.98387941 41.66419418 -22 46 C-25.3 46 -28.6 46 -32 46 C-32 30.16 -32 14.32 -32 -2 C-28.7 -2 -25.4 -2 -22 -2 C-21.67 -1.01 -21.34 -0.02 -21 1 C-20.5875 0.525625 -20.175 0.05125 -19.75 -0.4375 C-14.16340788 -5.42552868 -5.95561867 -3.14636458 0 0 Z " fill="#000000" transform="translate(728,457)"/>
<path d="M0 0 C4.77875412 3.77854977 7.50006432 8.14463611 9 14 C9.9170818 22.985549 10.02711308 32.12676752 5 40 C1.4898634 44.04867811 -2.74168375 46.6608444 -8.1015625 47.21875 C-13.17756577 47.42246919 -16.60867919 46.78474003 -21 44 C-21.66 43.34 -22.32 42.68 -23 42 C-23.33 49.26 -23.66 56.52 -24 64 C-26.97 64 -29.94 64 -33 64 C-33 42.22 -33 20.44 -33 -2 C-30.03 -2 -27.06 -2 -24 -2 C-23.67 -0.68 -23.34 0.64 -23 2 C-22.2575 1.360625 -21.515 0.72125 -20.75 0.0625 C-14.23989557 -4.82007832 -6.94838513 -3.73154016 0 0 Z M-22 8 C-23.78546067 10.8474236 -24.2555039 13.03655381 -24.265625 16.37109375 C-24.26820313 17.19287109 -24.27078125 18.01464844 -24.2734375 18.86132812 C-24.26570312 19.71146484 -24.25796875 20.56160156 -24.25 21.4375 C-24.25773438 22.28376953 -24.26546875 23.13003906 -24.2734375 24.00195312 C-24.25965623 28.40162416 -24.1798203 32.05337799 -22 36 C-18.39479885 39.16820707 -14.86291444 39.58818255 -10.21875 39.41015625 C-6.2196739 38.67089042 -4.67955604 37.0716862 -2 34 C0.88946904 27.3016854 0.61400979 20.17238389 -0.75 13.125 C-2.06706879 9.83232803 -3.23108704 8.18156778 -6 6 C-11.9635351 4.01215497 -16.73186826 4.56958863 -22 8 Z " fill="#000000" transform="translate(808,457)"/>
<path d="M0 0 C3.38136941 2.50936506 5.13456324 4.82457575 7.10546875 8.5625 C6.90625 10.65234375 6.90625 10.65234375 6.10546875 12.5625 C3.10546875 14.5625 3.10546875 14.5625 -0.89453125 14.5625 C-2.25816333 12.58303408 -3.58871769 10.5805755 -4.89453125 8.5625 C-8.60914505 5.37854531 -11.95699213 5.08886881 -16.68359375 5.28515625 C-20.04441455 5.70674331 -22.14351262 6.5792075 -24.89453125 8.5625 C-29.82493422 15.24698864 -30.10295262 21.28249467 -30.14453125 29.25 C-30.16515625 30.21873047 -30.18578125 31.18746094 -30.20703125 32.18554688 C-30.2404812 38.36960669 -29.56373957 42.95716252 -26.89453125 48.5625 C-23.10747762 52.25487729 -20.38090129 53.46503311 -15.08203125 53.8125 C-11.02147031 53.74544487 -8.33264451 52.8285292 -4.89453125 50.5625 C-2.85364413 48.30097644 -1.25378613 46.28100977 0.10546875 43.5625 C3.4800959 44.10973683 5.18781875 44.6174 8.10546875 46.5625 C6.8037979 52.49233387 3.76756164 55.90668062 -0.89453125 59.5625 C-7.48802129 63.58949176 -15.88203207 63.70207971 -23.265625 62.0234375 C-28.63395826 60.1764873 -32.65344598 57.55867034 -35.66015625 52.72265625 C-36.39492188 51.18931641 -36.39492188 51.18931641 -37.14453125 49.625 C-37.6446875 48.60535156 -38.14484375 47.58570313 -38.66015625 46.53515625 C-42.73650449 36.71838089 -42.46490921 22.43796634 -38.80078125 12.53125 C-35.71327855 5.82391654 -30.99336165 0.21671117 -24.05859375 -2.58203125 C-15.68443027 -4.84615693 -7.55828928 -4.34015958 0 0 Z " fill="#000000" transform="translate(627.89453125,441.4375)"/>
<path d="M0 0 C6.48548302 6.84578763 5.61930826 15.54564507 5.4375 24.375 C5.41719727 26.25251953 5.41719727 26.25251953 5.39648438 28.16796875 C5.36133786 31.23743116 5.31213226 34.30598509 5.25 37.375 C6.9 37.375 8.55 37.375 10.25 37.375 C10.25 40.015 10.25 42.655 10.25 45.375 C2.21498906 46.00519694 2.21498906 46.00519694 -1.8125 43.375 C-2.451875 42.715 -3.09125 42.055 -3.75 41.375 C-4.513125 42.014375 -5.27625 42.65375 -6.0625 43.3125 C-10.95529294 47.06743412 -15.81451938 46.86210631 -21.75 46.375 C-25.85594073 45.46084716 -28.34059273 43.84905053 -31.125 40.625 C-33.66183339 35.55133322 -34.29468711 32.16036332 -32.625 26.6875 C-29.88440218 21.84577719 -27.47563318 19.99129756 -22.25 18.125 C-16.50779843 16.86613273 -10.59200757 17.21470101 -4.75 17.375 C-4.87643769 11.49620644 -4.87643769 11.49620644 -7.25 6.3125 C-11.12176761 4.86058715 -14.68155833 4.57546277 -18.75 5.375 C-20.55635532 6.48599399 -20.55635532 6.48599399 -22.0625 7.9375 C-24.75 10.375 -24.75 10.375 -26.9375 10.4375 C-29.20243085 9.10978192 -30.33710914 7.56498084 -31.75 5.375 C-22.79703305 -4.08956506 -11.76833228 -6.95401453 0 0 Z M-22.75 26.375 C-24.27491998 29.42483996 -23.98562548 32.0173369 -23.75 35.375 C-22.81402685 37.39451062 -22.81402685 37.39451062 -20.75 38.375 C-14.93881872 39.93954881 -11.87334661 39.08735997 -6.75 36.375 C-4.50675164 34.56306994 -4.50675164 34.56306994 -4.5546875 31.9921875 C-4.57789063 31.08726562 -4.60109375 30.18234375 -4.625 29.25 C-4.64304687 28.33992188 -4.66109375 27.42984375 -4.6796875 26.4921875 C-4.70289063 25.79351562 -4.72609375 25.09484375 -4.75 24.375 C-6.99973447 24.320862 -9.24984383 24.28214509 -11.5 24.25 C-13.37945312 24.21519531 -13.37945312 24.21519531 -15.296875 24.1796875 C-18.48960816 24.36027195 -20.16031936 24.57730907 -22.75 26.375 Z " fill="#000000" transform="translate(313.75,457.625)"/>
<path d="M0 0 C3.39358207 3.14998336 5.93399092 6.26672921 6.11352539 10.98095703 C6.10828857 12.22731934 6.10305176 13.47368164 6.09765625 14.7578125 C6.0962413 15.42086395 6.09482635 16.08391541 6.09336853 16.76705933 C6.08776754 18.88641863 6.075215 21.00567259 6.0625 23.125 C6.05748512 24.56119639 6.05292219 25.99739444 6.04882812 27.43359375 C6.03779782 30.95576345 6.02053259 34.47787145 6 38 C7.98 38 9.96 38 12 38 C12 40.64 12 43.28 12 46 C3.87371744 46.46882399 3.87371744 46.46882399 0.4375 44.625 C-1 43 -1 43 -1 41 C-1.53367187 41.433125 -2.06734375 41.86625 -2.6171875 42.3125 C-7.66179875 46.08286688 -11.29208655 47.82437607 -17.640625 47.390625 C-22.5436001 46.57887416 -25.86525023 45.19447344 -29.375 41.5 C-32.11514024 37.28439964 -32.41330028 33.95960335 -32 29 C-30.51708419 24.86478334 -28.7818685 22.499065 -25.0625 20.125 C-19.83620463 18.20513639 -15.25226648 17.88549284 -9.6875 17.9375 C-8.43324219 17.94652344 -7.17898438 17.95554687 -5.88671875 17.96484375 C-4.93410156 17.97644531 -3.98148438 17.98804688 -3 18 C-3.25523874 16.37247769 -3.52974494 14.74796804 -3.8125 13.125 C-3.96332031 12.22007812 -4.11414063 11.31515625 -4.26953125 10.3828125 C-4.83051301 7.65587522 -4.83051301 7.65587522 -8 6 C-12.33657001 5.37468934 -16.00773962 5.54521399 -20 7.375 C-22.09716677 8.85086031 -22.09716677 8.85086031 -23 11 C-25.96175123 10.38722388 -27.38058783 9.74627478 -30 8 C-28.64224132 3.55642615 -26.90116959 1.51408707 -23 -1 C-15.20049768 -3.94320842 -7.31964332 -4.23851141 0 0 Z M-22 28 C-22.83233494 30.71604034 -22.51562498 33.22489475 -22 36 C-21.08333333 38.08333333 -21.08333333 38.08333333 -19 39 C-13.18881872 40.56454881 -10.12334661 39.71235997 -5 37 C-2.75675164 35.18806994 -2.75675164 35.18806994 -2.8046875 32.6171875 C-2.82789063 31.71226562 -2.85109375 30.80734375 -2.875 29.875 C-2.89304687 28.96492188 -2.91109375 28.05484375 -2.9296875 27.1171875 C-2.95289063 26.41851562 -2.97609375 25.71984375 -3 25 C-5.22855574 24.9185778 -7.45797655 24.86061921 -9.6875 24.8125 C-10.92886719 24.77769531 -12.17023437 24.74289062 -13.44921875 24.70703125 C-17.23741695 25.01958886 -19.09835026 25.5682973 -22 28 Z " fill="#000000" transform="translate(856,457)"/>
<path d="M0 0 C4.29708516 2.38914558 5.81644172 4.95164478 7.75 9.4375 C8.73130789 14.00343693 8.86630547 18.36113286 8.84765625 23.0234375 C8.8462413 23.72522125 8.84482635 24.427005 8.84336853 25.15005493 C8.8378129 27.37091504 8.82526892 29.59167084 8.8125 31.8125 C8.80747926 33.32682145 8.80291736 34.8411445 8.79882812 36.35546875 C8.78785807 40.04951252 8.77062449 43.74349606 8.75 47.4375 C5.45 47.4375 2.15 47.4375 -1.25 47.4375 C-1.27505615 46.39819336 -1.3001123 45.35888672 -1.32592773 44.28808594 C-1.42020926 40.42647297 -1.52037908 36.56503117 -1.62231445 32.70361328 C-1.66558489 31.03340666 -1.70726549 29.36315806 -1.74731445 27.69287109 C-1.80520851 25.28991045 -1.8688474 22.88715959 -1.93359375 20.484375 C-1.95030624 19.73943787 -1.96701874 18.99450073 -1.98423767 18.22698975 C-2.08061695 14.84240066 -2.21070174 11.6774476 -3.25 8.4375 C-7.86322463 6.96126812 -12.36116444 6.738333 -16.9284668 8.42895508 C-19.63939175 10.34746294 -19.63939175 10.34746294 -19.90942383 14.17456055 C-19.95052276 15.72398287 -19.96470957 17.27427046 -19.95703125 18.82421875 C-19.97215256 19.64122757 -19.98727386 20.45823639 -20.00285339 21.30000305 C-20.04582961 23.90861392 -20.05457742 26.51606997 -20.0625 29.125 C-20.08563677 30.89391112 -20.1110004 32.66279463 -20.13867188 34.43164062 C-20.20162163 38.7670296 -20.23387941 43.10169418 -20.25 47.4375 C-23.55 47.4375 -26.85 47.4375 -30.25 47.4375 C-30.25 31.5975 -30.25 15.7575 -30.25 -0.5625 C-26.95 -0.5625 -23.65 -0.5625 -20.25 -0.5625 C-19.92 0.4275 -19.59 1.4175 -19.25 2.4375 C-18.651875 1.963125 -18.05375 1.48875 -17.4375 1 C-12.11291357 -2.80327602 -5.79540092 -2.53481087 0 0 Z " fill="#000000" transform="translate(906.25,455.5625)"/>
<path d="M0 0 C5.02134114 4.10837003 8.77508183 9.54562348 10 16 C10.68915861 25.15785773 9.8692073 32.52741215 4.875 40.3125 C-0.12441972 44.98587061 -5.26020209 47.19717983 -12.125 47.4375 C-17.96132004 47.16604325 -22.18164922 45.52234018 -26.6875 41.75 C-32.42693691 34.92472368 -34.41458422 28.60213763 -34.26953125 19.75390625 C-33.57915363 12.70004797 -31.38177545 6.79145741 -26.125 1.9375 C-18.09245267 -4.25734277 -8.87060813 -4.75006758 0 0 Z M-22.609375 10.0546875 C-24.51083174 14.08193014 -24.47699653 17.53902291 -24.4375 21.9375 C-24.45748047 22.72318359 -24.47746094 23.50886719 -24.49804688 24.31835938 C-24.49356267 29.67698748 -23.56922089 32.77244181 -20 37 C-15.75417853 39.83054764 -11.98515163 39.77409187 -7 39 C-3.37740096 37.1162485 -1.31024369 34.93073106 0 31 C0.27353832 28.06729194 0.27719904 25.1316004 0.3125 22.1875 C0.35600586 20.99543945 0.35600586 20.99543945 0.40039062 19.77929688 C0.45880238 14.3470035 -0.40561535 11.31998005 -4 7 C-7.0281958 4.6207033 -10.24769379 4.63724554 -14.0390625 4.75 C-17.98555256 5.25313818 -20.20919986 6.99038623 -22.609375 10.0546875 Z " fill="#000000" transform="translate(676,457)"/>
<path d="M0 0 C2.97 0 5.94 0 9 0 C9.43570313 1.1859375 9.87140625 2.371875 10.3203125 3.59375 C10.92184863 5.22917636 11.52341268 6.86459246 12.125 8.5 C12.55039062 9.65822266 12.55039062 9.65822266 12.984375 10.83984375 C15.95305857 18.90691867 18.97681562 26.95323443 22 35 C22.35827881 33.97527588 22.71655762 32.95055176 23.08569336 31.89477539 C24.41157153 28.10501892 25.74121572 24.31659307 27.07202148 20.52856445 C27.64825151 18.88667462 28.22344977 17.24442231 28.79760742 15.60180664 C29.62149527 13.24530256 30.44904495 10.89011293 31.27734375 8.53515625 C31.53466782 7.79660904 31.79199188 7.05806183 32.05711365 6.2971344 C33.88612829 1.11387171 33.88612829 1.11387171 35 0 C38.00003445 -0.14177857 40.99757235 -0.04228771 44 0 C41.94823031 7.1136221 39.61535147 14.08707342 37.09375 21.046875 C36.7277771 22.06170959 36.3618042 23.07654419 35.98474121 24.12213135 C35.21629485 26.25037299 34.44646011 28.37811381 33.67529297 30.50537109 C32.49884329 33.75319334 31.32926673 37.00343599 30.16015625 40.25390625 C29.40926775 42.33087874 28.6579795 44.40770675 27.90625 46.484375 C27.55929077 47.45010437 27.21233154 48.41583374 26.8548584 49.41082764 C22.3413793 61.81643003 22.3413793 61.81643003 18.875 64.875 C14.88135605 66.43773024 11.23594262 66.2491731 7 66 C7 63.36 7 60.72 7 58 C10.465 57.505 10.465 57.505 14 57 C17.38732911 48.83055921 14.51514234 42.05206966 11.62109375 34.19921875 C11.28956802 33.28163284 10.9580423 32.36404694 10.61647034 31.4186554 C9.5631507 28.5059252 8.50091981 25.59655627 7.4375 22.6875 C6.37176867 19.76016005 5.30798472 16.8321462 4.24781799 13.90278625 C3.58918923 12.08411047 2.92712629 10.26667405 2.26133728 8.4506073 C1.96425369 7.63248062 1.6671701 6.81435394 1.36108398 5.97143555 C1.0976268 5.25086472 0.83416962 4.53029388 0.56272888 3.78788757 C0 2 0 2 0 0 Z " fill="#000000" transform="translate(921,455)"/>
<path d="M0 0 C4.81919748 5.93131998 5.14906934 10.62633567 5.09765625 18.046875 C5.0962413 18.81807678 5.09482635 19.58927856 5.09336853 20.3838501 C5.08778534 22.83927338 5.07523595 25.29460442 5.0625 27.75 C5.05748283 29.41796743 5.0529203 31.08593629 5.04882812 32.75390625 C5.03782141 36.83597287 5.02056836 40.91797081 5 45 C2.03 45 -0.94 45 -4 45 C-4.01458252 44.06728271 -4.02916504 43.13456543 -4.04418945 42.17358398 C-4.10553899 38.68619905 -4.17974401 35.19956549 -4.26245117 31.71264648 C-4.29553909 30.20851813 -4.32362045 28.70427042 -4.34643555 27.19995117 C-4.38028166 25.02731856 -4.4326062 22.85576387 -4.48828125 20.68359375 C-4.51446533 19.37962646 -4.54064941 18.07565918 -4.56762695 16.73217773 C-5.06319703 12.45449291 -5.96996957 9.77955083 -8 6 C-12.21349906 4.59550031 -16.15894163 4.32171534 -20.375 5.875 C-22.15909903 6.91750421 -22.15909903 6.91750421 -23 9 C-23.15676775 11.69655446 -23.25836315 14.37129977 -23.31640625 17.0703125 C-23.33718735 17.86654022 -23.35796844 18.66276794 -23.37937927 19.48312378 C-23.44484149 22.03032685 -23.50374415 24.57763425 -23.5625 27.125 C-23.6056884 28.85027127 -23.64930279 30.57553193 -23.69335938 32.30078125 C-23.80051945 36.53374685 -23.90179623 40.76681753 -24 45 C-26.97 45 -29.94 45 -33 45 C-33 29.16 -33 13.32 -33 -3 C-30.03 -3 -27.06 -3 -24 -3 C-23.67 -2.01 -23.34 -1.02 -23 0 C-22.13375 -0.7115625 -22.13375 -0.7115625 -21.25 -1.4375 C-14.48405047 -6.13607606 -6.4125949 -4.54457812 0 0 Z " fill="#000000" transform="translate(366,458)"/>
<path d="M0 0 C8.91 0 17.82 0 27 0 C27 2.31 27 4.62 27 7 C24.03 7 21.06 7 18 7 C18 23.17 18 39.34 18 56 C20.97 56 23.94 56 27 56 C27 58.64 27 61.28 27 64 C18.09 64 9.18 64 0 64 C0 61.36 0 58.72 0 56 C2.97 56 5.94 56 9 56 C9 39.83 9 23.66 9 7 C6.03 7 3.06 7 0 7 C0 4.69 0 2.38 0 0 Z " fill="#000000" transform="translate(400,439)"/>
<path d="M0 0 C0 3 0 3 -1.25341797 4.62573242 C-2.11410889 5.4819519 -2.11410889 5.4819519 -2.9921875 6.35546875 C-3.61480469 6.97744141 -4.23742187 7.59941406 -4.87890625 8.24023438 C-5.53761719 8.88283203 -6.19632813 9.52542969 -6.875 10.1875 C-7.85146484 11.16879883 -7.85146484 11.16879883 -8.84765625 12.16992188 C-13.73313673 17 -13.73313673 17 -16 17 C-14.43122496 13.20144921 -12.03476878 10.79977997 -9.125 7.9375 C-8.26132812 7.08027344 -7.39765625 6.22304687 -6.5078125 5.33984375 C-4.41510391 3.387301 -2.33074012 1.65319939 0 0 Z " fill="#460E6C" transform="translate(772,202)"/>
<path d="M0 0 C0 3 0 3 -1.96875 5.26171875 C-2.8040625 6.06222656 -3.639375 6.86273438 -4.5 7.6875 C-5.3353125 8.49574219 -6.170625 9.30398438 -7.03125 10.13671875 C-7.6809375 10.75160156 -8.330625 11.36648438 -9 12 C-9.66 11.34 -10.32 10.68 -11 10 C-9.54474941 8.51780033 -8.085701 7.03932861 -6.625 5.5625 C-5.81289062 4.73878906 -5.00078125 3.91507812 -4.1640625 3.06640625 C-2 1 -2 1 0 0 Z " fill="#B32D20" transform="translate(1059,281)"/>
</svg>
