<?xml version="1.0" encoding="UTF-8"?>
<svg version="1.1" xmlns="http://www.w3.org/2000/svg" width="407" height="124">
<path d="M0 0 C134.31 0 268.62 0 407 0 C407 40.92 407 81.84 407 124 C272.69 124 138.38 124 0 124 C0 83.08 0 42.16 0 0 Z " fill="#FCFCFD" transform="translate(0,0)"/>
<path d="M0 0 C18.81 0 37.62 0 57 0 C57.061875 9.013125 57.12375 18.02625 57.1875 27.3125 C57.22846802 31.54767456 57.22846802 31.54767456 57.27026367 35.8684082 C57.27903574 38.13752822 57.28667796 40.406653 57.29296875 42.67578125 C57.30831665 43.82864624 57.32366455 44.98151123 57.33947754 46.16931152 C57.34277514 56.49851218 56.33776935 65.6850385 48.89453125 73.34765625 C42.39299958 79.01806428 35.14427703 81.4643219 26.58203125 81.24609375 C17.49534583 80.38004053 11.16913771 75.94377892 4.6875 69.8125 C-0.30568668 61.4905222 -0.41863766 52.11546245 -0.29296875 42.67578125 C-0.28994751 41.58599976 -0.28692627 40.49621826 -0.28381348 39.37341309 C-0.26827122 35.35301058 -0.22638894 31.33274446 -0.1875 27.3125 C-0.125625 18.299375 -0.06375 9.28625 0 0 Z " fill="#E24E0F" transform="translate(350,0)"/>
<path d="M0 0 C1.43730178 -0.03728849 2.87488398 -0.06386883 4.3125 -0.0859375 C5.11300781 -0.10188965 5.91351563 -0.1178418 6.73828125 -0.13427734 C9.8105465 0.04812182 11.63427652 1.07784967 14 3 C15.14654482 5.29308963 15.19729117 6.79909656 15.31640625 9.3515625 C15.37924805 10.62773437 15.37924805 10.62773437 15.44335938 11.9296875 C15.48267578 12.81914062 15.52199219 13.70859375 15.5625 14.625 C15.60568359 15.5221875 15.64886719 16.419375 15.69335938 17.34375 C15.79956861 19.56234283 15.90161194 21.7810488 16 24 C16.763125 23.360625 17.52625 22.72125 18.3125 22.0625 C23.19621027 18.3145363 28.06883592 18.40352316 34 19 C41.66937388 20.99130627 48.19605753 24.59380469 52.50390625 31.36328125 C55.07822558 36.19654745 56.69863808 40.47503143 57 46 C57.05027344 46.67417969 57.10054687 47.34835938 57.15234375 48.04296875 C57.52756344 56.52293385 55.62001139 65.46863541 50 72 C42.64121889 78.65404261 35.61333262 81.61015149 25.6640625 81.28125 C21.68830283 80.86152171 18.53526464 79.84113782 15 78 C14.23558594 77.60941406 13.47117187 77.21882813 12.68359375 76.81640625 C6.39469236 73.15910445 3.41943283 68.81545586 1 62 C0.12542446 58.34009864 -0.1218596 54.95868072 -0.11352539 51.19995117 C-0.11344986 50.05914597 -0.11337433 48.91834076 -0.11329651 47.7429657 C-0.10813522 46.52196671 -0.10297394 45.30096771 -0.09765625 44.04296875 C-0.0962413 42.78486893 -0.09482635 41.5267691 -0.09336853 40.23054504 C-0.08872573 36.89821471 -0.07975228 33.56595368 -0.06866455 30.23364258 C-0.05840503 26.82829383 -0.05386121 23.4229379 -0.04882812 20.01757812 C-0.0378083 13.34503302 -0.021077 6.67252051 0 0 Z " fill="#222592" transform="translate(57,0)"/>
<path d="M0 0 C7.69408368 5.30768339 12.14943662 11.74718308 14 21 C14 24.63 14 28.26 14 32 C0.14 32 -13.72 32 -28 32 C-26.5315148 39.48336897 -26.5315148 39.48336897 -22 44 C-17.80201599 46.09899201 -12.55763665 45.55566517 -8 45 C-6.11815274 43.94913681 -6.11815274 43.94913681 -4.625 42.5 C-0.35707012 38.70271903 4.77889883 39.62696711 10.18359375 39.82421875 C11.57771484 39.91123047 11.57771484 39.91123047 13 40 C12.06245869 47.00112014 7.33915894 51.18595837 1.9375 55.375 C-6.0855606 59.81328884 -14.94881224 60.38431282 -23.8515625 58.34765625 C-31.40538767 55.62313417 -37.69545257 51.01493538 -41.4375 43.8125 C-45.42253866 35.03826689 -45.40584953 24.06739631 -42.375 15 C-38.75243909 6.49266183 -33.42894653 1.70873648 -25 -2 C-17.08944338 -4.5455559 -7.34423705 -3.8704266 0 0 Z " fill="#57117C" transform="translate(243,22)"/>
<path d="M0 0 C3.81957484 2.97926837 5.49783249 5.46062994 7 10 C7.44402435 14.55330184 7.37027845 19.11467457 7.375 23.6875 C7.39949219 24.91662109 7.42398438 26.14574219 7.44921875 27.41210938 C7.47611328 35.81665154 6.81462847 43.5170818 1.18139648 50.13720703 C-4.54038541 55.83965596 -11.49238704 57.98349354 -19.4375 58.4375 C-27.63720298 58.11765343 -35.29960548 54.84655849 -41 49 C-43.902015 44.32062633 -43.62667356 39.33059358 -43 34 C-40.16404946 28.22306372 -36.14748571 24.62954921 -30.125 22.4375 C-23.55720854 20.40806359 -16.74964617 19.25388684 -10 18 C-9.32198966 15.09926819 -9.32198966 15.09926819 -9 12 C-11.7729519 9.2270481 -13.57263731 9.66808654 -17.4375 9.625 C-18.59121094 9.59664062 -19.74492187 9.56828125 -20.93359375 9.5390625 C-24.06269471 9.70025594 -24.06269471 9.70025594 -25.84765625 11.8359375 C-27.11849823 14.07754823 -27.11849823 14.07754823 -28 17 C-32.95 17 -37.9 17 -43 17 C-42.0088827 9.7648437 -40.91040906 4.63248278 -35 0 C-24.14936657 -6.61241133 -11.13403857 -5.27582135 0 0 Z " fill="#E5441B" transform="translate(337,23)"/>
<path d="M0 0 C1.74861792 -0.10853491 3.49919241 -0.18583428 5.25 -0.25 C6.22453125 -0.29640625 7.1990625 -0.3428125 8.203125 -0.390625 C11 0 11 0 13.32788086 1.55322266 C15.54973316 4.80441315 15.54951205 7.59522218 15.50390625 11.3984375 C15.51332748 12.11101715 15.52274872 12.8235968 15.53245544 13.55776978 C15.56106823 15.83047326 15.5641861 18.10213118 15.5625 20.375 C15.56611836 22.64057529 15.57578245 24.90538903 15.60325623 27.17080688 C15.61992221 28.57759079 15.62301698 29.98462433 15.61024475 31.39144897 C15.65907957 35.98392215 16.60717241 39.09129356 19 43 C22.1365197 45.70089196 23.4554258 46.03755684 27.625 45.75 C30.96784402 45.06788486 30.96784402 45.06788486 34 44 C36.55856934 39.59751845 36.34499757 34.92673982 36.4140625 29.98046875 C36.43342865 29.12189774 36.4527948 28.26332672 36.4727478 27.3787384 C36.53231556 24.64842526 36.57883734 21.91806943 36.625 19.1875 C36.66320079 17.33136227 36.70225375 15.47524188 36.7421875 13.61914062 C36.83799827 9.07956856 36.92211321 4.53991354 37 0 C38.74861792 -0.10853491 40.49919241 -0.18583428 42.25 -0.25 C43.22453125 -0.29640625 44.1990625 -0.3428125 45.203125 -0.390625 C48 0 48 0 50.32836914 1.5324707 C52.59586083 4.87956264 52.55731618 7.82460945 52.49609375 11.73046875 C52.49754898 12.48032547 52.49900421 13.23018219 52.50050354 14.00276184 C52.49884596 15.58887618 52.48730026 17.17500683 52.46655273 18.76098633 C52.43780129 21.1623356 52.44590488 23.5614461 52.45898438 25.96289062 C52.44612201 34.97700205 52.16736507 42.83836804 47.3125 50.75 C41.78354264 56.12952608 34.76244187 60.21674419 26.9375 60.5 C19.45563109 60.35825959 13.11878244 57.21488675 7.2734375 52.65234375 C-1.63438792 43.27999982 -0.49120488 29.69411575 -0.25 17.8125 C-0.22989539 16.08009887 -0.21165166 14.34767511 -0.1953125 12.61523438 C-0.15165056 8.40958797 -0.08284556 4.20504954 0 0 Z " fill="#321A85" transform="translate(141,21)"/>
<path d="M0 0 C1.60141602 -0.03387249 3.20303909 -0.05805062 4.8046875 -0.078125 C5.69655762 -0.09262695 6.58842773 -0.10712891 7.50732422 -0.12207031 C10 0 10 0 13.125 1.25 C16.20243041 5.7635646 15.37467662 10.70457039 15 16 C15.77730469 15.96777344 16.55460937 15.93554688 17.35546875 15.90234375 C20 16 20 16 22.3125 17.5625 C24.56398777 20.814649 24.29754384 23.13193005 24 27 C21.03 27 18.06 27 15 27 C15.33 38.88 15.66 50.76 16 63 C18.64 63 21.28 63 24 63 C24 66.96 24 70.92 24 75 C9.68342935 75.5892491 9.68342935 75.5892491 3 72 C-0.01185882 68.09018387 -0.3680867 65.15134522 -0.34057617 60.28198242 C-0.34101425 59.62776306 -0.34145233 58.9735437 -0.34190369 58.29949951 C-0.33982456 56.1511787 -0.31653662 54.00365211 -0.29296875 51.85546875 C-0.28736964 50.36046271 -0.28310103 48.86545115 -0.28010559 47.37043762 C-0.26868152 43.44614314 -0.23923573 39.52218469 -0.20599365 35.59802246 C-0.17523993 31.58948308 -0.16158896 27.58088911 -0.14648438 23.57226562 C-0.11436333 15.71468999 -0.06319691 7.85738686 0 0 Z " fill="#C5303B" transform="translate(263,5)"/>
<path d="M0 0 C11.22 0 22.44 0 34 0 C32.35 1.32 30.7 2.64 29 4 C27.60083389 6.35802051 27.60083389 6.35802051 26.68359375 9 C26.31395508 9.96381592 25.94431641 10.92763184 25.56347656 11.9206543 C25.1919043 12.93683838 24.82033203 13.95302246 24.4375 15 C24.04401367 16.04003174 23.65052734 17.08006348 23.24511719 18.15161133 C21.00484525 24.11710609 18.88391866 30.11177867 16.95751953 36.18652344 C15.99852798 39.00432524 14.89503958 41.70600423 13.72265625 44.44140625 C10.83616005 51.30329429 8.24850455 58.26130315 5.6875 65.25 C5.23310547 66.48363281 4.77871094 67.71726562 4.31054688 68.98828125 C3.20476157 71.99136135 2.1012863 74.99526777 1 78 C0.67 78 0.34 78 0 78 C0 52.26 0 26.52 0 0 Z " fill="#FCFCFD" transform="translate(0,0)"/>
<path d="M0 0 C9 0 9 0 13 2 C15.4939959 5.74099384 15.24222969 7.66335763 15.22705078 12.13354492 C15.22734283 12.85574722 15.22763489 13.57794952 15.22793579 14.32203674 C15.22654285 16.70830312 15.21098353 19.09425695 15.1953125 21.48046875 C15.19158224 23.1352776 15.18873533 24.79008866 15.18673706 26.44490051 C15.17910163 30.79985657 15.15945393 35.15467918 15.1373291 39.50958252 C15.11686873 43.95363561 15.10773494 48.39771026 15.09765625 52.84179688 C15.07620792 61.56126598 15.04102653 70.28060101 15 79 C10.05 79 5.1 79 0 79 C0 52.93 0 26.86 0 0 Z " fill="#25228F" transform="translate(120,0)"/>
<path d="M0 0 C-0.64377472 5.30519034 -2.31798238 9.88458845 -4.24609375 14.82421875 C-4.5729718 15.67586105 -4.89984985 16.52750336 -5.2366333 17.404953 C-6.29819556 20.16791403 -7.36748669 22.92780197 -8.4375 25.6875 C-9.90360477 29.48469218 -11.36652423 33.28310335 -12.828125 37.08203125 C-13.37003731 38.48859985 -13.37003731 38.48859985 -13.92289734 39.92358398 C-16.05324387 45.47155801 -18.12131449 51.0362533 -20.109375 56.63671875 C-20.5535376 57.8791333 -20.9977002 59.12154785 -21.45532227 60.40161133 C-22.25508286 62.65605833 -23.042771 64.91483818 -23.81616211 67.1784668 C-27.1656267 76.56842533 -27.1656267 76.56842533 -32 79 C-35.11328125 79.390625 -35.11328125 79.390625 -38.3125 79.25 C-39.38113281 79.21390625 -40.44976562 79.1778125 -41.55078125 79.140625 C-42.35902344 79.09421875 -43.16726562 79.0478125 -44 79 C-40.503306 68.91379148 -36.97943481 58.83828131 -33.3125 48.8125 C-33.03978271 48.06057373 -32.76706543 47.30864746 -32.48608398 46.53393555 C-31.11791221 42.81608643 -29.65551772 39.18317618 -28.01171875 35.578125 C-25.48265652 29.98121876 -23.58622773 24.19370321 -21.64453125 18.37304688 C-17.06931931 4.94759465 -17.06931931 4.94759465 -12.875 1 C-8.60123653 -0.48652642 -4.47958163 -0.23485185 0 0 Z " fill="#232592" transform="translate(44,0)"/>
<path d="M0 0 C9.79046033 -0.44727991 17.52327938 -0.13343126 25.3125 6.25 C30.62160469 11.27412293 33.55482013 16.77410064 35 24 C35 27.63 35 31.26 35 35 C23.45 35 11.9 35 0 35 C0.99 34.505 0.99 34.505 2 34 C1.67 31.69 1.34 29.38 1 27 C-1.64 26.67 -4.28 26.34 -7 26 C-6.75239109 21.79064851 -6.41897739 19.52372173 -3.75 16.1875 C-0.16155764 13.33305721 2.40214681 12 7 12 C7 8.37 7 4.74 7 1 C4.69 1 2.38 1 0 1 C0 0.67 0 0.34 0 0 Z " fill="#962259" transform="translate(222,19)"/>
<path d="M0 0 C15.51 0 31.02 0 47 0 C47 14.52 47 29.04 47 44 C46.67 44 46.34 44 46 44 C45.82984375 43.34773438 45.6596875 42.69546875 45.484375 42.0234375 C43.37174453 34.40448294 40.84802187 28.46610122 34 24 C27.48476702 20.63205425 21.3329304 18.74186896 14 20 C11.52517148 21.11345289 11.52517148 21.11345289 9.19140625 22.53515625 C8.40064697 22.99414307 7.6098877 23.45312988 6.79516602 23.92602539 C6.20276123 24.28043701 5.61035645 24.63484863 5 25 C4.98598145 24.07719238 4.98598145 24.07719238 4.97167969 23.13574219 C4.91788915 20.33968914 4.83426181 17.5452938 4.75 14.75 C4.73582031 13.78191406 4.72164063 12.81382813 4.70703125 11.81640625 C4.67480469 10.88183594 4.64257812 9.94726562 4.609375 8.984375 C4.58842773 8.12553711 4.56748047 7.26669922 4.54589844 6.38183594 C4.07735678 3.3689989 4.07735678 3.3689989 0 0 Z " fill="#FEFCFC" transform="translate(360,0)"/>
<path d="M0 0 C0.125 2.375 0.125 2.375 0 5 C-0.66 5.66 -1.32 6.32 -2 7 C0.64 6.67 3.28 6.34 6 6 C6.38353204 10.79415054 6.43994058 14.12011885 4.25 18.5 C2.05574452 20.93806165 1.21020798 21.77069943 -2 22 C-2 22.66 -2 23.32 -2 24 C-1.34 24 -0.68 24 0 24 C0.02698189 25.62490954 0.04638757 27.24994633 0.0625 28.875 C0.07410156 29.77992187 0.08570313 30.68484375 0.09765625 31.6171875 C0 34 0 34 -1 36 C-9.59798855 36.56380253 -17.642577 34.95154909 -24.5625 29.5 C-28.27576962 25.69151834 -29.30064438 22.93399109 -29.375 17.625 C-29.24881912 11.30754397 -27.23632875 8.23632875 -22.8125 3.8125 C-15.25190689 -1.05988223 -8.76344693 -1.3595628 0 0 Z " fill="#E73F29" transform="translate(323,45)"/>
<path d="M0 0 C1.74861792 -0.10853491 3.49919241 -0.18583428 5.25 -0.25 C6.22453125 -0.29640625 7.1990625 -0.3428125 8.203125 -0.390625 C11 0 11 0 13.32788086 1.55322266 C15.54973316 4.80441315 15.54951205 7.59522218 15.50390625 11.3984375 C15.51332748 12.11101715 15.52274872 12.8235968 15.53245544 13.55776978 C15.56106823 15.83047326 15.5641861 18.10213118 15.5625 20.375 C15.56611836 22.64057529 15.57578245 24.90538903 15.60325623 27.17080688 C15.61992221 28.57759079 15.62301698 29.98462433 15.61024475 31.39144897 C15.6719786 37.19695954 17.27102451 41.12282661 21.1875 45.375 C21.785625 45.91125 22.38375 46.4475 23 47 C22.34 47 21.68 47 21 47 C20.67 50.63 20.34 54.26 20 58 C23.96 58 27.92 58 32 58 C32 58.66 32 59.32 32 60 C22.37648413 61.02297216 14.93156199 58.62983911 7.2734375 52.65234375 C-1.63438792 43.27999982 -0.49120488 29.69411575 -0.25 17.8125 C-0.22989539 16.08009887 -0.21165166 14.34767511 -0.1953125 12.61523438 C-0.15165056 8.40958797 -0.08284556 4.20504954 0 0 Z " fill="#27218D" transform="translate(141,21)"/>
<path d="M0 0 C3.82753443 1.91376722 4.79299345 3.61453953 6.8125 7.375 C8.95355911 13.98381829 9.53025181 22.08349345 6.98046875 28.609375 C4.94749769 31.97513977 3.30798734 33.79467511 0 36 C-4.95823781 36.660075 -9.48793801 36.756031 -14 34.5 C-19.64928365 27.43839544 -19.8123628 19.72455385 -19 11 C-18.14571459 7.1855163 -16.48890707 4.5958555 -14 1.5625 C-9.39914511 -0.83377859 -5.07747062 -0.73409214 0 0 Z " fill="#FEFBFA" transform="translate(384,32)"/>
<path d="M0 0 C3.71735082 1.42366627 4.70990972 2.51306274 6.75 5.9375 C9.56696715 12.83906951 10.217588 20.15158828 7.8125 27.3125 C6.12909592 31.10208088 4.52601282 33.64932478 1 36 C-4.07407315 36.86350944 -8.39872488 36.83399746 -13 34.4375 C-17.41409449 29.05782234 -18.50903352 23.77220252 -18.4375 16.9375 C-18.45748047 16.25623047 -18.47746094 15.57496094 -18.49804688 14.87304688 C-18.49314189 9.7669588 -17.22226563 6.90182956 -14 3 C-9.79105745 -1.01416252 -5.52778776 -0.64610506 0 0 Z " fill="#FBFBFD" transform="translate(90,32)"/>
<path d="M0 0 C-0.66 0.66 -1.32 1.32 -2 2 C-2.20496073 4.14426283 -2.20496073 4.14426283 -2.0625 6.5 C-1.90181269 10.80362538 -1.90181269 10.80362538 -3 13 C-4.9609375 13.2734375 -4.9609375 13.2734375 -7.375 13.375 C-11.08970682 13.64500463 -11.08970682 13.64500463 -14 15.875 C-15.10063599 18.10554506 -15.10063599 18.10554506 -16 21 C-20.95 21 -25.9 21 -31 21 C-30.0088827 13.7648437 -28.91040906 8.63248278 -23 4 C-15.6704784 -0.46663432 -8.37566928 -0.4726083 0 0 Z " fill="#E7442E" transform="translate(325,19)"/>
<path d="M0 0 C1.875 1.1875 1.875 1.1875 2.875 3.1875 C2.99819963 5.70842575 3.06338215 8.20059823 3.078125 10.72265625 C3.08382507 11.47534286 3.08952515 12.22802948 3.09539795 13.00352478 C3.1048553 14.60153802 3.11138484 16.19957083 3.11523438 17.79760742 C3.12486597 20.21634286 3.15584963 22.63420117 3.1875 25.05273438 C3.31269019 43.1604915 3.31269019 43.1604915 -2.3125 49.75 C-2.910625 50.224375 -3.50875 50.69875 -4.125 51.1875 C-5.125 50.1875 -5.125 50.1875 -5.24525452 48.16905212 C-5.24303391 47.28302811 -5.24081329 46.39700409 -5.23852539 45.48413086 C-5.23844986 44.48316879 -5.23837433 43.48220673 -5.23829651 42.45091248 C-5.23313522 41.3623848 -5.22797394 40.27385712 -5.22265625 39.15234375 C-5.2212413 38.04395645 -5.21982635 36.93556915 -5.21836853 35.79359436 C-5.21275033 32.23736931 -5.20019475 28.68120617 -5.1875 25.125 C-5.18248734 22.72070403 -5.17792403 20.31640708 -5.17382812 17.91210938 C-5.16277499 12.00388496 -5.14601917 6.0956969 -5.125 0.1875 C-2.125 -0.8125 -2.125 -0.8125 0 0 Z " fill="#3C1582" transform="translate(190.125,21.8125)"/>
<path d="M0 0 C0 14.52 0 29.04 0 44 C-4 43 -4 43 -5.44921875 41.07421875 C-5.85785156 40.28660156 -6.26648438 39.49898437 -6.6875 38.6875 C-7.10386719 37.90761719 -7.52023438 37.12773438 -7.94921875 36.32421875 C-11.70535406 28.01603843 -11.155515 17.1881254 -8.125 8.75 C-6.94510912 5.86582229 -5.74005295 3.61007943 -4 1 C-1 0 -1 0 0 0 Z " fill="#501580" transform="translate(209,28)"/>
<path d="M0 0 C-0.93754131 7.00112014 -5.66084106 11.18595837 -11.0625 15.375 C-16.56332692 18.41801064 -21.1026395 19.24334642 -27.375 19.125 C-28.62023437 19.10695313 -29.86546875 19.08890625 -31.1484375 19.0703125 C-32.08945313 19.04710938 -33.03046875 19.02390625 -34 19 C-34 18.67 -34 18.34 -34 18 C-30.37 17.67 -26.74 17.34 -23 17 C-23 13.7 -23 10.4 -23 7 C-25.31 7 -27.62 7 -30 7 C-30 6.67 -30 6.34 -30 6 C-29.43152344 5.98582031 -28.86304688 5.97164063 -28.27734375 5.95703125 C-23.92814094 5.68838266 -21.09692935 5.41875125 -17.8125 2.4375 C-12.83072674 -1.69025498 -6.08392605 -0.37971799 0 0 Z " fill="#962259" transform="translate(256,62)"/>
<path d="M0 0 C1.65 0 3.3 0 5 0 C5 23.76 5 47.52 5 72 C2 71 2 71 0.82669067 69.35028076 C-0.2565636 66.27058993 -0.23932902 63.66151902 -0.22705078 60.39550781 C-0.22748886 59.41439781 -0.22748886 59.41439781 -0.22793579 58.41346741 C-0.22654676 56.25988317 -0.21100608 54.10664851 -0.1953125 51.953125 C-0.19158084 50.45668731 -0.18873459 48.96024717 -0.18673706 47.46380615 C-0.1791126 43.5313641 -0.15947438 39.59907053 -0.1373291 35.66668701 C-0.11684506 31.65150969 -0.10772988 27.6363083 -0.09765625 23.62109375 C-0.0762273 15.74732781 -0.04210576 7.87368239 0 0 Z " fill="#B9273F" transform="translate(263,5)"/>
<path d="M0 0 C3.55980482 2.03417418 5.65940264 4.10008039 7 8 C7 9.32 7 10.64 7 12 C-1.58 12 -10.16 12 -19 12 C-16.72093023 4.02325581 -16.72093023 4.02325581 -13 1 C-9.06008887 -0.96995556 -4.29492536 -0.45307739 0 0 Z " fill="#FBF9FB" transform="translate(234,32)"/>
<path d="M0 0 C0.38160272 4.77003402 0.4609004 8.09465992 -1.75 12.4375 C-4.3828856 15.43606416 -6.28250613 16.77080238 -10.25390625 17.30078125 C-11.01574219 17.30464844 -11.77757812 17.30851562 -12.5625 17.3125 C-13.70912109 17.33763672 -13.70912109 17.33763672 -14.87890625 17.36328125 C-17.54585905 16.90651033 -18.4040061 16.15782353 -20 14 C-20.5 10.5625 -20.5 10.5625 -20 7 C-16.4200115 3.4200115 -13.21542954 2.25630253 -8.3125 1.25 C-7.17425781 1.00765625 -6.03601563 0.7653125 -4.86328125 0.515625 C-2 0 -2 0 0 0 Z " fill="#FDF8F7" transform="translate(329,51)"/>
<path d="M0 0 C8.3984375 -0.1953125 8.3984375 -0.1953125 11 0 C13 2 13 2 13.125 4.4375 C13.08375 5.283125 13.0425 6.12875 13 7 C13 7.99 13 8.98 13 10 C13.33 10.33 13.66 10.66 14 11 C13.6875 14.5 13.6875 14.5 13 18 C9.14854957 19.92572521 4.19956748 19.04883218 0 19 C0 12.73 0 6.46 0 0 Z " fill="#131313" transform="translate(106,99)"/>
<path d="M0 0 C1.89554726 2.99296935 1.55066254 5.42495589 1.1875 8.875 C0.0625 11.3125 0.0625 11.3125 -1.8125 12.875 C-5 13.125 -5 13.125 -7.8125 12.875 C-8.1425 14.855 -8.4725 16.835 -8.8125 18.875 C-9.8025 18.875 -10.7925 18.875 -11.8125 18.875 C-11.8125 12.275 -11.8125 5.675 -11.8125 -1.125 C-6.99619882 -2.08826024 -4.18815917 -2.59954707 0 0 Z " fill="#505050" transform="translate(222.8125,105.125)"/>
<path d="M0 0 C8.58 0 17.16 0 26 0 C25.67 3.3 25.34 6.6 25 10 C19.06 10 13.12 10 7 10 C7.66 9.67 8.32 9.34 9 9 C8.67 6.69 8.34 4.38 8 2 C5.36 1.67 2.72 1.34 0 1 C0 0.67 0 0.34 0 0 Z " fill="#84266C" transform="translate(215,44)"/>
<path d="M0 0 C5.93792936 5.93792936 8.81535992 10.52726807 9.09765625 18.89453125 C9.08605469 19.85746094 9.07445312 20.82039063 9.0625 21.8125 C9.05347656 22.78832031 9.04445313 23.76414062 9.03515625 24.76953125 C9.02355469 25.50558594 9.01195312 26.24164063 9 27 C6.36 27 3.72 27 1 27 C0.67 18.09 0.34 9.18 0 0 Z " fill="#A62851" transform="translate(248,27)"/>
<path d="M0 0 C1.8746679 -0.05460198 3.74980905 -0.09306244 5.625 -0.125 C7.19121094 -0.15980469 7.19121094 -0.15980469 8.7890625 -0.1953125 C12 0 12 0 18 2 C18 7.28 18 12.56 18 18 C16.02 16.68 14.04 15.36 12 14 C9.73584146 13.3323199 9.73584146 13.3323199 7.625 13.25 C6.42875 13.1675 5.2325 13.085 4 13 C4.99 12.67 5.98 12.34 7 12 C7 8.37 7 4.74 7 1 C4.69 1 2.38 1 0 1 C0 0.67 0 0.34 0 0 Z " fill="#861E63" transform="translate(222,19)"/>
<path d="M0 0 C2.63769276 2.21225844 2.94923246 3.59385968 3.375 7 C2.94923246 10.40614032 2.63769276 11.78774156 0 14 C-3.42009021 14.42751128 -5.83132725 14.60318593 -8.9375 13 C-10.65886567 9.75978228 -10.52960415 6.58042244 -10 3 C-7.8351511 -1.0750097 -4.18896832 -0.52362104 0 0 Z " fill="#F0F0F0" transform="translate(180,104)"/>
<path d="M0 0 C1.86323318 0.25288812 3.71708432 0.57690153 5.5625 0.9375 C6.57441406 1.13214844 7.58632812 1.32679687 8.62890625 1.52734375 C9.80259766 1.76130859 9.80259766 1.76130859 11 2 C11.33 5.63 11.66 9.26 12 13 C7.05 13 2.1 13 -3 13 C-2.34 12.67 -1.68 12.34 -1 12 C-1.01160156 11.21753906 -1.02320313 10.43507813 -1.03515625 9.62890625 C-1.04417969 8.61699219 -1.05320313 7.60507813 -1.0625 6.5625 C-1.07410156 5.55316406 -1.08570313 4.54382813 -1.09765625 3.50390625 C-1 1 -1 1 0 0 Z " fill="#691474" transform="translate(222,67)"/>
<path d="M0 0 C4 1 4 1 5.484375 2.84765625 C6.65625 4.8984375 7.828125 6.94921875 9 9 C10.65 6.03 12.3 3.06 14 0 C14.99 0 15.98 0 17 0 C17 6.27 17 12.54 17 19 C16.34 19 15.68 19 15 19 C14.67 14.38 14.34 9.76 14 5 C12.35 7.97 10.7 10.94 9 14 C6.52806709 11.03368051 4.74381547 8.48763093 3 5 C2.67 9.62 2.34 14.24 2 19 C1.34 19 0.68 19 0 19 C0 12.73 0 6.46 0 0 Z " fill="#131313" transform="translate(125,99)"/>
<path d="M0 0 C2.18994248 3.28491373 2.35277339 4.83095639 2.625 8.6875 C2.69976562 9.68136719 2.77453125 10.67523438 2.8515625 11.69921875 C2.90054688 12.45847656 2.94953125 13.21773437 3 14 C2.360625 13.814375 1.72125 13.62875 1.0625 13.4375 C0.0415625 13.2209375 0.0415625 13.2209375 -1 13 C-1.33 13.33 -1.66 13.66 -2 14 C-4.9375 14.1875 -4.9375 14.1875 -8 14 C-8.66 13.34 -9.32 12.68 -10 12 C-9.75 9.4375 -9.75 9.4375 -9 7 C-6.29120665 5.64560332 -3.99066732 5.93498549 -1 6 C-1.33 4.68 -1.66 3.36 -2 2 C-4.31 2.33 -6.62 2.66 -9 3 C-8.67 2.01 -8.34 1.02 -8 0 C-5.06791253 -1.46604374 -3.11702298 -0.77925574 0 0 Z " fill="#252525" transform="translate(66,104)"/>
<path d="M0 0 C0 4.95 0 9.9 0 15 C-4.33938291 17.16969145 -6.48390408 17.21326104 -11.25 17.125 C-12.51328125 17.10695313 -13.7765625 17.08890625 -15.078125 17.0703125 C-16.04234375 17.04710938 -17.0065625 17.02390625 -18 17 C-18 16.67 -18 16.34 -18 16 C-12.555 15.505 -12.555 15.505 -7 15 C-7 11.7 -7 8.4 -7 5 C-9.31 5 -11.62 5 -14 5 C-14 4.67 -14 4.34 -14 4 C-13.39671875 3.96261719 -12.7934375 3.92523438 -12.171875 3.88671875 C-7.97748758 3.54169656 -3.153237 0 0 0 Z " fill="#8A2B6D" transform="translate(240,64)"/>
<path d="M0 0 C2 2 2 2 2.1953125 4.3828125 C2.17210937 5.28773437 2.14890625 6.19265625 2.125 7.125 C2.10695312 8.03507812 2.08890625 8.94515625 2.0703125 9.8828125 C2.04710937 10.58148438 2.02390625 11.28015625 2 12 C2.66 12 3.32 12 4 12 C4 12.66 4 13.32 4 14 C2.02090602 14.02686553 0.04171029 14.04633375 -1.9375 14.0625 C-3.03964844 14.07410156 -4.14179688 14.08570312 -5.27734375 14.09765625 C-8 14 -8 14 -9 13 C-9.1875 10.5625 -9.1875 10.5625 -9 8 C-7 6 -7 6 -3.375 5.875 C-1.704375 5.936875 -1.704375 5.936875 0 6 C0 4.68 0 3.36 0 2 C-4.14093698 1.79029441 -4.14093698 1.79029441 -8 3 C-7.67 2.01 -7.34 1.02 -7 0 C-4.29393021 -1.35303489 -2.8671629 -0.7884698 0 0 Z " fill="#393939" transform="translate(236,104)"/>
<path d="M0 0 C3.63 0 7.26 0 11 0 C11 3.63 11 7.26 11 11 C8.69 11.66 6.38 12.32 4 13 C3 12 3 12 2.90234375 9.49609375 C2.91394531 8.48675781 2.92554688 7.47742188 2.9375 6.4375 C2.94652344 5.42558594 2.95554688 4.41367187 2.96484375 3.37109375 C2.97644531 2.58863281 2.98804688 1.80617188 3 1 C2.01 0.67 1.02 0.34 0 0 Z " fill="#6B1370" transform="translate(218,20)"/>
<path d="M0 0 C2.64 0 5.28 0 8 0 C8 3.96 8 7.92 8 12 C3.71 12 -0.58 12 -5 12 C-2 10 -2 10 1 10 C0.67 6.7 0.34 3.4 0 0 Z " fill="#D6403D" transform="translate(279,68)"/>
<path d="M0 0 C2.3125 2 2.3125 2 4 4 C1 4 1 4 -2.0625 3.375 C-3.031875 3.25125 -4.00125 3.1275 -5 3 C-7.26150753 4.83415585 -7.26150753 4.83415585 -7.23046875 7.56640625 C-7.21628906 8.55511719 -7.20210937 9.54382813 -7.1875 10.5625 C-7.18105469 11.55378906 -7.17460937 12.54507813 -7.16796875 13.56640625 C-7.27125434 15.94765872 -7.27125434 15.94765872 -6 17 C-1.96839809 17.26293056 -0.44107266 17.29404844 3 15 C3 15.99 3 16.98 3 18 C1 20 1 20 -2.9375 20.375 C-5.68572921 20.28040515 -6.6909836 20.22927023 -8.9375 18.5625 C-10.52276966 14.73920259 -11.25838441 11.14850521 -11 7 C-8.22931726 1.64971609 -6.14302282 -0.73131224 0 0 Z " fill="#272727" transform="translate(163,98)"/>
<path d="M0 0 C2.04741717 3.10278685 2.22138734 5.58728091 2.125 9.25 C2.10695312 10.14203125 2.08890625 11.0340625 2.0703125 11.953125 C2.03550781 12.96632813 2.03550781 12.96632813 2 14 C1.01 14 0.02 14 -1 14 C-1 10.04 -1 6.08 -1 2 C-2.98 2.33 -4.96 2.66 -7 3 C-7.33 6.63 -7.66 10.26 -8 14 C-8.66 14 -9.32 14 -10 14 C-10 9.38 -10 4.76 -10 0 C-3.62745098 -1.2745098 -3.62745098 -1.2745098 0 0 Z " fill="#4A4A4A" transform="translate(253,104)"/>
<path d="M0 0 C1.23556641 0.01740234 1.23556641 0.01740234 2.49609375 0.03515625 C3.32238281 0.04417969 4.14867187 0.05320313 5 0.0625 C5.63808594 0.07410156 6.27617187 0.08570313 6.93359375 0.09765625 C6.93359375 2.73765625 6.93359375 5.37765625 6.93359375 8.09765625 C3.30359375 8.42765625 -0.32640625 8.75765625 -4.06640625 9.09765625 C-3.40640625 8.76765625 -2.74640625 8.43765625 -2.06640625 8.09765625 C-2.34484375 6.39609375 -2.34484375 6.39609375 -2.62890625 4.66015625 C-2.84546875 2.89671875 -2.84546875 2.89671875 -3.06640625 1.09765625 C-2.06640625 0.09765625 -2.06640625 0.09765625 0 0 Z " fill="#6B1370" transform="translate(226.06640625,44.90234375)"/>
<path d="M0 0 C2.63769276 2.21225844 2.94923246 3.59385968 3.375 7 C2.94923246 10.40614032 2.63769276 11.78774156 0 14 C-3.42009021 14.42751128 -5.83132725 14.60318593 -8.9375 13 C-10.65886567 9.75978228 -10.52960415 6.58042244 -10 3 C-7.8351511 -1.0750097 -4.18896832 -0.52362104 0 0 Z M-6 1 C-8.1702792 2.7587364 -8.1702792 2.7587364 -8.23046875 4.91015625 C-8.53754032 8.76685951 -8.53754032 8.76685951 -7 12 C-4 12.16666667 -4 12.16666667 -1 12 C0.89488952 10.10511048 0.18019112 7.42860854 0.23046875 4.91015625 C0.1702792 2.7587364 0.1702792 2.7587364 -2 1 C-3.32 1 -4.64 1 -6 1 Z " fill="#242424" transform="translate(180,104)"/>
<path d="M0 0 C2.875 -0.125 2.875 -0.125 6 0 C8 2 8 2 8.25 5 C8 8 8 8 6 10 C3.4375 10.1875 3.4375 10.1875 1 10 C0 9 0 9 -0.09765625 6.93359375 C-0.08605469 6.10988281 -0.07445312 5.28617187 -0.0625 4.4375 C-0.05347656 3.61121094 -0.04445312 2.78492187 -0.03515625 1.93359375 C-0.02355469 1.29550781 -0.01195312 0.65742187 0 0 Z " fill="#F3F3F3" transform="translate(214,106)"/>
<path d="M0 0 C2.31 0 4.62 0 7 0 C6.01 0.495 6.01 0.495 5 1 C5 6.28 5 11.56 5 17 C5.99 17 6.98 17 8 17 C8 17.66 8 18.32 8 19 C5.36 19 2.72 19 0 19 C0 18.34 0 17.68 0 17 C0.66 17 1.32 17 2 17 C2 12.05 2 7.1 2 2 C1.34 2 0.68 2 0 2 C0 1.34 0 0.68 0 0 Z " fill="#3A3A3A" transform="translate(94,99)"/>
<path d="M0 0 C2 2 2 2 2.1953125 4.8203125 C2.16050781 6.45613281 2.16050781 6.45613281 2.125 8.125 C2.10695312 9.22070312 2.08890625 10.31640625 2.0703125 11.4453125 C2.04710937 12.28835937 2.02390625 13.13140625 2 14 C1.34 14 0.68 14 0 14 C-0.33 10.37 -0.66 6.74 -1 3 C-2.65 3 -4.3 3 -6 3 C-6.33 6.63 -6.66 10.26 -7 14 C-7.66 14 -8.32 14 -9 14 C-9 9.38 -9 4.76 -9 0 C-5.14943042 -0.9626424 -3.67192165 -1.06292469 0 0 Z " fill="#171717" transform="translate(196,104)"/>
<path d="M0 0 C2 2 2 2 2.1953125 4.8203125 C2.16050781 6.45613281 2.16050781 6.45613281 2.125 8.125 C2.10695313 9.22070312 2.08890625 10.31640625 2.0703125 11.4453125 C2.04710938 12.28835937 2.02390625 13.13140625 2 14 C1.34 14 0.68 14 0 14 C-0.33 10.37 -0.66 6.74 -1 3 C-4.63619656 1.91915479 -4.63619656 1.91915479 -7 2 C-7 5.96 -7 9.92 -7 14 C-7.66 14 -8.32 14 -9 14 C-9 9.38 -9 4.76 -9 0 C-5.14943042 -0.9626424 -3.67192165 -1.06292469 0 0 Z " fill="#282828" transform="translate(82,104)"/>
<path d="M0 0 C0.66 0 1.32 0 2 0 C3.32 3.3 4.64 6.6 6 10 C7.32 6.7 8.64 3.4 10 0 C10.66 0.33 11.32 0.66 12 1 C11.04864681 3.79422603 10.08930407 6.58524589 9.125 9.375 C8.85558594 10.1690625 8.58617187 10.963125 8.30859375 11.78125 C8.04433594 12.54179688 7.78007812 13.30234375 7.5078125 14.0859375 C7.26691895 14.7876709 7.02602539 15.4894043 6.77783203 16.21240234 C6 18 6 18 4 20 C3.01 20 2.02 20 1 20 C1 19.34 1 18.68 1 18 C1.99 18 2.98 18 4 18 C3.50123934 13.21189771 2.47827537 9.23989324 0.62109375 4.796875 C0 3 0 3 0 0 Z " fill="#131313" transform="translate(258,104)"/>
<path d="M0 0 C6.0546875 -0.1953125 6.0546875 -0.1953125 8 0 C8.66 0.66 9.32 1.32 10 2 C9.625 4.625 9.625 4.625 9 7 C6.03 7 3.06 7 0 7 C0 4.69 0 2.38 0 0 Z " fill="#EBEBEB" transform="translate(108,109)"/>
<path d="M0 0 C3.18873549 -0.35430394 4.61589191 -0.25953249 7.3125 1.5625 C9.56398777 4.814649 9.29754384 7.13193005 9 11 C6.69 10.67 4.38 10.34 2 10 C2 7.36 2 4.72 2 2 C1.34 2 0.68 2 0 2 C0 1.34 0 0.68 0 0 Z " fill="#D53936" transform="translate(278,21)"/>
<path d="M0 0 C3.96 0 7.92 0 12 0 C12 4.29 12 8.58 12 13 C9.36 13 6.72 13 4 13 C4.99 12.67 5.98 12.34 7 12 C7 8.37 7 4.74 7 1 C4.69 1 2.38 1 0 1 C0 0.67 0 0.34 0 0 Z " fill="#802B76" transform="translate(222,19)"/>
<path d="M0 0 C3.375 -0.125 3.375 -0.125 7 0 C7.66 0.66 8.32 1.32 9 2 C8.625 4.625 8.625 4.625 8 7 C5.36 7 2.72 7 0 7 C0 4.69 0 2.38 0 0 Z " fill="#E1E1E1" transform="translate(108,100)"/>
<path d="M0 0 C3.3 0 6.6 0 10 0 C9.55530671 5.03985731 7.28656638 7.37634988 4 11 C2.11064724 7.81171722 2 5.64828967 2 2 C1.34 1.34 0.68 0.68 0 0 Z " fill="#A62852" transform="translate(246,62)"/>
<path d="M0 0 C2.375 0.3125 2.375 0.3125 5 1 C7.28062828 4.42094242 7.21925007 5.68187222 7.125 9.6875 C7.10695312 10.68136719 7.08890625 11.67523438 7.0703125 12.69921875 C7.03550781 13.83810547 7.03550781 13.83810547 7 15 C6.01 15 5.02 15 4 15 C3.67 11.04 3.34 7.08 3 3 C1.35 3 -0.3 3 -2 3 C-1.34 2.01 -0.68 1.02 0 0 Z " fill="#424242" transform="translate(200,103)"/>
<path d="M0 0 C2 2 2 2 2.1953125 4.3828125 C2.17210937 5.28773437 2.14890625 6.19265625 2.125 7.125 C2.10695312 8.03507812 2.08890625 8.94515625 2.0703125 9.8828125 C2.04710937 10.58148438 2.02390625 11.28015625 2 12 C2.66 12 3.32 12 4 12 C4 12.66 4 13.32 4 14 C3.01 14 2.02 14 1 14 C1 13.34 1 12.68 1 12 C0.34 11.67 -0.32 11.34 -1 11 C-0.67 9.68 -0.34 8.36 0 7 C-1.65 7 -3.3 7 -5 7 C-5 6.67 -5 6.34 -5 6 C-3.35 6 -1.7 6 0 6 C0 4.68 0 3.36 0 2 C-4.14093698 1.79029441 -4.14093698 1.79029441 -8 3 C-7.67 2.01 -7.34 1.02 -7 0 C-4.29393021 -1.35303489 -2.8671629 -0.7884698 0 0 Z " fill="#111111" transform="translate(236,104)"/>
<path d="M0 0 C0.99 0 1.98 0 3 0 C3.33 3.63 3.66 7.26 4 11 C2.35 11 0.7 11 -1 11 C-1.02688151 9.35425434 -1.04634123 7.70838587 -1.0625 6.0625 C-1.07410156 5.14597656 -1.08570313 4.22945313 -1.09765625 3.28515625 C-1 1 -1 1 0 0 Z " fill="#76166A" transform="translate(230,69)"/>
<path d="M0 0 C0.99 0 1.98 0 3 0 C3 6.27 3 12.54 3 19 C2.34 19 1.68 19 1 19 C0.83218705 16.39590255 0.66570349 13.7917318 0.5 11.1875 C0.45230469 10.44951172 0.40460938 9.71152344 0.35546875 8.95117188 C0.16609387 5.96175412 0 2.99625426 0 0 Z " fill="#020202" transform="translate(139,99)"/>
<path d="M0 0 C2.64 0 5.28 0 8 0 C7.84402344 0.69867187 7.68804687 1.39734375 7.52734375 2.1171875 C7.33269531 3.02726562 7.13804687 3.93734375 6.9375 4.875 C6.74027344 5.77992187 6.54304687 6.68484375 6.33984375 7.6171875 C5.76797843 10.01014125 5.76797843 10.01014125 7 12 C6.01 12.33 5.02 12.66 4 13 C3 12 3 12 2.90234375 9.49609375 C2.91394531 8.48675781 2.92554688 7.47742188 2.9375 6.4375 C2.94652344 5.42558594 2.95554688 4.41367187 2.96484375 3.37109375 C2.97644531 2.58863281 2.98804688 1.80617188 3 1 C2.01 0.67 1.02 0.34 0 0 Z " fill="#671779" transform="translate(218,20)"/>
<path d="M0 0 C3.13695412 0.72391249 4.39200468 2.13820925 6.4375 4.5625 C3.4375 4.5625 3.4375 4.5625 0.375 3.9375 C-0.594375 3.81375 -1.56375 3.69 -2.5625 3.5625 C-4.85825603 5.85825603 -4.88589599 6.57092525 -5.1875 9.6875 C-5.31125 10.96625 -5.435 12.245 -5.5625 13.5625 C-5.8925 13.5625 -6.2225 13.5625 -6.5625 13.5625 C-7.19334578 10.6994307 -7.68531376 8.45129329 -7.5625 5.5625 C-5.28907416 2.35295764 -3.87151458 0.84984466 0 0 Z " fill="#171717" transform="translate(160.5625,97.4375)"/>
<path d="M0 0 C2 1.0625 2 1.0625 4 3 C4.46644969 6.66496184 4.43027542 9.0677366 2.875 12.4375 C0.24871143 14.6260738 -1.68553637 14.29461899 -5 14 C-4.38125 13.71125 -3.7625 13.4225 -3.125 13.125 C-0.86674235 12.06279958 -0.86674235 12.06279958 1 10 C1.23042499 6.46681687 1.04184255 3.38598829 0 0 Z " fill="#1A1A1A" transform="translate(220,104)"/>
<path d="M0 0 C2.13586678 3.20380017 2.23132175 4.01939967 2.125 7.6875 C2.10695313 8.49574219 2.08890625 9.30398437 2.0703125 10.13671875 C2.03550781 11.05904297 2.03550781 11.05904297 2 12 C1.67 12 1.34 12 1 12 C0.87625 11.0925 0.7525 10.185 0.625 9.25 C0.07890323 6.41029677 -0.57263803 4.47409409 -2 2 C-4.31 2.33 -6.62 2.66 -9 3 C-8.67 2.01 -8.34 1.02 -8 0 C-5.06791253 -1.46604374 -3.11702298 -0.77925574 0 0 Z " fill="#434343" transform="translate(66,104)"/>
<path d="M0 0 C1.32 0 2.64 0 4 0 C4 2.64 4 5.28 4 8 C2.68 8 1.36 8 0 8 C0 5.36 0 2.72 0 0 Z " fill="#76166A" transform="translate(229,45)"/>
<path d="M0 0 C0.66 0 1.32 0 2 0 C3.10370043 3.3111013 2.92673641 5.24748949 2.5625 8.6875 C2.40974609 10.17830078 2.40974609 10.17830078 2.25390625 11.69921875 C2.12822266 12.83810547 2.12822266 12.83810547 2 14 C1.34 14 0.68 14 0 14 C0 9.38 0 4.76 0 0 Z " fill="#232323" transform="translate(243,104)"/>
<path d="M0 0 C1.485 0.99 1.485 0.99 3 2 C3.29296875 4.8203125 3.29296875 4.8203125 3.1875 8.125 C3.16042969 9.22070312 3.13335937 10.31640625 3.10546875 11.4453125 C3.07066406 12.28835937 3.03585938 13.13140625 3 14 C2.34 14 1.68 14 1 14 C0.67 9.38 0.34 4.76 0 0 Z " fill="#060606" transform="translate(81,104)"/>
<path d="M0 0 C1.79133978 -0.05391993 3.58313899 -0.09275571 5.375 -0.125 C6.37273437 -0.14820312 7.37046875 -0.17140625 8.3984375 -0.1953125 C11 0 11 0 13 2 C13.125 4.625 13.125 4.625 13 7 C12.01 7 11.02 7 10 7 C9.67 5.35 9.34 3.7 9 2 C6.36 2 3.72 2 1 2 C0.67 1.34 0.34 0.68 0 0 Z " fill="#020202" transform="translate(106,99)"/>
<path d="M0 0 C0.66 0.33 1.32 0.66 2 1 C2 3.31 2 5.62 2 8 C-0.95664519 9.4783226 -3.74229737 9.06032783 -7 9 C-7 8.67 -7 8.34 -7 8 C-5.02 8 -3.04 8 -1 8 C-1.020625 6.865625 -1.04125 5.73125 -1.0625 4.5625 C-1 1 -1 1 0 0 Z " fill="#63167A" transform="translate(222,45)"/>
<path d="M0 0 C2.31 0 4.62 0 7 0 C6.67 1.32 6.34 2.64 6 4 C4.02 4 2.04 4 0 4 C0 2.68 0 1.36 0 0 Z " fill="#EFEFEF" transform="translate(229,112)"/>
<path d="M0 0 C1.98 0 3.96 0 6 0 C6 1.32 6 2.64 6 4 C4.35 4.33 2.7 4.66 1 5 C0.67 3.35 0.34 1.7 0 0 Z " fill="#EFEFEF" transform="translate(59,112)"/>
<path d="M0 0 C1.32 0.99 2.64 1.98 4 3 C3.67 5.31 3.34 7.62 3 10 C1.68 10.33 0.36 10.66 -1 11 C-0.649375 10.484375 -0.29875 9.96875 0.0625 9.4375 C1.3615641 6.05993333 0.67217681 3.49531943 0 0 Z " fill="#1A1A1A" transform="translate(116,107)"/>
<path d="M0 0 C2.4375 0.375 2.4375 0.375 5 1 C5.33 1.66 5.66 2.32 6 3 C3.36 3.33 0.72 3.66 -2 4 C-1.34 2.68 -0.68 1.36 0 0 Z " fill="#494949" transform="translate(191,103)"/>
<path d="M0 0 C2.25 -0.25 2.25 -0.25 5 0 C7.3125 2 7.3125 2 9 4 C5.61976483 4 3.16531063 3.12544378 0 2 C0 1.34 0 0.68 0 0 Z " fill="#282828" transform="translate(158,98)"/>
<path d="M0 0 C0 0.99 0 1.98 0 3 C-2.31 3 -4.62 3 -7 3 C-5.26536375 -0.4692725 -3.90371498 0 0 0 Z " fill="#4B4B4B" transform="translate(220,103)"/>
</svg>
