<?xml version="1.0" encoding="UTF-8"?>
<svg version="1.1" xmlns="http://www.w3.org/2000/svg" width="1420" height="224">
<path d="M0 0 C2.20629883 0.99291992 2.20629883 0.99291992 4.45703125 2.23046875 C5.30958496 2.69638428 6.16213867 3.1622998 7.04052734 3.64233398 C7.95527832 4.15223877 8.8700293 4.66214355 9.8125 5.1875 C10.77881348 5.71996338 11.74512695 6.25242676 12.74072266 6.80102539 C20.85634167 11.29991533 28.86088668 15.98195488 36.85424805 20.69360352 C45.18142593 25.5800448 53.63461066 30.20665709 62.15966797 34.73803711 C72.10471105 40.04473119 72.10471105 40.04473119 76 43 C76.6875 45.5625 76.6875 45.5625 76 48 C73.875 49.9375 73.875 49.9375 71 51 C66.91977588 49.91471138 63.41454609 48.2759442 59.75390625 46.19921875 C58.26818115 45.36161011 58.26818115 45.36161011 56.75244141 44.50708008 C55.69976074 43.90661865 54.64708008 43.30615723 53.5625 42.6875 C52.46083496 42.06447998 51.35916992 41.44145996 50.22412109 40.79956055 C47.93579537 39.50491451 45.64869597 38.20809864 43.36279297 36.90917969 C40.2158144 35.12252567 37.06421165 33.34443637 33.91015625 31.5703125 C32.94634033 31.02745605 31.98252441 30.48459961 30.98950195 29.92529297 C29.08904315 28.85528267 27.18784505 27.78658434 25.28588867 26.71923828 C20.64994857 24.10695169 16.05677081 21.44611411 11.515625 18.671875 C10.6479248 18.14811279 9.78022461 17.62435059 8.88623047 17.0847168 C7.25594918 16.09649943 5.63449544 15.09351378 4.02392578 14.07348633 C3.30188965 13.6380249 2.57985352 13.20256348 1.8359375 12.75390625 C1.21251465 12.36533447 0.5890918 11.9767627 -0.05322266 11.57641602 C-3.53005962 10.5469688 -6.14457938 12.56796654 -9.22216797 14.12231445 C-9.97127441 14.5318335 -10.72038086 14.94135254 -11.4921875 15.36328125 C-12.34981689 15.8310498 -13.20744629 16.29881836 -14.09106445 16.78076172 C-15.00976318 17.28623535 -15.92846191 17.79170898 -16.875 18.3125 C-17.8446167 18.84375488 -18.8142334 19.37500977 -19.81323242 19.92236328 C-28.59715612 24.74931629 -37.32260505 29.67758214 -46.0390625 34.625 C-53.41449512 38.80859541 -60.81865006 42.94080109 -68.22583008 47.06787109 C-74.4068923 50.51974635 -80.52273657 54.0612034 -86.5949707 57.70166016 C-89 59 -89 59 -91 59 C-88.53443868 61.76676969 -85.84903314 63.34544895 -82.609375 65.1171875 C-81.51931152 65.71732666 -80.42924805 66.31746582 -79.30615234 66.93579102 C-78.72710144 67.25154083 -78.14805054 67.56729065 -77.55145264 67.89260864 C-75.10001349 69.22945902 -72.65479 70.57749447 -70.209198 71.92500305 C-68.95602508 72.61540878 -67.70254372 73.30525494 -66.44876099 73.99455261 C-60.73212621 77.13925752 -55.04934418 80.34214232 -49.375 83.5625 C-41.13756298 88.23091209 -32.88688241 92.87497656 -24.625 97.5 C-23.59681152 98.07564697 -22.56862305 98.65129395 -21.50927734 99.24438477 C-19.57349054 100.32747705 -17.63465675 101.4051469 -15.69238281 102.4765625 C-13.93341303 103.47184464 -12.19637851 104.50722164 -10.48730469 105.5859375 C-9.71547852 106.06289062 -8.94365234 106.53984375 -8.1484375 107.03125 C-7.48763184 107.45986328 -6.82682617 107.88847656 -6.14599609 108.33007812 C-2.19356131 109.56392125 1.0472267 107.47652192 4.5793457 105.70996094 C5.43616943 105.22301758 6.29299316 104.73607422 7.17578125 104.234375 C8.6455542 103.40474243 8.6455542 103.40474243 10.14501953 102.55834961 C11.19028809 101.96159424 12.23555664 101.36483887 13.3125 100.75 C15.56631814 99.47510463 17.82022692 98.20036951 20.07421875 96.92578125 C21.23621036 96.26651811 22.39815695 95.6071756 23.56005859 94.94775391 C28.90287764 91.922558 34.26481194 88.93177126 39.625 85.9375 C47.71529577 81.40817407 55.7992103 76.86763883 63.875 72.3125 C64.8141626 71.78503174 65.7533252 71.25756348 66.72094727 70.71411133 C71.33960873 68.11085112 75.91921073 65.46204245 80.44921875 62.70703125 C81.31240723 62.18778076 82.1755957 61.66853027 83.06494141 61.13354492 C84.6814404 60.15716689 86.28986818 59.1672452 87.88818359 58.16137695 C91.43100507 56.03099843 93.24359255 54.96759472 97.46484375 55.1484375 C100 56 100 56 101 57 C101.48689 62.56950122 101.65651582 68.13787615 101.78955078 73.72583008 C101.84616765 75.60534842 101.92790346 77.48429058 102.03564453 79.36157227 C102.9076103 94.84238143 102.9076103 94.84238143 98.53173828 99.79174805 C95.70617717 101.55167019 92.93712138 102.96969277 89.85247803 104.21658325 C86.82571369 105.49660808 84.03894721 107.18432245 81.1953125 108.82421875 C79.44500878 109.7833734 77.69467312 110.74247804 75.9420166 111.69732666 C72.76714032 113.42745826 69.5987189 115.16934887 66.4296875 116.91015625 C65.79522705 117.2583844 65.1607666 117.60661255 64.50708008 117.96539307 C57.80119823 121.65016475 51.14219108 125.41627186 44.48754883 129.19262695 C36.26964252 133.85477104 28.02602232 138.47013188 19.77246094 143.06884766 C18.80211914 143.6107373 17.83177734 144.15262695 16.83203125 144.7109375 C15.8776416 145.24041992 14.92325195 145.76990234 13.93994141 146.31542969 C11.86974215 147.50164252 9.82696019 148.73635552 7.80615234 150.00488281 C6.76023926 150.65553711 5.71432617 151.30619141 4.63671875 151.9765625 C3.23039185 152.87882568 3.23039185 152.87882568 1.7956543 153.79931641 C-1.69842024 155.29995902 -3.37582295 155.0437749 -7 154 C-9.5793457 152.82348633 -9.5793457 152.82348633 -12.17578125 151.33203125 C-13.6455542 150.4975647 -13.6455542 150.4975647 -15.14501953 149.64624023 C-16.19028809 149.04110596 -17.23555664 148.43597168 -18.3125 147.8125 C-20.56625978 146.52838874 -22.82017026 145.24454191 -25.07421875 143.9609375 C-26.23625351 143.29540128 -27.39820007 142.62971104 -28.56005859 141.96386719 C-33.89457636 138.9183838 -39.26071566 135.93012607 -44.625 132.9375 C-54.66449869 127.31997417 -64.68307851 121.66594021 -74.6953125 116 C-81.78908521 111.98611337 -88.89429933 107.99272704 -96 104 C-96 110.93 -96 117.86 -96 125 C-84.18140611 131.69312655 -72.35431073 138.37030144 -60.5 145 C-53.36983658 148.98877891 -46.24239036 152.98215275 -39.12841797 156.99975586 C-37.22760257 158.07301524 -35.32560504 159.14418401 -33.42236328 160.21313477 C-28.59853159 162.92984624 -23.81434628 165.69671686 -19.0703125 168.55078125 C-18.11350586 169.11909668 -17.15669922 169.68741211 -16.17089844 170.27294922 C-14.34993496 171.35706806 -12.5375106 172.45570238 -10.73535156 173.57080078 C-9.92291992 174.05145996 -9.11048828 174.53211914 -8.2734375 175.02734375 C-7.56622559 175.45781006 -6.85901367 175.88827637 -6.13037109 176.33178711 C-3.12377185 177.27483801 -1.76502222 176.39808718 1 175 C1.73331543 174.62963623 2.46663086 174.25927246 3.22216797 173.87768555 C4.34582764 173.26340698 4.34582764 173.26340698 5.4921875 172.63671875 C6.77863159 171.93506592 6.77863159 171.93506592 8.09106445 171.21923828 C9.00976318 170.71376465 9.92846191 170.20829102 10.875 169.6875 C11.8446167 169.15624512 12.8142334 168.62499023 13.81323242 168.07763672 C22.6114486 163.2428297 31.35085463 158.30608299 40.08203125 153.3515625 C47.24306618 149.28986642 54.42905141 145.27301007 61.6171875 141.25952148 C66.9419631 138.28354315 72.25532662 135.28961028 77.55078125 132.26171875 C78.60265625 131.66166016 79.65453125 131.06160156 80.73828125 130.44335938 C82.74190495 129.2989771 84.74332457 128.1507245 86.7421875 126.99804688 C87.63808594 126.48693359 88.53398437 125.97582031 89.45703125 125.44921875 C90.6322937 124.77379028 90.6322937 124.77379028 91.83129883 124.0847168 C93.95338327 123.02331624 95.64195144 122.27490909 98 122 C101 124 101 124 101.36076355 125.79702759 C101.35410172 126.52094696 101.34743988 127.24486633 101.34057617 127.99072266 C101.34034958 128.81142242 101.34012299 129.63212219 101.33988953 130.47769165 C101.32440567 131.36419403 101.30892181 132.25069641 101.29296875 133.1640625 C101.28872391 134.07127045 101.28447906 134.97847839 101.28010559 135.91317749 C101.26328133 138.81741732 101.2256226 141.7209691 101.1875 144.625 C101.17245799 146.59113583 101.15876875 148.55728251 101.14648438 150.5234375 C101.11336557 155.34922439 101.06155786 160.17449545 101 165 C88.85313714 171.97489262 76.67093142 178.8824411 64.44360352 185.71533203 C57.45116768 189.62389414 50.47082512 193.55303505 43.5 197.5 C32.25528545 203.86528366 21.00046056 210.21420539 9.70019531 216.48046875 C7.92510977 217.47939573 6.16329075 218.50234188 4.41699219 219.55078125 C3.62711914 220.01871094 2.83724609 220.48664063 2.0234375 220.96875 C1.33942871 221.38576172 0.65541992 221.80277344 -0.04931641 222.23242188 C-2.53038013 223.20870027 -3.5290715 222.93863677 -6 222 C-7.48668823 221.28875816 -8.95036606 220.52841136 -10.39453125 219.734375 C-11.2553833 219.26338379 -12.11623535 218.79239258 -13.00317383 218.30712891 C-13.93025146 217.79327637 -14.8573291 217.27942383 -15.8125 216.75 C-16.78662842 216.2142334 -17.76075684 215.6784668 -18.7644043 215.12646484 C-27.57418706 210.26750096 -36.33201282 205.3170931 -45.08203125 200.3515625 C-51.2079435 196.8769818 -57.35280049 193.43673952 -63.5 190 C-71.85955649 185.32206949 -80.21648504 180.63955629 -88.5625 175.9375 C-89.49578125 175.41349609 -90.4290625 174.88949219 -91.390625 174.34960938 C-93.93542388 172.9137484 -96.46928618 171.46051018 -99 170 C-99.79237061 169.55438721 -100.58474121 169.10877441 -101.40112305 168.6496582 C-102.12984619 168.22386475 -102.85856934 167.79807129 -103.609375 167.359375 C-104.2497168 166.99166992 -104.89005859 166.62396484 -105.54980469 166.24511719 C-107 165 -107 165 -107.6875 161.3125 C-107 158 -107 158 -104 156 C-100.85374797 156.38389495 -98.35887941 157.75173436 -95.60546875 159.265625 C-94.7446167 159.73661621 -93.88376465 160.20760742 -92.99682617 160.69287109 C-91.60620972 161.4636499 -91.60620972 161.4636499 -90.1875 162.25 C-89.21337158 162.7857666 -88.23924316 163.3215332 -87.2355957 163.87353516 C-78.42581294 168.73249904 -69.66798718 173.6829069 -60.91796875 178.6484375 C-53.75606238 182.71062786 -46.56867164 186.72699552 -39.38061523 190.74267578 C-34.07134224 193.7112747 -28.77064485 196.69372483 -23.484375 199.703125 C-22.43701172 200.29867187 -21.38964844 200.89421875 -20.31054688 201.5078125 C-18.32071332 202.64050652 -16.33234715 203.77578361 -14.34570312 204.9140625 C-13.45302734 205.42195312 -12.56035156 205.92984375 -11.640625 206.453125 C-10.86235352 206.89817383 -10.08408203 207.34322266 -9.28222656 207.80175781 C-4.80908848 210.48311307 -4.80908848 210.48311307 0.09863281 210.34765625 C0.79311523 209.92355469 1.48759766 209.49945313 2.203125 209.0625 C3.00524414 208.58699707 3.80736328 208.11149414 4.63378906 207.62158203 C5.49713867 207.08645996 6.36048828 206.55133789 7.25 206 C9.14490842 204.87084224 11.0407825 203.74330379 12.9375 202.6171875 C13.93007812 202.02131836 14.92265625 201.42544922 15.9453125 200.81152344 C20.99233729 197.81848284 26.12200288 194.9763016 31.25 192.125 C33.3647706 190.94304333 35.47935235 189.7607487 37.59375 188.578125 C40.79804718 186.78817877 44.00253931 184.99858189 47.20703125 183.20898438 C48.26277344 182.61923828 49.31851563 182.02949219 50.40625 181.421875 C51.45780273 180.83583496 52.50935547 180.24979492 53.59277344 179.64599609 C55.68541927 178.47215965 57.77213455 177.28768284 59.85253906 176.09228516 C64.88640418 173.21178677 69.88701568 170.55130821 75.203125 168.2265625 C83.33180347 164.66904663 83.33180347 164.66904663 90 159 C92.60143509 151.94394656 91.96854047 144.3370123 91 137 C90.37359619 137.35078613 89.74719238 137.70157227 89.10180664 138.06298828 C87.19531666 139.13062267 85.28882206 140.1982488 83.38232422 141.26586914 C81.13782488 142.52280858 78.89335965 143.7798089 76.64892578 145.03686523 C70.96075668 148.22261608 65.27211938 151.4075211 59.58203125 154.58984375 C49.42098346 160.27362759 39.26577255 165.96761023 29.125 171.6875 C28.1858374 172.21496826 27.2466748 172.74243652 26.27905273 173.28588867 C21.66039127 175.88914888 17.08078927 178.53795755 12.55078125 181.29296875 C11.25599854 182.07184448 11.25599854 182.07184448 9.93505859 182.86645508 C8.3185596 183.84283311 6.71013182 184.8327548 5.11181641 185.83862305 C1.93856645 187.74676988 -0.20559697 188.96944604 -3.9453125 189.11328125 C-8.37510553 187.49884261 -12.2711078 185.22316836 -16.3125 182.8125 C-18.1985215 181.71104481 -20.08527106 180.61083557 -21.97265625 179.51171875 C-22.9589502 178.93470215 -23.94524414 178.35768555 -24.96142578 177.76318359 C-30.02476269 174.82509753 -35.13752444 171.97644266 -40.25 169.125 C-42.36721331 167.94145243 -44.4844006 166.7578583 -46.6015625 165.57421875 C-48.18565918 164.68935791 -48.18565918 164.68935791 -49.80175781 163.78662109 C-59.20605972 158.53313397 -68.60489803 153.26991999 -78 148 C-79.06750488 147.40171387 -80.13500977 146.80342773 -81.23486328 146.18701172 C-84.38724346 144.41899756 -87.53764918 142.64751567 -90.6875 140.875 C-92.11280029 140.07630493 -92.11280029 140.07630493 -93.56689453 139.26147461 C-94.45618652 138.76010986 -95.34547852 138.25874512 -96.26171875 137.7421875 C-97.42127075 137.09032471 -97.42127075 137.09032471 -98.60424805 136.42529297 C-99.39484619 135.95494629 -100.18544434 135.48459961 -101 135 C-102.07564209 134.47647949 -103.15128418 133.95295898 -104.25952148 133.41357422 C-107.24698691 130.7824755 -107.41510509 130.49475997 -107.68115234 126.78222656 C-107.68020562 125.06806579 -107.64648503 123.35371637 -107.5859375 121.640625 C-107.57744781 120.73624695 -107.56895813 119.8318689 -107.56021118 118.90008545 C-107.52666085 116.01550443 -107.45138076 113.13373379 -107.375 110.25 C-107.34490241 108.29300916 -107.31752624 106.33597445 -107.29296875 104.37890625 C-107.22686431 99.58485698 -107.12333286 94.79290469 -107 90 C-104.84472656 88.83789062 -104.84472656 88.83789062 -102 88 C-99.35058594 88.92773438 -99.35058594 88.92773438 -96.484375 90.59375 C-94.8741748 91.51051514 -94.8741748 91.51051514 -93.23144531 92.44580078 C-92.07083278 93.13031218 -90.91035449 93.81505125 -89.75 94.5 C-88.5410924 95.19568128 -87.3311138 95.8895045 -86.12011719 96.58154297 C-83.62601609 98.00937201 -81.13733013 99.44601783 -78.65234375 100.88964844 C-73.22340282 104.03673092 -67.73323462 107.07389419 -62.25 110.125 C-55.23828234 114.05057045 -48.23431993 117.9898389 -41.23901367 121.94458008 C-39.34730552 123.01323151 -37.45426152 124.07952208 -35.55981445 125.14331055 C-30.55505967 127.95943504 -25.59045713 130.82864921 -20.66015625 133.7734375 C-19.61875488 134.38630615 -18.57735352 134.9991748 -17.50439453 135.63061523 C-15.50459597 136.80881211 -13.51408677 138.0029644 -11.53466797 139.21508789 C-6.55459776 142.2711909 -6.55459776 142.2711909 -0.9296875 142.67578125 C0.52050781 141.84626953 0.52050781 141.84626953 2 141 C2.66668701 140.64156006 3.33337402 140.28312012 4.02026367 139.91381836 C6.48106554 138.57369427 8.89571891 137.16791171 11.3125 135.75 C13.19861502 134.65781091 15.08536044 133.56670991 16.97265625 132.4765625 C18.45209717 131.62046387 18.45209717 131.62046387 19.96142578 130.74707031 C25.03385967 127.83060423 30.14162568 124.97790024 35.25 122.125 C36.28938721 121.54363281 37.32877441 120.96226563 38.3996582 120.36328125 C44.86131857 116.75003234 51.32638803 113.14292662 57.79614258 109.54418945 C59.91401477 108.35816166 62.02599099 107.16153693 64.1315918 105.95385742 C68.7979832 103.28302865 73.40457807 100.75941643 78.34765625 98.63671875 C84.91423259 95.82036243 84.91423259 95.82036243 90 91 C91.92561445 84.15081658 91.05844952 76.94074677 90 70 C75.45519311 77.99353772 60.92199343 86.00330902 46.48632812 94.19287109 C38.25868851 98.86030755 30.01077117 103.49099952 21.74389648 108.08862305 C17.29905274 110.5652625 12.87020193 113.0495431 8.5234375 115.6953125 C7.88156494 116.08162842 7.23969238 116.46794434 6.57836914 116.8659668 C4.96710715 117.84368405 3.36763887 118.84077005 1.76953125 119.83984375 C-1.72090174 121.30198564 -3.34398173 120.86758206 -7 120 C-9.79467773 118.71582031 -9.79467773 118.71582031 -12.68359375 117.078125 C-14.30418701 116.16824829 -14.30418701 116.16824829 -15.95751953 115.23999023 C-17.11760802 114.57682631 -18.27759908 113.91349193 -19.4375 113.25 C-20.64911848 112.56567549 -21.86120225 111.88217418 -23.07373047 111.19946289 C-26.14369772 109.46839581 -29.20787956 107.72736274 -32.27056885 105.98345947 C-34.84752367 104.51804663 -37.42956695 103.06169993 -40.01171875 101.60546875 C-43.76258389 99.48947996 -47.51104863 97.36933551 -51.2578125 95.24609375 C-58.36205585 91.22443172 -65.48868965 87.24293731 -72.61401367 83.25878906 C-81.06351432 78.53136877 -89.49498587 73.77254241 -97.91796875 68.99804688 C-98.8203125 68.48693359 -99.72265625 67.97582031 -100.65234375 67.44921875 C-101.44632568 66.99893311 -102.24030762 66.54864746 -103.05834961 66.0847168 C-104.3559256 65.35981674 -105.67058402 64.66470799 -107 64 C-107.42578125 60.78125 -107.42578125 60.78125 -107 57 C-104.67426607 55.03181896 -102.85248528 53.85921537 -100.1875 52.5 C-99.44048828 52.09040039 -98.69347656 51.68080078 -97.92382812 51.25878906 C-96.23419846 50.33428746 -94.5382558 49.42126454 -92.83740234 48.51757812 C-88.66574265 46.28637552 -84.544656 43.96659996 -80.41577148 41.6574707 C-76.94607503 39.71988666 -73.47021801 37.79365541 -69.9921875 35.87109375 C-55.50612913 27.85950881 -41.06336386 19.77024488 -26.6875 11.5625 C-25.39320068 10.82604248 -25.39320068 10.82604248 -24.07275391 10.07470703 C-20.4175878 7.98818364 -16.78152574 5.88643627 -13.20703125 3.6640625 C-11.61955078 2.68566406 -11.61955078 2.68566406 -10 1.6875 C-9.13375 1.13449219 -8.2675 0.58148438 -7.375 0.01171875 C-4.38193352 -1.26328819 -3.110194 -0.83088632 0 0 Z " fill="#EE3D2C" transform="translate(107,1)"/>
<path d="M0 0 C8.91 0 17.82 0 27 0 C27 22.77 27 45.54 27 69 C32.63344798 67.8733104 33.20335036 66.973238 37 63 C49.67246057 52.13789094 63.72094017 49.81883258 80 51 C95.49663077 53.15432133 109.07453518 61.47817271 118.75 73.625 C130.00692381 89.38469334 133.6323252 108.19050896 131.375 127.25 C128.39615284 144.56703148 119.37093927 160.29444391 105.1875 170.8125 C90.68219009 180.34777349 74.84025588 183.0119018 57.875 179.875 C47.73449151 177.45523382 40.2707496 172.79886082 32.875 165.5390625 C31.01781832 163.68276767 31.01781832 163.68276767 28 164 C27.67 168.62 27.34 173.24 27 178 C18.09 178 9.18 178 0 178 C0 119.26 0 60.52 0 0 Z M35.66796875 87.515625 C27.93693081 97.55593402 23.91174505 108.74983297 25.40625 121.453125 C27.54327407 133.20675738 32.58196677 142.50231042 42 150 C51.70580843 156.07385782 61.93638485 158.70781741 73.24609375 156.3125 C80.24080605 154.37177058 85.72691862 152.01503697 91 147 C91.68835938 146.35160156 92.37671875 145.70320313 93.0859375 145.03515625 C100.91120338 136.99171382 104.48438696 127.47638907 105.25 116.375 C105.05237261 104.89065296 100.45041364 94.09568148 92.7890625 85.62890625 C84.04993979 77.67210675 73.82899191 74.3849741 62.19921875 74.72265625 C51.96517611 75.60985653 42.69859904 79.9314945 35.66796875 87.515625 Z " fill="#000000" transform="translate(805,13)"/>
<path d="M0 0 C8.58 0 17.16 0 26 0 C26 58.74 26 117.48 26 178 C17.42 178 8.84 178 0 178 C-0.22786458 174.6796875 -0.45572917 171.359375 -0.68359375 168.0390625 C-0.81084936 165.08481099 -0.81084936 165.08481099 -2 163 C-6.29641368 163.4773793 -8.0725589 166.00602614 -11 169 C-21.61117634 178.25807331 -34.30346926 181.55226187 -48.1796875 181.3125 C-65.51635623 179.89436759 -79.1881141 172.63990079 -91 160 C-104.7876685 142.35581728 -106.93179689 121.95997309 -104.60546875 100.33203125 C-101.1229084 84.04263608 -91.22826537 69.16446786 -77.375 60 C-62.83086932 51.50903735 -46.80386606 48.0280111 -30.125 52.125 C-20.7133494 55.19937585 -10.64012018 59.53981973 -5 68 C-4.01 68 -3.02 68 -2 68 C-0.59979145 65.19958289 -0.83636665 62.84697961 -0.79467773 59.71435547 C-0.78477814 59.07032776 -0.77487854 58.42630005 -0.76467896 57.76275635 C-0.73305501 55.63093765 -0.70830313 53.49909665 -0.68359375 51.3671875 C-0.66302498 49.89030371 -0.64202853 48.41342582 -0.62062073 46.93655396 C-0.56539201 43.04694389 -0.5159863 39.15728063 -0.46777344 35.26757812 C-0.41756423 31.29943093 -0.36187514 27.33136111 -0.30664062 23.36328125 C-0.19904926 15.57558449 -0.09811282 7.787823 0 0 Z M-69.36328125 88.87109375 C-77.8443541 99.90256082 -79.07406471 111.58319171 -78 125 C-76.04018499 135.0115851 -69.86325982 143.28470526 -62.0234375 149.65234375 C-52.44688672 156.03054842 -42.15934436 158.58738174 -30.84765625 156.38671875 C-20.06108275 153.47524172 -11.0415661 148.10737053 -5.2109375 138.3671875 C0.43168602 127.33676862 2.85365669 116.50580446 -0.25 104.28515625 C-3.90023843 93.16333604 -10.20652606 84.91957509 -20.47265625 79.25390625 C-37.96752688 70.5740709 -56.05578983 75.00524605 -69.36328125 88.87109375 Z " fill="#000000" transform="translate(376,13)"/>
<path d="M0 0 C3.48692865 2.84989361 6.778858 5.85424643 10 9 C10.99 8.67 11.98 8.34 13 8 C13.495 1.565 13.495 1.565 14 -5 C22.58 -5 31.16 -5 40 -5 C40 35.92 40 76.84 40 119 C31.42 119 22.84 119 14 119 C13.67 114.38 13.34 109.76 13 105 C11.02 104.505 11.02 104.505 9 104 C8.401875 104.845625 7.80375 105.69125 7.1875 106.5625 C-0.3591896 115.55475268 -12.59895581 120.47023964 -24 122 C-40.47842533 123.04881043 -55.67717913 119.69522071 -68.3125 108.625 C-69.89208286 107.1008411 -71.4559866 105.56018108 -73 104 C-73.62519531 103.40832031 -74.25039063 102.81664062 -74.89453125 102.20703125 C-87.25928993 89.56315837 -91.52230724 71.72510273 -91.42236328 54.59277344 C-90.87116349 35.54936089 -83.48191322 18.88738049 -69.5859375 5.7109375 C-63.88643954 0.87993447 -57.98349522 -2.38860802 -51 -5 C-50.17242188 -5.3196875 -49.34484375 -5.639375 -48.4921875 -5.96875 C-32.94773318 -11.10269822 -13.71032134 -8.91604758 0 0 Z M-56.39453125 31.71484375 C-63.86192561 42.34361675 -65.58347364 54.19051499 -63.5390625 66.85546875 C-60.47990881 78.1743374 -53.78818648 86.98691445 -43.9609375 93.3125 C-34.25846937 98.56961421 -24.00921258 99.30780351 -13.5 96.375 C-2.28511662 92.64542968 5.29937169 86.45760082 10.75 76 C15.73198338 65.29914824 17.04397404 53.69941743 13.03125 42.3671875 C8.11965486 31.0928441 0.58778061 22.57729379 -11 18 C-28.03856771 11.31820874 -45.18940301 18.40715141 -56.39453125 31.71484375 Z " fill="#000000" transform="translate(743,72)"/>
<path d="M0 0 C0.83660156 0.32871094 1.67320312 0.65742187 2.53515625 0.99609375 C9.45465448 4.08687426 14.61448043 8.74052451 20 14 C20.99 13.67 21.98 13.34 23 13 C23.495 6.565 23.495 6.565 24 0 C32.58 0 41.16 0 50 0 C50 40.92 50 81.84 50 124 C41.42 124 32.84 124 24 124 C23.505 116.575 23.505 116.575 23 109 C18.61035859 110.09741035 17.65757464 111.07154796 14.5625 114.1875 C3.9108582 124.03909212 -9.19933653 127.58114459 -23.4375 127.3125 C-40.71007065 125.79736222 -54.28969149 118.6350998 -65.96875 105.84375 C-78.02988396 91.24342995 -82.04557473 73.59221969 -81 55 C-78.5212663 35.91179878 -70.73752514 20.51220084 -56 8 C-39.97544989 -3.12932201 -18.58125137 -7.34331054 0 0 Z M-44.25 34.25 C-52.16277029 44.20690262 -55.19097211 55.44898623 -54 68 C-51.84504432 79.42944846 -46.6105775 88.81653333 -37.3125 95.9375 C-29.21210021 101.12175586 -19.6377724 104.14650081 -10 103 C-9.28585937 102.9175 -8.57171875 102.835 -7.8359375 102.75 C1.66606682 101.13835262 11.31481781 95.8749294 17 88 C23.94980217 75.78900221 27.11410225 64.63091418 24.31640625 50.5625 C21.10599127 40.11866041 14.83567511 32.37582316 6 26 C-11.23662733 17.2171664 -30.86103001 19.77083398 -44.25 34.25 Z " fill="#000000" transform="translate(499,67)"/>
<path d="M0 0 C8.58 0 17.16 0 26 0 C26.33 32.34 26.66 64.68 27 98 C28.32 98.33 29.64 98.66 31 99 C33.51221457 97.20131245 33.51221457 97.20131245 35.95703125 94.56640625 C36.42308273 94.0956517 36.88913422 93.62489716 37.36930847 93.13987732 C38.86242365 91.62539471 40.33711153 90.09423593 41.8125 88.5625 C42.79381755 87.56466795 43.77622894 86.5679104 44.75976562 85.57226562 C54.40225732 75.7784329 54.40225732 75.7784329 62.8046875 64.9375 C67.26133203 58.94770464 71.30389209 54.63697411 78.91845703 53.32470703 C88.58276729 52.50870253 98.35785388 53.17772304 108 54 C103.32990588 59.67516798 98.25475457 64.81603894 93.00123787 69.95166588 C90.99022201 71.92011978 88.9889367 73.8983496 86.98692226 75.87595081 C83.27294214 79.54437984 79.55496024 83.20854339 75.82104492 86.85668945 C73.20982662 89.40866323 70.61086249 91.97255985 68.01968193 94.54487038 C67.03254393 95.52025382 66.04088328 96.49108189 65.0446949 97.45722008 C63.65916132 98.80193287 62.29018929 100.16364741 60.92211914 101.52612305 C60.13857559 102.29554733 59.35503204 103.06497162 58.54774475 103.85771179 C56.76038916 105.84952367 56.76038916 105.84952367 57.14988708 108.13337708 C58.3511185 110.77096327 60.00457145 112.72427049 61.875 114.9375 C63.09123047 116.38769531 63.09123047 116.38769531 64.33203125 117.8671875 C65.22073581 118.91198462 66.11007561 119.95624169 67 121 C67.92088737 122.08567085 68.8414564 123.1716118 69.76171875 124.2578125 C71.16743315 125.91681098 72.57352342 127.57546684 73.98193359 129.23217773 C77.37575422 133.23275797 80.66087647 137.30904972 83.91796875 141.421875 C86.33084346 144.40967482 88.81807427 147.33046239 91.3125 150.25 C96.23057327 156.01429523 100.93787523 161.92602551 105.58984375 167.90625 C107.13450051 169.88901848 108.70788061 171.84993423 110.31640625 173.78125 C112 176 112 176 112 178 C81.89822336 180.24759223 81.89822336 180.24759223 75.8125 175.59765625 C73.38036966 172.99961443 71.66958589 170.04290994 70.04541016 166.890625 C68.21872768 163.58706845 65.76105017 160.78550553 63.375 157.875 C62.45007364 156.69509394 61.5281357 155.51283842 60.609375 154.328125 C57.62420702 150.5062384 54.56004878 146.75280748 51.46484375 143.01953125 C49.50755392 140.62177366 47.5923938 138.203686 45.69140625 135.76171875 C44.82298096 134.65932861 44.82298096 134.65932861 43.93701172 133.53466797 C42.78693853 132.07388564 41.64630607 130.60561187 40.51611328 129.12939453 C39.72503174 128.13141846 39.72503174 128.13141846 38.91796875 127.11328125 C38.45156982 126.51298096 37.9851709 125.91268066 37.50463867 125.29418945 C35.82535264 123.5652685 35.82535264 123.5652685 32 124 C30.37485532 125.45833358 30.37485532 125.45833358 29 127 C28.34 127 27.68 127 27 127 C26.67 143.83 26.34 160.66 26 178 C17.42 178 8.84 178 0 178 C0 119.26 0 60.52 0 0 Z " fill="#000000" transform="translate(1216,13)"/>
<path d="M0 0 C1.2188166 1.00829373 2.43182198 2.02399321 3.625 3.0625 C2.30379172 5.99480193 0.87861803 8.04914899 -1.4140625 10.296875 C-1.99414062 10.87050781 -2.57421875 11.44414063 -3.171875 12.03515625 C-3.77515625 12.62167969 -4.3784375 13.20820312 -5 13.8125 C-5.61101562 14.41449219 -6.22203125 15.01648438 -6.8515625 15.63671875 C-8.35488624 17.11655305 -9.86434856 18.59014676 -11.375 20.0625 C-15.22564113 18.57929009 -18.91043811 16.85697434 -22.625 15.0625 C-35.33626826 9.20016031 -47.02194488 8.38804874 -60.375 13.0625 C-71.85775987 18.32065395 -77.99513923 26.40700275 -82.375 38.0625 C-85.27055158 46.82292676 -84.21171579 58.26747301 -80.6328125 66.6015625 C-74.972465 77.67615544 -68.13633534 83.57925737 -56.5078125 88.08203125 C-44.5572082 91.82218297 -32.62262623 89.91313843 -21.60498047 84.24804688 C-19.83165116 83.29393129 -18.08297386 82.29441637 -16.3359375 81.29296875 C-13.375 80.0625 -13.375 80.0625 -11.3671875 80.48046875 C-8.39660799 82.83945836 -5.76359357 85.46684491 -3.125 88.1875 C-2.57070312 88.75082031 -2.01640625 89.31414062 -1.4453125 89.89453125 C-0.08395515 91.27936028 1.27114859 92.67033204 2.625 94.0625 C1.12391875 98.31556356 -1.9598028 100.15225821 -5.625 102.4375 C-6.24544189 102.8281665 -6.86588379 103.21883301 -7.50512695 103.62133789 C-25.60093654 114.71702847 -44.8600397 117.87961279 -65.56640625 113.234375 C-75.94884579 110.03977822 -85.85608192 105.0076606 -93.375 97.0625 C-94.36693359 96.09957031 -94.36693359 96.09957031 -95.37890625 95.1171875 C-108.3930645 81.73260729 -111.8846116 65.15878813 -111.79711914 47.07006836 C-111.36537241 28.90697888 -105.17752172 14.93124166 -92.375 2.0625 C-91.77171875 1.42441406 -91.1684375 0.78632812 -90.546875 0.12890625 C-66.80707462 -23.04320326 -24.66476478 -19.00841466 0 0 Z " fill="#000000" transform="translate(1196.375,78.9375)"/>
<path d="M0 0 C6.12400779 4.55374939 11.1309315 9.70506821 14.28515625 16.69921875 C13.07161204 20.33985138 12.34155155 20.49165294 9.03125 22.1796875 C8.17724609 22.62119141 7.32324219 23.06269531 6.44335938 23.51757812 C5.54552734 23.96939453 4.64769531 24.42121094 3.72265625 24.88671875 C2.82095703 25.35013672 1.91925781 25.81355469 0.99023438 26.29101562 C-1.24048051 27.43587988 -3.47544845 28.57145434 -5.71484375 29.69921875 C-8.16512305 27.31176713 -10.37518105 24.90348813 -12.46484375 22.19921875 C-16.50971438 17.52045048 -20.46626949 15.11880824 -26.6484375 14.3203125 C-33.16008991 14.06830098 -37.64097229 14.48898498 -42.71484375 18.69921875 C-45.18038545 22.65902814 -45.8538727 24.69125889 -45.21484375 29.32421875 C-42.49737766 35.43851745 -39.19250582 37.6858834 -33.08984375 40.07421875 C-30.63592548 40.9655398 -28.18024705 41.84107216 -25.71484375 42.69921875 C6.56632003 53.94439242 6.56632003 53.94439242 13.59375 67.16015625 C17.46478953 76.29527377 17.76474896 86.15608457 14.66015625 95.57421875 C10.52073286 105.41075796 3.75710708 112.69604732 -5.97265625 117.2109375 C-20.87495321 123.13451568 -36.6345309 123.7651564 -51.62109375 117.48046875 C-62.05549385 112.20464848 -70.90606369 104.52874783 -75.71484375 93.69921875 C-75.71484375 92.70921875 -75.71484375 91.71921875 -75.71484375 90.69921875 C-72.6160123 89.02248738 -69.5099592 87.35960535 -66.40234375 85.69921875 C-65.52126953 85.22226563 -64.64019531 84.7453125 -63.73242188 84.25390625 C-62.88486328 83.80273438 -62.03730469 83.3515625 -61.1640625 82.88671875 C-60.38377686 82.46777344 -59.60349121 82.04882812 -58.79956055 81.6171875 C-56.71484375 80.69921875 -56.71484375 80.69921875 -53.71484375 80.69921875 C-52.20703125 82.67578125 -52.20703125 82.67578125 -50.58984375 85.32421875 C-46.53900422 91.40047804 -41.67404283 95.37948572 -34.71484375 97.69921875 C-27.07443795 98.33679023 -19.9891368 98.58994974 -13.71484375 93.69921875 C-11.00005181 90.72991507 -10.47732792 88.1727329 -10.21484375 84.26171875 C-10.39074312 80.47360016 -11.10642 77.81137443 -13.88671875 75.0234375 C-20.19657254 70.45283828 -28.22375564 68.52170806 -35.55444336 66.16137695 C-51.64582348 60.96401209 -51.64582348 60.96401209 -58.71484375 55.69921875 C-59.28976562 55.3021875 -59.8646875 54.90515625 -60.45703125 54.49609375 C-66.18988474 50.21784487 -70.02114208 43.95092023 -71.4296875 36.94921875 C-72.74796208 26.54749058 -71.94535141 16.65849968 -65.7265625 7.8984375 C-49.00931058 -11.59058675 -21.21653934 -13.69587987 0 0 Z " fill="#000000" transform="translate(1403.71484375,72.30078125)"/>
<path d="M0 0 C8.58 0 17.16 0 26 0 C26.06058594 2.65933594 26.12117187 5.31867187 26.18359375 8.05859375 C26.2453353 10.62348412 26.30874277 13.18832824 26.37231445 15.75317383 C26.415727 17.5408927 26.45739729 19.32865474 26.49731445 21.11645508 C26.5548646 23.68063391 26.61860203 26.24459412 26.68359375 28.80859375 C26.70030624 29.6127623 26.71701874 30.41693085 26.73423767 31.24546814 C26.49220696 34.92669998 26.49220696 34.92669998 28 38 C29.99782126 38.15825258 32.00088834 38.25119171 34.00390625 38.31640625 C35.82631836 38.37924805 35.82631836 38.37924805 37.68554688 38.44335938 C39.60463867 38.50233398 39.60463867 38.50233398 41.5625 38.5625 C43.48739258 38.62727539 43.48739258 38.62727539 45.45117188 38.69335938 C48.63397445 38.79984719 51.81697243 38.90046421 55 39 C55 45.93 55 52.86 55 60 C52.21949219 60.09087891 52.21949219 60.09087891 49.3828125 60.18359375 C46.96353321 60.26798721 44.54426282 60.35263581 42.125 60.4375 C40.90167969 60.47681641 39.67835938 60.51613281 38.41796875 60.55664062 C37.25136719 60.59853516 36.08476563 60.64042969 34.8828125 60.68359375 C33.26463623 60.73858032 33.26463623 60.73858032 31.61376953 60.79467773 C29.01930464 60.83376643 29.01930464 60.83376643 27 62 C26.95341717 69.51990526 26.91800009 77.03979533 26.89637566 84.55981255 C26.88599083 88.05262263 26.87193007 91.54533314 26.84912109 95.03808594 C26.82299545 99.0644622 26.81348346 103.09073579 26.8046875 107.1171875 C26.79436493 108.35612762 26.78404236 109.59506775 26.77340698 110.87155151 C26.69468268 124.90878547 26.69468268 124.90878547 33 137 C38.47072698 140.66451871 43.54885893 140.35335938 49.875 140.1875 C53.21625 140.125625 56.5575 140.06375 60 140 C60 147.59 60 155.18 60 163 C50.62244142 167.68877929 31.90668337 165.9034315 22 163 C13.85013716 159.95177274 7.38352001 154.02881389 3.6484375 146.1484375 C1.09960349 139.3454345 -0.11487724 133.18915894 -0.20532227 125.91479492 C-0.21522186 125.22156128 -0.22512146 124.52832764 -0.23532104 123.81408691 C-0.26675875 121.53624823 -0.29162284 119.25838873 -0.31640625 116.98046875 C-0.33699112 115.39577206 -0.35798799 113.81108067 -0.37937927 112.22639465 C-0.43444171 108.06556505 -0.48392045 103.90468721 -0.53222656 99.74377441 C-0.58255752 95.49385306 -0.63818293 91.24400134 -0.69335938 86.99414062 C-0.80074721 78.66281938 -0.90223479 70.33143969 -1 62 C-3.34852528 60.82573736 -4.73774065 60.88491827 -7.3515625 60.90234375 C-8.11807129 60.90484131 -8.88458008 60.90733887 -9.67431641 60.90991211 C-10.64804199 60.91901611 -11.62176758 60.92812012 -12.625 60.9375 C-17.265625 60.9684375 -17.265625 60.9684375 -22 61 C-22 53.74 -22 46.48 -22 39 C-12.0625 38.5625 -12.0625 38.5625 -8.92602539 38.43188477 C-7.71160767 38.3747229 -7.71160767 38.3747229 -6.47265625 38.31640625 C-5.22367554 38.26141968 -5.22367554 38.26141968 -3.94946289 38.20532227 C-1.99661142 38.20632897 -1.99661142 38.20632897 -1 37 C-0.83989519 34.26298822 -0.74053172 31.5483241 -0.68359375 28.80859375 C-0.66281265 27.98875504 -0.64203156 27.16891632 -0.62062073 26.32423401 C-0.55503506 23.69541099 -0.49619874 21.06648496 -0.4375 18.4375 C-0.39432333 16.65949439 -0.35070933 14.88149935 -0.30664062 13.10351562 C-0.19851829 8.73578128 -0.09951272 4.36797309 0 0 Z " fill="#000000" transform="translate(587,28)"/>
<path d="M0 0 C0 8.91 0 17.82 0 27 C-2.26875 27.0825 -4.5375 27.165 -6.875 27.25 C-15.9226021 27.75144519 -23.05913548 29.92674355 -30 36 C-30.66 36 -31.32 36 -32 36 C-32.268125 36.55171875 -32.53625 37.1034375 -32.8125 37.671875 C-34.12688448 40.24876036 -35.56484876 42.73848534 -37 45.25 C-43.2140539 56.64999183 -43.14255869 68.85248745 -43.31640625 81.56640625 C-43.33718735 82.84104233 -43.35796844 84.11567841 -43.37937927 85.42893982 C-43.43337874 88.78745451 -43.4837183 92.1459821 -43.53222656 95.50457764 C-43.58282069 98.94385626 -43.63826052 102.38305671 -43.69335938 105.82226562 C-43.80076222 112.5481155 -43.90018275 119.27401622 -44 126 C-52.58 126 -61.16 126 -70 126 C-70 85.08 -70 44.16 -70 2 C-61.42 2 -52.84 2 -44 2 C-43.505 9.92 -43.505 9.92 -43 18 C-41.68 18 -40.36 18 -39 18 C-37.29498224 16.22168885 -37.29498224 16.22168885 -35.8125 13.875 C-29.31618501 5.06549822 -20.84574802 1.41636166 -10.375 -0.75 C-7 -1 -7 -1 0 0 Z " fill="#000000" transform="translate(1023,65)"/>
<path d="M0 0 C8.91 0 17.82 0 27 0 C27 40.92 27 81.84 27 124 C18.09 124 9.18 124 0 124 C0 83.08 0 42.16 0 0 Z " fill="#000000" transform="translate(1041,67)"/>
<path d="M0 0 C3.55036548 2.69827777 5.29914887 4.28509347 7.125 8.375 C7.87159407 13.97830397 7.8997572 18.70629219 5.5 23.875 C1.92361988 27.63961066 -1.15931351 29.88942835 -6.1875 31.3125 C-11.48378989 31.40226763 -16.45832317 30.52824761 -20.5234375 26.90625 C-24.91191286 21.73140044 -25.28223731 18.04823913 -25.21875 11.4296875 C-24.71581803 6.96045109 -23.17340549 4.36718747 -19.875 1.375 C-14.10974149 -2.78134916 -6.35182078 -3.26469928 0 0 Z " fill="#000000" transform="translate(1062.875,14.625)"/>
<path d="" fill="#000000" transform="translate(0,0)"/>
</svg>
