<?xml version="1.0" encoding="utf-8"?>
<!-- Generator: Adobe Illustrator 24.1.1, SVG Export Plug-In . SVG Version: 6.00 Build 0)  -->
<svg version="1.1" id="Calque_1" xmlns="http://www.w3.org/2000/svg" xmlns:xlink="http://www.w3.org/1999/xlink" x="0px" y="0px"
	 viewBox="0 0 396.85 170.08" style="enable-background:new 0 0 396.85 170.08;" xml:space="preserve">
<style type="text/css">
	.st0{fill:#164194;}
	.st1{fill:#FFED00;}
</style>
<g>
	<g>
		<rect x="311.93" y="64.01" class="st0" width="73.01" height="48.67"/>
		<polygon class="st1" points="346.88,74.62 348.42,73.49 349.96,74.62 349.37,72.8 350.94,71.67 349.01,71.67 348.42,69.83 
			347.83,71.68 345.9,71.67 347.46,72.8 		"/>
		<polygon class="st1" points="338.9,76.76 340.45,75.63 341.98,76.76 341.4,74.94 342.96,73.82 341.03,73.82 340.44,71.97 
			339.85,73.82 337.93,73.82 339.49,74.94 		"/>
		<polygon class="st1" points="334.61,77.82 334.02,79.66 332.09,79.66 333.66,80.79 333.07,82.6 334.61,81.48 336.15,82.6 
			335.57,80.79 337.13,79.66 335.2,79.66 		"/>
		<polygon class="st1" points="332.47,89.44 334.01,90.57 333.43,88.75 334.99,87.62 333.06,87.62 332.47,85.78 331.88,87.63 
			329.95,87.62 331.52,88.75 330.93,90.57 		"/>
		<polygon class="st1" points="335.2,95.61 334.61,93.77 334.02,95.61 332.09,95.61 333.66,96.74 333.07,98.55 334.61,97.43 
			336.15,98.55 335.57,96.74 337.13,95.61 		"/>
		<polygon class="st1" points="341.05,101.46 340.46,99.62 339.87,101.46 337.94,101.46 339.5,102.58 338.92,104.4 340.46,103.27 
			342,104.4 341.41,102.58 342.98,101.46 		"/>
		<polygon class="st1" points="349.01,103.57 348.42,101.73 347.83,103.58 345.9,103.57 347.46,104.7 346.88,106.52 348.42,105.39 
			349.96,106.52 349.37,104.7 350.94,103.57 		"/>
		<polygon class="st1" points="356.97,101.46 356.38,99.62 355.79,101.46 353.86,101.46 355.43,102.58 354.84,104.4 356.38,103.27 
			357.92,104.4 357.34,102.58 358.9,101.46 		"/>
		<polygon class="st1" points="362.82,95.61 362.23,93.77 361.64,95.61 359.71,95.61 361.27,96.74 360.69,98.55 362.23,97.43 
			363.77,98.55 363.18,96.74 364.74,95.61 		"/>
		<polygon class="st1" points="366.86,87.6 364.93,87.6 364.34,85.76 363.75,87.6 361.82,87.6 363.39,88.73 362.8,90.55 
			364.34,89.42 365.88,90.55 365.3,88.73 		"/>
		<polygon class="st1" points="360.69,82.58 362.23,81.46 363.77,82.58 363.18,80.76 364.74,79.64 362.82,79.64 362.23,77.8 
			361.64,79.64 359.71,79.64 361.27,80.76 		"/>
		<polygon class="st1" points="356.4,71.98 355.82,73.82 353.89,73.82 355.45,74.94 354.86,76.76 356.41,75.63 357.94,76.76 
			357.36,74.94 358.92,73.82 356.99,73.82 		"/>
	</g>
	<g>
		<circle class="st1" cx="54.77" cy="122.52" r="11.49"/>
		<g>
			<path class="st1" d="M18.29,87.07c0-39.11,31.71-70.82,70.82-70.82c18.92,0,36.1,7.43,48.8,19.52
				c-13.17-15.08-32.53-24.62-54.13-24.62c-39.69,0-71.87,32.18-71.87,71.87c0,28.59,16.7,53.29,40.88,64.86
				C32.13,135.5,18.29,112.91,18.29,87.07z"/>
			<g>
				<path class="st0" d="M85.54,153.15c-33.25,0-60.2-26.95-60.2-60.2s26.95-60.2,60.2-60.2c19.75,0,37.28,9.51,48.25,24.2h19.41
					c-11.32-24.06-35.76-40.72-64.11-40.72c-39.11,0-70.82,31.71-70.82,70.82s31.71,70.82,70.82,70.82
					c21.84,0,41.36-9.89,54.34-25.43h-12.5C119.91,145.12,103.67,153.15,85.54,153.15z"/>
			</g>
		</g>
	</g>
	<g>
		<path class="st0" d="M147.74,96.37c0,4.88-2.55,7.72-8.08,7.72h-5.74c-5.68,0-8.16-2.84-8.16-7.72V63.53h-8.74v33.5
			c0,10.34,5.39,15.66,15.87,15.66h7.34c10.49,0,15.95-5.32,15.95-15.66v-33.5h-8.45V96.37z"/>
		<path class="st0" d="M187.58,83.77h-6.51c-5.75,0-7.28-2.84-7.28-5.83c0-3.42,1.97-5.83,6.41-5.83h20.2v-8.59h-19.9
			c-10.92,0-15.29,5.97-15.29,14.13c0,6.85,3.06,14.2,16.17,14.2h6.43c6.04,0,7.72,2.91,7.72,6.12c0,3.57-2.11,6.12-6.77,6.12
			h-22.67v8.59h22.38c11.21,0,15.66-6.12,15.66-14.42C204.11,91.2,200.98,83.77,187.58,83.77z"/>
		<path class="st0" d="M233.42,63.53h-21.2v8.59h21.56c4.66,0,6.77,2.99,6.77,6.55c0,3.42-1.97,6.77-6.85,6.77h-13.7
			c-5.39,0-7.72,2.26-7.72,7.79v19.44h8.59V94.92c0-0.87,0.44-1.24,1.24-1.24h11.29c11.51,0,15.8-8.01,15.8-15.44
			C249.23,70.37,244.49,63.53,233.42,63.53z"/>
		<g>
			<path class="st0" d="M294.41,66.19c-0.22-0.53-0.53-1-0.93-1.4c-0.4-0.4-0.86-0.71-1.4-0.93c-0.53-0.22-1.1-0.33-1.69-0.33
				h-12.47c-3.43,0-6.6,0.59-9.5,1.76c-2.9,1.17-5.42,2.81-7.54,4.92c-2.13,2.1-3.79,4.62-4.98,7.54c-1.2,2.92-1.79,6.12-1.79,9.6
				v25.33h8.64V99.48h9.91c2.39,0,4.32-1.93,4.32-4.32v0c0-2.39-1.93-4.32-4.32-4.32h-9.91v-3.49c0-2.41,0.33-4.47,1.01-6.16
				c0.68-1.69,1.54-3.11,2.58-4.24c1.04-1.13,2.18-2.02,3.42-2.66c1.24-0.64,2.41-1.12,3.53-1.43c1.12-0.31,2.1-0.5,2.96-0.58
				s1.42-0.12,1.68-0.12h8.18v40.52h8.64v-44.8C294.75,67.28,294.64,66.72,294.41,66.19z"/>
		</g>
		<path class="st0" d="M87.68,72.12h20.61v-8.59H87.68c-11.58,0-16.46,5.53-16.46,13.4c0,0,0,0,0,0h9.14
			C80.88,73.95,83.17,72.12,87.68,72.12z"/>
		<path class="st0" d="M80.44,100.31h-9.32c0.41,7.13,5.22,12.38,16.34,12.38h20.9v-8.59h-20.9C83.6,104.09,81.3,102.7,80.44,100.31
			z"/>
		<path class="st0" d="M80.85,83.88v8.45h14.31c2.33,0,4.22-1.89,4.22-4.22c0-2.33-1.89-4.22-4.22-4.22H80.85z"/>
	</g>
	<g>
		<path class="st0" d="M71.34,127.29v-9.87h6.24v0.95h-5.11v3.43h4.83v0.95h-4.83v3.58h5.11v0.95H71.34z"/>
		<path class="st0" d="M85.06,120.48v6.82h-1.11v-1.16c-0.21,0.41-0.52,0.72-0.9,0.94s-0.82,0.32-1.31,0.32
			c-0.81,0-1.42-0.23-1.83-0.68c-0.41-0.45-0.62-1.12-0.62-2.01v-4.23h1.13v4.2c0,0.61,0.12,1.05,0.36,1.34
			c0.24,0.28,0.63,0.43,1.15,0.43c0.6,0,1.08-0.19,1.44-0.58c0.36-0.39,0.55-0.9,0.55-1.53v-3.85H85.06z"/>
		<path class="st0" d="M91.04,121.29l-0.74,0.07c-0.7,0.07-1.21,0.28-1.52,0.66c-0.31,0.37-0.47,0.83-0.47,1.39v3.89h-1.13v-6.82
			h1.11v1.19c0.38-0.79,1.13-1.24,2.25-1.33l0.41-0.03L91.04,121.29z"/>
		<path class="st0" d="M93.1,126.96c-0.49-0.29-0.87-0.7-1.13-1.24c-0.27-0.54-0.4-1.16-0.4-1.87c0-0.71,0.13-1.33,0.4-1.87
			c0.27-0.54,0.64-0.95,1.13-1.24c0.49-0.29,1.06-0.43,1.7-0.43s1.21,0.14,1.71,0.43s0.88,0.7,1.14,1.24
			c0.27,0.54,0.4,1.16,0.4,1.87c0,0.71-0.13,1.33-0.4,1.87c-0.27,0.54-0.65,0.95-1.14,1.24c-0.49,0.29-1.06,0.43-1.71,0.43
			S93.59,127.25,93.1,126.96z M96.35,125.79c0.36-0.44,0.54-1.09,0.54-1.94c0-0.83-0.18-1.47-0.55-1.93
			c-0.36-0.45-0.88-0.68-1.54-0.68s-1.18,0.23-1.54,0.68c-0.36,0.45-0.55,1.09-0.55,1.93c0,0.84,0.18,1.48,0.54,1.93
			s0.88,0.67,1.55,0.67S95.99,126.23,96.35,125.79z"/>
		<path class="st0" d="M104.76,120.76c0.46,0.3,0.81,0.72,1.06,1.25c0.25,0.54,0.38,1.16,0.38,1.87c0,0.71-0.13,1.33-0.38,1.86
			s-0.6,0.94-1.06,1.22c-0.45,0.29-0.98,0.43-1.59,0.43c-0.53,0-1-0.12-1.39-0.35s-0.7-0.56-0.9-0.99v3.77h-1.13v-9.34h1.13v1.18
			c0.21-0.43,0.51-0.76,0.9-0.99s0.86-0.35,1.39-0.35C103.77,120.31,104.3,120.46,104.76,120.76z M104.49,125.78
			c0.36-0.45,0.55-1.08,0.55-1.9s-0.18-1.46-0.55-1.92c-0.36-0.46-0.88-0.69-1.54-0.69s-1.17,0.22-1.53,0.67
			c-0.36,0.45-0.54,1.09-0.54,1.92c0,0.83,0.18,1.47,0.54,1.92c0.36,0.45,0.87,0.68,1.53,0.68S104.13,126.23,104.49,125.78z"/>
		<path class="st0" d="M113.6,124.06h-4.98c0.04,0.79,0.25,1.39,0.64,1.8s0.95,0.61,1.67,0.61c0.79,0,1.52-0.27,2.18-0.81l0.38,0.83
			c-0.3,0.28-0.68,0.5-1.15,0.67s-0.94,0.25-1.43,0.25c-1.06,0-1.9-0.31-2.51-0.94c-0.61-0.63-0.92-1.49-0.92-2.59
			c0-0.7,0.14-1.32,0.41-1.86c0.27-0.54,0.65-0.95,1.14-1.25c0.49-0.3,1.05-0.45,1.67-0.45c0.91,0,1.61,0.3,2.13,0.89
			c0.51,0.59,0.77,1.41,0.77,2.44V124.06z M109.28,121.75c-0.36,0.37-0.57,0.9-0.64,1.58h3.96c-0.02-0.69-0.19-1.22-0.52-1.59
			c-0.33-0.37-0.78-0.55-1.37-0.55C110.12,121.19,109.64,121.38,109.28,121.75z"/>
		<path class="st0" d="M119.98,120.97c0.42,0.44,0.64,1.12,0.64,2.02v4.3h-1.11v-1.16c-0.18,0.4-0.45,0.71-0.81,0.93
			c-0.36,0.22-0.78,0.33-1.26,0.33c-0.44,0-0.84-0.09-1.21-0.27c-0.37-0.18-0.66-0.42-0.88-0.74c-0.21-0.32-0.32-0.67-0.32-1.05
			c0-0.51,0.13-0.91,0.39-1.2c0.26-0.28,0.69-0.49,1.29-0.62c0.6-0.13,1.43-0.19,2.49-0.19h0.31v-0.46c0-0.57-0.12-0.98-0.35-1.24
			c-0.23-0.26-0.61-0.38-1.13-0.38c-0.78,0-1.56,0.24-2.34,0.73l-0.38-0.83c0.35-0.25,0.78-0.46,1.28-0.61
			c0.5-0.15,0.98-0.23,1.45-0.23C118.91,120.31,119.56,120.53,119.98,120.97z M118.97,125.93c0.36-0.38,0.54-0.87,0.54-1.46v-0.41
			h-0.25c-0.82,0-1.45,0.03-1.88,0.1c-0.43,0.07-0.73,0.19-0.92,0.35c-0.18,0.16-0.27,0.4-0.27,0.72c0,0.36,0.13,0.67,0.4,0.9
			c0.27,0.24,0.6,0.36,1,0.36C118.15,126.5,118.61,126.31,118.97,125.93z"/>
		<path class="st0" d="M128.57,123.01v4.28h-1.13v-4.21c0-0.63-0.12-1.1-0.37-1.39c-0.25-0.29-0.64-0.43-1.18-0.43
			c-0.63,0-1.13,0.19-1.5,0.57c-0.37,0.38-0.56,0.9-0.56,1.55v3.91h-1.13v-6.82h1.12v1.12c0.22-0.42,0.54-0.74,0.94-0.96
			c0.4-0.22,0.86-0.33,1.37-0.33C127.75,120.31,128.57,121.21,128.57,123.01z"/>
		<path class="st0" d="M135.35,126.4c-0.66-0.67-0.99-1.66-0.99-2.97v-6.01h1.13v6.1c0,0.96,0.24,1.68,0.71,2.17
			s1.16,0.73,2.08,0.73s1.61-0.24,2.07-0.73c0.47-0.49,0.7-1.21,0.7-2.17v-6.1h1.15v6.01c0,1.3-0.33,2.28-1,2.96
			c-0.67,0.68-1.64,1.01-2.92,1.01C136.98,127.41,136.01,127.07,135.35,126.4z"/>
		<path class="st0" d="M150.27,123.01v4.28h-1.13v-4.21c0-0.63-0.12-1.1-0.37-1.39c-0.25-0.29-0.64-0.43-1.18-0.43
			c-0.63,0-1.13,0.19-1.5,0.57c-0.37,0.38-0.56,0.9-0.56,1.55v3.91h-1.13v-6.82h1.12v1.12c0.22-0.42,0.54-0.74,0.94-0.96
			c0.4-0.22,0.86-0.33,1.37-0.33C149.45,120.31,150.27,121.21,150.27,123.01z"/>
		<path class="st0" d="M152.23,117.52h1.37v1.27h-1.37V117.52z M152.34,127.29v-6.82h1.13v6.82H152.34z"/>
		<path class="st0" d="M156.72,126.96c-0.49-0.29-0.87-0.7-1.13-1.24c-0.27-0.54-0.4-1.16-0.4-1.87c0-0.71,0.13-1.33,0.4-1.87
			c0.27-0.54,0.64-0.95,1.13-1.24c0.49-0.29,1.06-0.43,1.7-0.43s1.21,0.14,1.71,0.43s0.88,0.7,1.14,1.24
			c0.27,0.54,0.4,1.16,0.4,1.87c0,0.71-0.13,1.33-0.4,1.87c-0.27,0.54-0.65,0.95-1.14,1.24c-0.49,0.29-1.06,0.43-1.71,0.43
			S157.21,127.25,156.72,126.96z M159.96,125.79c0.36-0.44,0.54-1.09,0.54-1.94c0-0.83-0.18-1.47-0.55-1.93
			c-0.36-0.45-0.88-0.68-1.54-0.68s-1.18,0.23-1.54,0.68c-0.36,0.45-0.55,1.09-0.55,1.93c0,0.84,0.18,1.48,0.54,1.93
			s0.88,0.67,1.55,0.67S159.6,126.23,159.96,125.79z"/>
		<path class="st0" d="M169.24,123.01v4.28h-1.13v-4.21c0-0.63-0.12-1.1-0.37-1.39c-0.25-0.29-0.64-0.43-1.18-0.43
			c-0.63,0-1.13,0.19-1.5,0.57c-0.37,0.38-0.56,0.9-0.56,1.55v3.91h-1.13v-6.82h1.12v1.12c0.22-0.42,0.54-0.74,0.94-0.96
			c0.4-0.22,0.86-0.33,1.37-0.33C168.42,120.31,169.24,121.21,169.24,123.01z"/>
		<path class="st0" d="M182.64,127.29l-1.09-2.53h-5.15l-1.09,2.53h-1.18l4.34-9.87h0.99l4.34,9.87H182.64z M176.8,123.81h4.34
			l-2.17-5.05L176.8,123.81z"/>
		<path class="st0" d="M191.2,120.48v6.36c0,1.02-0.26,1.79-0.78,2.3c-0.52,0.52-1.3,0.78-2.32,0.78c-1.19,0-2.2-0.31-3.01-0.92
			l0.38-0.84c0.46,0.3,0.89,0.51,1.29,0.64c0.4,0.13,0.85,0.2,1.34,0.2c0.65,0,1.15-0.17,1.48-0.53c0.34-0.35,0.5-0.86,0.5-1.53
			v-1.2c-0.2,0.44-0.5,0.77-0.9,1.01c-0.41,0.23-0.88,0.35-1.44,0.35c-0.6,0-1.13-0.14-1.59-0.42s-0.82-0.68-1.08-1.19
			c-0.26-0.51-0.38-1.11-0.38-1.78s0.13-1.26,0.38-1.78c0.26-0.51,0.62-0.91,1.08-1.19c0.46-0.28,0.99-0.42,1.59-0.42
			c0.54,0,1.01,0.12,1.41,0.35s0.7,0.56,0.91,0.99v-1.18H191.2z M189.51,125.5c0.37-0.43,0.56-1.03,0.56-1.8
			c0-0.76-0.18-1.35-0.55-1.79s-0.88-0.65-1.55-0.65s-1.18,0.22-1.56,0.65s-0.57,1.03-0.57,1.79c0,0.77,0.19,1.37,0.57,1.8
			s0.9,0.65,1.56,0.65C188.62,126.15,189.14,125.93,189.51,125.5z"/>
		<path class="st0" d="M199.02,124.06h-4.98c0.04,0.79,0.25,1.39,0.64,1.8s0.95,0.61,1.67,0.61c0.79,0,1.52-0.27,2.18-0.81
			l0.38,0.83c-0.3,0.28-0.68,0.5-1.15,0.67s-0.94,0.25-1.43,0.25c-1.06,0-1.9-0.31-2.51-0.94c-0.61-0.63-0.92-1.49-0.92-2.59
			c0-0.7,0.14-1.32,0.41-1.86c0.27-0.54,0.65-0.95,1.14-1.25c0.49-0.3,1.05-0.45,1.67-0.45c0.91,0,1.61,0.3,2.13,0.89
			c0.51,0.59,0.77,1.41,0.77,2.44V124.06z M194.7,121.75c-0.36,0.37-0.57,0.9-0.64,1.58h3.96c-0.02-0.69-0.19-1.22-0.52-1.59
			c-0.33-0.37-0.78-0.55-1.37-0.55C195.54,121.19,195.06,121.38,194.7,121.75z"/>
		<path class="st0" d="M206.56,123.01v4.28h-1.13v-4.21c0-0.63-0.12-1.1-0.37-1.39s-0.64-0.43-1.18-0.43c-0.63,0-1.13,0.19-1.5,0.57
			c-0.37,0.38-0.56,0.9-0.56,1.55v3.91h-1.13v-6.82h1.12v1.12c0.22-0.42,0.54-0.74,0.94-0.96c0.4-0.22,0.86-0.33,1.37-0.33
			C205.75,120.31,206.56,121.21,206.56,123.01z"/>
		<path class="st0" d="M209.77,126.96c-0.5-0.29-0.88-0.7-1.14-1.22c-0.27-0.53-0.4-1.15-0.4-1.86c0-0.71,0.14-1.33,0.41-1.87
			c0.28-0.54,0.66-0.95,1.16-1.25c0.5-0.3,1.08-0.45,1.76-0.45c0.46,0,0.91,0.08,1.34,0.24c0.44,0.16,0.79,0.38,1.06,0.65
			l-0.38,0.84c-0.64-0.52-1.3-0.78-1.96-0.78c-0.7,0-1.25,0.23-1.64,0.69c-0.39,0.46-0.59,1.1-0.59,1.93c0,0.82,0.2,1.46,0.59,1.9
			c0.39,0.45,0.94,0.67,1.64,0.67c0.66,0,1.32-0.26,1.96-0.78l0.38,0.84c-0.29,0.27-0.65,0.49-1.09,0.64
			c-0.44,0.16-0.89,0.24-1.36,0.24C210.85,127.39,210.26,127.25,209.77,126.96z"/>
		<path class="st0" d="M220.23,120.49h1.13l-4.03,9.32h-1.16l1.15-2.6l-2.88-6.72h1.2l2.28,5.57L220.23,120.49z"/>
		<path class="st0" d="M227.66,120.48h1.93v0.9h-1.93v5.92h-1.13v-5.92h-1.33v-0.9h1.33v-0.22c0-0.91,0.23-1.59,0.68-2.06
			c0.45-0.47,1.15-0.73,2.09-0.78l0.56-0.03l0.08,0.88l-0.64,0.04c-0.57,0.04-0.99,0.2-1.25,0.48c-0.26,0.29-0.39,0.72-0.39,1.31
			V120.48z"/>
		<path class="st0" d="M231.8,126.96c-0.49-0.29-0.87-0.7-1.13-1.24c-0.27-0.54-0.4-1.16-0.4-1.87c0-0.71,0.13-1.33,0.4-1.87
			c0.27-0.54,0.64-0.95,1.13-1.24c0.49-0.29,1.06-0.43,1.7-0.43c0.64,0,1.21,0.14,1.71,0.43c0.5,0.29,0.88,0.7,1.14,1.24
			c0.27,0.54,0.4,1.16,0.4,1.87c0,0.71-0.13,1.33-0.4,1.87c-0.27,0.54-0.65,0.95-1.14,1.24c-0.49,0.29-1.06,0.43-1.71,0.43
			C232.85,127.39,232.29,127.25,231.8,126.96z M235.04,125.79c0.36-0.44,0.54-1.09,0.54-1.94c0-0.83-0.18-1.47-0.55-1.93
			c-0.36-0.45-0.88-0.68-1.54-0.68c-0.66,0-1.18,0.23-1.54,0.68c-0.36,0.45-0.55,1.09-0.55,1.93c0,0.84,0.18,1.48,0.54,1.93
			s0.88,0.67,1.55,0.67S234.69,126.23,235.04,125.79z"/>
		<path class="st0" d="M242.3,121.29l-0.74,0.07c-0.7,0.07-1.21,0.28-1.52,0.66c-0.31,0.37-0.47,0.83-0.47,1.39v3.89h-1.13v-6.82
			h1.11v1.19c0.38-0.79,1.13-1.24,2.25-1.33l0.41-0.03L242.3,121.29z"/>
		<path class="st0" d="M250.61,126.44l-0.06,0.9c-0.21,0.04-0.45,0.06-0.7,0.06c-0.82,0-1.44-0.21-1.85-0.64
			c-0.42-0.43-0.62-1.03-0.62-1.79v-3.58h-1.33v-0.9h1.33v-2.07h1.13v2.07h1.93v0.9h-1.93v3.5c0,1.07,0.5,1.61,1.48,1.61
			C250.2,126.48,250.4,126.47,250.61,126.44z"/>
		<path class="st0" d="M257.63,123.01v4.28h-1.13v-4.21c0-0.63-0.12-1.1-0.37-1.39s-0.64-0.43-1.18-0.43c-0.63,0-1.13,0.19-1.5,0.57
			c-0.37,0.38-0.56,0.9-0.56,1.55v3.91h-1.13v-9.87h1.13v4.14c0.22-0.41,0.53-0.72,0.93-0.94c0.4-0.21,0.85-0.32,1.36-0.32
			C256.82,120.31,257.63,121.21,257.63,123.01z"/>
		<path class="st0" d="M265.42,124.06h-4.98c0.04,0.79,0.25,1.39,0.64,1.8c0.39,0.41,0.95,0.61,1.67,0.61
			c0.79,0,1.52-0.27,2.18-0.81l0.38,0.83c-0.3,0.28-0.68,0.5-1.15,0.67s-0.94,0.25-1.43,0.25c-1.06,0-1.9-0.31-2.51-0.94
			c-0.61-0.63-0.92-1.49-0.92-2.59c0-0.7,0.14-1.32,0.41-1.86c0.27-0.54,0.65-0.95,1.14-1.25c0.49-0.3,1.05-0.45,1.67-0.45
			c0.91,0,1.62,0.3,2.13,0.89c0.51,0.59,0.77,1.41,0.77,2.44V124.06z M261.1,121.75c-0.36,0.37-0.57,0.9-0.64,1.58h3.96
			c-0.02-0.69-0.19-1.22-0.52-1.59c-0.33-0.37-0.78-0.55-1.37-0.55C261.94,121.19,261.46,121.38,261.1,121.75z"/>
		<path class="st0" d="M270.3,126.16l0.45-0.88c0.49,0.41,0.98,0.71,1.49,0.88c0.51,0.18,1.1,0.27,1.77,0.27
			c0.79,0,1.4-0.15,1.83-0.46c0.43-0.31,0.64-0.74,0.64-1.3c0-0.33-0.1-0.59-0.31-0.8s-0.48-0.37-0.81-0.49s-0.79-0.25-1.36-0.38
			c-0.77-0.18-1.39-0.36-1.88-0.56c-0.49-0.2-0.89-0.48-1.19-0.84c-0.3-0.36-0.46-0.84-0.46-1.43c0-0.56,0.15-1.06,0.44-1.49
			c0.29-0.43,0.71-0.77,1.26-1.01c0.55-0.24,1.18-0.36,1.9-0.36c0.68,0,1.32,0.11,1.91,0.32c0.59,0.21,1.09,0.52,1.5,0.92
			l-0.43,0.88c-0.47-0.4-0.94-0.69-1.42-0.88c-0.48-0.18-1-0.27-1.56-0.27c-0.77,0-1.37,0.16-1.8,0.48
			c-0.43,0.32-0.65,0.77-0.65,1.35c0,0.5,0.19,0.87,0.57,1.12s0.96,0.47,1.74,0.64c0.85,0.21,1.52,0.39,2,0.57s0.89,0.43,1.21,0.78
			c0.32,0.35,0.48,0.81,0.48,1.39c0,0.56-0.15,1.05-0.44,1.47c-0.29,0.42-0.72,0.75-1.27,0.97s-1.19,0.34-1.93,0.34
			C272.46,127.41,271.23,126.99,270.3,126.16z"/>
		<path class="st0" d="M284.35,120.76c0.46,0.3,0.81,0.72,1.06,1.25c0.25,0.54,0.38,1.16,0.38,1.87c0,0.71-0.13,1.33-0.38,1.86
			s-0.6,0.94-1.06,1.22c-0.45,0.29-0.98,0.43-1.59,0.43c-0.53,0-1-0.12-1.39-0.35s-0.7-0.56-0.9-0.99v3.77h-1.13v-9.34h1.13v1.18
			c0.21-0.43,0.51-0.76,0.9-0.99s0.86-0.35,1.39-0.35C283.36,120.31,283.89,120.46,284.35,120.76z M284.08,125.78
			c0.36-0.45,0.55-1.08,0.55-1.9s-0.18-1.46-0.55-1.92c-0.36-0.46-0.88-0.69-1.54-0.69c-0.66,0-1.17,0.22-1.53,0.67
			c-0.36,0.45-0.54,1.09-0.54,1.92c0,0.83,0.18,1.47,0.54,1.92c0.36,0.45,0.87,0.68,1.53,0.68
			C283.2,126.46,283.72,126.23,284.08,125.78z"/>
		<path class="st0" d="M292.19,120.97c0.42,0.44,0.64,1.12,0.64,2.02v4.3h-1.11v-1.16c-0.18,0.4-0.45,0.71-0.81,0.93
			c-0.36,0.22-0.78,0.33-1.26,0.33c-0.44,0-0.84-0.09-1.21-0.27c-0.37-0.18-0.66-0.42-0.88-0.74c-0.21-0.32-0.32-0.67-0.32-1.05
			c0-0.51,0.13-0.91,0.39-1.2c0.26-0.28,0.69-0.49,1.29-0.62c0.6-0.13,1.43-0.19,2.49-0.19h0.31v-0.46c0-0.57-0.12-0.98-0.35-1.24
			c-0.23-0.26-0.61-0.38-1.13-0.38c-0.78,0-1.56,0.24-2.34,0.73l-0.38-0.83c0.35-0.25,0.78-0.46,1.28-0.61
			c0.5-0.15,0.98-0.23,1.45-0.23C291.12,120.31,291.77,120.53,292.19,120.97z M291.18,125.93c0.36-0.38,0.54-0.87,0.54-1.46v-0.41
			h-0.25c-0.82,0-1.45,0.03-1.88,0.1c-0.43,0.07-0.74,0.19-0.92,0.35c-0.18,0.16-0.27,0.4-0.27,0.72c0,0.36,0.13,0.67,0.4,0.9
			c0.27,0.24,0.6,0.36,1,0.36C290.37,126.5,290.83,126.31,291.18,125.93z"/>
		<path class="st0" d="M296.04,126.96c-0.5-0.29-0.88-0.7-1.14-1.22c-0.27-0.53-0.4-1.15-0.4-1.86c0-0.71,0.14-1.33,0.41-1.87
			c0.28-0.54,0.66-0.95,1.16-1.25c0.5-0.3,1.08-0.45,1.76-0.45c0.46,0,0.91,0.08,1.34,0.24c0.44,0.16,0.79,0.38,1.06,0.65
			l-0.38,0.84c-0.64-0.52-1.3-0.78-1.96-0.78c-0.7,0-1.25,0.23-1.64,0.69c-0.39,0.46-0.59,1.1-0.59,1.93c0,0.82,0.2,1.46,0.59,1.9
			c0.39,0.45,0.94,0.67,1.64,0.67c0.66,0,1.32-0.26,1.96-0.78l0.38,0.84c-0.29,0.27-0.65,0.49-1.09,0.64
			c-0.44,0.16-0.89,0.24-1.36,0.24C297.11,127.39,296.53,127.25,296.04,126.96z"/>
		<path class="st0" d="M307.32,124.06h-4.98c0.04,0.79,0.25,1.39,0.64,1.8c0.39,0.41,0.95,0.61,1.67,0.61
			c0.79,0,1.52-0.27,2.18-0.81l0.38,0.83c-0.3,0.28-0.68,0.5-1.15,0.67s-0.94,0.25-1.43,0.25c-1.06,0-1.9-0.31-2.51-0.94
			c-0.61-0.63-0.92-1.49-0.92-2.59c0-0.7,0.14-1.32,0.41-1.86c0.27-0.54,0.65-0.95,1.14-1.25c0.49-0.3,1.05-0.45,1.67-0.45
			c0.91,0,1.62,0.3,2.13,0.89c0.51,0.59,0.77,1.41,0.77,2.44V124.06z M303,121.75c-0.36,0.37-0.57,0.9-0.64,1.58h3.96
			c-0.02-0.69-0.19-1.22-0.52-1.59c-0.33-0.37-0.78-0.55-1.37-0.55C303.84,121.19,303.36,121.38,303,121.75z"/>
		<path class="st0" d="M312.76,117.42h3.91c1.04,0,1.84,0.25,2.42,0.76c0.57,0.5,0.86,1.22,0.86,2.14s-0.29,1.64-0.87,2.16
			c-0.58,0.51-1.38,0.77-2.41,0.77h-2.76v4.05h-1.15V117.42z M316.56,122.3c1.5,0,2.25-0.66,2.25-1.97c0-1.3-0.75-1.95-2.25-1.95
			h-2.65v3.92H316.56z"/>
		<path class="st0" d="M325.35,121.29l-0.74,0.07c-0.7,0.07-1.21,0.28-1.52,0.66c-0.31,0.37-0.47,0.83-0.47,1.39v3.89h-1.13v-6.82
			h1.11v1.19c0.38-0.79,1.13-1.24,2.25-1.33l0.41-0.03L325.35,121.29z"/>
		<path class="st0" d="M327.42,126.96c-0.49-0.29-0.87-0.7-1.13-1.24c-0.27-0.54-0.4-1.16-0.4-1.87c0-0.71,0.13-1.33,0.4-1.87
			c0.27-0.54,0.64-0.95,1.13-1.24s1.06-0.43,1.7-0.43c0.64,0,1.21,0.14,1.71,0.43c0.49,0.29,0.88,0.7,1.14,1.24
			c0.27,0.54,0.4,1.16,0.4,1.87c0,0.71-0.13,1.33-0.4,1.87c-0.27,0.54-0.65,0.95-1.14,1.24c-0.5,0.29-1.06,0.43-1.71,0.43
			C328.47,127.39,327.91,127.25,327.42,126.96z M330.66,125.79c0.36-0.44,0.54-1.09,0.54-1.94c0-0.83-0.18-1.47-0.55-1.93
			c-0.36-0.45-0.88-0.68-1.54-0.68c-0.66,0-1.18,0.23-1.54,0.68c-0.36,0.45-0.55,1.09-0.55,1.93c0,0.84,0.18,1.48,0.54,1.93
			s0.88,0.67,1.55,0.67S330.3,126.23,330.66,125.79z"/>
		<path class="st0" d="M340.16,120.48v6.36c0,1.02-0.26,1.79-0.78,2.3c-0.52,0.52-1.3,0.78-2.32,0.78c-1.2,0-2.2-0.31-3.01-0.92
			l0.38-0.84c0.46,0.3,0.89,0.51,1.29,0.64s0.85,0.2,1.34,0.2c0.65,0,1.15-0.17,1.48-0.53c0.34-0.35,0.5-0.86,0.5-1.53v-1.2
			c-0.2,0.44-0.5,0.77-0.9,1.01s-0.88,0.35-1.43,0.35c-0.6,0-1.13-0.14-1.59-0.42s-0.82-0.68-1.08-1.19
			c-0.26-0.51-0.38-1.11-0.38-1.78s0.13-1.26,0.38-1.78c0.26-0.51,0.62-0.91,1.08-1.19c0.46-0.28,0.99-0.42,1.59-0.42
			c0.54,0,1.01,0.12,1.41,0.35c0.4,0.23,0.7,0.56,0.91,0.99v-1.18H340.16z M338.47,125.5c0.37-0.43,0.56-1.03,0.56-1.8
			c0-0.76-0.18-1.35-0.55-1.79c-0.37-0.43-0.88-0.65-1.55-0.65s-1.18,0.22-1.56,0.65s-0.57,1.03-0.57,1.79
			c0,0.77,0.19,1.37,0.57,1.8s0.9,0.65,1.56,0.65C337.58,126.15,338.1,125.93,338.47,125.5z"/>
		<path class="st0" d="M346.13,121.29l-0.74,0.07c-0.7,0.07-1.21,0.28-1.52,0.66c-0.31,0.37-0.47,0.83-0.47,1.39v3.89h-1.13v-6.82
			h1.11v1.19c0.38-0.79,1.13-1.24,2.25-1.33l0.41-0.03L346.13,121.29z"/>
		<path class="st0" d="M351.86,120.97c0.42,0.44,0.64,1.12,0.64,2.02v4.3h-1.11v-1.16c-0.18,0.4-0.45,0.71-0.81,0.93
			c-0.36,0.22-0.78,0.33-1.26,0.33c-0.44,0-0.84-0.09-1.21-0.27c-0.37-0.18-0.66-0.42-0.88-0.74c-0.21-0.32-0.32-0.67-0.32-1.05
			c0-0.51,0.13-0.91,0.39-1.2c0.26-0.28,0.69-0.49,1.29-0.62c0.6-0.13,1.43-0.19,2.49-0.19h0.31v-0.46c0-0.57-0.12-0.98-0.35-1.24
			c-0.23-0.26-0.61-0.38-1.13-0.38c-0.78,0-1.56,0.24-2.34,0.73l-0.38-0.83c0.35-0.25,0.78-0.46,1.28-0.61s0.98-0.23,1.45-0.23
			C350.79,120.31,351.43,120.53,351.86,120.97z M350.85,125.93c0.36-0.38,0.54-0.87,0.54-1.46v-0.41h-0.25
			c-0.82,0-1.45,0.03-1.88,0.1c-0.43,0.07-0.74,0.19-0.92,0.35c-0.18,0.16-0.27,0.4-0.27,0.72c0,0.36,0.13,0.67,0.4,0.9
			c0.27,0.24,0.6,0.36,1,0.36C350.03,126.5,350.49,126.31,350.85,125.93z"/>
		<path class="st0" d="M364.42,123.01v4.28h-1.13v-4.23c0-0.63-0.11-1.08-0.33-1.37c-0.22-0.29-0.57-0.43-1.06-0.43
			c-0.57,0-1.02,0.19-1.34,0.57c-0.33,0.38-0.49,0.91-0.49,1.57v3.89h-1.13v-4.23c0-0.63-0.11-1.09-0.34-1.38
			c-0.22-0.29-0.58-0.43-1.06-0.43c-0.57,0-1.02,0.19-1.34,0.57c-0.33,0.38-0.49,0.91-0.49,1.57v3.89h-1.13v-6.82h1.12v1.08
			c0.21-0.4,0.49-0.71,0.85-0.92c0.36-0.21,0.78-0.32,1.26-0.32c1.05,0,1.75,0.45,2.09,1.34c0.2-0.42,0.49-0.75,0.9-0.99
			s0.86-0.36,1.37-0.36C363.67,120.31,364.42,121.21,364.42,123.01z"/>
		<path class="st0" d="M376.35,123.01v4.28h-1.13v-4.23c0-0.63-0.11-1.08-0.33-1.37c-0.22-0.29-0.57-0.43-1.06-0.43
			c-0.57,0-1.02,0.19-1.34,0.57c-0.33,0.38-0.49,0.91-0.49,1.57v3.89h-1.13v-4.23c0-0.63-0.11-1.09-0.34-1.38
			c-0.22-0.29-0.58-0.43-1.06-0.43c-0.57,0-1.02,0.19-1.34,0.57c-0.33,0.38-0.49,0.91-0.49,1.57v3.89h-1.13v-6.82h1.12v1.08
			c0.21-0.4,0.49-0.71,0.85-0.92c0.36-0.21,0.78-0.32,1.26-0.32c1.05,0,1.75,0.45,2.09,1.34c0.2-0.42,0.49-0.75,0.9-0.99
			s0.86-0.36,1.37-0.36C375.6,120.31,376.35,121.21,376.35,123.01z"/>
		<path class="st0" d="M384.14,124.06h-4.98c0.04,0.79,0.25,1.39,0.64,1.8c0.39,0.41,0.95,0.61,1.67,0.61
			c0.79,0,1.52-0.27,2.18-0.81l0.38,0.83c-0.3,0.28-0.68,0.5-1.15,0.67s-0.94,0.25-1.43,0.25c-1.06,0-1.9-0.31-2.51-0.94
			c-0.61-0.63-0.92-1.49-0.92-2.59c0-0.7,0.14-1.32,0.41-1.86c0.27-0.54,0.65-0.95,1.14-1.25c0.49-0.3,1.05-0.45,1.67-0.45
			c0.91,0,1.61,0.3,2.13,0.89c0.51,0.59,0.77,1.41,0.77,2.44V124.06z M379.82,121.75c-0.36,0.37-0.57,0.9-0.64,1.58h3.96
			c-0.02-0.69-0.19-1.22-0.52-1.59c-0.33-0.37-0.78-0.55-1.37-0.55C380.65,121.19,380.18,121.38,379.82,121.75z"/>
	</g>
</g>
</svg>
