<?xml version="1.0" encoding="UTF-8"?>
<svg version="1.1" xmlns="http://www.w3.org/2000/svg" width="1489" height="856">
<path d="M0 0 C2.47671728 0.01608416 4.95179826 0.00004032 7.4284668 -0.01904297 C38.33709291 -0.06032633 65.65559117 8.76445459 88.29370117 30.26611328 C93.37274745 35.54390485 97.67846215 41.52308705 102.04370117 47.39111328 C102.75655273 46.67310547 103.4694043 45.95509766 104.20385742 45.21533203 C131.51025179 17.94727588 165.24159688 0.1737724 204.41870117 0.14111328 C205.50149857 0.14010117 205.50149857 0.14010117 206.60617065 0.1390686 C217.04256579 0.15460738 226.92801762 0.48417293 237.04370117 3.39111328 C238.26959961 3.73142578 239.49549805 4.07173828 240.75854492 4.42236328 C274.29375863 14.66635013 302.78730785 39.12004917 324.04370117 66.39111328 C325.12366875 67.74328441 326.20446144 69.09479676 327.28588867 70.44580078 C335.46905011 80.73576589 342.93007161 91.3407058 350.04370117 102.39111328 C350.57930664 103.21530762 351.11491211 104.03950195 351.66674805 104.88867188 C362.23055937 121.15040827 372.09030742 137.80819155 381.88696289 154.5390625 C396.07407375 182.09846158 396.07407375 182.09846158 418.04370117 202.39111328 C422.13811052 202.92187005 424.06170864 202.11722282 427.35229492 199.68408203 C438.58097977 189.9618978 447.56536737 178.38031201 456.42211914 166.55224609 C457.95478874 164.50960964 459.49892317 162.47630927 461.04760742 160.44580078 C468.39136998 150.78636044 475.36602868 140.88813304 482.28344727 130.92041016 C483.97261543 128.4932559 485.67179578 126.07354125 487.37573242 123.65673828 C496.30025016 110.99005993 505.0032578 98.17763758 513.68789673 85.34616089 C519.10798805 77.33917869 524.55727127 69.35277689 530.04370117 61.39111328 C530.89955811 60.146604 530.89955811 60.146604 531.77270508 58.87695312 C548.27545933 34.92163246 564.26086363 12.11647697 594.64916992 6.01611328 C616.98663857 2.38517864 638.26713739 6.8734041 657.04370117 19.39111328 C656.18516296 23.88833314 653.5846263 26.32542632 650.48120117 29.51611328 C645.35519841 34.92777564 640.60840148 40.49359018 636.04370117 46.39111328 C635.1957218 47.47130959 634.34669815 48.55068665 633.49682617 49.62939453 C631.6294828 51.99963831 629.76486328 54.37197117 627.90307617 56.74658203 C626.02052259 59.1472873 624.13515517 61.54572951 622.24682617 63.94189453 C616.53197891 71.19620646 610.86906583 78.48772892 605.2512207 85.81738281 C603.31149279 88.34538243 601.36416748 90.86752843 599.41870117 93.39111328 C589.08794662 106.81652491 578.83684902 120.3015151 568.69165039 133.86767578 C564.15757461 139.9242027 559.57694498 145.94379446 554.98120117 151.95361328 C549.35323038 159.31660397 543.81596657 166.73880356 538.34130859 174.21630859 C533.89882218 180.26914115 529.35984517 186.24368376 524.79370117 192.20361328 C520.45254014 197.87169523 516.1495578 203.5499181 512.04370117 209.39111328 C507.28107587 216.16666013 502.24543525 222.72493164 497.20996094 229.29907227 C492.74105591 235.14157537 488.33164782 241.02242584 483.98120117 246.95361328 C477.31541387 256.04142362 470.56201441 265.06126956 463.78833008 274.06884766 C462.18708636 276.20025407 460.58907478 278.33401959 458.99291992 280.46923828 C453.24783763 288.15314116 447.46916858 295.81143279 441.66870117 303.45361328 C441.00233643 304.33460693 440.33597168 305.21560059 439.64941406 306.12329102 C427.99661751 321.44496755 427.99661751 321.44496755 422.04370117 323.39111328 C415.22369461 324.30963268 409.64080767 323.50351363 404.04370117 319.39111328 C383.59558478 301.10532644 371.73039602 269.22048875 359.91870117 245.20361328 C353.65482701 232.48920564 347.3745588 219.80117592 340.59448242 207.35205078 C339.88199844 206.04280388 339.88199844 206.04280388 339.15512085 204.70710754 C325.87286948 179.15636672 325.87286948 179.15636672 303.75854492 162.63720703 C299.61404216 161.84811645 296.64251318 162.19462029 292.91870117 164.20361328 C269.08300553 181.57299149 265.03377631 227.30781759 260.78218079 254.14961243 C257.51689816 275.24943577 255.00118175 296.38072026 253.33740234 317.66601562 C253.0852576 320.00553318 252.68903601 322.13362453 252.04370117 324.39111328 C233.54466295 324.82355833 214.59513167 324.04601303 200.29370117 310.76611328 C191.70950907 301.49518582 190.54881042 290.55801588 190.75268555 278.42871094 C191.06019035 270.8743066 192.79533242 263.68952011 194.60302734 256.37393188 C195.3237563 253.45697315 196.01900774 250.53480191 196.7097168 247.6105957 C197.80566569 242.98627246 198.91393671 238.36510803 200.0300293 233.74560547 C203.56528385 219.10853814 207.03807514 204.45648808 210.5044136 189.80297184 C211.84771045 184.12789663 213.20174852 178.45551998 214.56369305 172.78489304 C226.96845348 130.06673804 226.96845348 130.06673804 218.72729492 88.09033203 C212.09921192 78.50038087 202.77727618 74.07843874 191.60620117 71.64111328 C172.32408052 70.28798201 155.25901093 74.44424726 140.27807617 87.24658203 C120.04225716 106.668723 114.87162251 134.05682983 108.72251129 160.22687531 C107.7774466 164.24006403 106.82160347 168.25068764 105.86743164 172.26171875 C103.48776467 182.27673087 101.12737603 192.2962546 98.76806641 202.31607819 C97.48892917 207.74620061 96.20756433 213.17579748 94.92651367 218.60546875 C88.53596094 245.69588094 82.16386782 272.79060309 75.80507278 299.88848591 C73.88802893 308.0568319 71.9665442 316.22413072 70.04370117 324.39111328 C65.81455656 324.44758156 61.58561281 324.48506359 57.35620117 324.51611328 C56.17735352 324.53287109 54.99850586 324.54962891 53.78393555 324.56689453 C38.73266979 324.64936722 23.58866844 323.13445244 12.04370117 312.55908203 C3.65386242 303.9995958 1.20542323 294.3015059 1.31622314 282.49028015 C1.72721722 273.94129689 3.49951941 265.79388099 5.41870117 257.48486328 C5.77479048 255.91505685 6.13042944 254.3451482 6.48565674 252.77514648 C11.29469219 231.62452213 16.41655747 210.54524214 21.50054932 189.45947266 C22.89712424 183.66677191 24.29059135 177.87334112 25.67987823 172.07888794 C26.31492073 169.43540871 26.9543056 166.79300758 27.59393311 164.15063477 C29.63885191 155.65507108 31.56501389 147.14408708 33.30444336 138.58032227 C33.47271008 137.7616291 33.64097679 136.94293594 33.8143425 136.0994339 C35.11796251 129.53961146 35.67116597 123.14828641 35.54370117 116.45361328 C35.53161621 115.39658203 35.51953125 114.33955078 35.50708008 113.25048828 C35.1872289 100.67355238 32.34676019 89.40149246 22.99682617 80.42626953 C14.02503784 73.30604155 1.49384179 70.53567996 -9.83520508 71.01220703 C-28.85776237 73.32157882 -43.69203293 81.55596843 -56.20239258 95.98095703 C-60.11052858 101.04705925 -63.22465335 106.46614562 -66.14379883 112.14111328 C-66.45285156 112.73561279 -66.7619043 113.3301123 -67.08032227 113.94262695 C-74.2532747 128.54198631 -77.42484874 144.80625199 -81.25619507 160.50189209 C-83.00113172 167.64495953 -84.77766388 174.7802018 -86.55786133 181.91455078 C-86.73965879 182.64327015 -86.92145626 183.37198952 -87.10876274 184.12279129 C-129.99917212 355.83404875 -129.99917212 355.83404875 -195.67504883 396.34033203 C-214.78487235 407.80291166 -235.24311238 416.33110818 -256.95629883 421.39111328 C-257.8302832 421.59994141 -258.70426758 421.80876953 -259.60473633 422.02392578 C-295.81153114 430.31475706 -335.97174655 427.69231581 -368.25610352 408.46191406 C-380.0603406 401.02748215 -390.09608946 390.19860562 -394.4921875 376.75195312 C-396.98483828 364.07234604 -394.34736319 351.19660085 -391.22094727 338.90771484 C-390.56882799 336.34204861 -389.94798902 333.77019143 -389.33129883 331.19580078 C-388.92939172 329.55214549 -388.52581186 327.90889809 -388.12036133 326.26611328 C-387.93381989 325.50169922 -387.74727844 324.73728516 -387.55508423 323.94970703 C-386.19067789 318.62549235 -386.19067789 318.62549235 -383.95629883 316.39111328 C-383.26407227 317.00857422 -382.5718457 317.62603516 -381.85864258 318.26220703 C-374.06131922 325.01166875 -365.98356967 330.4238575 -356.95629883 335.39111328 C-356.32208008 335.74447754 -355.68786133 336.0978418 -355.03442383 336.46191406 C-327.35607884 351.70047443 -292.8032778 358.49056091 -261.94580078 349.86889648 C-249.17399934 345.99927104 -237.02121735 340.23723307 -226.95629883 331.39111328 C-226.23442383 330.81103516 -225.51254883 330.23095703 -224.76879883 329.63330078 C-202.04754871 310.77781891 -187.96165762 277.25292098 -184.95629883 248.39111328 C-185.72200195 249.31730469 -185.72200195 249.31730469 -186.50317383 250.26220703 C-204.53116465 271.26289846 -231.27596104 281.3759964 -258.4440918 283.59423828 C-289.45536621 285.87795047 -318.17483575 281.32225711 -342.95629883 261.39111328 C-343.97723633 260.61574219 -343.97723633 260.61574219 -345.01879883 259.82470703 C-363.71032468 244.78858039 -374.73177772 220.05237584 -377.72485352 196.72119141 C-379.26480368 181.21772692 -377.88832214 166.41599078 -373.95629883 151.39111328 C-373.63483887 150.16013916 -373.63483887 150.16013916 -373.30688477 148.90429688 C-368.30074201 130.23874425 -361.07905304 112.41426252 -351.95629883 95.39111328 C-351.63693359 94.79105469 -351.31756836 94.19099609 -350.98852539 93.57275391 C-346.01439842 84.31128298 -340.276329 75.77651279 -333.95629883 67.39111328 C-333.30661133 66.51455078 -332.65692383 65.63798828 -331.98754883 64.73486328 C-320.5384097 50.01454154 -306.67064453 36.46949514 -290.95629883 26.39111328 C-290.28920898 25.96008301 -289.62211914 25.52905273 -288.93481445 25.08496094 C-275.45021654 16.49152565 -261.53242304 10.55906599 -246.20629883 6.07861328 C-245.3796875 5.83594727 -244.55307617 5.59328125 -243.70141602 5.34326172 C-231.40502948 1.91925806 -219.36579245 1.04145726 -206.67407227 1.07543945 C-204.2234201 1.07859126 -201.77398975 1.05507592 -199.32348633 1.02978516 C-176.01650894 0.93574054 -151.66638916 5.47732485 -134.23754883 22.05126953 C-122.12063318 34.47940733 -117.8846365 48.93033551 -113.95629883 65.39111328 C-113.22926758 63.94091797 -113.22926758 63.94091797 -112.48754883 62.46142578 C-108.36699283 54.39083389 -104.10462121 47.12300524 -97.95629883 40.39111328 C-97.27422363 39.63749512 -97.27422363 39.63749512 -96.57836914 38.86865234 C-71.81401613 11.83085054 -36.11406816 -0.27755417 0 0 Z M-235.95629883 78.39111328 C-236.8921582 78.84486328 -237.82801758 79.29861328 -238.79223633 79.76611328 C-263.33937392 92.41785927 -281.06206424 116.07154278 -289.52661133 142.03564453 C-294.83719878 159.2845495 -297.57030553 179.40987465 -289.95629883 196.39111328 C-289.60567383 197.20322266 -289.25504883 198.01533203 -288.89379883 198.85205078 C-283.50071498 209.82547834 -274.49295388 216.4213192 -263.18286133 220.35595703 C-245.09215563 225.61826687 -225.47446481 221.67155805 -209.12036133 212.86376953 C-183.19752275 197.07980621 -168.27524747 172.40405261 -161.09985352 143.34741211 C-157.03146962 126.03762619 -154.640756 105.9982502 -163.83129883 89.89111328 C-166.19484095 86.28452308 -168.69115776 83.23764652 -171.95629883 80.39111328 C-172.69879883 79.71048828 -173.44129883 79.02986328 -174.20629883 78.32861328 C-192.44909591 65.47573352 -216.98234032 69.19161825 -235.95629883 78.39111328 Z " fill="#DF0024" transform="translate(587.956298828125,215.60888671875)"/>
<path d="M0 0 C3.63 0 7.26 0 11 0 C14.02479724 3.39626356 15.82052169 6.0954878 18 10 C19.29134354 12.08709036 20.60524831 14.15872686 21.92333984 16.22900391 C23.97232932 19.47131005 25.98212909 22.73823606 28 26 C28.33 17.42 28.66 8.84 29 0 C31.64 0 34.28 0 37 0 C37 13.2 37 26.4 37 40 C27 40 27 40 24.87890625 38.41015625 C24.44449219 37.63542969 24.01007813 36.86070312 23.5625 36.0625 C23.02625 35.16917969 22.49 34.27585937 21.9375 33.35546875 C21.298125 32.24816406 20.65875 31.14085937 20 30 C18.59414283 27.79732308 17.16472003 25.61127224 15.73046875 23.42700195 C13.46719739 19.96418351 11.23703179 16.47982723 9 13 C8.67 21.91 8.34 30.82 8 40 C5.36 40 2.72 40 0 40 C0 26.8 0 13.6 0 0 Z " fill="#000000" transform="translate(1153,598)"/>
<path d="M0 0 C10 0 10 0 12.41015625 1.9140625 C12.95542969 2.80867187 13.50070312 3.70328125 14.0625 4.625 C15.00802734 6.10806641 15.00802734 6.10806641 15.97265625 7.62109375 C16.64167969 8.73613281 17.31070313 9.85117187 18 11 C19.20747496 12.8782406 20.42963167 14.74630262 21.65405273 16.61352539 C23.458758 19.39440172 25.22556134 22.19971399 27 25 C27.33 16.75 27.66 8.5 28 0 C30.64 0 33.28 0 36 0 C36 13.2 36 26.4 36 40 C26 40 26 40 23.84375 38.375 C23.4003125 37.59125 22.956875 36.8075 22.5 36 C21.96246094 35.10539063 21.42492187 34.21078125 20.87109375 33.2890625 C20.25363281 32.20367188 19.63617187 31.11828125 19 30 C17.70527695 27.91469385 16.39144114 25.84230111 15.07446289 23.77099609 C13.02780593 20.52767438 11.01766744 17.26143504 9 14 C8.67 22.58 8.34 31.16 8 40 C5.36 40 2.72 40 0 40 C0 26.8 0 13.6 0 0 Z " fill="#000000" transform="translate(783,598)"/>
<path d="M0 0 C11 0 11 0 13.60986328 2.07958984 C14.17431152 3.03043457 14.73875977 3.9812793 15.3203125 4.9609375 C15.95710937 5.98960937 16.59390625 7.01828125 17.25 8.078125 C17.86875 9.16609375 18.4875 10.2540625 19.125 11.375 C19.78242187 12.45523438 20.43984375 13.53546875 21.1171875 14.6484375 C23.17450449 18.04896145 25.22194379 21.44388758 27 25 C27.33 16.75 27.66 8.5 28 0 C30.64 0 33.28 0 36 0 C36 13.2 36 26.4 36 40 C26 40 26 40 23.8425293 38.3828125 C23.42398682 37.63773438 23.00544434 36.89265625 22.57421875 36.125 C22.08759766 35.30386719 21.60097656 34.48273437 21.09960938 33.63671875 C20.63361328 32.76660156 20.16761719 31.89648438 19.6875 31 C19.20216797 30.16082031 18.71683594 29.32164062 18.21679688 28.45703125 C17.29752126 26.86526541 16.3932925 25.26462787 15.51049805 23.65234375 C13.45111212 20.03618589 11.20556421 16.52890274 9 13 C8.67 21.91 8.34 30.82 8 40 C5.36 40 2.72 40 0 40 C0 26.8 0 13.6 0 0 Z " fill="#000000" transform="translate(559,598)"/>
<path d="M0 0 C11 0 11 0 13.39453125 1.7565918 C13.86246094 2.56265869 14.33039062 3.36872559 14.8125 4.19921875 C15.35003906 5.07900391 15.88757813 5.95878906 16.44140625 6.86523438 C16.95574219 7.79658203 17.47007812 8.72792969 18 9.6875 C18.54527344 10.59951172 19.09054687 11.51152344 19.65234375 12.45117188 C20.66638785 14.15570811 21.66451045 15.86989866 22.640625 17.59643555 C24.05048312 20.0892612 25.52653952 22.54423253 27 25 C27.33 16.75 27.66 8.5 28 0 C30.64 0 33.28 0 36 0 C36 13.2 36 26.4 36 40 C26 40 26 40 23.62719727 38.05981445 C23.11213623 37.1699585 22.5970752 36.28010254 22.06640625 35.36328125 C21.48052734 34.39326172 20.89464844 33.42324219 20.29101562 32.42382812 C19.72060547 31.39708984 19.15019531 30.37035156 18.5625 29.3125 C17.96501953 28.30509766 17.36753906 27.29769531 16.75195312 26.25976562 C15.64057457 24.37849354 14.54383404 22.4884377 13.46704102 20.5871582 C12.01939393 18.03420161 10.50996129 15.51660215 9 13 C8.67 21.91 8.34 30.82 8 40 C5.36 40 2.72 40 0 40 C0 26.8 0 13.6 0 0 Z " fill="#000000" transform="translate(512,598)"/>
<path d="M0 0 C5.39152718 4.11276753 7.98953124 8.11606765 9.375 14.8125 C9.90849982 20.57429803 9.08208353 25.69611213 6.375 30.8125 C1.22582343 36.92424787 -4.05779453 39.3896106 -12 40.125 C-18.80196172 39.53862399 -23.80476367 38.16643336 -28.5625 33.0625 C-32.9819113 27.46662504 -34.24598277 21.89170361 -33.625 14.8125 C-31.89957421 7.88383708 -28.79422944 2.83541241 -22.6875 -1.0625 C-15.71173795 -3.60192215 -6.46135396 -3.84286906 0 0 Z M-23.5 10.9375 C-25.54201206 16.15597526 -25.53745697 21.5553696 -23.4375 26.75 C-20.75526299 29.80220074 -18.60318861 31.54994042 -14.4765625 32.09765625 C-9.73922848 32.27865074 -6.36101038 31.99909709 -2.625 28.8125 C0.78503082 24.9321201 0.83274436 21.13623735 0.65625 16.1796875 C0.09673957 11.47047475 -1.83286369 9.47861462 -5.375 6.5 C-12.76445115 2.6631696 -18.20790624 4.93979374 -23.5 10.9375 Z " fill="#000000" transform="translate(959.625,599.1875)"/>
<path d="M0 0 C5.15549743 3.10889164 8.58002927 6.73287591 10.69140625 12.43359375 C12.14121613 19.44100818 11.81344513 25.68544026 8.44140625 32.05859375 C3.29222968 38.17034162 -1.99138828 40.63570435 -9.93359375 41.37109375 C-16.73555547 40.78471774 -21.73835742 39.41252711 -26.49609375 34.30859375 C-31.34028697 28.11566924 -32.06538687 22.44022617 -31.16015625 14.77734375 C-29.87178582 8.95457869 -27.08212882 5.2469511 -22.43359375 1.62109375 C-15.84900922 -1.9574848 -7.08959161 -2.60853676 0 0 Z M-21.43359375 12.24609375 C-23.514884 17.44931939 -23.21434149 22.19488964 -21.37109375 27.43359375 C-19.25145458 30.50341599 -18.03993368 31.6963303 -14.55859375 33.05859375 C-10.25558842 33.62189627 -6.71549808 33.53644554 -2.68359375 31.87109375 C0.65349982 29.02474923 2.18116414 26.93176498 2.796875 22.5 C3.02771526 17.90191164 3.15383977 14.20827897 0.19140625 10.49609375 C-3.45866949 7.26079935 -5.07973075 6.22291186 -9.93359375 5.68359375 C-15.17371545 6.22567531 -18.04459686 8.29226405 -21.43359375 12.24609375 Z " fill="#000000" transform="translate(1133.55859375,597.94140625)"/>
<path d="M0 0 C5.00475581 2.33240507 8.10974929 5.49937227 10.51953125 10.51171875 C12.52547809 16.50416753 12.61077008 23.78639174 10.60546875 29.79296875 C7.49403686 35.28249841 2.46351847 39.06488702 -3.57421875 40.88671875 C-10.94735123 42.34098551 -17.04912395 40.90523117 -23.5546875 37.27734375 C-28.10047585 33.50508116 -30.22448286 28.77987153 -30.7734375 22.95703125 C-31.01156029 16.46818509 -30.48892552 10.4667329 -25.9375 5.51953125 C-18.35813934 -1.21406384 -9.98739914 -2.82518171 0 0 Z M-19.8046875 11.46484375 C-22.01716951 15.0206184 -22.87444276 18.13575186 -22.5546875 22.27734375 C-21.30912545 26.38037168 -19.53100422 29.38471132 -16.3671875 32.27734375 C-12.33772317 33.71004218 -8.77382665 34.07957443 -4.5546875 33.27734375 C-1.42617706 31.60703733 0.67772578 29.2891626 2.8203125 26.46484375 C4.18710621 21.68106578 3.91664422 17.63896871 2.3203125 13.02734375 C0.02505649 9.66096827 -1.90882349 8.10027576 -5.5546875 6.27734375 C-11.99134036 5.48687761 -15.25960082 7.04600948 -19.8046875 11.46484375 Z " fill="#000000" transform="translate(634.5546875,597.72265625)"/>
<path d="M0 0 C2.6875 1.75 2.6875 1.75 3.875 3.6875 C3.59789285 6.73567865 1.94949051 7.83073532 -0.3125 9.75 C-1.075625 9.440625 -1.83875 9.13125 -2.625 8.8125 C-7.13622402 7.02899283 -10.43405151 6.33657216 -15.3125 6.75 C-19.33935088 8.87739292 -21.62185136 10.53495818 -23.3125 14.75 C-24.05398241 19.49203866 -23.75037689 22.91954383 -21.5 27.1875 C-19.38956695 29.895559 -19.38956695 29.895559 -16.3125 31.75 C-13.10870876 31.99246783 -13.10870876 31.99246783 -9.625 31.875 C-8.44550781 31.85695313 -7.26601563 31.83890625 -6.05078125 31.8203125 C-5.14714844 31.79710937 -4.24351562 31.77390625 -3.3125 31.75 C-3.3125 28.78 -3.3125 25.81 -3.3125 22.75 C-5.9525 22.75 -8.5925 22.75 -11.3125 22.75 C-11.3125 20.44 -11.3125 18.13 -11.3125 15.75 C-6.0325 15.75 -0.7525 15.75 4.6875 15.75 C4.6875 22.68 4.6875 29.61 4.6875 36.75 C-3.40829017 40.79789509 -11.0530803 42.09050931 -19.875 39.75 C-25.08179123 37.87302847 -28.25655 34.26116428 -31.3125 29.75 C-33.36521663 23.59185011 -33.5422391 15.31200292 -31.40625 9.125 C-25.04697909 -1.63684307 -11.37288747 -4.36870834 0 0 Z " fill="#000000" transform="translate(860.3125,598.25)"/>
<path d="M0 0 C2.64 0 5.28 0 8 0 C12.43976313 9.1735503 16.51823529 18.4676461 20.4375 27.875 C20.88657715 28.95136719 21.3356543 30.02773438 21.79833984 31.13671875 C25 38.8673449 25 38.8673449 25 40 C22.03 40 19.06 40 16 40 C14.68 37.36 13.36 34.72 12 32 C6.72 32 1.44 32 -4 32 C-4.99 34.64 -5.98 37.28 -7 40 C-9.97 40 -12.94 40 -16 40 C-15.33574226 35.70989668 -13.87152662 32.09168059 -12.12890625 28.125 C-11.84651596 27.47805176 -11.56412567 26.83110352 -11.2731781 26.16455078 C-10.37425373 24.10763343 -9.46861286 22.0537594 -8.5625 20 C-7.66142047 17.94562547 -6.76172981 15.89064867 -5.86253357 13.83544922 C-5.04551926 11.97001234 -4.22512042 10.10605889 -3.40454102 8.2421875 C-2.22133348 5.51091755 -1.08701852 2.77063934 0 0 Z M4 11 C3.35004703 12.41478135 2.70521278 13.83191487 2.0625 15.25 C1.52302734 16.43335938 1.52302734 16.43335938 0.97265625 17.640625 C-0.15875123 20.22268112 -0.15875123 20.22268112 -1 24 C2.3 24 5.6 24 9 24 C8.54803755 22.39402675 8.08817673 20.79027492 7.625 19.1875 C7.36976563 18.29417969 7.11453125 17.40085937 6.8515625 16.48046875 C6.04733339 13.79532104 6.04733339 13.79532104 4 11 Z " fill="#000000" transform="translate(702,598)"/>
<path d="M0 0 C2.64 0 5.28 0 8 0 C8.01981934 0.79696289 8.03963867 1.59392578 8.06005859 2.41503906 C8.15533248 6.02702472 8.26500307 9.63843399 8.375 13.25 C8.4059375 14.50425781 8.436875 15.75851562 8.46875 17.05078125 C8.50742187 18.25605469 8.54609375 19.46132813 8.5859375 20.703125 C8.6173584 21.81333008 8.6487793 22.92353516 8.68115234 24.06738281 C8.99089737 26.9162781 9.43462483 28.6230776 11 31 C13.80915474 32.40457737 15.88810534 32.24895157 19 32 C21.26898872 30.98838863 21.26898872 30.98838863 23 29 C23.645369 25.90989264 23.645369 25.90989264 23.609375 22.36328125 C23.64160156 21.06455078 23.67382812 19.76582031 23.70703125 18.42773438 C23.72177586 17.05599405 23.73609331 15.68424907 23.75 14.3125 C23.77815875 12.92899889 23.80808608 11.54553256 23.83984375 10.16210938 C23.91066109 6.77467979 23.96330176 3.38794333 24 0 C26.64 0 29.28 0 32 0 C32.09935088 4.30495015 32.17169268 8.60928183 32.21972656 12.91503906 C32.23976332 14.37772252 32.26700104 15.84032666 32.30175781 17.30273438 C32.35063225 19.4129601 32.37304659 21.52212136 32.390625 23.6328125 C32.41157227 24.90012207 32.43251953 26.16743164 32.45410156 27.47314453 C31.91898772 31.62919539 30.58768871 33.74887099 28 37 C23.45287039 40.50644634 18.70143736 41.72563748 13 41 C7.50713868 39.13801311 3.53859177 37.10432708 0.90673828 31.79418945 C-0.17880752 28.44898974 -0.22628418 25.68325404 -0.1953125 22.16796875 C-0.18886719 20.87568359 -0.18242188 19.58339844 -0.17578125 18.25195312 C-0.15907327 16.8971327 -0.14214342 15.54231499 -0.125 14.1875 C-0.11496003 12.81315749 -0.10583596 11.43880797 -0.09765625 10.06445312 C-0.07411242 6.70945683 -0.04122567 3.35481801 0 0 Z " fill="#000000" transform="translate(1008,598)"/>
<path d="M0 0 C1.010625 -0.01675781 2.02125 -0.03351562 3.0625 -0.05078125 C6.38205734 0.35974911 8.27885971 1.41670557 11 3.3125 C10.43628586 6.58204202 9.50037734 8.13825883 7 10.3125 C6.29875 9.9825 5.5975 9.6525 4.875 9.3125 C1.69224674 8.20545539 -0.65328734 8.01501443 -4 8.3125 C-4.66 8.9725 -5.32 9.6325 -6 10.3125 C-6.12959869 12.3626677 -6.12959869 12.3626677 -5 14.3125 C-2.36744553 15.75676727 -2.36744553 15.75676727 0.8125 16.8125 C5.13824148 18.37208524 8.08583522 19.68341162 11 23.3125 C12.14170967 27.95545267 12.22237366 30.42300535 11.0625 35.0625 C8.37351684 39.29968559 5.75602246 40.88057926 1 42.3125 C-4.63190608 43.25472003 -9.1167055 42.04714492 -14 39.3125 C-15.4375 37.125 -15.4375 37.125 -16 35.3125 C-13.03 32.8375 -13.03 32.8375 -10 30.3125 C-9.67 30.8075 -9.34 31.3025 -9 31.8125 C-5.79017412 34.21986941 -2.94091317 33.56675246 1 33.3125 C2.29633621 32.24604885 2.29633621 32.24604885 2.0625 29.75 C2.041875 28.945625 2.02125 28.14125 2 27.3125 C1.02417969 26.93738281 0.04835938 26.56226563 -0.95703125 26.17578125 C-2.24252952 25.6597053 -3.52766725 25.14273063 -4.8125 24.625 C-5.45509766 24.38072266 -6.09769531 24.13644531 -6.75976562 23.88476562 C-11.0464134 22.13012742 -13.17965889 20.59953521 -15 16.3125 C-15.53900048 11.46149567 -15.4992191 9.31093821 -13.3125 4.9375 C-9.48529871 0.59310935 -5.64470783 0.02159965 0 0 Z " fill="#000000" transform="translate(1214,596.6875)"/>
<path d="M0 0 C1.010625 -0.01675781 2.02125 -0.03351562 3.0625 -0.05078125 C6.38205734 0.35974911 8.27885971 1.41670557 11 3.3125 C10.43628586 6.58204202 9.50037734 8.13825883 7 10.3125 C6.29875 9.9825 5.5975 9.6525 4.875 9.3125 C1.69224674 8.20545539 -0.65328734 8.01501443 -4 8.3125 C-4.66 8.9725 -5.32 9.6325 -6 10.3125 C-6.12959869 12.3626677 -6.12959869 12.3626677 -5 14.3125 C-2.36744553 15.75676727 -2.36744553 15.75676727 0.8125 16.8125 C5.13824148 18.37208524 8.08583522 19.68341162 11 23.3125 C12.46810101 29.28277746 12.21119523 32.8534681 9 38.3125 C3.96751113 42.18364528 -0.75167535 42.73611523 -7 42.3125 C-10.54536551 41.34038365 -13.34983449 40.3018823 -15.4375 37.125 C-15.623125 36.526875 -15.80875 35.92875 -16 35.3125 C-13.03 32.8375 -13.03 32.8375 -10 30.3125 C-9.649375 30.8075 -9.29875 31.3025 -8.9375 31.8125 C-6.02709013 34.06572054 -3.57033034 33.57216039 0 33.3125 C0.99 32.8175 0.99 32.8175 2 32.3125 C2 30.6625 2 29.0125 2 27.3125 C1.02417969 26.93738281 0.04835938 26.56226563 -0.95703125 26.17578125 C-2.24252952 25.6597053 -3.52766725 25.14273063 -4.8125 24.625 C-5.45509766 24.38072266 -6.09769531 24.13644531 -6.75976562 23.88476562 C-11.0464134 22.13012742 -13.17965889 20.59953521 -15 16.3125 C-15.53900048 11.46149567 -15.4992191 9.31093821 -13.3125 4.9375 C-9.48529871 0.59310935 -5.64470783 0.02159965 0 0 Z " fill="#000000" transform="translate(908,596.6875)"/>
<path d="M0 0 C2.97 0 5.94 0 9 0 C12.98838199 8.4369619 15.96478599 17.18776199 19 26 C22.68423013 17.44004404 25.94143568 8.7982531 29 0 C31.97 0 34.94 0 38 0 C35.56332953 8.80621259 32.24578216 17.17492597 28.8125 25.625 C28.24764205 27.02457627 27.68318594 28.42431479 27.11914062 29.82421875 C25.750716 33.21802673 24.37688565 36.60961443 23 40 C20.36 40 17.72 40 15 40 C12.8616476 34.46492789 10.72545931 28.9290275 8.59130859 23.39233398 C7.86437055 21.50733647 7.13683241 19.62257027 6.40869141 17.73803711 C5.36464636 15.03559398 4.32273357 12.33233739 3.28125 9.62890625 C2.78908997 8.35703209 2.78908997 8.35703209 2.2869873 7.0594635 C0 1.11387171 0 1.11387171 0 0 Z " fill="#000000" transform="translate(649,598)"/>
<path d="M0 0 C4.17755299 3.61797315 6.47808923 7.87706345 6.9296875 13.35546875 C7.08457266 20.36606026 7.11742137 24.90395295 2.69140625 30.46484375 C-2.46267563 35.60721181 -6.07556524 37.61366117 -13.49609375 37.83984375 C-19.76726691 37.79095933 -23.65371526 36.67147468 -28.30859375 32.46484375 C-33.92014283 26.41027764 -34.77192709 21.79763835 -34.6171875 13.66015625 C-34.03536671 7.63573337 -31.35205603 4.25322716 -26.99609375 0.15234375 C-18.76614393 -6.3688453 -8.4196324 -5.86822864 0 0 Z M-26.05859375 6.33984375 C-29.22963061 10.74406161 -30.35782097 12.91418631 -30.18359375 18.40234375 C-29.28931415 23.86053304 -26.7663276 27.23902211 -22.55859375 30.77734375 C-18.03906643 33.12402139 -14.20167103 34.32581499 -9.1953125 32.8359375 C-4.39677636 30.6761444 -1.08801799 28.01299251 1.69140625 23.46484375 C2.92103395 18.77545612 3.12104692 14.86117593 1.69140625 10.21484375 C-1.49516552 5.83330757 -5.11301591 2.19670303 -10.30859375 0.46484375 C-17.26465099 -0.0601417 -21.21884326 1.2801046 -26.05859375 6.33984375 Z " fill="#DF0024" transform="translate(1290.30859375,224.53515625)"/>
<path d="M0 0 C10.56 0 21.12 0 32 0 C32 2.31 32 4.62 32 7 C28.04 7 24.08 7 20 7 C20 17.89 20 28.78 20 40 C17.36 40 14.72 40 12 40 C12 29.11 12 18.22 12 7 C8.04 7 4.08 7 0 7 C0 4.69 0 2.38 0 0 Z " fill="#000000" transform="translate(1047,598)"/>
<path d="M0 0 C10.56 0 21.12 0 32 0 C32 2.31 32 4.62 32 7 C28.04 7 24.08 7 20 7 C20 17.89 20 28.78 20 40 C17.36 40 14.72 40 12 40 C12 29.11 12 18.22 12 7 C8.04 7 4.08 7 0 7 C0 4.69 0 2.38 0 0 Z " fill="#000000" transform="translate(725,598)"/>
<path d="M0 0 C2.64 0 5.28 0 8 0 C8 10.56 8 21.12 8 32 C13.61 32 19.22 32 25 32 C25 34.64 25 37.28 25 40 C16.75 40 8.5 40 0 40 C0 26.8 0 13.6 0 0 Z " fill="#000000" transform="translate(977,598)"/>
<path d="M0 0 C2.64 0 5.28 0 8 0 C8 13.2 8 26.4 8 40 C5.36 40 2.72 40 0 40 C0 26.8 0 13.6 0 0 Z " fill="#000000" transform="translate(1086,598)"/>
<path d="M0 0 C2.64 0 5.28 0 8 0 C8 13.2 8 26.4 8 40 C5.36 40 2.72 40 0 40 C0 26.8 0 13.6 0 0 Z " fill="#000000" transform="translate(764,598)"/>
<path d="M0 0 C2.64 0 5.28 0 8 0 C8 13.2 8 26.4 8 40 C5.36 40 2.72 40 0 40 C0 26.8 0 13.6 0 0 Z " fill="#000000" transform="translate(493,598)"/>
<path d="M0 0 C13.27424749 -0.3687291 13.27424749 -0.3687291 16.421875 1.23046875 C18.90891479 4.01915445 18.54620809 6.3159176 18.40625 9.90234375 C18 12 18 12 16 14.0625 C15.34 14.371875 14.68 14.68125 14 15 C14.3609375 15.56589844 14.721875 16.13179687 15.09375 16.71484375 C15.5578125 17.44832031 16.021875 18.18179688 16.5 18.9375 C16.9640625 19.66839844 17.428125 20.39929688 17.90625 21.15234375 C19 23 19 23 19 24 C16.3125 24.5 16.3125 24.5 13 24 C11.430648 22.05138794 10.31721635 20.07168959 9.17578125 17.84765625 C8.06331822 15.67077684 8.06331822 15.67077684 5 15 C5 17.97 5 20.94 5 24 C3.35 24 1.7 24 0 24 C0 16.08 0 8.16 0 0 Z M5 5 C5 6.65 5 8.3 5 10 C7.31 10 9.62 10 12 10 C12.59070014 8.05396726 12.59070014 8.05396726 13 6 C11.81575674 4.58422523 11.81575674 4.58422523 8.4375 4.9375 C6.7359375 4.9684375 6.7359375 4.9684375 5 5 Z " fill="#DF0024" transform="translate(1268,229)"/>
</svg>
