<?xml version="1.0" encoding="UTF-8"?>
<svg version="1.1" xmlns="http://www.w3.org/2000/svg" width="600" height="260">
<path d="M0 0 C5.28 0 10.56 0 16 0 C17.84014169 6.68753963 19.67300066 13.37701741 21.49926758 20.06835938 C22.12098796 22.34233847 22.74466224 24.61578433 23.37036133 26.88867188 C24.2716408 30.16396593 25.16577501 33.44114091 26.05859375 36.71875 C26.3377916 37.72740112 26.61698944 38.73605225 26.90464783 39.77526855 C28.37281184 45.19434593 29.46352727 50.4090842 30 56 C30.66 56 31.32 56 32 56 C32.1043335 55.08017334 32.20866699 54.16034668 32.31616211 53.21264648 C33.07900108 47.90070981 34.54652267 42.77198578 35.94140625 37.59765625 C36.22853989 36.51995468 36.51567352 35.44225311 36.81150818 34.33189392 C37.72473431 30.90774231 38.64353353 27.48511499 39.5625 24.0625 C40.18461384 21.73382252 40.80636267 19.40504749 41.42773438 17.07617188 C42.94759796 11.3829762 44.47245975 5.69114053 46 0 C51.28 0 56.56 0 62 0 C63.3772274 5.26795094 64.49937719 10.49763494 65.32861328 15.88134766 C65.50461563 16.99518074 65.50461563 16.99518074 65.68417358 18.1315155 C66.06660252 20.55846476 66.44368827 22.9862062 66.8203125 25.4140625 C67.08630854 27.11464334 67.35249619 28.81519422 67.61886597 30.51571655 C68.1742981 34.06739343 68.72699933 37.619482 69.27783203 41.171875 C69.98280605 45.71650156 70.69524646 50.25992129 71.40980721 54.80304909 C71.96037431 58.30960247 72.50665802 61.81681307 73.05169296 65.32423019 C73.31264315 66.99972588 73.57498958 68.67500474 73.83877945 70.35005569 C74.20697874 72.69185867 74.56931046 75.03449863 74.93017578 77.37744141 C75.09377594 78.40624168 75.09377594 78.40624168 75.26068115 79.45582581 C75.86368433 83.41874979 76 86.93621783 76 91 C71.05 91 66.1 91 61 91 C60.60167969 88.586875 60.20335937 86.17375 59.79296875 83.6875 C59.39615987 81.29094778 58.99876515 78.89449337 58.60131836 76.49804688 C58.33020152 74.8614289 58.05967189 73.22471351 57.78979492 71.58789062 C55.99378339 60.69810751 54.08271716 49.83872545 52 39 C51.75903343 39.91082085 51.75903343 39.91082085 51.51319885 40.84004211 C49.84352599 47.15042065 48.17251957 53.46044495 46.50073242 59.77026367 C45.87669088 62.12629248 45.25299136 64.48241189 44.62963867 66.83862305 C43.73445743 70.22208053 42.83805349 73.60521202 41.94140625 76.98828125 C41.6622084 78.04461258 41.38301056 79.10094391 41.09535217 80.18928528 C40.83515793 81.17007553 40.57496368 82.15086578 40.30688477 83.16137695 C40.07816177 84.02519485 39.84943878 84.88901276 39.61378479 85.77900696 C39.12857052 87.5347649 38.57603115 89.27190655 38 91 C33.38 91 28.76 91 24 91 C19.38 73.84 14.76 56.68 10 39 C8.16003259 49.75272383 8.16003259 49.75272383 6.32104492 60.50561523 C4.5801499 70.6763465 2.80063419 80.83966475 1 91 C-3.95 91 -8.9 91 -14 91 C-13.32098828 80.99106767 -11.89438252 71.20367649 -10.3125 61.30859375 C-10.04697391 59.62904138 -9.78176142 57.9494394 -9.5168457 56.26979065 C-8.96480524 52.7756941 -8.40982786 49.28208159 -7.85253906 45.78881836 C-7.13825806 41.31068413 -6.43019669 36.83159353 -5.72413635 32.35215664 C-5.17882074 28.89551671 -4.63090337 25.43929335 -4.0821228 21.98320198 C-3.81992041 20.3306727 -3.55838023 18.6780382 -3.29751587 17.02529716 C-2.93396952 14.72535266 -2.56707824 12.42596703 -2.19921875 10.12670898 C-2.09217621 9.44569122 -1.98513367 8.76467346 -1.87484741 8.0630188 C-1.42405154 5.2650383 -0.8986481 2.69594429 0 0 Z " fill="#8BCC00" transform="translate(316,84)"/>
<path d="M0 0 C5.28 0 10.56 0 16 0 C18.00022919 7.33062719 19.9938865 14.66299763 21.98144531 21.99707031 C22.65867166 24.49235395 23.33769877 26.98714958 24.01855469 29.48144531 C24.99626686 33.06448965 25.9675129 36.64923277 26.9375 40.234375 C27.24373291 41.35116638 27.54996582 42.46795776 27.86547852 43.61859131 C28.14576904 44.65936829 28.42605957 45.70014526 28.71484375 46.77246094 C28.96355225 47.68735291 29.21226074 48.60224487 29.46850586 49.54486084 C30 52 30 52 30 56 C30.66 56 31.32 56 32 56 C32.15650024 54.36901367 32.15650024 54.36901367 32.31616211 52.70507812 C33.00387937 47.23692013 34.4736744 42.02118839 35.94140625 36.71875 C36.22853989 35.66465942 36.51567352 34.61056885 36.81150818 33.52453613 C37.72338055 30.1815984 38.64281814 26.8407967 39.5625 23.5 C40.18474679 21.22409552 40.80649687 18.94805518 41.42773438 16.671875 C42.94607871 11.11299441 44.47120807 5.55601597 46 0 C51.28 0 56.56 0 62 0 C64.08164957 10.87702937 65.98169011 21.75952842 67.69921875 32.69921875 C67.94146117 34.2338047 68.18379816 35.76837572 68.42622375 37.30293274 C68.92776979 40.48157034 69.42750746 43.66048575 69.92602539 46.83959961 C70.56398433 50.90633109 71.20766237 54.9721352 71.85277081 59.03773785 C72.35213615 62.1900349 72.84798052 65.34287826 73.34281349 68.49588966 C73.57882894 69.99634638 73.81605486 71.49661324 74.05454063 72.99667931 C74.38597295 75.08406267 74.71251497 77.17215564 75.0378418 79.26049805 C75.3173896 81.03676826 75.3173896 81.03676826 75.60258484 82.84892273 C76 86 76 86 76 91 C71.05 91 66.1 91 61 91 C58.77679424 79.35654401 56.74127216 67.69545697 54.8125 56 C53.884375 50.39 52.95625 44.78 52 39 C47.38 56.16 42.76 73.32 38 91 C33.38 91 28.76 91 24 91 C18.92848621 73.76837927 14.42787301 56.4053633 10 39 C7.6054196 50.43146256 5.64873287 61.90496564 3.8125 73.4375 C3.53737188 75.15173486 3.26198268 76.86592784 2.98632812 78.58007812 C2.32121979 82.71957734 1.65960593 86.8596206 1 91 C-3.95 91 -8.9 91 -14 91 C-13.31336427 80.91150355 -11.88315802 71.03318705 -10.3125 61.0546875 C-10.04700789 59.35031325 -9.78179471 57.64589553 -9.5168457 55.94143677 C-8.96478105 52.39607589 -8.40977515 48.85119227 -7.85253906 45.30664062 C-7.13779161 40.75896517 -6.42992866 36.21024954 -5.72413635 31.66117668 C-5.1793227 28.15389051 -4.63124262 24.64712106 -4.0821228 21.14050674 C-3.81963219 19.46207458 -3.55809215 17.78349346 -3.29751587 16.10476303 C-2.93469681 13.77097333 -2.56756568 11.43790317 -2.19921875 9.10498047 C-2.09217621 8.41101669 -1.98513367 7.71705292 -1.87484741 7.00205994 C-1.11433148 2.22866295 -1.11433148 2.22866295 0 0 Z " fill="#8BCC00" transform="translate(221,84)"/>
<path d="M0 0 C11.78237348 7.94625188 19.56188681 19.14537154 22.35546875 33.11328125 C24.28483551 47.45367075 20.96541053 59.74558182 12.94921875 71.66796875 C5.48648819 81.41097809 -5.10897901 87.50022326 -17.01953125 90.23828125 C-34.43141082 91.94525372 -48.17629432 88.64797634 -62.015625 77.65234375 C-70.9909554 69.45660775 -76.31165468 57.86241133 -77.296875 45.859375 C-77.70843907 30.86198011 -73.61124517 17.94145235 -63.20703125 6.86328125 C-45.76363095 -9.27437507 -20.42340586 -11.91585516 0 0 Z M-53.01953125 18.23828125 C-59.47208121 25.99552263 -62.69257969 34.29079716 -62.3671875 44.40625 C-61.12293354 54.54202661 -56.19743747 62.95374884 -48.45703125 69.48828125 C-40.34470706 75.11755564 -30.95503585 77.15591225 -21.22265625 75.96875 C-11.88691255 73.83974503 -3.76933512 68.93130587 1.98046875 61.23828125 C7.02479059 52.94037183 9.07591765 44.23443238 7.35546875 34.61328125 C4.74473745 24.97762164 -1.06166083 16.98402506 -9.5234375 11.6640625 C-24.26318389 4.17618551 -41.32290801 6.25810351 -53.01953125 18.23828125 Z " fill="#8BCD00" transform="translate(184.01953125,87.76171875)"/>
<path d="M0 0 C11.32756054 7.70339124 18.89842634 18.01765838 21.75390625 31.62109375 C23.86742485 46.56804965 20.89154712 59.34802757 12.1875 71.6875 C4.2819802 81.42998705 -7.4870899 88.57515552 -20.07421875 89.93115234 C-35.36994209 91.0163219 -47.9929059 88.61310772 -60.34375 78.9140625 C-70.80288889 69.48097838 -76.82085148 57.76536737 -77.8125 43.6875 C-77.94860772 29.48125683 -73.32661899 17.03973227 -63.78125 6.4296875 C-46.30376552 -10.22458213 -20.34280622 -12.20568373 0 0 Z M-56.8125 21.6875 C-61.8109918 29.30202489 -63.56952568 37.78716855 -62.47265625 46.7890625 C-60.38194752 55.9683872 -55.34238912 64.04008316 -47.8125 69.6875 C-39.33129111 74.98825556 -30.28525781 76.82581258 -20.4140625 75.08984375 C-10.0510807 72.29981019 -2.62886416 67.20496552 2.96875 58 C7.24152431 49.89268464 8.6739682 41.84332594 6.49609375 32.82421875 C3.37104419 23.37061694 -1.96028025 15.5526224 -10.8125 10.6875 C-28.25353604 3.65869699 -44.66067055 6.81465022 -56.8125 21.6875 Z " fill="#8BCD00" transform="translate(469.8125,88.3125)"/>
<path d="M0 0 C6.6 0 13.2 0 20 0 C22.05992545 4.36557805 24.11911416 8.73149205 26.17675781 13.09814453 C26.87039378 14.56967526 27.56437988 16.04104102 28.25878906 17.51220703 C34.92494703 31.63625141 41.45462033 45.81834406 48 60 C48.33 40.2 48.66 20.4 49 0 C53.95 0 58.9 0 64 0 C64 30.03 64 60.06 64 91 C57.73 91 51.46 91 45 91 C39.39434287 79.93603444 34.04546498 68.78627874 28.87084961 57.51489258 C27.67383277 54.90773212 26.47296211 52.30237295 25.27148438 49.69726562 C24.49717562 48.01572639 23.72307916 46.33408937 22.94921875 44.65234375 C22.59607101 43.88558823 22.24292328 43.1188327 21.8790741 42.32884216 C21.54474869 41.60020462 21.21042328 40.87156708 20.8659668 40.12084961 C20.5769902 39.49182236 20.28801361 38.8627951 19.99028015 38.21470642 C18.62398704 35.15906795 17.31852288 32.07655339 16 29 C15.67 49.46 15.34 69.92 15 91 C10.05 91 5.1 91 0 91 C0 60.97 0 30.94 0 0 Z " fill="#8BCC00" transform="translate(498,84)"/>
<path d="M0 0 C6.27 0 12.54 0 19 0 C24.60565713 11.06396556 29.95453502 22.21372126 35.12915039 33.48510742 C36.32616723 36.09226788 37.52703789 38.69762705 38.72851562 41.30273438 C39.50282438 42.98427361 40.27692084 44.66591063 41.05078125 46.34765625 C41.40392899 47.11441177 41.75707672 47.8811673 42.1209259 48.67115784 C42.62241402 49.76411415 42.62241402 49.76411415 43.1340332 50.87915039 C43.56749809 51.82269127 43.56749809 51.82269127 44.00971985 52.78529358 C45.37601296 55.84093205 46.68147712 58.92344661 48 62 C48.33 41.54 48.66 21.08 49 0 C53.95 0 58.9 0 64 0 C64 30.03 64 60.06 64 91 C57.4 91 50.8 91 44 91 C41.94007455 86.63442195 39.88088584 82.26850795 37.82324219 77.90185547 C37.12960622 76.43032474 36.43562012 74.95895898 35.74121094 73.48779297 C29.07505297 59.36374859 22.54537967 45.18165594 16 31 C15.67 50.8 15.34 70.6 15 91 C10.05 91 5.1 91 0 91 C0 60.97 0 30.94 0 0 Z " fill="#8BCC00" transform="translate(37,84)"/>
</svg>
