<svg xmlns="http://www.w3.org/2000/svg" width="451.524" height="500" fill="none"><g clip-path="url(#a)" transform="matrix(.18237 0 0 .18237 -.092 .046)"><path fill="url(#b)" d="M1761.82 1497.99c424.06-368.61 534.18-936.194 245.96-1267.734-288.22-331.541-865.63-301.488-1289.697 67.125C294.021 665.993 183.897 1233.58 472.116 1565.12s865.634 301.49 1289.704-67.13" style="fill:url(#b)"/><g filter="url(#c)"><path fill="url(#d)" fill-opacity=".2" d="M2178.69 789.49c15.59 121.757-146.85 182.838-334.59 206.88-187.74 24.04-329.7 1.939-345.29-119.818s104.63-289.003 292.38-313.045c187.74-24.041 371.9 104.226 387.5 225.983" style="fill:url(#d)"/></g><g filter="url(#e)"><path stroke="#ffb800" stroke-width="25.126" d="M1784.68 1471.54c424.06-368.61 507.83-925.442 219.61-1256.982s-839.28-312.243-1263.343 56.37C316.885 639.54 206.762 1207.13 494.98 1538.67c288.219 331.54 865.64 301.48 1289.7-67.13z"/></g><g filter="url(#f)"><path fill="url(#g)" d="M1403.14 1788.18c405.92-117.15 1036.24-796.303 976.83-1002.157-50.09-107.969-91.82-267.713-186.35-219.33-46.26 23.675-91.46 188.821-184.8 258.499-129.39 81.237-272.17 376.308-505.4 443.618-405.92 117.14-679.822 144.69-620.413 350.54 59.409 205.86 114.217 285.98 520.133 168.83" style="fill:url(#g)"/></g><mask id="h" width="1311" height="558" x="102" y="900" maskUnits="userSpaceOnUse"><path fill="#d9d9d9" d="M102.764 900.238h1309.31v557.041H102.764z"/></mask><g filter="url(#i)" mask="url(#h)"><path fill="#ff6512" d="M282.205 798.996c230.589-106.482 746.595-84.794 761.065-1.824-3.11 84.152-236.555 20.852-570.577 192.135C201.73 1128.25 78.909 1164.98 55.69 1031.82c-14.466-82.974-4.074-126.342 226.515-232.824"/></g><g filter="url(#j)"><path fill="url(#k)" d="M1725.69 1568.58c294.48-213.83 340.15-451.97 102-531.9-238.14-79.933-669.93 28.61-964.407 242.44-294.481 213.82-340.149 451.96-102.002 531.89 238.147 79.94 669.929-28.61 964.409-242.43" style="fill:url(#k)"/></g><g filter="url(#l)"><path fill="url(#m)" fill-opacity=".9" d="M796.077 2020.57c306.603-117.15 504.663-408.15 442.383-649.96-62.29-241.82-361.334-342.88-667.94-225.73s-504.667 408.15-442.381 649.96c62.286 241.82 361.332 342.88 667.938 225.73" style="fill:url(#m)"/></g><g filter="url(#n)"><path fill="#fd5710" d="M1616.95 941.304c226.64-89.385 690.38-92.144 689.63-29.726-25.13 94.152-217.74 24.632-548.89 167.042-268.63 115.52-386.01 147.96-384.8 47.78.76-62.42 17.42-95.71 244.06-185.096"/></g><g filter="url(#o)"><path stroke="#ffb905" stroke-opacity=".7" stroke-width="25.126" d="M1830.48 1438.26c394.67-434.5 560.99-983.335 265.82-1322.878-295.18-339.543-1027.23-339.46-1484.737 58.221C154.06 571.284 173.421 1218.87 468.596 1558.42c295.176 339.54 818.604 381.53 1361.884-120.16Z"/></g><g mask="url(#p)"><path fill="url(#q)" d="M-50.756 399.242h1324.39v525.634H-50.756z" style="fill:url(#q)"/><g filter="url(#r)"><path fill="url(#s)" fill-opacity=".5" d="M247.595 489.011c13.797-40.021 51.644-66.732 93.974-66.325l1363.621 13.131c29.78.287 46.18 34.728 27.62 58.027a35.7 35.7 0 0 1-11.94 9.689l-83.3 41.76c-13.84 6.941-28.95 11.002-44.36 12.526-92.42 9.142-105.38 25.808-144.58 33.798-9.43 1.921-18.84 4.086-27.82 7.552l-102.1 39.418a118.4 118.4 0 0 1-20.73 5.903l-110.46 20.839a118.6 118.6 0 0 1-21.99 2.056H746.305l-309.15-24.901-117.216-25.201c-57.705-12.407-91.581-72.471-72.344-128.272" style="fill:url(#s)"/></g><g filter="url(#t)"><path fill="url(#u)" d="M-105.716 424.974c6.374-60.339 57.263-106.134 117.937-106.134h543.197c58.811 0 108.738 43.1 117.324 101.28l.774 5.244c9.806 66.449-37.479 127.773-104.238 135.184l-31.71 3.521-113.821 21.357-107.517 32.849a118.6 118.6 0 0 1-26.482 4.894l-113.556 7.842c-6.228.43-12.481.368-18.699-.186L4.768 617.214a118.6 118.6 0 0 1-72.633-33.574l-8.685-8.543a118.6 118.6 0 0 1-34.778-97.012Z" style="fill:url(#u)"/></g><g filter="url(#v)"><path fill="url(#w)" fill-opacity=".5" d="M230.959 364.767a55.1 55.1 0 0 1 50.112-29.178l1160.689 31.226c13.26.357 18.43 17.39 7.6 25.053-.87.618-1.81 1.132-2.8 1.532l-54.65 22.075a119.7 119.7 0 0 1-30.44 7.819c-53.26 6.435-55.69 7.222-90.9 9.723l-93.84 4.978-93.3 5.001-138.476 4.885-110.729 5.118-107.238 10.854h-111.59L474.25 452.999H356.41l-81.827-7.466c-39.237-3.58-62.144-45.991-43.624-80.766" style="fill:url(#w)"/></g></g><g filter="url(#x)"><path fill="#fff" fill-opacity=".25" d="M1974.84 351.845c-135.48 84.427-179.1 5.55-378.71-56.842s-388.43-27.42-344.15-169.1c44.29-141.68 242.01-205.956 441.62-143.564 282.56 62.428 368.94 228.441 281.24 369.506"/></g><mask id="y" width="2340" height="1085" x="276" y="900" maskUnits="userSpaceOnUse"><path fill="#d9d9d9" d="M276.384 900.254h2338.97v1084.18H276.384z"/></mask><g mask="url(#y)"><path fill="url(#z)" d="M888.953 900.258H2475.9c-30.09 169.612-97.31 322.182-199.94 458.512H888.953Z" style="fill:url(#z)"/><path fill="url(#A)" d="M888.953 900.258H2475.9c-30.09 169.622-97.31 322.192-199.94 458.522H888.953Z" style="fill:url(#A)"/><mask id="B" width="2082" height="462" x="394" y="897" maskUnits="userSpaceOnUse"><path fill="#d9d9d9" d="M394.475 897.742h2081.43v461.023H394.475z"/></mask><g mask="url(#B)"><g filter="url(#C)"><ellipse cx="1627.21" cy="1356.59" fill="#b70b00" fill-opacity=".6" rx="235.795" ry="88.716"/></g><g filter="url(#D)"><path fill="url(#E)" fill-opacity=".6" d="M2131.18 1250.8c27.06-140.35 57.11-312.109-235.11-312.109-292.21 0-537.79 47.917-754.97 131.359-217.187 83.43-157.971 122.76-113.29 180.75 49.69 64.49 159.71 152.62 274.72 173.42 53.41 9.65 335.38-31.38 385.99-23.5 265.11 41.28 415.6-9.57 442.66-149.92" style="fill:url(#E)"/></g></g><path fill="url(#F)" d="M888.953 900.254H2475.9c-30.09 169.616-97.31 322.186-199.94 458.506H888.953Z" style="fill:url(#F)"/><mask id="H" width="1332" height="459" x="1144" y="900" maskUnits="userSpaceOnUse"><path fill="url(#G)" d="M1144.99 900.254h1330.92c-30.1 169.616-97.32 322.186-199.95 458.506H1144.99Z"/></mask><g filter="url(#I)" mask="url(#H)"><path fill="url(#J)" d="M1881.3 972.489c-111.94-55.905-479.38-69.45-535.94-85.427l228.31-45.24c240.21-3.89 448.64-17.571 471.78-21.233 28.93-4.577 453.35-9.392 506.29 21.233 42.35 24.501 44.11 267.368 0 288.188-169.93-39.68-138.59-16.17-314.15-72.09-79.28-25.25-208.37-11.55-356.29-85.431" style="fill:url(#J)"/></g></g><path fill="url(#K)" d="M1716.357 436.43H194.607C95.568 583.892 21.029 736.484 0 900.275h1368.277Z" style="fill:url(#K);stroke-width:1"/><mask id="p" width="1718" height="465" x="-1" y="436" maskUnits="userSpaceOnUse"><path fill="#fff" d="M1716.35 436.43H194.607C95.567 583.891 21.028 736.483-.001 900.273H1368.27Z"/></mask></g><defs><filter id="c" width="1034.03" height="796.169" x="1321.57" y="384.697" color-interpolation-filters="sRGB" filterUnits="userSpaceOnUse"><feFlood flood-opacity="0" result="BackgroundImageFix"/><feBlend in="SourceGraphic" in2="BackgroundImageFix" result="shape"/><feGaussianBlur result="effect1_foregroundBlur_22_3795" stdDeviation="87.941"/></filter><filter id="e" width="2115.86" height="2065.93" x="196.059" y="-158.79" color-interpolation-filters="sRGB" filterUnits="userSpaceOnUse"><feFlood flood-opacity="0" result="BackgroundImageFix"/><feBlend in="SourceGraphic" in2="BackgroundImageFix" result="shape"/><feGaussianBlur result="effect1_foregroundBlur_22_3795" stdDeviation="62.815"/></filter><filter id="f" width="2262.75" height="2038.38" x="498.027" y="180.908" color-interpolation-filters="sRGB" filterUnits="userSpaceOnUse"><feFlood flood-opacity="0" result="BackgroundImageFix"/><feBlend in="SourceGraphic" in2="BackgroundImageFix" result="shape"/><feGaussianBlur result="effect1_foregroundBlur_22_3795" stdDeviation="188.444"/></filter><filter id="i" width="1343.6" height="739.661" x="-124.456" y="550.962" color-interpolation-filters="sRGB" filterUnits="userSpaceOnUse"><feFlood flood-opacity="0" result="BackgroundImageFix"/><feBlend in="SourceGraphic" in2="BackgroundImageFix" result="shape"/><feGaussianBlur result="effect1_foregroundBlur_22_3795" stdDeviation="87.941"/></filter><filter id="j" width="2125.31" height="1580.67" x="231.831" y="633.514" color-interpolation-filters="sRGB" filterUnits="userSpaceOnUse"><feFlood flood-opacity="0" result="BackgroundImageFix"/><feBlend in="SourceGraphic" in2="BackgroundImageFix" result="shape"/><feGaussianBlur result="effect1_foregroundBlur_22_3795" stdDeviation="188.444"/></filter><filter id="l" width="2138.26" height="1978.3" x="-385.83" y="593.576" color-interpolation-filters="sRGB" filterUnits="userSpaceOnUse"><feFlood flood-opacity="0" result="BackgroundImageFix"/><feBlend in="SourceGraphic" in2="BackgroundImageFix" result="shape"/><feGaussianBlur result="effect1_foregroundBlur_22_3795" stdDeviation="251.259"/></filter><filter id="n" width="1938.73" height="1322.33" x="870.366" y="366.341" color-interpolation-filters="sRGB" filterUnits="userSpaceOnUse"><feFlood flood-opacity="0" result="BackgroundImageFix"/><feBlend in="SourceGraphic" in2="BackgroundImageFix" result="shape"/><feGaussianBlur result="effect1_foregroundBlur_22_3795" stdDeviation="251.259"/></filter><filter id="o" width="2166.59" height="2122.77" x="167.969" y="-220.339" color-interpolation-filters="sRGB" filterUnits="userSpaceOnUse"><feFlood flood-opacity="0" result="BackgroundImageFix"/><feBlend in="SourceGraphic" in2="BackgroundImageFix" result="shape"/><feGaussianBlur result="effect1_foregroundBlur_22_3795" stdDeviation="37.689"/></filter><filter id="x" width="1113.92" height="781.907" x="1069.59" y="-217.385" color-interpolation-filters="sRGB" filterUnits="userSpaceOnUse"><feFlood flood-opacity="0" result="BackgroundImageFix"/><feBlend in="SourceGraphic" in2="BackgroundImageFix" result="shape"/><feGaussianBlur result="effect1_foregroundBlur_22_3795" stdDeviation="87.941"/></filter><filter id="C" width="974.108" height="679.948" x="1140.16" y="1016.62" color-interpolation-filters="sRGB" filterUnits="userSpaceOnUse"><feFlood flood-opacity="0" result="BackgroundImageFix"/><feBlend in="SourceGraphic" in2="BackgroundImageFix" result="shape"/><feGaussianBlur result="effect1_foregroundBlur_22_3795" stdDeviation="125.63"/></filter><filter id="D" width="1664.92" height="989.526" x="733.905" y="687.432" color-interpolation-filters="sRGB" filterUnits="userSpaceOnUse"><feFlood flood-opacity="0" result="BackgroundImageFix"/><feBlend in="SourceGraphic" in2="BackgroundImageFix" result="shape"/><feGaussianBlur result="effect1_foregroundBlur_22_3795" stdDeviation="125.63"/></filter><filter id="I" width="1289.05" height="363.049" x="1320.24" y="792.089" color-interpolation-filters="sRGB" filterUnits="userSpaceOnUse"><feFlood flood-opacity="0" result="BackgroundImageFix"/><feBlend in="SourceGraphic" in2="BackgroundImageFix" result="shape"/><feGaussianBlur result="effect1_foregroundBlur_22_3795" stdDeviation="12.563"/></filter><filter id="r" width="1649.24" height="395.459" x="166.804" y="347.306" color-interpolation-filters="sRGB" filterUnits="userSpaceOnUse"><feFlood flood-opacity="0" result="BackgroundImageFix"/><feBlend in="SourceGraphic" in2="BackgroundImageFix" result="shape"/><feGaussianBlur result="effect1_foregroundBlur_22_3795" stdDeviation="37.689"/></filter><filter id="t" width="937.544" height="463.209" x="-187.363" y="243.462" color-interpolation-filters="sRGB" filterUnits="userSpaceOnUse"><feFlood flood-opacity="0" result="BackgroundImageFix"/><feBlend in="SourceGraphic" in2="BackgroundImageFix" result="shape"/><feGaussianBlur result="effect1_foregroundBlur_22_3795" stdDeviation="37.689"/></filter><filter id="v" width="1281.03" height="178.533" x="199.311" y="310.444" color-interpolation-filters="sRGB" filterUnits="userSpaceOnUse"><feFlood flood-opacity="0" result="BackgroundImageFix"/><feBlend in="SourceGraphic" in2="BackgroundImageFix" result="shape"/><feGaussianBlur result="effect1_foregroundBlur_22_3795" stdDeviation="12.563"/></filter><filter id="O" width="1649.24" height="395.459" x="166.804" y="347.361" color-interpolation-filters="sRGB" filterUnits="userSpaceOnUse"><feFlood flood-opacity="0" result="BackgroundImageFix"/><feBlend in="SourceGraphic" in2="BackgroundImageFix" result="shape"/><feGaussianBlur result="effect1_foregroundBlur_22_3972" stdDeviation="37.689"/></filter><filter id="S" width="937.544" height="463.209" x="-187.362" y="243.517" color-interpolation-filters="sRGB" filterUnits="userSpaceOnUse"><feFlood flood-opacity="0" result="BackgroundImageFix"/><feBlend in="SourceGraphic" in2="BackgroundImageFix" result="shape"/><feGaussianBlur result="effect1_foregroundBlur_22_3972" stdDeviation="37.689"/></filter><filter id="W" width="1281.03" height="178.533" x="199.31" y="310.499" color-interpolation-filters="sRGB" filterUnits="userSpaceOnUse"><feFlood flood-opacity="0" result="BackgroundImageFix"/><feBlend in="SourceGraphic" in2="BackgroundImageFix" result="shape"/><feGaussianBlur result="effect1_foregroundBlur_22_3972" stdDeviation="12.563"/></filter><filter id="P" width="1649.24" height="395.459" x="166.804" y="347.361" color-interpolation-filters="sRGB" filterUnits="userSpaceOnUse"><feFlood flood-opacity="0" result="BackgroundImageFix"/><feBlend in="SourceGraphic" in2="BackgroundImageFix" result="shape"/><feGaussianBlur result="effect1_foregroundBlur_22_3972" stdDeviation="37.689"/></filter><filter id="T" width="937.544" height="463.209" x="-187.362" y="243.517" color-interpolation-filters="sRGB" filterUnits="userSpaceOnUse"><feFlood flood-opacity="0" result="BackgroundImageFix"/><feBlend in="SourceGraphic" in2="BackgroundImageFix" result="shape"/><feGaussianBlur result="effect1_foregroundBlur_22_3972" stdDeviation="37.689"/></filter><filter id="X" width="1281.03" height="178.533" x="199.31" y="310.499" color-interpolation-filters="sRGB" filterUnits="userSpaceOnUse"><feFlood flood-opacity="0" result="BackgroundImageFix"/><feBlend in="SourceGraphic" in2="BackgroundImageFix" result="shape"/><feGaussianBlur result="effect1_foregroundBlur_22_3972" stdDeviation="12.563"/></filter><linearGradient id="b" x1="1558.62" x2="772.962" y1="-37.841" y2="1790.65" gradientUnits="userSpaceOnUse"><stop offset=".11" stop-color="#FFEC51"/><stop offset=".398" stop-color="#FDD243"/><stop offset="1" stop-color="#FF9518"/></linearGradient><linearGradient id="d" x1="1804.02" x2="1859.41" y1="561.863" y2="994.409" gradientUnits="userSpaceOnUse"><stop stop-color="#FFEC4E"/><stop offset="1" stop-color="#FFEC89"/></linearGradient><linearGradient id="g" x1="2086.25" x2="1334.95" y1="780.779" y2="2101.94" gradientUnits="userSpaceOnUse"><stop stop-color="#FF8A00"/><stop offset=".974" stop-color="#EA0673"/></linearGradient><linearGradient id="k" x1="1322.59" x2="1659.67" y1="1168.43" y2="1661.64" gradientUnits="userSpaceOnUse"><stop stop-color="red" stop-opacity=".5"/><stop offset=".554" stop-color="#9E021E"/><stop offset="1" stop-color="#BD3A52"/></linearGradient><linearGradient id="m" x1="271.476" x2="1054.62" y1="1607" y2="2007.66" gradientUnits="userSpaceOnUse"><stop stop-color="#FF347D" stop-opacity=".5"/><stop offset=".52" stop-color="#FF3D83"/><stop offset=".988" stop-color="#B20342"/></linearGradient><linearGradient id="z" x1="2427.41" x2="1213.58" y1="1358.79" y2="1233.79" gradientUnits="userSpaceOnUse"><stop offset=".011" stop-color="#FEB342"/><stop offset=".465" stop-color="#FF891C"/><stop offset=".734" stop-color="#FFA826" stop-opacity=".4"/><stop offset="1" stop-color="#FF7816" stop-opacity="0"/></linearGradient><linearGradient id="A" x1="2368.76" x2="2139.94" y1="857.664" y2="1340.82" gradientUnits="userSpaceOnUse"><stop offset=".174" stop-color="#FFC700"/><stop offset=".839" stop-color="#FF7816" stop-opacity="0"/></linearGradient><linearGradient id="E" x1="1180.27" x2="2353.28" y1="1288.09" y2="1152.13" gradientUnits="userSpaceOnUse"><stop offset=".017" stop-color="#F6253E"/><stop offset=".506" stop-color="#FF2B45"/><stop offset="1" stop-color="#FF6E2F" stop-opacity=".5"/></linearGradient><linearGradient id="F" x1="2278.63" x2="2138.12" y1="875.075" y2="1339.23" gradientUnits="userSpaceOnUse"><stop offset=".05" stop-color="#FFE6A7"/><stop offset="1" stop-color="#FF8A00" stop-opacity="0"/></linearGradient><linearGradient id="G" x1="2300.9" x2="2219.5" y1="900.239" y2="1246.6" gradientUnits="userSpaceOnUse"><stop offset=".05" stop-color="#FFE9AF"/><stop offset="1" stop-color="#FF7816" stop-opacity="0"/></linearGradient><linearGradient id="J" x1="1831.17" x2="1851" y1="748.744" y2="981.486" gradientUnits="userSpaceOnUse"><stop stop-color="#fff"/><stop offset="1" stop-color="#fff" stop-opacity="0"/></linearGradient><linearGradient id="q" x1="645.985" x2="177.015" y1="550.249" y2="1110.41" gradientUnits="userSpaceOnUse"><stop stop-color="#FFD232" stop-opacity="0"/><stop offset="1" stop-color="#FFA212"/></linearGradient><linearGradient id="u" x1="371.355" x2="388.666" y1="415.7" y2="707.027" gradientUnits="userSpaceOnUse"><stop stop-color="#FFEC89" stop-opacity=".8"/><stop offset=".723" stop-color="#FFED8E" stop-opacity="0"/></linearGradient><linearGradient id="w" x1="884.431" x2="195.883" y1="410.671" y2="365.197" gradientUnits="userSpaceOnUse"><stop stop-color="#fff"/><stop offset=".456" stop-color="#fff" stop-opacity=".389"/><stop offset=".836" stop-color="#fff" stop-opacity="0"/></linearGradient><linearGradient id="U" x1="371.356" x2="388.667" y1="415.755" y2="707.082" gradientUnits="userSpaceOnUse"><stop stop-color="#FFEC89" stop-opacity=".8"/><stop offset=".723" stop-color="#FFED8E" stop-opacity="0"/></linearGradient><linearGradient id="Y" x1="884.431" x2="195.883" y1="410.726" y2="365.252" gradientUnits="userSpaceOnUse"><stop stop-color="#fff"/><stop offset=".456" stop-color="#fff" stop-opacity=".389"/><stop offset=".836" stop-color="#fff" stop-opacity="0"/></linearGradient><linearGradient id="N" x1="645.987" x2="177.017" y1="550.304" y2="1110.46" gradientUnits="userSpaceOnUse"><stop stop-color="#FFD232" stop-opacity="0"/><stop offset="1" stop-color="#FFA212"/></linearGradient><linearGradient id="V" x1="371.356" x2="388.667" y1="415.755" y2="707.082" gradientUnits="userSpaceOnUse"><stop stop-color="#FFEC89" stop-opacity=".8"/><stop offset=".723" stop-color="#FFED8E" stop-opacity="0"/></linearGradient><linearGradient id="Z" x1="884.431" x2="195.883" y1="410.726" y2="365.252" gradientUnits="userSpaceOnUse"><stop stop-color="#fff"/><stop offset=".456" stop-color="#fff" stop-opacity=".389"/><stop offset=".836" stop-color="#fff" stop-opacity="0"/></linearGradient><radialGradient id="K" cx="0" cy="0" r="1" gradientTransform="matrix(1475.0187 -443.34631 198.96325 661.95317 75.126 495.852)" gradientUnits="userSpaceOnUse"><stop stop-color="#FFD726"/><stop offset=".451" stop-color="#FFD537"/><stop offset=".7" stop-color="#FFD743"/><stop offset="1" stop-color="#F9DC43" stop-opacity="0"/></radialGradient><radialGradient id="s" cx="0" cy="0" r="1" gradientTransform="matrix(798.426 0 0 179.801 666.916 407.422)" gradientUnits="userSpaceOnUse"><stop stop-color="#fff"/><stop offset=".836" stop-color="#fff" stop-opacity="0"/></radialGradient><radialGradient id="Q" cx="0" cy="0" r="1" gradientTransform="matrix(798.426 0 0 179.801 666.916 407.477)" gradientUnits="userSpaceOnUse"><stop stop-color="#fff"/><stop offset=".836" stop-color="#fff" stop-opacity="0"/></radialGradient><radialGradient id="R" cx="0" cy="0" r="1" gradientTransform="matrix(798.426 0 0 179.801 666.916 407.477)" gradientUnits="userSpaceOnUse"><stop stop-color="#fff"/><stop offset=".836" stop-color="#fff" stop-opacity="0"/></radialGradient><clipPath id="a" clipPathUnits="userSpaceOnUse"><path fill="#ff4e4e" fill-rule="evenodd" d="M1761.82 1498c50.43-43.84 96.43-90.5 137.84-139.24h376.3c102.63-136.32 169.85-288.89 199.95-458.508H2140.8c61.56-246.488 21.56-492.187-133.02-669.994-288.22-331.54-865.63-301.487-1289.697 67.125-50.372 43.786-96.314 90.378-137.685 139.049H194.607C95.567 583.894 21.028 736.486-.001 900.276h337.825c-59.719 244.754-19.205 488.274 134.292 664.844 288.219 331.54 865.634 301.49 1289.704-67.12" clip-rule="evenodd" style="stroke-width:1"/></clipPath><mask id="M" width="1717" height="465" x="0" y="436" maskUnits="userSpaceOnUse"><path fill="#fff" d="M1716.35 436.484H194.608C95.568 583.946 21.029 736.538 0 900.328h1368.27z"/></mask></defs><path fill="#001e37" d="M22.757 407.424c6.725-5.004 15.238-7.507 25.55-7.507 6.58 0 11.928.689 16.058 2.066l-6.036 13.701c-2.754-.688-5.984-1.032-9.717-1.032-6.38 0-11.464 1.47-15.238 4.422-3.786 2.938-6.353 7.757-7.73 14.43l-8.831 42.27H0l9.427-45.064c2.157-10.498 6.605-18.256 13.33-23.273m57.588 66.867c-5.838-2.753-10.34-6.645-13.477-11.703s-4.713-10.921-4.713-17.594c0-3.626.397-7.069 1.178-10.312 1.669-7.268 4.912-13.57 9.718-18.918 4.805-5.348 10.696-9.426 17.673-12.219 6.963-2.793 14.43-4.197 22.386-4.197 9.228 0 16.495 1.867 21.79 5.6 5.296 3.734 7.957 8.685 7.957 14.88 0 1.761-.199 3.442-.582 5.004q-5.303 23.274-54.054 23.274c-4.514 0-7.704-.053-9.57-.146.886 5.11 3.361 9.108 7.439 12.008s9.65 4.342 16.72 4.342c8.142 0 16.35-2.066 24.597-6.182l4.422 12.96c-4.62 2.356-9.57 4.17-14.88 5.454-5.296 1.27-10.55 1.92-15.753 1.92-8.05 0-15-1.378-20.839-4.118m9.201-38.881c11.094 0 19.779-1.152 26.067-3.455s9.823-5.428 10.605-9.347c.092-.397.145-.887.145-1.47 0-2.356-1.258-4.249-3.76-5.665s-6.156-2.132-10.974-2.132c-8.05 0-15 1.894-20.838 5.667-5.838 3.786-9.65 9.2-11.411 16.27 2.064.092 5.454.145 10.166.145m77.909-25.841c8.049-6.818 18.163-10.234 30.343-10.234 7.757 0 14.601 1.496 20.545 4.488s10.525 7.149 13.769 12.444 4.858 11.24 4.858 17.82c0 2.753-.291 5.6-.886 8.538-1.378 6.673-4.197 12.723-8.473 18.11-4.276 5.402-9.519 9.624-15.754 12.67q-9.353 4.567-20.096 4.567c-6.381 0-12.048-1.099-17.011-3.31-4.965-2.21-8.963-5.467-12.008-9.797L155.394 500h-16.787l13.252-63.174q3.535-16.938 15.608-27.165m.146 33.652c0 6.09 2.011 11.028 6.036 14.801 4.024 3.786 9.624 5.666 16.787 5.666s13.132-2.105 18.48-6.328c5.35-4.223 8.765-9.717 10.234-16.496.49-2.448.742-4.514.742-6.182 0-6.182-2.04-11.173-6.117-14.946s-9.69-5.666-16.865-5.666c-6.779 0-12.882 2.118-18.336 6.328-5.454 4.223-8.856 9.717-10.233 16.495-.49 2.45-.742 4.567-.742 6.328m116.935-29.747c-5.11 0-9.054.689-11.861 2.065-2.793 1.377-4.196 3.297-4.196 5.746 0 1.867 1.178 3.508 3.534 4.938 2.357 1.43 6.632 2.965 12.815 4.633 9.518 2.45 16.297 5.455 20.321 8.99 4.024 3.534 6.037 7.81 6.037 12.814 0 1.668-.252 3.628-.742 5.891-1.376 5.984-5.083 10.803-11.12 14.43s-13.874 5.455-23.485 5.455c-6.871 0-13.384-.808-19.513-2.437-6.143-1.614-11.267-3.799-15.397-6.553l7.652-13.105c8.539 5.295 17.964 7.956 28.277 7.956 5.402 0 9.598-.927 12.59-2.794s4.488-4.116 4.488-6.778c0-2.065-1.271-3.931-3.826-5.6q-3.833-2.501-13.702-5.004c-8.935-2.25-15.37-5.096-19.288-8.538-3.932-3.43-5.891-7.56-5.891-12.365 0-1.76.199-3.429.582-5.004 1.179-5.6 4.832-10.141 10.975-13.623 6.129-3.481 13.86-5.229 23.194-5.229 5.6 0 10.921.662 15.979 1.986s9.452 3.31 13.185 5.97l-7.36 12.67q-10.605-6.474-23.274-6.474m56.264 60.527c-6.09-3.046-10.75-7.216-13.994-12.524-3.243-5.296-4.858-11.24-4.858-17.82 0-2.845.292-5.745.887-8.684 1.377-6.672 4.29-12.709 8.764-18.11 4.461-5.401 9.995-9.65 16.575-12.735 6.58-3.098 13.543-4.634 20.916-4.634 8.248 0 15.41 1.523 21.5 4.567s10.749 7.215 13.993 12.524c3.243 5.295 4.858 11.24 4.858 17.82 0 2.845-.291 5.745-.886 8.683-1.378 6.673-4.303 12.722-8.765 18.11-4.474 5.402-9.995 9.652-16.574 12.736-6.58 3.098-13.543 4.633-20.917 4.633-8.248 0-15.41-1.521-21.499-4.566m-1.92-30.926c0 6.183 2.132 11.186 6.407 15.026 4.277 3.826 9.943 5.746 17.012 5.746s13.741-2.079 19.143-6.262c5.401-4.17 8.83-9.744 10.313-16.72.489-2.251.74-4.224.74-5.892 0-6.182-2.13-11.186-6.407-15.025-4.275-3.84-9.942-5.746-17.01-5.746-7.07 0-13.743 2.092-19.144 6.262s-8.83 9.743-10.312 16.72c-.49 2.264-.741 4.224-.741 5.891m95.886-65.239h16.786l-20.611 97.793h-16.787z" style="stroke-width:.0980385"/><g mask="url(#M)" transform="matrix(.18237 0 0 .18237 -.092 .036)"><path d="M-50.754 399.297h1324.39v525.634H-50.754Z" style="fill:url(#N)"/><g filter="url(#O)" style="filter:url(#P)"><path fill="url(#Q)" fill-opacity=".5" d="M247.595 489.066c13.797-40.021 51.644-66.733 93.974-66.325l1363.621 13.131c29.78.287 46.18 34.728 27.62 58.026a35.7 35.7 0 0 1-11.94 9.69l-83.3 41.76c-13.84 6.94-28.95 11.001-44.36 12.526-92.42 9.142-105.38 25.808-144.58 33.797-9.43 1.922-18.84 4.087-27.82 7.553l-102.1 39.417a118.4 118.4 0 0 1-20.73 5.904l-110.46 20.839a118.7 118.7 0 0 1-21.99 2.056H746.305l-309.15-24.901-117.216-25.202c-57.705-12.406-91.581-72.471-72.344-128.271" style="fill:url(#R)"/></g><g filter="url(#S)" style="filter:url(#T)"><path fill="url(#U)" d="M-105.715 425.028c6.374-60.338 57.263-106.133 117.937-106.133H555.42c58.811 0 108.738 43.099 117.324 101.28l.774 5.244c9.806 66.449-37.479 127.772-104.238 135.184l-31.71 3.52-113.821 21.357-107.517 32.85a118.7 118.7 0 0 1-26.482 4.894l-113.556 7.842c-6.228.43-12.481.368-18.699-.187L4.769 617.268a118.6 118.6 0 0 1-72.633-33.574l-8.685-8.542a118.6 118.6 0 0 1-34.778-97.013z" style="fill:url(#V)"/></g><g filter="url(#W)" style="filter:url(#X)"><path fill="url(#Y)" fill-opacity=".5" d="M230.959 364.821a55.1 55.1 0 0 1 50.112-29.177L1441.76 366.87c13.26.356 18.43 17.389 7.6 25.053-.87.617-1.81 1.131-2.8 1.532l-54.65 22.075a119.7 119.7 0 0 1-30.44 7.819c-53.26 6.435-55.69 7.222-90.9 9.722l-93.84 4.978-93.3 5.002-138.476 4.885-110.729 5.118-107.238 10.854h-111.59L474.25 453.054H356.41l-81.827-7.466c-39.237-3.58-62.144-45.991-43.624-80.767" style="fill:url(#Z)"/></g></g></svg>