<?xml version="1.0" encoding="UTF-8"?>
<svg version="1.1" xmlns="http://www.w3.org/2000/svg" width="804" height="284">
<path d="M0 0 C14.89242324 13.30408775 23.95459413 31.47740168 26.34619141 51.24511719 C27.57391036 73.34405843 22.13532431 93.91985326 7.48950195 110.87719727 C-5.84137119 125.75909542 -24.47560756 136.12425658 -44.66918945 137.36938477 C-68.42625798 138.25578111 -88.11593373 131.61374329 -106.06005859 116.17480469 C-120.41215518 102.54031293 -128.76454458 83.25186938 -129.85693359 63.58886719 C-130.1272045 41.42665285 -123.43186392 20.95787711 -108.11962891 4.54736328 C-79.22048969 -24.90640588 -31.28608951 -26.61932182 0 0 Z M-92.65380859 -2.75488281 C-92.65380859 -1.43488281 -92.65380859 -0.11488281 -92.65380859 1.24511719 C-91.00380859 1.24511719 -89.35380859 1.24511719 -87.65380859 1.24511719 C-87.32380859 1.90511719 -86.99380859 2.56511719 -86.65380859 3.24511719 C-86.32380859 2.58511719 -85.99380859 1.92511719 -85.65380859 1.24511719 C-84.00380859 1.24511719 -82.35380859 1.24511719 -80.65380859 1.24511719 C-80.65380859 -0.73488281 -80.65380859 -2.71488281 -80.65380859 -4.75488281 C-79.66380859 -5.08488281 -78.67380859 -5.41488281 -77.65380859 -5.75488281 C-77.65380859 -6.41488281 -77.65380859 -7.07488281 -77.65380859 -7.75488281 C-76.00380859 -8.08488281 -74.35380859 -8.41488281 -72.65380859 -8.75488281 C-72.32380859 -8.09488281 -71.99380859 -7.43488281 -71.65380859 -6.75488281 C-69.62917604 -6.1027499 -69.62917604 -6.1027499 -67.65380859 -5.75488281 C-67.65380859 -4.10488281 -67.65380859 -2.45488281 -67.65380859 -0.75488281 C-68.64380859 -0.42488281 -69.63380859 -0.09488281 -70.65380859 0.24511719 C-70.32380859 1.89511719 -69.99380859 3.54511719 -69.65380859 5.24511719 C-68.33380859 5.57511719 -67.01380859 5.90511719 -65.65380859 6.24511719 C-64.99380859 4.26511719 -64.33380859 2.28511719 -63.65380859 0.24511719 C-64.31380859 0.24511719 -64.97380859 0.24511719 -65.65380859 0.24511719 C-65.32380859 -1.07488281 -64.99380859 -2.39488281 -64.65380859 -3.75488281 C-63.33380859 -3.75488281 -62.01380859 -3.75488281 -60.65380859 -3.75488281 C-60.49104818 -1.73665365 -60.32828776 0.28157552 -60.16552734 2.29980469 C-59.77987824 4.64030935 -59.77987824 4.64030935 -56.65380859 6.24511719 C-54.19801163 2.55947634 -54.19801163 2.55947634 -53.65380859 -1.75488281 C-54.97380859 -2.08488281 -56.29380859 -2.41488281 -57.65380859 -2.75488281 C-58.14880859 -5.72488281 -58.14880859 -5.72488281 -58.65380859 -8.75488281 C-57.66380859 -8.75488281 -56.67380859 -8.75488281 -55.65380859 -8.75488281 C-55.32380859 -9.74488281 -54.99380859 -10.73488281 -54.65380859 -11.75488281 C-52.67380859 -12.08488281 -50.69380859 -12.41488281 -48.65380859 -12.75488281 C-48.65380859 -11.43488281 -48.65380859 -10.11488281 -48.65380859 -8.75488281 C-47.33380859 -8.75488281 -46.01380859 -8.75488281 -44.65380859 -8.75488281 C-44.98380859 -6.77488281 -45.31380859 -4.79488281 -45.65380859 -2.75488281 C-46.97380859 -2.42488281 -48.29380859 -2.09488281 -49.65380859 -1.75488281 C-49.38724288 1.17955121 -49.38724288 1.17955121 -48.65380859 4.24511719 C-47.66380859 4.90511719 -46.67380859 5.56511719 -45.65380859 6.24511719 C-43.24566782 2.73324523 -42.28751451 0.51854811 -42.65380859 -3.75488281 C-41.66380859 -3.75488281 -40.67380859 -3.75488281 -39.65380859 -3.75488281 C-39.71891276 -1.73665365 -39.78401693 0.28157552 -39.84912109 2.29980469 C-39.83712548 4.48375364 -39.83712548 4.48375364 -37.65380859 6.24511719 C-36.66380859 6.24511719 -35.67380859 6.24511719 -34.65380859 6.24511719 C-33.99380859 4.26511719 -33.33380859 2.28511719 -32.65380859 0.24511719 C-33.97380859 0.24511719 -35.29380859 0.24511719 -36.65380859 0.24511719 C-36.32380859 -1.73488281 -35.99380859 -3.71488281 -35.65380859 -5.75488281 C-34.33380859 -6.08488281 -33.01380859 -6.41488281 -31.65380859 -6.75488281 C-31.65380859 -7.74488281 -31.65380859 -8.73488281 -31.65380859 -9.75488281 C-28.68380859 -9.25988281 -28.68380859 -9.25988281 -25.65380859 -8.75488281 C-25.65380859 -7.43488281 -25.65380859 -6.11488281 -25.65380859 -4.75488281 C-24.66380859 -4.75488281 -23.67380859 -4.75488281 -22.65380859 -4.75488281 C-22.65380859 -3.10488281 -22.65380859 -1.45488281 -22.65380859 0.24511719 C-21.47818359 0.46167969 -21.47818359 0.46167969 -20.27880859 0.68261719 C-17.65380859 1.24511719 -17.65380859 1.24511719 -15.65380859 2.24511719 C-12.57047526 1.49511719 -12.57047526 1.49511719 -9.65380859 0.24511719 C-9.32380859 -0.41488281 -8.99380859 -1.07488281 -8.65380859 -1.75488281 C-37.47586034 -18.17906721 -63.82907327 -18.54715802 -92.65380859 -2.75488281 Z M-53.65380859 -6.75488281 C-53.65380859 -5.76488281 -53.65380859 -4.77488281 -53.65380859 -3.75488281 C-52.33380859 -4.08488281 -51.01380859 -4.41488281 -49.65380859 -4.75488281 C-49.98380859 -5.41488281 -50.31380859 -6.07488281 -50.65380859 -6.75488281 C-51.64380859 -6.75488281 -52.63380859 -6.75488281 -53.65380859 -6.75488281 Z M-74.65380859 -3.75488281 C-74.65380859 -2.43488281 -74.65380859 -1.11488281 -74.65380859 0.24511719 C-73.66380859 -0.74488281 -72.67380859 -1.73488281 -71.65380859 -2.75488281 C-72.64380859 -3.08488281 -73.63380859 -3.41488281 -74.65380859 -3.75488281 Z M-30.65380859 -3.75488281 C-30.65380859 -2.43488281 -30.65380859 -1.11488281 -30.65380859 0.24511719 C-29.66380859 -0.08488281 -28.67380859 -0.41488281 -27.65380859 -0.75488281 C-27.98380859 -1.74488281 -28.31380859 -2.73488281 -28.65380859 -3.75488281 C-29.31380859 -3.75488281 -29.97380859 -3.75488281 -30.65380859 -3.75488281 Z M-80.65380859 1.24511719 C-80.98380859 2.56511719 -81.31380859 3.88511719 -81.65380859 5.24511719 C-80.99380859 5.24511719 -80.33380859 5.24511719 -79.65380859 5.24511719 C-79.65380859 5.90511719 -79.65380859 6.56511719 -79.65380859 7.24511719 C-78.66380859 7.57511719 -77.67380859 7.90511719 -76.65380859 8.24511719 C-75.35747239 7.17866604 -75.35747239 7.17866604 -75.59130859 4.68261719 C-75.61193359 3.87824219 -75.63255859 3.07386719 -75.65380859 2.24511719 C-77.30380859 1.91511719 -78.95380859 1.58511719 -80.65380859 1.24511719 Z M-28.65380859 1.24511719 C-28.90411836 3.66131541 -28.90411836 3.66131541 -28.65380859 6.24511719 C-27.16880859 7.23511719 -27.16880859 7.23511719 -25.65380859 8.24511719 C-24.99380859 7.91511719 -24.33380859 7.58511719 -23.65380859 7.24511719 C-23.65380859 6.58511719 -23.65380859 5.92511719 -23.65380859 5.24511719 C-22.99380859 4.91511719 -22.33380859 4.58511719 -21.65380859 4.24511719 C-22.31380859 3.25511719 -22.97380859 2.26511719 -23.65380859 1.24511719 C-26.23761037 0.99480742 -26.23761037 0.99480742 -28.65380859 1.24511719 Z M-103.84130859 6.12011719 C-118.79893689 21.53245738 -126.21830918 40.28093372 -126.07373047 61.65649414 C-125.54029014 79.75756078 -118.79315415 95.78576512 -106.65380859 109.24511719 C-106.06212891 109.92960937 -105.47044922 110.61410156 -104.86083984 111.31933594 C-92.98391511 124.209218 -75.00956957 132.81677255 -57.48974609 133.58105469 C-36.07294326 133.93709347 -17.87878638 128.87885372 -1.65380859 114.24511719 C-0.96931641 113.6534375 -0.28482422 113.06175781 0.42041016 112.45214844 C10.10579853 103.52789078 16.46937049 91.70632728 20.34619141 79.24511719 C20.59111328 78.47554688 20.83603516 77.70597656 21.08837891 76.91308594 C25.76364825 58.62829968 22.04136826 38.88563779 13.33837891 22.50683594 C8.69363873 14.90221232 2.7922509 8.36060953 -3.65380859 2.24511719 C-4.64380859 2.57511719 -5.63380859 2.90511719 -6.65380859 3.24511719 C-7.87901123 6.25359137 -7.87901123 6.25359137 -8.65380859 9.24511719 C-9.31380859 9.24511719 -9.97380859 9.24511719 -10.65380859 9.24511719 C-10.94255859 9.86386719 -11.23130859 10.48261719 -11.52880859 11.12011719 C-12.65380859 13.24511719 -12.65380859 13.24511719 -14.65380859 15.24511719 C-13.66380859 15.74011719 -13.66380859 15.74011719 -12.65380859 16.24511719 C-12.15880859 17.73011719 -12.15880859 17.73011719 -11.65380859 19.24511719 C-12.31380859 19.24511719 -12.97380859 19.24511719 -13.65380859 19.24511719 C-14.31380859 21.88511719 -14.97380859 24.52511719 -15.65380859 27.24511719 C-14.99380859 27.24511719 -14.33380859 27.24511719 -13.65380859 27.24511719 C-13.72150471 34.23397139 -13.81157005 41.22229636 -13.91625977 48.21069336 C-13.94925108 50.58172285 -13.97736074 52.95282602 -14.00024414 55.32397461 C-14.23533714 79.04835996 -15.67790789 98.70861377 -32.98242188 116.63720703 C-35.98908963 119.52968642 -39.20035794 122.10920933 -42.52880859 124.62011719 C-43.15907959 125.10295166 -43.78935059 125.58578613 -44.4387207 126.08325195 C-47.03814937 127.94216383 -48.96226806 129.22393677 -52.20458984 129.32324219 C-55.49805361 127.8734878 -58.18696308 125.86456361 -60.96630859 123.62011719 C-61.53881348 123.16572266 -62.11131836 122.71132812 -62.70117188 122.24316406 C-63.84146491 121.33298944 -64.97796968 120.41804542 -66.11035156 119.49804688 C-67.4074416 118.44511014 -68.71851707 117.40943467 -70.03271484 116.37792969 C-80.18179741 108.07594043 -85.80790215 97.14299553 -87.65380859 84.24511719 C-87.72696282 82.23503269 -87.75182633 80.22277553 -87.7355957 78.21142578 C-87.72906479 77.04356537 -87.72253387 75.87570496 -87.71580505 74.67245483 C-87.70436966 73.42541779 -87.69293427 72.17838074 -87.68115234 70.89355469 C-87.67174406 68.92033816 -87.66234736 66.9471215 -87.6536417 64.97390175 C-87.63074904 60.12413861 -87.59699083 55.27446162 -87.55786133 50.42480469 C-87.53625484 47.69625877 -87.51999322 44.96777708 -87.50941467 42.23916626 C-87.49906348 39.67269132 -87.48047528 37.10623378 -87.4528656 34.53988647 C-87.44948685 33.37833038 -87.44610809 32.21677429 -87.44262695 31.02001953 C-87.43516953 29.99887054 -87.4277121 28.97772156 -87.42002869 27.92562866 C-87.6608704 25.16414682 -88.30426147 23.62745497 -89.65380859 21.24511719 C-90.03049204 19.58771003 -90.37438405 17.92166448 -90.65380859 16.24511719 C-89.66380859 15.58511719 -88.67380859 14.92511719 -87.65380859 14.24511719 C-88.64380859 13.91511719 -89.63380859 13.58511719 -90.65380859 13.24511719 C-91.84130859 11.18261719 -91.84130859 11.18261719 -92.65380859 9.24511719 C-93.31380859 9.24511719 -93.97380859 9.24511719 -94.65380859 9.24511719 C-95.11787109 8.06949219 -95.11787109 8.06949219 -95.59130859 6.87011719 C-96.58255898 4.32181591 -96.58255898 4.32181591 -97.65380859 2.24511719 C-100.71190624 2.24511719 -101.70995707 3.99977092 -103.84130859 6.12011719 Z M-86.65380859 4.24511719 C-87.31380859 5.89511719 -87.97380859 7.54511719 -88.65380859 9.24511719 C-87.33380859 9.24511719 -86.01380859 9.24511719 -84.65380859 9.24511719 C-84.98380859 7.59511719 -85.31380859 5.94511719 -85.65380859 4.24511719 C-85.98380859 4.24511719 -86.31380859 4.24511719 -86.65380859 4.24511719 Z M-92.65380859 5.24511719 C-91.65380859 7.24511719 -91.65380859 7.24511719 -91.65380859 7.24511719 Z M-20.65380859 5.24511719 C-19.66380859 5.74011719 -19.66380859 5.74011719 -18.65380859 6.24511719 C-18.02880859 8.30761719 -18.02880859 8.30761719 -17.65380859 10.24511719 C-16.33380859 9.58511719 -15.01380859 8.92511719 -13.65380859 8.24511719 C-16.70961834 5.65734511 -16.70961834 5.65734511 -20.65380859 5.24511719 Z M-72.65380859 9.24511719 C-72.65380859 9.90511719 -72.65380859 10.56511719 -72.65380859 11.24511719 C-71.99380859 11.24511719 -71.33380859 11.24511719 -70.65380859 11.24511719 C-70.65380859 10.58511719 -70.65380859 9.92511719 -70.65380859 9.24511719 C-71.31380859 9.24511719 -71.97380859 9.24511719 -72.65380859 9.24511719 Z M-81.65380859 11.24511719 C-80.65380859 13.24511719 -80.65380859 13.24511719 -80.65380859 13.24511719 Z M-49.65380859 13.24511719 C-48.99380859 13.90511719 -48.33380859 14.56511719 -47.65380859 15.24511719 C-47.65380859 16.23511719 -47.65380859 17.22511719 -47.65380859 18.24511719 C-48.64380859 18.90511719 -49.63380859 19.56511719 -50.65380859 20.24511719 C-45.37380859 20.57511719 -40.09380859 20.90511719 -34.65380859 21.24511719 C-35.31380859 20.91511719 -35.97380859 20.58511719 -36.65380859 20.24511719 C-36.08035922 17.37787032 -35.79235709 16.38366568 -33.65380859 14.24511719 C-36.29380859 14.24511719 -38.93380859 14.24511719 -41.65380859 14.24511719 C-40.66380859 15.56511719 -39.67380859 16.88511719 -38.65380859 18.24511719 C-40.30380859 18.24511719 -41.95380859 18.24511719 -43.65380859 18.24511719 C-43.98380859 17.58511719 -44.31380859 16.92511719 -44.65380859 16.24511719 C-43.99380859 15.58511719 -43.33380859 14.92511719 -42.65380859 14.24511719 C-44.96380859 13.91511719 -47.27380859 13.58511719 -49.65380859 13.24511719 Z M-61.65380859 14.24511719 C-60.66380859 15.56511719 -59.67380859 16.88511719 -58.65380859 18.24511719 C-60.63380859 18.24511719 -62.61380859 18.24511719 -64.65380859 18.24511719 C-63.99380859 16.92511719 -63.33380859 15.60511719 -62.65380859 14.24511719 C-64.96380859 14.24511719 -67.27380859 14.24511719 -69.65380859 14.24511719 C-68.99380859 14.90511719 -68.33380859 15.56511719 -67.65380859 16.24511719 C-67.65380859 17.56511719 -67.65380859 18.88511719 -67.65380859 20.24511719 C-62.70380859 20.24511719 -57.75380859 20.24511719 -52.65380859 20.24511719 C-53.64380859 19.58511719 -54.63380859 18.92511719 -55.65380859 18.24511719 C-55.65380859 15.24511719 -55.65380859 15.24511719 -53.65380859 13.24511719 C-56.4934809 13.24511719 -58.89116571 13.647789 -61.65380859 14.24511719 Z M-86.65380859 18.24511719 C-85.99380859 20.22511719 -85.33380859 22.20511719 -84.65380859 24.24511719 C-81.35380859 23.58511719 -78.05380859 22.92511719 -74.65380859 22.24511719 C-75.31380859 20.26511719 -75.97380859 18.28511719 -76.65380859 16.24511719 C-80.26410028 16.24511719 -83.21187536 17.206043 -86.65380859 18.24511719 Z M-27.65380859 16.24511719 C-27.65380859 17.56511719 -27.65380859 18.88511719 -27.65380859 20.24511719 C-28.64380859 20.90511719 -29.63380859 21.56511719 -30.65380859 22.24511719 C-24.71380859 23.23511719 -24.71380859 23.23511719 -18.65380859 24.24511719 C-18.65380859 22.59511719 -18.65380859 20.94511719 -18.65380859 19.24511719 C-17.99380859 18.91511719 -17.33380859 18.58511719 -16.65380859 18.24511719 C-20.53064947 17.05224307 -23.57002783 16.24511719 -27.65380859 16.24511719 Z M-77.65380859 26.24511719 C-77.65380859 26.57511719 -77.65380859 26.90511719 -77.65380859 27.24511719 C-60.82380859 27.24511719 -43.99380859 27.24511719 -26.65380859 27.24511719 C-26.65380859 26.91511719 -26.65380859 26.58511719 -26.65380859 26.24511719 C-42.88127945 22.63184336 -61.42633774 22.63184336 -77.65380859 26.24511719 Z M-84.65380859 31.24511719 C-84.70473368 38.48589049 -84.73963645 45.72661719 -84.76367188 52.9675293 C-84.77369744 55.42815883 -84.78732134 57.88877656 -84.8046875 60.34936523 C-84.82908738 63.8966769 -84.84032647 67.44383033 -84.84912109 70.99121094 C-84.85944366 72.08219589 -84.86976624 73.17318085 -84.88040161 74.29722595 C-84.88131712 80.60256748 -84.26762042 86.14446174 -82.65380859 92.24511719 C-82.32380859 92.24511719 -81.99380859 92.24511719 -81.65380859 92.24511719 C-81.65380859 72.11511719 -81.65380859 51.98511719 -81.65380859 31.24511719 C-82.64380859 31.24511719 -83.63380859 31.24511719 -84.65380859 31.24511719 Z M-71.65380859 31.24511719 C-71.79287264 41.32852219 -71.89946184 51.41169884 -71.96468163 61.49586773 C-71.99598541 66.17849807 -72.03844007 70.86047205 -72.10644531 75.54272461 C-72.17167302 80.06206008 -72.20752181 84.58076456 -72.22307205 89.10053444 C-72.2341524 90.82418566 -72.25579063 92.5478026 -72.28818893 94.27118492 C-72.3318011 96.68732477 -72.33774123 99.1008634 -72.33496094 101.51733398 C-72.35653259 102.22871521 -72.37810425 102.94009644 -72.40032959 103.67303467 C-72.43429427 105.960116 -72.43429427 105.960116 -71.65380859 109.24511719 C-69.67380859 110.89511719 -67.69380859 112.54511719 -65.65380859 114.24511719 C-65.65380859 86.85511719 -65.65380859 59.46511719 -65.65380859 31.24511719 C-67.63380859 31.24511719 -69.61380859 31.24511719 -71.65380859 31.24511719 Z M-53.65380859 31.24511719 C-53.65380859 61.93511719 -53.65380859 92.62511719 -53.65380859 124.24511719 C-52.33380859 124.24511719 -51.01380859 124.24511719 -49.65380859 124.24511719 C-47.24346917 122.27967548 -47.24346917 122.27967548 -47.45126343 118.54989624 C-47.46326896 116.92133753 -47.486632 115.29284085 -47.51855469 113.66455078 C-47.5280162 112.77668381 -47.53747772 111.88881683 -47.54722595 110.9740448 C-47.58098645 108.0303423 -47.62907892 105.08705385 -47.67724609 102.14355469 C-47.70340468 100.10618176 -47.72867237 98.06879722 -47.75308228 96.03140259 C-47.81981688 90.66200083 -47.89869153 85.29284258 -47.9800415 79.92364502 C-48.06088009 74.44756435 -48.13031088 68.97134058 -48.20068359 63.49511719 C-48.34052049 52.74494561 -48.49317481 41.9949967 -48.65380859 31.24511719 C-50.30380859 31.24511719 -51.95380859 31.24511719 -53.65380859 31.24511719 Z M-36.65380859 31.24511719 C-36.65380859 58.30511719 -36.65380859 85.36511719 -36.65380859 113.24511719 C-29.52044835 108.34410553 -29.52044835 108.34410553 -28.84999084 103.63833618 C-28.84747071 102.28760815 -28.88335158 100.93644128 -28.95092773 99.58740234 C-28.95965912 98.84525482 -28.9683905 98.1031073 -28.97738647 97.33847046 C-29.01435485 94.90173958 -29.10128044 92.46956778 -29.18896484 90.03417969 C-29.22448405 88.33887833 -29.25686367 86.64350853 -29.28623962 84.9480896 C-29.37174286 80.49835321 -29.49973402 76.05082641 -29.63671875 71.60241699 C-29.76909124 67.05810193 -29.86109779 62.51298748 -29.95654297 57.96777344 C-30.14955185 49.05897986 -30.38747447 40.15199916 -30.65380859 31.24511719 C-32.63380859 31.24511719 -34.61380859 31.24511719 -36.65380859 31.24511719 Z M-20.65380859 31.24511719 C-20.65380859 50.05511719 -20.65380859 68.86511719 -20.65380859 88.24511719 C-17.07073723 81.07897447 -17.51314288 73.47846994 -17.55615234 65.62011719 C-17.55756729 64.63261475 -17.55898224 63.6451123 -17.56044006 62.62768555 C-17.56599932 59.50013083 -17.57854414 56.37264996 -17.59130859 53.24511719 C-17.59632886 51.11360781 -17.60089085 48.9820973 -17.60498047 46.85058594 C-17.61595538 41.64873819 -17.63265247 36.44693297 -17.65380859 31.24511719 C-18.64380859 31.24511719 -19.63380859 31.24511719 -20.65380859 31.24511719 Z " fill="#000000" transform="translate(221.65380859375,82.7548828125)"/>
<path d="M0 0 C21.87934597 18.81610109 37.9446784 44.402731 40.16015625 73.7578125 C41.68399089 104.34510618 34.59443871 132.30095909 14.16015625 155.7578125 C13.64453125 156.41652344 13.12890625 157.07523438 12.59765625 157.75390625 C-3.63370655 177.92137453 -30.60350097 189.90187524 -55.83984375 192.7578125 C-86.65545737 195.16358833 -113.63842687 187.03057004 -137.83984375 167.7578125 C-138.57203125 167.18160156 -139.30421875 166.60539063 -140.05859375 166.01171875 C-159.92118435 149.57778962 -172.75231253 123.30175766 -175.65673828 97.92333984 C-178.08896855 69.15816326 -171.69183947 41.07072043 -153.58984375 18.1328125 C-115.28247153 -26.471662 -47.5877634 -39.36308312 0 0 Z M-135.83984375 6.7578125 C-136.43023437 7.20253906 -137.020625 7.64726563 -137.62890625 8.10546875 C-156.11272619 22.42823918 -167.57771157 48.11477736 -170.83984375 70.7578125 C-174.19656644 99.42315865 -166.71213976 127.03238896 -148.83984375 149.7578125 C-131.07768545 171.69404362 -105.88981109 185.16467671 -77.83984375 188.3828125 C-51.94619104 190.58738046 -25.0512797 183.46157133 -4.60546875 167.09375 C-3.6928125 166.32289063 -2.78015625 165.55203125 -1.83984375 164.7578125 C-0.9065625 163.98695313 0.02671875 163.21609375 0.98828125 162.421875 C17.15116949 148.47122566 27.48088519 130.19839568 33.16015625 109.7578125 C33.39347656 108.93667969 33.62679687 108.11554688 33.8671875 107.26953125 C40.24202529 80.71535083 33.96839615 52.85370402 20.37597656 29.70117188 C15.15392229 21.09220981 15.15392229 21.09220981 7.16015625 15.7578125 C6.11565714 18.89130982 6.2259198 19.74749506 7.16015625 22.7578125 C6.17015625 23.4178125 5.18015625 24.0778125 4.16015625 24.7578125 C4.49015625 23.4378125 4.82015625 22.1178125 5.16015625 20.7578125 C4.17015625 20.0978125 3.18015625 19.4378125 2.16015625 18.7578125 C1.17015625 20.0778125 0.18015625 21.3978125 -0.83984375 22.7578125 C0.48015625 23.0878125 1.80015625 23.4178125 3.16015625 23.7578125 C0.68515625 26.2328125 0.68515625 26.2328125 -1.83984375 28.7578125 C-1.83984375 27.4378125 -1.83984375 26.1178125 -1.83984375 24.7578125 C-3.15984375 25.4178125 -4.47984375 26.0778125 -5.83984375 26.7578125 C-5.83984375 27.7478125 -5.83984375 28.7378125 -5.83984375 29.7578125 C-3.58223518 30.54451801 -3.58223518 30.54451801 -0.83984375 30.7578125 C0.27390625 30.04625 0.27390625 30.04625 1.41015625 29.3203125 C5.30330856 27.10829414 8.78061404 27.50019237 13.16015625 27.7578125 C14.15015625 30.0678125 15.14015625 32.3778125 16.16015625 34.7578125 C13.68515625 36.2428125 13.68515625 36.2428125 11.16015625 37.7578125 C11.82015625 36.7678125 12.48015625 35.7778125 13.16015625 34.7578125 C12.84797985 32.11148963 12.84797985 32.11148963 12.16015625 29.7578125 C10.47041899 28.87224506 10.47041899 28.87224506 8.16015625 28.7578125 C4.86278011 30.20585357 4.86278011 30.20585357 2.16015625 32.7578125 C1.19135035 35.89046729 1.19135035 35.89046729 1.16015625 38.7578125 C3.97525618 41.0351626 3.97525618 41.0351626 7.16015625 40.7578125 C7.16015625 41.4178125 7.16015625 42.0778125 7.16015625 42.7578125 C10.64686459 41.6484053 13.93499862 40.49443584 17.16015625 38.7578125 C17.16015625 37.7678125 17.16015625 36.7778125 17.16015625 35.7578125 C17.82015625 35.7578125 18.48015625 35.7578125 19.16015625 35.7578125 C19.71330342 41.42757099 18.03957466 44.07875758 15.16015625 48.7578125 C15.16015625 49.4178125 15.16015625 50.0778125 15.16015625 50.7578125 C18.15168207 49.98301514 18.15168207 49.98301514 21.16015625 48.7578125 C21.49015625 47.7678125 21.82015625 46.7778125 22.16015625 45.7578125 C22.82015625 45.7578125 23.48015625 45.7578125 24.16015625 45.7578125 C24.49015625 47.4078125 24.82015625 49.0578125 25.16015625 50.7578125 C24.23203125 50.8196875 23.30390625 50.8815625 22.34765625 50.9453125 C16.85479633 51.69125644 12.10616313 54.37640178 7.16015625 56.7578125 C9.47015625 52.1378125 11.78015625 47.5178125 14.16015625 42.7578125 C10.08289552 44.0712886 10.08289552 44.0712886 6.16015625 45.7578125 C6.16015625 46.7478125 6.16015625 47.7378125 6.16015625 48.7578125 C4.32370683 47.16089996 3.26766345 46.23391582 2.72265625 43.8203125 C2.29575305 41.54674963 2.29575305 41.54674963 0.09765625 39.8203125 C-1.83984375 37.7578125 -1.83984375 37.7578125 -2.08984375 35.0078125 C-2.00734375 34.2653125 -1.92484375 33.5228125 -1.83984375 32.7578125 C-2.74734375 32.5309375 -3.65484375 32.3040625 -4.58984375 32.0703125 C-8.28872699 30.57653273 -9.61890033 29.00380673 -11.83984375 25.7578125 C-11.2675 25.49871094 -10.69515625 25.23960938 -10.10546875 24.97265625 C-7.64368572 23.65263121 -5.7051094 22.14179125 -3.58984375 20.3203125 C-2.8834375 19.72347656 -2.17703125 19.12664062 -1.44921875 18.51171875 C0.4982043 16.78613808 0.4982043 16.78613808 0.16015625 13.7578125 C1.48015625 14.4178125 2.80015625 15.0778125 4.16015625 15.7578125 C4.82015625 14.4378125 5.48015625 13.1178125 6.16015625 11.7578125 C-35.02405332 -24.91028899 -92.58483728 -29.74334208 -135.83984375 6.7578125 Z " fill="#000000" transform="translate(237.83984375,57.2421875)"/>
<path d="M0 0 C4.43644237 1.71961423 6.13174931 8.12475985 8.00488281 12.19287109 C14.46602793 27.37295925 15.43082123 46.08278195 9.86816406 61.72412109 C7.8717286 66.55726785 5.67652542 71.3073346 2.86816406 75.72412109 C-0.13183594 76.72412109 -0.13183594 76.72412109 -2.31933594 75.78662109 C-2.91746094 75.43599609 -3.51558594 75.08537109 -4.13183594 74.72412109 C-5.06248726 77.32994481 -5.28101001 78.36610333 -4.19433594 80.97412109 C-3.84371094 81.55162109 -3.49308594 82.12912109 -3.13183594 82.72412109 C-6.27136675 87.6180956 -8.41475719 90.81842818 -14.13183594 92.72412109 C-18.47527428 93.24499765 -22.38319288 93.22321647 -26.13183594 90.72412109 C-25.74482709 87.33779368 -25.22318117 85.8342727 -23.00683594 83.16162109 C-22.38808594 82.35724609 -21.76933594 81.55287109 -21.13183594 80.72412109 C-21.31746094 80.13759766 -21.50308594 79.55107422 -21.69433594 78.94677734 C-22.35941753 75.56792534 -20.86885692 73.69558834 -19.25683594 70.72412109 C-16.65118729 65.92582087 -16.65118729 65.92582087 -15.13183594 60.72412109 C-13.48183594 61.05412109 -11.83183594 61.38412109 -10.13183594 61.72412109 C-7.14015481 50.81249842 -5.53764165 41.06332873 -6.13183594 29.72412109 C-6.89496094 30.05412109 -7.65808594 30.38412109 -8.44433594 30.72412109 C-11.13183594 31.72412109 -11.13183594 31.72412109 -14.13183594 31.72412109 C-15.45183594 27.10412109 -16.77183594 22.48412109 -18.13183594 17.72412109 C-16.81183594 17.06412109 -15.49183594 16.40412109 -14.13183594 15.72412109 C-14.79183594 13.41412109 -15.45183594 11.10412109 -16.13183594 8.72412109 C-13.89128455 7.18748625 -11.64121321 5.67011406 -9.38183594 4.16162109 C-8.74761719 3.72398438 -8.11339844 3.28634766 -7.45996094 2.83544922 C-2.65405313 -0.34345855 -2.65405313 -0.34345855 0 0 Z M-1.13183594 2.72412109 C-1.79183594 3.38412109 -2.45183594 4.04412109 -3.13183594 4.72412109 C-2.47183594 4.72412109 -1.81183594 4.72412109 -1.13183594 4.72412109 C-0.69871094 5.83787109 -0.69871094 5.83787109 -0.25683594 6.97412109 C0.78819706 9.65736801 0.78819706 9.65736801 1.99316406 11.84912109 C2.86816406 13.72412109 2.86816406 13.72412109 2.86816406 16.72412109 C0.88816406 17.71412109 0.88816406 17.71412109 -1.13183594 18.72412109 C1.17816406 19.38412109 3.48816406 20.04412109 5.86816406 20.72412109 C5.53816406 22.70412109 5.20816406 24.68412109 4.86816406 26.72412109 C5.85816406 27.38412109 6.84816406 28.04412109 7.86816406 28.72412109 C8.55566406 31.34912109 8.55566406 31.34912109 8.86816406 33.72412109 C4.90816406 34.21912109 4.90816406 34.21912109 0.86816406 34.72412109 C0.86816406 35.05412109 0.86816406 35.38412109 0.86816406 35.72412109 C3.50816406 35.72412109 6.14816406 35.72412109 8.86816406 35.72412109 C8.52453589 43.83374607 6.87464565 51.31843739 4.80566406 59.12255859 C4.06068601 61.98451595 3.40672886 64.81811519 2.86816406 67.72412109 C10.55028031 58.5494794 11.35732017 44.63796811 10.64941406 33.18505859 C9.38036907 22.17853375 5.75536198 12.10002888 -0.13183594 2.72412109 C-0.46183594 2.72412109 -0.79183594 2.72412109 -1.13183594 2.72412109 Z M-7.25683594 6.72412109 C-7.87558594 7.38412109 -8.49433594 8.04412109 -9.13183594 8.72412109 C-7.15183594 8.06412109 -5.17183594 7.40412109 -3.13183594 6.72412109 C-3.13183594 6.06412109 -3.13183594 5.40412109 -3.13183594 4.72412109 C-5.37546167 4.49566619 -5.37546167 4.49566619 -7.25683594 6.72412109 Z M-11.13183594 8.72412109 C-10.80183594 10.04412109 -10.47183594 11.36412109 -10.13183594 12.72412109 C-9.80183594 12.06412109 -9.47183594 11.40412109 -9.13183594 10.72412109 C-9.79183594 10.06412109 -10.45183594 9.40412109 -11.13183594 8.72412109 Z M-7.13183594 10.72412109 C-7.13183594 11.38412109 -7.13183594 12.04412109 -7.13183594 12.72412109 C-7.79183594 12.72412109 -8.45183594 12.72412109 -9.13183594 12.72412109 C-8.86371094 13.52849609 -8.59558594 14.33287109 -8.31933594 15.16162109 C-7.92746094 16.33724609 -7.53558594 17.51287109 -7.13183594 18.72412109 C-6.87917969 19.35447266 -6.62652344 19.98482422 -6.36621094 20.63427734 C-0.90816872 34.94826061 -3.18189306 49.27780664 -8.42480469 63.22802734 C-9.41220484 65.82102243 -9.41220484 65.82102243 -8.13183594 68.72412109 C-7.14183594 68.22912109 -7.14183594 68.22912109 -6.13183594 67.72412109 C-5.79060013 65.72545423 -5.45926814 63.72509567 -5.13183594 61.72412109 C-4.66019249 60.35981914 -4.15871951 59.00555601 -3.63183594 57.66162109 C-1.27538402 51.56933076 -1.00467721 46.2092162 -1.13183594 39.72412109 C-0.47183594 39.39412109 0.18816406 39.06412109 0.86816406 38.72412109 C0.784375 38.02544922 0.70058594 37.32677734 0.61425781 36.60693359 C0.51242188 35.69685547 0.41058594 34.78677734 0.30566406 33.84912109 C0.20125 32.94419922 0.09683594 32.03927734 -0.01074219 31.10693359 C-0.13183594 28.72412109 -0.13183594 28.72412109 0.86816406 26.72412109 C-0.12183594 26.72412109 -1.11183594 26.72412109 -2.13183594 26.72412109 C-2.79183594 23.75412109 -3.45183594 20.78412109 -4.13183594 17.72412109 C-4.79183594 17.72412109 -5.45183594 17.72412109 -6.13183594 17.72412109 C-6.46183594 16.40412109 -6.79183594 15.08412109 -7.13183594 13.72412109 C-5.15183594 13.39412109 -3.17183594 13.06412109 -1.13183594 12.72412109 C-3.97432134 11.15138541 -3.97432134 11.15138541 -7.13183594 10.72412109 Z M-11.13183594 16.72412109 C-10.13183594 18.72412109 -10.13183594 18.72412109 -10.13183594 18.72412109 Z M-10.13183594 18.72412109 C-9.80183594 20.37412109 -9.47183594 22.02412109 -9.13183594 23.72412109 C-8.80183594 22.73412109 -8.47183594 21.74412109 -8.13183594 20.72412109 C-8.79183594 20.06412109 -9.45183594 19.40412109 -10.13183594 18.72412109 Z M0.86816406 20.72412109 C0.20816406 22.04412109 -0.45183594 23.36412109 -1.13183594 24.72412109 C0.84816406 24.39412109 2.82816406 24.06412109 4.86816406 23.72412109 C4.86816406 22.73412109 4.86816406 21.74412109 4.86816406 20.72412109 C3.54816406 20.72412109 2.22816406 20.72412109 0.86816406 20.72412109 Z M-13.13183594 24.72412109 C-12.47183594 26.04412109 -11.81183594 27.36412109 -11.13183594 28.72412109 C-10.47183594 28.06412109 -9.81183594 27.40412109 -9.13183594 26.72412109 C-10.45183594 26.06412109 -11.77183594 25.40412109 -13.13183594 24.72412109 Z M0.86816406 29.72412109 C1.19816406 30.71412109 1.52816406 31.70412109 1.86816406 32.72412109 C2.19816406 32.39412109 2.52816406 32.06412109 2.86816406 31.72412109 C3.52816406 32.38412109 4.18816406 33.04412109 4.86816406 33.72412109 C5.52816406 32.40412109 6.18816406 31.08412109 6.86816406 29.72412109 C3.81903178 28.71301017 3.81903178 28.71301017 0.86816406 29.72412109 Z M2.86816406 40.72412109 C2.20816406 41.38412109 1.54816406 42.04412109 0.86816406 42.72412109 C3.17816406 42.72412109 5.48816406 42.72412109 7.86816406 42.72412109 C5.48654397 41.31026198 5.48654397 41.31026198 2.86816406 40.72412109 Z M0.86816406 44.72412109 C1.19816406 45.38412109 1.52816406 46.04412109 1.86816406 46.72412109 C2.19816406 46.06412109 2.52816406 45.40412109 2.86816406 44.72412109 C2.20816406 44.72412109 1.54816406 44.72412109 0.86816406 44.72412109 Z M-0.13183594 49.72412109 C0.19816406 50.38412109 0.52816406 51.04412109 0.86816406 51.72412109 C1.19816406 51.06412109 1.52816406 50.40412109 1.86816406 49.72412109 C1.20816406 49.72412109 0.54816406 49.72412109 -0.13183594 49.72412109 Z M2.86816406 52.72412109 C2.20816406 53.38412109 1.54816406 54.04412109 0.86816406 54.72412109 C2.18816406 54.39412109 3.50816406 54.06412109 4.86816406 53.72412109 C4.20816406 53.39412109 3.54816406 53.06412109 2.86816406 52.72412109 Z M-1.13183594 54.72412109 C-1.46183594 55.38412109 -1.79183594 56.04412109 -2.13183594 56.72412109 C-1.14183594 56.39412109 -0.15183594 56.06412109 0.86816406 55.72412109 C0.20816406 55.39412109 -0.45183594 55.06412109 -1.13183594 54.72412109 Z M2.86816406 56.72412109 C2.53816406 57.38412109 2.20816406 58.04412109 1.86816406 58.72412109 C2.85816406 58.39412109 3.84816406 58.06412109 4.86816406 57.72412109 C4.20816406 57.39412109 3.54816406 57.06412109 2.86816406 56.72412109 Z M-4.13183594 63.72412109 C-4.46183594 64.71412109 -4.79183594 65.70412109 -5.13183594 66.72412109 C-2.16183594 67.21912109 -2.16183594 67.21912109 0.86816406 67.72412109 C0.86816406 66.73412109 0.86816406 65.74412109 0.86816406 64.72412109 C-0.78183594 64.39412109 -2.43183594 64.06412109 -4.13183594 63.72412109 Z M-14.13183594 67.72412109 C-14.79183594 69.70412109 -15.45183594 71.68412109 -16.13183594 73.72412109 C-13.29871974 75.34919305 -13.29871974 75.34919305 -10.13183594 76.72412109 C-9.14183594 76.39412109 -8.15183594 76.06412109 -7.13183594 75.72412109 C-6.80183594 74.73412109 -6.47183594 73.74412109 -6.13183594 72.72412109 C-8.77183594 71.07412109 -11.41183594 69.42412109 -14.13183594 67.72412109 Z M-5.13183594 69.72412109 C-3.48183594 71.04412109 -1.83183594 72.36412109 -0.13183594 73.72412109 C0.52816406 72.40412109 1.18816406 71.08412109 1.86816406 69.72412109 C-0.44183594 69.72412109 -2.75183594 69.72412109 -5.13183594 69.72412109 Z M-15.13183594 77.72412109 C-16.09117784 78.99419324 -17.04926887 80.26521028 -18.00683594 81.53662109 C-18.54050781 82.24431641 -19.07417969 82.95201172 -19.62402344 83.68115234 C-20.83998375 85.32868407 -21.99599734 87.0203632 -23.13183594 88.72412109 C-21.93552964 90.12618968 -21.93552964 90.12618968 -18.50683594 90.16162109 C-13.85509553 90.15322445 -11.63155225 88.17027611 -8.38183594 85.03662109 C-7.96933594 84.60349609 -7.55683594 84.17037109 -7.13183594 83.72412109 C-7.91769929 81.73470076 -7.91769929 81.73470076 -9.13183594 79.72412109 C-12.17383066 78.43180468 -12.17383066 78.43180468 -15.13183594 77.72412109 Z " fill="#000000" transform="translate(227.1318359375,102.27587890625)"/>
<path d="M0 0 C3.68533959 0.35795793 6.58571092 2.3450294 9.6875 4.25 C10.66074219 4.83265625 11.63398437 5.4153125 12.63671875 6.015625 C15 8 15 8 15.83203125 10.546875 C15.95626033 12.36119734 16 14.18142957 16 16 C16.99 16.99 17.98 17.98 19 19 C17.68 23.29 16.36 27.58 15 32 C12.36 31.67 9.72 31.34 7 31 C6.44585503 41.85200575 7.71018713 50.64590146 11 61 C11.76957031 61.04640625 12.53914063 61.0928125 13.33203125 61.140625 C16 62 16 62 17.51171875 64.546875 C17.89972656 65.60390625 18.28773438 66.6609375 18.6875 67.75 C19.08324219 68.79671875 19.47898438 69.8434375 19.88671875 70.921875 C20.25410156 71.93765625 20.62148437 72.9534375 21 74 C21.56654297 75.30710938 21.56654297 75.30710938 22.14453125 76.640625 C23 79 23 79 23 83 C23.53625 83.99 24.0725 84.98 24.625 86 C26 89 26 89 25.5 91.1875 C23.49129053 93.61469061 21.92006466 94.76708381 19 96 C15.6875 96.25 15.6875 96.25 12 95 C8.09744657 91.42265935 4.9302907 87.39543605 2 83 C2 81.68 2 80.36 2 79 C2.99 78.505 2.99 78.505 4 78 C4.495 76.515 4.495 76.515 5 75 C2.03 75.99 2.03 75.99 -1 77 C-12.01324245 60.95213243 -13.80632834 43.34550501 -11.57421875 24.3828125 C-9.80359888 16.36614094 -5.84651888 5.84651888 0 0 Z M1 3 C-9.18213455 21.40523609 -12.78893132 38.30227333 -7 59 C-4.79697345 66.52410034 -4.79697345 66.52410034 -0.10546875 72.4765625 C2.04207336 73.233288 2.04207336 73.233288 4.140625 72.1015625 C4.83671875 71.61429687 5.5328125 71.12703125 6.25 70.625 C6.95640625 70.14289063 7.6628125 69.66078125 8.390625 69.1640625 C8.92171875 68.77992188 9.4528125 68.39578125 10 68 C9.81824219 67.44054687 9.63648437 66.88109375 9.44921875 66.3046875 C4.12684433 49.3276778 0.75065807 33.09724082 9.125 16.5625 C9.45757812 15.96566406 9.79015625 15.36882812 10.1328125 14.75390625 C11.22548118 12.70035796 11.22548118 12.70035796 12 9 C8.37 7.02 4.74 5.04 1 3 Z M10 19 C9.34 20.65 8.68 22.3 8 24 C8.66 24 9.32 24 10 24 C10.33 22.35 10.66 20.7 11 19 C10.67 19 10.34 19 10 19 Z M12 26 C11.01 26.66 10.02 27.32 9 28 C10.32 28.33 11.64 28.66 13 29 C12.67 28.01 12.34 27.02 12 26 Z M10.4375 70.375 C9.79683594 70.81585938 9.15617187 71.25671875 8.49609375 71.7109375 C8.00238281 72.13632813 7.50867188 72.56171875 7 73 C7 73.66 7 74.32 7 75 C10.02419525 74.41196203 13.01758453 73.77321882 16 73 C15.67 71.35 15.34 69.7 15 68 C13.19382684 68 11.87371426 69.37110074 10.4375 70.375 Z M6 81 C7.65 81 9.3 81 11 81 C11.33 79.68 11.66 78.36 12 77 C9.77885534 77 7.64121052 79.65336573 6 81 Z M13 83 C12.67 83.99 12.34 84.98 12 86 C13.98 86 15.96 86 18 86 C16.62514468 84.45833358 16.62514468 84.45833358 15 83 C14.34 83 13.68 83 13 83 Z M13 87 C14 89 14 89 14 89 Z M21 87 C16.93975679 89.03802135 16.93975679 89.03802135 15 93 C18.68754757 92.50168276 20.60490662 91.89932357 23 89 C22.34 88.34 21.68 87.68 21 87 Z " fill="#000000" transform="translate(112,102)"/>
<path d="M0 0 C1.8125 1.3125 1.8125 1.3125 2.8125 4.3125 C0.8325 3.9825 -1.1475 3.6525 -3.1875 3.3125 C-3.1875 3.9725 -3.1875 4.6325 -3.1875 5.3125 C-1.95 5.23 -0.7125 5.1475 0.5625 5.0625 C3.63369775 5.07886517 4.66904719 5.22502877 7.375 6.875 C9.39343918 10.29757079 8.68311285 12.53984431 7.8125 16.3125 C6.1625 16.6425 4.5125 16.9725 2.8125 17.3125 C2.3175 18.7975 2.3175 18.7975 1.8125 20.3125 C-1.1575 20.3125 -4.1275 20.3125 -7.1875 20.3125 C-3.6347136 22.4615712 -3.6347136 22.4615712 -1.1875 22.3125 C-2.6875 25.3125 -2.6875 25.3125 -4.1875 28.3125 C-4.8475 28.3125 -5.5075 28.3125 -6.1875 28.3125 C-6.455625 29.055 -6.72375 29.7975 -7 30.5625 C-8.14026751 33.20311949 -9.28130306 35.16802844 -11.1875 37.3125 C-11.8475 37.3125 -12.5075 37.3125 -13.1875 37.3125 C-14.85416667 35.64583333 -16.52083333 33.97916667 -18.1875 32.3125 C-20.73538853 30.43118431 -20.73538853 30.43118431 -23.1875 29.3125 C-23.8475 29.6425 -24.5075 29.9725 -25.1875 30.3125 C-24.32125 31.16714844 -23.455 32.02179688 -22.5625 32.90234375 C-21.43736979 34.01809788 -20.31237684 35.13399043 -19.1875 36.25 C-18.61515625 36.81396484 -18.0428125 37.37792969 -17.453125 37.95898438 C-16.01224495 39.39128776 -14.59762857 40.84991129 -13.1875 42.3125 C-13.1875 42.6425 -13.1875 42.9725 -13.1875 43.3125 C-19.60438675 43.41599817 -25.81444402 43.05757544 -32.1875 42.3125 C-32.1875 42.9725 -32.1875 43.6325 -32.1875 44.3125 C-30.46068563 44.82056447 -28.73092021 45.31860467 -27 45.8125 C-26.03707031 46.0909375 -25.07414062 46.369375 -24.08203125 46.65625 C-21.33404124 47.27927608 -18.99151584 47.43552812 -16.1875 47.3125 C-16.8475 49.2925 -17.5075 51.2725 -18.1875 53.3125 C-18.75597656 53.10753906 -19.32445313 52.90257812 -19.91015625 52.69140625 C-24.6959454 51.02157331 -29.14693201 49.84873064 -34.1875 49.3125 C-30.87751895 51.51915404 -28.36728564 52.09512095 -24.5 52.9375 C-23.32050781 53.19789062 -22.14101562 53.45828125 -20.92578125 53.7265625 C-20.02214844 53.91992188 -19.11851563 54.11328125 -18.1875 54.3125 C-18.1875 54.9725 -18.1875 55.6325 -18.1875 56.3125 C-22.4775 58.2925 -26.7675 60.2725 -31.1875 62.3125 C-29.269375 62.5909375 -29.269375 62.5909375 -27.3125 62.875 C-26.23355469 63.03162109 -26.23355469 63.03162109 -25.1328125 63.19140625 C-23.10609333 63.4809297 -23.10609333 63.4809297 -21.1875 62.3125 C-21.1875 64.2925 -21.1875 66.2725 -21.1875 68.3125 C-22.1775 68.3125 -23.1675 68.3125 -24.1875 68.3125 C-24.1875 67.6525 -24.1875 66.9925 -24.1875 66.3125 C-28.4775 65.9825 -32.7675 65.6525 -37.1875 65.3125 C-31.9075 68.2825 -26.6275 71.2525 -21.1875 74.3125 C-21.5175 74.9725 -21.8475 75.6325 -22.1875 76.3125 C-24.81545809 77.09148087 -27.39535158 77.76503475 -30.0625 78.375 C-35.67032596 79.67728309 -35.67032596 79.67728309 -41.1875 81.3125 C-40.8575 79.0025 -40.5275 76.6925 -40.1875 74.3125 C-36.5575 74.3125 -32.9275 74.3125 -29.1875 74.3125 C-29.1875 73.6525 -29.1875 72.9925 -29.1875 72.3125 C-30.445625 71.961875 -31.70375 71.61125 -33 71.25 C-33.70769531 71.05277344 -34.41539063 70.85554688 -35.14453125 70.65234375 C-37.37994159 70.11686183 -37.37994159 70.11686183 -40.1875 71.3125 C-40.3125 63.6875 -40.3125 63.6875 -39.1875 60.3125 C-36.68359375 58.92578125 -36.68359375 58.92578125 -33.625 57.625 C-32.61308594 57.18800781 -31.60117188 56.75101563 -30.55859375 56.30078125 C-29.38490234 55.81158203 -29.38490234 55.81158203 -28.1875 55.3125 C-32.80257774 54.27035309 -32.80257774 54.27035309 -37.1875 55.3125 C-36.67128772 48.47268724 -34.70159031 42.67373316 -32.1875 36.3125 C-31.5275 36.3125 -30.8675 36.3125 -30.1875 36.3125 C-30.1875 36.9725 -30.1875 37.6325 -30.1875 38.3125 C-27.2175 38.3125 -24.2475 38.3125 -21.1875 38.3125 C-23.91356304 35.02435401 -23.91356304 35.02435401 -27.9375 34.0625 C-28.68 34.145 -29.4225 34.2275 -30.1875 34.3125 C-28.69944289 28.50907726 -25.59652445 24.13659121 -22.1875 19.3125 C-20.5375 19.6425 -18.8875 19.9725 -17.1875 20.3125 C-17.1875 20.9725 -17.1875 21.6325 -17.1875 22.3125 C-17.826875 22.43625 -18.46625 22.56 -19.125 22.6875 C-19.805625 22.89375 -20.48625 23.1 -21.1875 23.3125 C-21.5175 23.9725 -21.8475 24.6325 -22.1875 25.3125 C-20.8675 25.6425 -19.5475 25.9725 -18.1875 26.3125 C-18.1875 25.3225 -18.1875 24.3325 -18.1875 23.3125 C-15.8125 23.625 -15.8125 23.625 -13.1875 24.3125 C-12.5275 25.3025 -11.8675 26.2925 -11.1875 27.3125 C-12.5075 27.6425 -13.8275 27.9725 -15.1875 28.3125 C-14.5275 28.9725 -13.8675 29.6325 -13.1875 30.3125 C-12.1975 30.3125 -11.2075 30.3125 -10.1875 30.3125 C-10.1875 29.52875 -10.1875 28.745 -10.1875 27.9375 C-10.1875 26.39583333 -10.1875 24.85416667 -10.1875 23.3125 C-14.25333118 19.57184261 -14.25333118 19.57184261 -19.1875 17.3125 C-17.74504029 13.94676067 -16.104032 11.56239611 -13.1875 9.3125 C-9.79595705 9.47400205 -8.60453243 9.89546757 -6.1875 12.3125 C-6.1875 13.3025 -6.1875 14.2925 -6.1875 15.3125 C-3.8775 15.9725 -1.5675 16.6325 0.8125 17.3125 C0.1525 15.6625 -0.5075 14.0125 -1.1875 12.3125 C1.1225 12.6425 3.4325 12.9725 5.8125 13.3125 C5.3175 11.8275 5.3175 11.8275 4.8125 10.3125 C3.87277344 10.34730469 3.87277344 10.34730469 2.9140625 10.3828125 C1.68816406 10.40988281 1.68816406 10.40988281 0.4375 10.4375 C-0.37460938 10.46070312 -1.18671875 10.48390625 -2.0234375 10.5078125 C-4.1875 10.3125 -4.1875 10.3125 -6.1875 8.3125 C-6.3125 4.6875 -6.3125 4.6875 -6.1875 1.3125 C-2.78451493 -0.87513326 -2.78451493 -0.87513326 0 0 Z M-13.1875 12.3125 C-13.1875 13.3025 -13.1875 14.2925 -13.1875 15.3125 C-11.8675 15.9725 -10.5475 16.6325 -9.1875 17.3125 C-9.45426204 15.32758358 -9.45426204 15.32758358 -10.1875 13.3125 C-11.1775 12.9825 -12.1675 12.6525 -13.1875 12.3125 Z " fill="#000000" transform="translate(111.1875,64.6875)"/>
<path d="M0 0 C5.77553979 6.29046744 6.77423906 12.67779407 6.62109375 21.0625 C5.95542961 26.97026926 3.80995981 31.80848911 -0.3984375 36.046875 C-7.55720841 41.60583029 -15.98000323 42.27360378 -24.75390625 41.390625 C-31.95772536 39.70333497 -36.72247181 36.60044858 -40.75390625 30.390625 C-44.4047697 23.78430067 -44.23874239 15.91396466 -42.52734375 8.74609375 C-40.52077546 2.63518124 -37.4858093 -0.49195324 -31.81640625 -3.484375 C-21.39206382 -8.14466926 -8.78342816 -8.05962673 0 0 Z M-30.75390625 1.390625 C-36.04843307 8.12354928 -36.31705949 15.17275916 -35.75390625 23.390625 C-34.78190083 28.43187345 -32.88665453 32.29936447 -28.6171875 35.4140625 C-24.20025375 37.7290173 -19.46126373 38.84734444 -14.5078125 38.01171875 C-9.91375684 36.49194609 -6.7141269 34.28120071 -3.75390625 30.390625 C-0.32581766 23.1612285 0.25204762 16.44845367 -1.81640625 8.765625 C-3.54925165 3.97335398 -6.49679899 1.09969326 -10.75390625 -1.609375 C-17.78511191 -3.95311022 -24.82375408 -3.22469705 -30.75390625 1.390625 Z " fill="#000000" transform="translate(392.75390625,124.609375)"/>
<path d="M0 0 C6.991875 -0.0928125 6.991875 -0.0928125 14.125 -0.1875 C15.58437988 -0.21481201 17.04375977 -0.24212402 18.54736328 -0.27026367 C19.70993652 -0.27775635 20.87250977 -0.28524902 22.0703125 -0.29296875 C23.25383301 -0.3086792 24.43735352 -0.32438965 25.65673828 -0.34057617 C30.97170577 0.20085655 34.09030835 2.04895873 37.75 5.875 C42.93738598 13.07970276 42.71887955 20.44624338 42 29 C40.42657238 35.14296293 36.34234991 39.68478681 31 43 C26.83270025 44.61592199 23.40500409 45.2412887 18.9453125 45.1953125 C17.94516113 45.19031738 16.94500977 45.18532227 15.91455078 45.18017578 C14.66399902 45.16196777 13.41344727 45.14375977 12.125 45.125 C8.12375 45.08375 4.1225 45.0425 0 45 C0 30.15 0 15.3 0 0 Z M7 4 C6.97535072 9.25105442 6.95716432 14.50207545 6.94506836 19.75317383 C6.94002782 21.54094021 6.93319546 23.32870245 6.92456055 25.11645508 C6.9124827 27.68051168 6.90676906 30.24451397 6.90234375 32.80859375 C6.89718246 33.6127623 6.89202118 34.41693085 6.88670349 35.24546814 C6.88650785 37.16401715 6.93798017 39.08245368 7 41 C8.76000919 42.76000919 11.17494094 42.21414179 13.5625 42.25 C20.79848896 42.16406189 25.58084919 41.31397034 30.875 36.25 C34.823777 30.210694 35.77803573 24.07526246 35 17 C34.04024609 12.7560882 32.75768495 9.79977856 29.75 6.625 C22.42471269 2.29642114 15.12634044 2.24257343 7 4 Z " fill="#000000" transform="translate(314,186)"/>
<path d="M0 0 C20 0 20 0 27 3 C29.69850849 7.04776274 29.89712647 10.24680362 29 15 C27.44673525 17.89228609 25.70647171 20.12885907 23 22 C19.7890625 22.6875 19.7890625 22.6875 17 23 C18.52050967 24.97941601 20.04142439 26.95851896 21.5625 28.9375 C22.01415527 29.52563477 22.46581055 30.11376953 22.93115234 30.71972656 C26.19662883 34.96797141 29.49360045 39.19007614 32.8203125 43.390625 C34 45 34 45 34 46 C30.25421398 46.78540675 28.57469984 47.12634773 25 46 C21.57337957 42.52665292 18.90917909 38.67677945 16.16796875 34.65478516 C13.72784874 31.19760843 10.82977813 28.13736271 8 25 C7.67 31.93 7.34 38.86 7 46 C4.69 46 2.38 46 0 46 C0 30.82 0 15.64 0 0 Z M7 4 C7 9.61 7 15.22 7 21 C14.1679527 21.04599761 14.1679527 21.04599761 20 18 C22.48038907 14.2794164 22.46337203 12.40203429 22 8 C19.8045494 4.66291509 18.40565693 4.09417036 14.5 3.1875 C10.88052762 2.82155728 10.88052762 2.82155728 7 4 Z " fill="#000000" transform="translate(530,53)"/>
<path d="M0 0 C4.77955688 1.19488922 5.79163966 2.60239985 9 6.25 C9.9722232 7.3415317 10.94489587 8.4326632 11.91796875 9.5234375 C12.42118652 10.09288086 12.9244043 10.66232422 13.44287109 11.24902344 C16.02969062 14.15787725 18.67127488 17.01561568 21.3125 19.875 C21.79138672 20.39739258 22.27027344 20.91978516 22.76367188 21.45800781 C26.09218703 25.07425768 29.51762963 28.51762963 33 32 C33 21.77 33 11.54 33 1 C34.98 1 36.96 1 39 1 C38.67 16.18 38.34 31.36 38 47 C33.27882033 45.81970508 32.68411001 44.76604592 29.8125 41 C26.17238969 36.3796301 22.34611698 32.23201706 18.13671875 28.1328125 C15.48001159 25.48096221 13.03394536 22.68442453 10.60546875 19.82421875 C8.82531154 17.80150971 6.90529677 15.90529677 5 14 C5 24.56 5 35.12 5 46 C3.02 46 1.04 46 -1 46 C-0.67 30.82 -0.34 15.64 0 0 Z " fill="#000000" transform="translate(589,185)"/>
<path d="M0 0 C2.93747848 1.31427078 4.8980337 2.68502399 7.06640625 5.0546875 C7.62924316 5.66401123 8.19208008 6.27333496 8.77197266 6.90112305 C9.36284668 7.55250244 9.9537207 8.20388184 10.5625 8.875 C11.17657715 9.54249268 11.7906543 10.20998535 12.42333984 10.89770508 C14.2878962 12.9266959 16.14456476 14.96266915 18 17 C19.5705925 18.7165223 21.14236825 20.43195151 22.71459961 22.14697266 C24.04428934 23.59934277 25.36993375 25.05541353 26.6953125 26.51171875 C28.74451027 28.72415769 30.86761899 30.86761899 33 33 C33 22.44 33 11.88 33 1 C34.65 1 36.3 1 38 1 C38 16.51 38 32.02 38 48 C37.01 48 36.02 48 35 48 C33.01953125 45.875 33.01953125 45.875 30.8125 43 C27.3924039 38.67083459 23.86098311 34.73937647 19.90625 30.90234375 C17.40425553 28.40547632 15.11715546 25.75277778 12.8359375 23.0546875 C10.34011315 20.26148833 7.64868843 17.64868843 5 15 C4.67 25.56 4.34 36.12 4 47 C2.35 47 0.7 47 -1 47 C-1.06975957 36.34131874 -0.86313961 25.71418891 -0.5 15.0625 C-0.45159923 13.58920004 -0.4034212 12.11589274 -0.35546875 10.64257812 C-0.23953183 7.0949643 -0.12063345 3.5474576 0 0 Z " fill="#000000" transform="translate(370,52)"/>
<path d="M0 0 C3 0 3 0 4.33203125 1.22265625 C4.82058594 1.82980469 5.30914063 2.43695313 5.8125 3.0625 C9.89571801 7.94328926 14.22495961 12.56001777 18.58520508 17.19165039 C23.47069857 22.3962305 28.22058218 27.68953575 33 33 C33.33 22.44 33.66 11.88 34 1 C35.65 1 37.3 1 39 1 C38.67 16.51 38.34 32.02 38 48 C34.10670349 46.05335174 32.59283249 44.70067419 29.8125 41.5 C28.62914062 40.15228516 28.62914062 40.15228516 27.421875 38.77734375 C26.62265625 37.86082031 25.8234375 36.94429687 25 36 C23.52410649 34.35123085 22.04499509 32.70533587 20.5625 31.0625 C18.13114552 28.36575119 15.70200834 25.66719488 13.28125 22.9609375 C12.37512912 21.95300891 11.46888181 20.94519395 10.5625 19.9375 C9.73878906 19.01839844 8.91507813 18.09929687 8.06640625 17.15234375 C6.18668602 14.95355834 6.18668602 14.95355834 4 14 C4.03029297 14.57331055 4.06058594 15.14662109 4.09179688 15.73730469 C5.19008061 36.79900736 5.19008061 36.79900736 5 47 C3.02 47 1.04 47 -1 47 C-0.89171875 45.05287109 -0.89171875 45.05287109 -0.78125 43.06640625 C-0.03105763 28.70176028 0.11729541 14.3822214 0 0 Z " fill="#000000" transform="translate(586,118)"/>
<path d="M0 0 C2.31 0 4.62 0 7 0 C6.99214478 1.06528931 6.99214478 1.06528931 6.98413086 2.15209961 C6.96316239 5.4138905 6.95027719 8.67566714 6.9375 11.9375 C6.92912109 13.05447266 6.92074219 14.17144531 6.91210938 15.32226562 C6.38452289 28.58112545 6.38452289 28.58112545 12 40 C16.65637789 42.43401572 21.02995701 42.40390905 26 41 C30.52943014 38.34142144 31.66133255 35.97041587 33 31 C33.22145899 28.55038546 33.3530993 26.09166162 33.4140625 23.6328125 C33.43342865 22.95322479 33.4527948 22.27363708 33.4727478 21.57345581 C33.53205099 19.42409421 33.57872891 17.27467759 33.625 15.125 C33.66322532 13.6588321 33.70227964 12.19268557 33.7421875 10.7265625 C33.83771044 7.15123836 33.92192126 3.57575252 34 0 C35.65 0 37.3 0 39 0 C39.09292113 8.92042805 39.12697639 17.8376307 38.6875 26.75 C38.60048828 28.62945312 38.60048828 28.62945312 38.51171875 30.546875 C37.58984333 36.7677748 34.83617272 41.04313141 30 45 C22.44201401 47.99467369 15.48582038 47.74101215 7.98046875 44.9765625 C4.0591111 43.04295419 2.50678039 40.25133493 0.91455078 36.31982422 C-0.1248424 32.54682143 -0.25323047 29.07163533 -0.1953125 25.1953125 C-0.1924826 24.4713327 -0.18965271 23.74735291 -0.18673706 23.00143433 C-0.17562087 20.7091151 -0.15053312 18.41719937 -0.125 16.125 C-0.1149591 14.56250568 -0.10583519 13.00000518 -0.09765625 11.4375 C-0.07570973 7.62484662 -0.04124013 3.81249152 0 0 Z " fill="#000000" transform="translate(314,53)"/>
<path d="M0 0 C22.97515528 0 22.97515528 0 27.90234375 4.88671875 C29.95139743 8.83169399 29.81316236 12.69618947 29 17 C26.89720597 20.9526747 24.23318123 23.34039143 20.3125 25.4375 C15.53333791 26.24905583 10.83443366 26.15483951 6 26 C6.16298584 26.57975586 6.32597168 27.15951172 6.49389648 27.75683594 C7.27677556 31.22673123 7.10312359 34.712623 7.0625 38.25 C7.05798828 38.99507812 7.05347656 39.74015625 7.04882812 40.5078125 C7.03709246 42.3385764 7.0191585 44.16929873 7 46 C4.69 46 2.38 46 0 46 C0 30.82 0 15.64 0 0 Z M6 4 C6 9.94 6 15.88 6 22 C11.21009378 23.04201876 13.17810775 22.9287569 18 21 C21.15949694 18.24556677 22.27220207 16.03986818 22.5625 11.9375 C22.31632559 8.02722267 22.31632559 8.02722267 20.1875 5.5 C15.3755719 3.23556325 11.28727258 3.74519168 6 4 Z " fill="#000000" transform="translate(314,119)"/>
<path d="M0 0 C-0.66 2.31 -1.32 4.62 -2 7 C-2.54527344 6.6390625 -3.09054687 6.278125 -3.65234375 5.90625 C-9.15767197 2.51835571 -13.52395641 0.74504457 -20 2 C-24.38269568 3.46954293 -26.61035961 5.47706158 -29.375 9.1875 C-32.96210632 16.45448264 -32.55605956 24.44742201 -30 32 C-27.94289309 36.09699955 -24.94890626 38.30724721 -20.75 40 C-15.81783122 41.39978079 -11.74581819 40.82971304 -7 39 C-4.64040542 37.50513154 -4.64040542 37.50513154 -3 36 C-2.34 36 -1.68 36 -1 36 C-1 38.8125 -1 38.8125 -2 42 C-8.29290979 45.56202441 -14.89141179 45.8418065 -22 45 C-29.00319667 43.03826117 -33.6392426 39.45682334 -37.75 33.4375 C-40.82980049 27.43188905 -40.92146586 20.24454745 -39.50390625 13.71484375 C-37.39555737 7.53273603 -33.94145173 2.82635887 -28.125 -0.3125 C-19.27738387 -4.26674184 -8.9061957 -3.61061988 0 0 Z " fill="#000000" transform="translate(576,121)"/>
<path d="M0 0 C1.2375 0.7425 1.2375 0.7425 2.5 1.5 C1.84 3.81 1.18 6.12 0.5 8.5 C-0.16 8.5 -0.82 8.5 -1.5 8.5 C-1.78875 7.860625 -2.0775 7.22125 -2.375 6.5625 C-3.32823451 4.34793921 -3.32823451 4.34793921 -5.5 3.5 C-9.55142119 3.24139865 -11.04337669 3.19558446 -14.5 5.5 C-15.67797389 8.31555347 -15.67797389 8.31555347 -15.5 11.5 C-12.05793816 16.59935088 -6.77069797 18.41290598 -1.2421875 20.77734375 C2.18002404 22.92719459 3.11547307 24.74131864 4.5 28.5 C4.99610186 32.51638626 4.34023457 36.05959788 2.296875 39.5625 C-0.78654548 43.45734692 -3.49891652 45.58143365 -8.5 46.5 C-14.0907993 47.00825448 -17.65036667 46.118802 -22.5 43.5 C-23.59658936 40.21023192 -23.29953138 38.78696233 -22.5 35.5 C-19.13856582 36.62047806 -17.92471166 37.99707183 -15.5 40.5 C-12.65916359 41.92041821 -10.64522722 41.81452272 -7.5 41.5 C-4.80859265 39.53600004 -3.72441138 38.14117537 -2.625 35 C-2.472001 31.94002008 -2.72938042 31.00798636 -4.5 28.5 C-7.61569223 26.71650989 -10.74462876 25.17347249 -14.00195312 23.67578125 C-17.52709711 21.94255669 -19.24649093 20.8820206 -21.47265625 17.52734375 C-22.9463044 13.18484444 -22.82279996 9.87169254 -21.5 5.5 C-15.99527562 -1.6867235 -8.25043881 -3.53590235 0 0 Z " fill="#000000" transform="translate(594.5,53.5)"/>
<path d="M0 0 C2.64 0 5.28 0 8 0 C12.94498655 11.55486806 17.44616563 23.28716285 22 35 C24.65508633 32.34491367 25.52998001 29.30004904 26.78515625 25.83984375 C27.04630722 25.13477188 27.30745819 24.42970001 27.57652283 23.70326233 C28.41039796 21.44989258 29.2369008 19.19391374 30.0625 16.9375 C30.89261617 14.67788589 31.72430325 12.41888238 32.55918884 10.161026 C33.07860528 8.7554262 33.59508902 7.34873865 34.1084137 5.94090271 C35.88826809 1.11173191 35.88826809 1.11173191 37 0 C38.66617115 -0.04063832 40.33388095 -0.042721 42 0 C41.30297749 4.72652067 39.54405562 8.82332045 37.69140625 13.1875 C37.36462387 13.96762451 37.03784149 14.74774902 36.70115662 15.55151367 C35.65928183 18.03619343 34.61105714 20.51813388 33.5625 23 C32.51898737 25.48246669 31.4767572 27.96546925 30.43455505 30.44848633 C29.78676094 31.99044474 29.13793449 33.53196998 28.4879303 35.07299805 C26.95762999 38.70239111 25.44640931 42.33606301 24 46 C22.02 46 20.04 46 18 46 C17.70343506 45.24082275 17.40687012 44.48164551 17.10131836 43.69946289 C15.7149533 40.15319098 14.32686245 36.6075984 12.9375 33.0625 C12.68833832 32.42661957 12.43917664 31.79073914 12.1824646 31.1355896 C8.84628267 22.62765902 5.46820224 14.14012082 1.93139648 5.71313477 C0 1.09588068 0 1.09588068 0 0 Z " fill="#000000" transform="translate(441,53)"/>
<path d="M0 0 C0.99 0 1.98 0 3 0 C5.71353476 6.20803161 8.41857108 12.41971427 11.11767578 18.6340332 C12.03726129 20.74849519 12.95880317 22.86210746 13.88232422 24.97485352 C15.20793262 28.00837521 16.52652052 31.04486357 17.84375 34.08203125 C18.46715271 35.5024749 18.46715271 35.5024749 19.10314941 36.95161438 C19.4835437 37.83230087 19.86393799 38.71298737 20.25585938 39.62036133 C20.59339233 40.39535477 20.93092529 41.17034821 21.27868652 41.96882629 C22 44 22 44 22 47 C19.36 47 16.72 47 14 47 C13.67725098 46.17274414 13.35450195 45.34548828 13.02197266 44.49316406 C11.81954006 41.41379516 10.61541778 38.33509812 9.41015625 35.25683594 C8.88962393 33.92637087 8.36975944 32.59564432 7.85058594 31.26464844 C7.10268275 29.34760923 6.35235458 27.43153434 5.6015625 25.515625 C4.92601318 23.78747559 4.92601318 23.78747559 4.23681641 22.02441406 C3.09459508 19.09587233 3.09459508 19.09587233 1.83740234 16.78027344 C1 15 1 15 1 12 C0.34 12 -0.32 12 -1 12 C-1.59941406 13.86011719 -1.59941406 13.86011719 -2.2109375 15.7578125 C-4.14046585 21.54639756 -6.37695766 27.20413189 -8.625 32.875 C-9.43032956 34.913809 -10.23504581 36.9528604 -11.0390625 38.9921875 C-11.39178223 39.88276855 -11.74450195 40.77334961 -12.10791016 41.69091797 C-12.78496345 43.44340019 -13.40589604 45.21768813 -14 47 C-15.98 47 -17.96 47 -20 47 C-19.34437075 42.33105617 -17.48443309 38.33178576 -15.5078125 34.1015625 C-15.16120575 33.34837738 -14.814599 32.59519226 -14.45748901 31.81918335 C-13.35166908 29.41877224 -12.23859704 27.02181164 -11.125 24.625 C-10.02008731 22.23464281 -8.91668337 19.84359604 -7.81393433 17.45223999 C-7.12878193 15.96779923 -6.44212446 14.48405187 -5.75369263 13.00112915 C-3.76000554 8.69726151 -1.84848141 4.36829474 0 0 Z " fill="#000000" transform="translate(684,52)"/>
<path d="M0 0 C2.97 0 5.94 0 9 0 C9.21615967 0.60360352 9.43231934 1.20720703 9.6550293 1.82910156 C14.44418868 19.50724363 14.44418868 19.50724363 23 35 C24.53152491 30.98041616 26.06141641 26.96021551 27.58984375 22.93945312 C28.10925957 21.57372545 28.62910952 20.20816279 29.14941406 18.84277344 C29.90025141 16.87218499 30.64948899 14.90099448 31.3984375 12.9296875 C31.84880371 11.74616699 32.29916992 10.56264648 32.76318359 9.34326172 C33.90845568 6.24745518 34.976337 3.13784047 36 0 C38.31 0 40.62 0 43 0 C42.73896484 0.62229492 42.47792969 1.24458984 42.20898438 1.88574219 C37.17848493 13.88934201 32.17886954 25.89989676 27.42578125 38.01660156 C25.10442994 43.89557006 25.10442994 43.89557006 24 45 C22.00041636 45.04080783 19.99954746 45.04254356 18 45 C12 30 6 15 0 0 Z " fill="#000000" transform="translate(428,186)"/>
<path d="M0 0 C7.92 0 15.84 0 24 0 C24 1.65 24 3.3 24 5 C18.39 4.67 12.78 4.34 7 4 C7 8.95 7 13.9 7 19 C12.28 19 17.56 19 23 19 C23 20.32 23 21.64 23 23 C17.72 23 12.44 23 7 23 C7 28.94 7 34.88 7 41 C12.94 40.67 18.88 40.34 25 40 C25 41.65 25 43.3 25 45 C16.75 45 8.5 45 0 45 C0 30.15 0 15.3 0 0 Z " fill="#000000" transform="translate(553,186)"/>
<path d="M0 0 C-0.66 1.98 -1.32 3.96 -2 6 C-2.60585938 5.62746094 -3.21171875 5.25492188 -3.8359375 4.87109375 C-10.25549528 1.24651267 -14.80351266 0.13994534 -22 2 C-25.85095328 3.42317838 -26.91129768 4.87533728 -29.3125 8.25 C-32.10936613 14.36672349 -31.7925668 21.44525834 -31 28 C-29.61538672 31.22862718 -29.61538672 31.22862718 -28 34 C-27.67 34.99 -27.34 35.98 -27 37 C-21.29562272 40.20871222 -15.2408893 40.67009714 -9 39 C-6.18484454 37.83640241 -3.66291309 36.50091465 -1 35 C-0.75 37.3125 -0.75 37.3125 -1 40 C-5.15678304 44.15678304 -9.98642376 44.21246898 -15.625 44.375 C-23.20170608 44.30404229 -29.17485249 42.80706171 -34.65234375 37.35546875 C-39.52753308 31.09544304 -40.84376239 23.76261401 -40 16 C-38.57214935 9.60072776 -36.48940646 4.56553102 -31.08203125 0.58984375 C-21.53226906 -5.15281057 -9.8284585 -4.79312633 0 0 Z " fill="#000000" transform="translate(676,188)"/>
<path d="M0 0 C-0.33 2.31 -0.66 4.62 -1 7 C-3.30161177 5.84919412 -5.53150394 4.68592949 -7.75 3.375 C-12.9326351 1.18234669 -16.98418697 1.26345293 -22.25 3.1875 C-27.22429784 6.46601448 -29.689915 10.21379126 -31 16 C-31.76974443 24.03505147 -30.66403479 30.28649696 -25.9375 36.875 C-21.84090588 39.83849362 -18.04200552 40.84628032 -13 41 C-10.110684 40.37799447 -7.64012447 39.3054274 -5 38 C-4.01 37.608125 -3.02 37.21625 -2 36.8125 C-1.34 36.544375 -0.68 36.27625 0 36 C-0.33 37.98 -0.66 39.96 -1 42 C-9.48871317 45.52124398 -17.50377239 46.50600571 -26.3125 43.4375 C-32.13929007 40.81590765 -35.73930046 37.1126237 -38.1328125 31.203125 C-39.98050655 24.37830914 -40.39099375 16.06613633 -37.4375 9.5 C-34.17048006 4.10130747 -29.13161303 -0.31380642 -23 -2 C-15.25667157 -3.70353225 -7.26198632 -3.21152825 0 0 Z " fill="#000000" transform="translate(695,121)"/>
<path d="M0 0 C7.92 0 15.84 0 24 0 C24 1.32 24 2.64 24 4 C18.39 4 12.78 4 7 4 C7 8.95 7 13.9 7 19 C12.28 19 17.56 19 23 19 C23 20.65 23 22.3 23 24 C17.72 23.67 12.44 23.34 7 23 C7 28.94 7 34.88 7 41 C15.415 40.505 15.415 40.505 24 40 C24 41.65 24 43.3 24 45 C16.08 45 8.16 45 0 45 C0 30.15 0 15.3 0 0 Z " fill="#000000" transform="translate(363,186)"/>
<path d="M0 0 C0.99 0 1.98 0 3 0 C5.71353476 6.20803161 8.41857108 12.41971427 11.11767578 18.6340332 C12.03726129 20.74849519 12.95880317 22.86210746 13.88232422 24.97485352 C15.20793262 28.00837521 16.52652052 31.04486357 17.84375 34.08203125 C18.46715271 35.5024749 18.46715271 35.5024749 19.10314941 36.95161438 C19.4835437 37.83230087 19.86393799 38.71298737 20.25585938 39.62036133 C20.59339233 40.39535477 20.93092529 41.17034821 21.27868652 41.96882629 C22 44 22 44 22 47 C19.36 47 16.72 47 14 47 C13.68248779 46.18321777 13.36497559 45.36643555 13.0378418 44.52490234 C11.84920914 41.47126755 10.65800423 38.41866181 9.46508789 35.36669922 C8.95104541 34.05004034 8.43800683 32.73298903 7.92602539 31.41552734 C7.18644839 29.51293491 6.44317397 27.61182155 5.69921875 25.7109375 C5.03152466 23.99849854 5.03152466 23.99849854 4.3503418 22.25146484 C3.0353053 19.08501104 1.57148389 16.04613694 0 13 C-1.77357907 17.16550313 -3.54336595 21.3326073 -5.3125 25.5 C-5.81201172 26.67304688 -6.31152344 27.84609375 -6.82617188 29.0546875 C-9.34593904 34.99533063 -11.80004807 40.93323837 -14 47 C-15.98 47 -17.96 47 -20 47 C-18.4160075 41.87639938 -16.33021532 37.08162443 -14.12109375 32.20703125 C-13.56289696 30.96526375 -13.56289696 30.96526375 -12.99342346 29.69841003 C-11.81083659 27.06853823 -10.62443165 24.4404134 -9.4375 21.8125 C-8.24750639 19.17365131 -7.05835463 16.53443137 -5.87086487 13.89445496 C-5.13345817 12.25548996 -4.3945284 10.61720919 -3.65391541 8.97969055 C-3.32009354 8.23849472 -2.98627167 7.49729889 -2.64233398 6.73364258 C-2.34858383 6.08333572 -2.05483368 5.43302887 -1.75218201 4.76301575 C-1.0883242 3.20702031 -0.53496065 1.60488195 0 0 Z " fill="#000000" transform="translate(720,184)"/>
<path d="M0 0 C0.66 0 1.32 0 2 0 C7.28499375 11.93362113 12.56667565 23.8698021 17.6875 35.875 C18.02587891 36.65786377 18.36425781 37.44072754 18.71289062 38.24731445 C21 43.65018726 21 43.65018726 21 47 C18.36 47 15.72 47 13 47 C12.47212891 45.56333984 12.47212891 45.56333984 11.93359375 44.09765625 C9.13703671 36.53631056 6.2475797 29.02149416 3.1875 21.5625 C2.88577881 20.82330322 2.58405762 20.08410645 2.27319336 19.32250977 C1.04308998 15.91203585 1.04308998 15.91203585 -1 13 C-2.58455366 16.7911578 -4.16741513 20.58301997 -5.75 24.375 C-6.1934375 25.43589844 -6.636875 26.49679688 -7.09375 27.58984375 C-9.78405091 34.03865327 -12.42750506 40.50326774 -15 47 C-16.98 47 -18.96 47 -21 47 C-17.62222066 38.17002133 -13.76184441 29.55307809 -9.91723633 20.91967773 C-8.80173689 18.4133169 -7.69076435 15.90498129 -6.58007812 13.39648438 C-5.87266515 11.80456779 -5.16499255 10.21276655 -4.45703125 8.62109375 C-4.12476028 7.87016953 -3.79248932 7.1192453 -3.45014954 6.3455658 C-1.11476985 1.11476985 -1.11476985 1.11476985 0 0 Z " fill="#000000" transform="translate(490,184)"/>
<path d="M0 0 C0.99 0 1.98 0 3 0 C5.55198799 5.88695855 8.09636155 11.77716484 10.63549805 17.66967773 C11.49996265 19.67336176 12.3661599 21.67629919 13.23413086 23.6784668 C14.48228216 26.55843125 15.72415347 29.44103362 16.96484375 32.32421875 C17.35341049 33.21711105 17.74197723 34.11000336 18.14231873 35.029953 C18.50261673 35.87044693 18.86291473 36.71094086 19.23413086 37.5769043 C19.55167831 38.31192673 19.86922577 39.04694916 20.19639587 39.804245 C21.06655355 42.18184986 21.56355755 44.5093126 22 47 C19.36 47 16.72 47 14 47 C13.67725098 46.17274414 13.35450195 45.34548828 13.02197266 44.49316406 C11.81954006 41.41379516 10.61541778 38.33509812 9.41015625 35.25683594 C8.88962393 33.92637087 8.36975944 32.59564432 7.85058594 31.26464844 C7.10268275 29.34760923 6.35235458 27.43153434 5.6015625 25.515625 C4.92601318 23.78747559 4.92601318 23.78747559 4.23681641 22.02441406 C3.09459508 19.09587233 3.09459508 19.09587233 1.83740234 16.78027344 C1 15 1 15 1 12 C0.34 12 -0.32 12 -1 12 C-1.38800781 13.20527344 -1.77601563 14.41054687 -2.17578125 15.65234375 C-4.30342304 22.03526913 -6.75459258 28.29108243 -9.1875 34.5625 C-9.65091797 35.76197266 -10.11433594 36.96144531 -10.59179688 38.19726562 C-11.72602525 41.1322277 -12.86213485 44.0664464 -14 47 C-15.98 47 -17.96 47 -20 47 C-18.04031679 40.74067955 -15.69905068 34.77789395 -12.98828125 28.80859375 C-12.61519333 27.97787857 -12.24210541 27.14716339 -11.85771179 26.29127502 C-10.68002296 23.671505 -9.49637698 21.05447851 -8.3125 18.4375 C-7.50676388 16.64796542 -6.70142165 14.85825342 -5.89648438 13.06835938 C-3.93553305 8.71017732 -1.96923914 4.35444311 0 0 Z " fill="#000000" transform="translate(720,118)"/>
<path d="M0 0 C8.25 0 16.5 0 25 0 C25 1.65 25 3.3 25 5 C19.06 4.67 13.12 4.34 7 4 C7 9.28 7 14.56 7 20 C12.28 19.67 17.56 19.34 23 19 C23 20.65 23 22.3 23 24 C17.72 24 12.44 24 7 24 C7 29.94 7 35.88 7 42 C12.94 41.67 18.88 41.34 25 41 C25 42.65 25 44.3 25 46 C16.75 46 8.5 46 0 46 C0 30.82 0 15.64 0 0 Z " fill="#000000" transform="translate(493,53)"/>
<path d="M0 0 C7.92 0 15.84 0 24 0 C24 1.65 24 3.3 24 5 C18.06 4.67 12.12 4.34 6 4 C6 8.95 6 13.9 6 19 C11.28 19 16.56 19 22 19 C22 20.32 22 21.64 22 23 C16.72 23 11.44 23 6 23 C6 28.94 6 34.88 6 41 C11.94 40.67 17.88 40.34 24 40 C24 41.65 24 43.3 24 45 C16.08 45 8.16 45 0 45 C0 30.15 0 15.3 0 0 Z " fill="#000000" transform="translate(504,120)"/>
<path d="M0 0 C11.55 0 23.1 0 35 0 C35 1.65 35 3.3 35 5 C28.07 4.505 28.07 4.505 21 4 C21 17.53 21 31.06 21 45 C18.69 45 16.38 45 14 45 C14 31.47 14 17.94 14 4 C9.38 4.33 4.76 4.66 0 5 C0 3.35 0 1.7 0 0 Z " fill="#000000" transform="translate(629,54)"/>
<path d="M0 0 C11.22 0 22.44 0 34 0 C34 1.65 34 3.3 34 5 C29.38 5 24.76 5 20 5 C20 18.53 20 32.06 20 46 C17.69 46 15.38 46 13 46 C13 32.47 13 18.94 13 5 C8.71 5 4.42 5 0 5 C0 3.35 0 1.7 0 0 Z " fill="#000000" transform="translate(461,119)"/>
<path d="M0 0 C11.22 0 22.44 0 34 0 C34 1.65 34 3.3 34 5 C27.07 4.505 27.07 4.505 20 4 C20.495 24.295 20.495 24.295 21 45 C18.36 45 15.72 45 13 45 C13.33 31.47 13.66 17.94 14 4 C9.38 4.33 4.76 4.66 0 5 C0 3.35 0 1.7 0 0 Z " fill="#000000" transform="translate(708,54)"/>
<path d="M0 0 C2.31 0 4.62 0 7 0 C7 13.53 7 27.06 7 41 C12.94 40.67 18.88 40.34 25 40 C25 41.65 25 43.3 25 45 C16.75 45 8.5 45 0 45 C0 30.15 0 15.3 0 0 Z " fill="#000000" transform="translate(519,186)"/>
<path d="M0 0 C2.64 0 5.28 0 8 0 C7.67 13.86 7.34 27.72 7 42 C12.94 41.67 18.88 41.34 25 41 C25 42.65 25 44.3 25 46 C16.75 46 8.5 46 0 46 C0 30.82 0 15.64 0 0 Z " fill="#000000" transform="translate(408,119)"/>
<path d="M0 0 C1.65 0.33 3.3 0.66 5 1 C5 1.66 5 2.32 5 3 C6.12535156 2.82597656 6.12535156 2.82597656 7.2734375 2.6484375 C12.46456021 2.19078185 15.71226845 2.05167057 20.0234375 5.2265625 C22.48484009 7.73028147 24.79535489 10.26858128 27 13 C27 10.36 27 7.72 27 5 C26.01 4.67 25.02 4.34 24 4 C26 2 26 2 28.625 1.875 C29.40875 1.91625 30.1925 1.9575 31 2 C30.83628906 2.84820312 30.67257813 3.69640625 30.50390625 4.5703125 C29.99051555 8.0645531 29.90149261 11.34627574 29.9375 14.875 C29.94652344 16.02742188 29.95554688 17.17984375 29.96484375 18.3671875 C29.97644531 19.23601562 29.98804688 20.10484375 30 21 C26.54798361 19.52278578 24.35038064 17.56205999 21.75 14.875 C21.04359375 14.15054688 20.3371875 13.42609375 19.609375 12.6796875 C19.07828125 12.12539062 18.5471875 11.57109375 18 11 C17.69504515 15.42664564 17.69504515 15.42664564 19.5 19.375 C19.995 19.91125 20.49 20.4475 21 21 C20 22 20 22 16.4375 22.0625 C15.303125 22.041875 14.16875 22.02125 13 22 C13 21.34 13 20.68 13 20 C13.66 20 14.32 20 15 20 C14.67 15.38 14.34 10.76 14 6 C13.34 6 12.68 6 12 6 C11.67 6.66 11.34 7.32 11 8 C10.34 8 9.68 8 9 8 C9 10.64 9 13.28 9 16 C8.34 16 7.68 16 7 16 C6.67 15.34 6.34 14.68 6 14 C5.01 13.67 4.02 13.34 3 13 C3 14.98 3 16.96 3 19 C7.07964281 17.69844994 7.07964281 17.69844994 11 16 C10.67 17.65 10.34 19.3 10 21 C6.87819599 21.96661363 4.47916205 21.98988909 1.25 21.5625 C0.45078125 21.46066406 -0.3484375 21.35882813 -1.171875 21.25390625 C-1.77515625 21.17011719 -2.3784375 21.08632812 -3 21 C-3 20.34 -3 19.68 -3 19 C-2.34 19 -1.68 19 -1 19 C-1.0309375 17.205625 -1.0309375 17.205625 -1.0625 15.375 C-1.06882571 11.81995131 -0.69888875 8.49444376 0 5 C-0.99 4.67 -1.98 4.34 -3 4 C-2.67 3.34 -2.34 2.68 -2 2 C-1.34 2 -0.68 2 0 2 C0 1.34 0 0.68 0 0 Z M4 5 C4 6.65 4 8.3 4 10 C4.99 10 5.98 10 7 10 C7.66 8.68 8.32 7.36 9 6 C7.35 5.67 5.7 5.34 4 5 Z " fill="#000000" transform="translate(157,221)"/>
<path d="M0 0 C2.31 0 4.62 0 7 0 C7 15.18 7 30.36 7 46 C4.69 46 2.38 46 0 46 C0 30.82 0 15.64 0 0 Z " fill="#000000" transform="translate(612,53)"/>
<path d="M0 0 C2.31 0 4.62 0 7 0 C7 15.18 7 30.36 7 46 C4.69 46 2.38 46 0 46 C0 30.82 0 15.64 0 0 Z " fill="#000000" transform="translate(638,119)"/>
<path d="M0 0 C2.31 0 4.62 0 7 0 C7 15.18 7 30.36 7 46 C4.69 46 2.38 46 0 46 C0 30.82 0 15.64 0 0 Z " fill="#000000" transform="translate(444,119)"/>
<path d="M0 0 C2.31 0 4.62 0 7 0 C7 15.18 7 30.36 7 46 C4.69 46 2.38 46 0 46 C0 30.82 0 15.64 0 0 Z " fill="#000000" transform="translate(424,53)"/>
<path d="M0 0 C2.64 0 5.28 0 8 0 C8 14.85 8 29.7 8 45 C5.36 45 2.72 45 0 45 C0 30.15 0 15.3 0 0 Z " fill="#000000" transform="translate(684,186)"/>
<path d="M0 0 C8.4 0 8.4 0 11 2 C11.75 4.125 11.75 4.125 12 6 C12.99 5.34 13.98 4.68 15 4 C21.32258065 3.5483871 21.32258065 3.5483871 25 6 C26.26619742 9.88903494 26.07395185 11.78184205 24.75 15.6875 C22.08333333 20.73511905 22.08333333 20.73511905 20 22 C16.64645493 22.3593084 14.15343786 22.61516686 11.125 21 C9.32756466 17.8045594 9.29797286 14.63526893 9 11 C7.02 11 5.04 11 3 11 C3.33 13.64 3.66 16.28 4 19 C1.69 18.67 -0.62 18.34 -3 18 C-3 17.34 -3 16.68 -3 16 C-2.34 16 -1.68 16 -1 16 C-0.67 10.72 -0.34 5.44 0 0 Z M5 3 C4.67 4.98 4.34 6.96 4 9 C4.99 9 5.98 9 7 9 C7.33 7.35 7.66 5.7 8 4 C7.01 3.67 6.02 3.34 5 3 Z M15.30078125 7.21484375 C13.71291294 9.39399035 13.44711793 10.89151548 13.1875 13.5625 C13.09855469 14.34753906 13.00960937 15.13257813 12.91796875 15.94140625 C12.77596958 18.22823056 12.77596958 18.22823056 15 20 C17.02077346 20.05901922 17.02077346 20.05901922 19 19 C21.91821221 15.35223473 22.40956733 12.60763247 22 8 C21.67 7.34 21.34 6.68 21 6 C17.19418296 5.61227204 17.19418296 5.61227204 15.30078125 7.21484375 Z " fill="#000000" transform="translate(181,44)"/>
<path d="M0 0 C0.12375 1.2684375 0.12375 1.2684375 0.25 2.5625 C1.15551611 6.71278218 2.83188132 9.36315577 5 13 C5 13.66 5 14.32 5 15 C5.99 15.33 6.98 15.66 8 16 C4.375 19 4.375 19 1 19 C0.35089846 17.41800369 -0.29414694 15.83434276 -0.9375 14.25 C-1.29714844 13.36828125 -1.65679687 12.4865625 -2.02734375 11.578125 C-2.85356576 9.38813896 -3.49369943 7.28101729 -4 5 C-4.99 5 -5.98 5 -7 5 C-6.67 6.98 -6.34 8.96 -6 11 C-6.8353125 10.505 -6.8353125 10.505 -7.6875 10 C-10.32401158 8.85988688 -12.15554856 8.7693688 -15 9 C-16.31189416 10.09798661 -16.31189416 10.09798661 -16.25 12.8125 C-15.97826344 16.27714111 -15.31309135 17.49415104 -13 20 C-10.06556598 19.73343428 -10.06556598 19.73343428 -7 19 C-6.34 18.01 -5.68 17.02 -5 16 C-4.34 16 -3.68 16 -3 16 C-4.625 21.75 -4.625 21.75 -8 24 C-14.92783505 24.65979381 -14.92783505 24.65979381 -18.4375 22.5 C-20.58251685 19.06797304 -21.20863822 16.03634716 -21 12 C-19.76245899 9.00384809 -18.76729312 7.53710519 -16.125 5.6875 C-14 5 -14 5 -11.4375 5.0625 C-8.9555653 5.25340638 -8.9555653 5.25340638 -7.375 3.625 C-6.92125 3.08875 -6.4675 2.5525 -6 2 C-3 0 -3 0 0 0 Z " fill="#000000" transform="translate(210,215)"/>
<path d="M0 0 C0.66 0 1.32 0 2 0 C2.33 2.31 2.66 4.62 3 7 C0.69 7.33 -1.62 7.66 -4 8 C-2.3603125 8.37125 -2.3603125 8.37125 -0.6875 8.75 C3 10 3 10 4.9375 11.6875 C6.39469867 14.85905004 6.19864343 17.55684723 6 21 C3.69 21.33 1.38 21.66 -1 22 C-1 21.34 -1 20.68 -1 20 C-0.34 19.360625 0.32 18.72125 1 18.0625 C3.34807292 16.11987668 3.34807292 16.11987668 3 13 C-2.53069113 12.56066743 -2.53069113 12.56066743 -7.5 14.5 C-7.995 14.995 -8.49 15.49 -9 16 C-8.38722388 18.96175123 -7.74627478 20.38058783 -6 23 C-10.75 22.25 -10.75 22.25 -13 20 C-13.59765625 18.01171875 -13.59765625 18.01171875 -14.0625 15.6875 C-14.21847656 14.92824219 -14.37445313 14.16898438 -14.53515625 13.38671875 C-14.68855469 12.59910156 -14.84195313 11.81148437 -15 11 C-15.18433594 10.07832031 -15.36867187 9.15664062 -15.55859375 8.20703125 C-15.70425781 7.47871094 -15.84992188 6.75039062 -16 6 C-15.16855469 5.79503906 -14.33710938 5.59007813 -13.48046875 5.37890625 C-12.39378906 5.10949219 -11.30710938 4.84007813 -10.1875 4.5625 C-9.10855469 4.29566406 -8.02960938 4.02882813 -6.91796875 3.75390625 C-4.9259157 3.23922588 -2.95188476 2.65062825 -1 2 C-0.67 1.34 -0.34 0.68 0 0 Z M-11 9 C-11 9.99 -11 10.98 -11 12 C-10.01 11.01 -9.02 10.02 -8 9 C-8.99 9 -9.98 9 -11 9 Z " fill="#000000" transform="translate(262,109)"/>
<path d="M0 0 C1.98 0.66 3.96 1.32 6 2 C3.66666667 6.66666667 1.33333333 11.33333333 -1 16 C3.05286863 17.12213055 3.05286863 17.12213055 7 16 C9.93355173 12.33306034 11 10.76869466 11 6 C13.4375 6.8125 13.4375 6.8125 16 8 C16.33 8.99 16.66 9.98 17 11 C16.4225 11.53625 15.845 12.0725 15.25 12.625 C11.48282234 16.60146531 9 19.40938627 9 25 C5.12763186 24.31387652 2.12741765 22.52450228 -1.25 20.5625 C-2.32765625 19.94503906 -3.4053125 19.32757813 -4.515625 18.69140625 C-5.33546875 18.13324219 -6.1553125 17.57507813 -7 17 C-7 16.34 -7 15.68 -7 15 C-6.55011719 14.5565625 -6.10023438 14.113125 -5.63671875 13.65625 C-3.73941895 11.73630939 -2.88616945 9.96820562 -1.8125 7.5 C-1.46832031 6.7265625 -1.12414062 5.953125 -0.76953125 5.15625 C0.16806011 2.91066586 0.16806011 2.91066586 0 0 Z " fill="#000000" transform="translate(209,51)"/>
<path d="M0 0 C2.9375 0.375 2.9375 0.375 6 1 C6.33 1.66 6.66 2.32 7 3 C5.5625 5.625 5.5625 5.625 4 8 C5.98 8 7.96 8 10 8 C9.34 9.98 8.68 11.96 8 14 C5 14 5 14 2 12 C1.67 13.65 1.34 15.3 1 17 C-3.75 16.25 -3.75 16.25 -6 14 C-5.01 12.68 -4.02 11.36 -3 10 C-5.475 9.01 -5.475 9.01 -8 8 C-7.34 6.02 -6.68 4.04 -6 2 C-4 3 -2 4 0 5 C0 3.35 0 1.7 0 0 Z " fill="#000000" transform="translate(252,170)"/>
<path d="M0 0 C0.33 1.65 0.66 3.3 1 5 C1.61875 4.505 2.2375 4.01 2.875 3.5 C5 2 5 2 7 2 C7.66 3.98 8.32 5.96 9 8 C7.35 8.66 5.7 9.32 4 10 C4.99 11.65 5.98 13.3 7 15 C4.35261084 16.4606285 3.10551666 17 0 17 C-0.33 15.35 -0.66 13.7 -1 12 C-1.61875 12.495 -2.2375 12.99 -2.875 13.5 C-5 15 -5 15 -7 15 C-7.66 12.69 -8.32 10.38 -9 8 C-7.35 7.67 -5.7 7.34 -4 7 C-4.66 5.35 -5.32 3.7 -6 2 C-3 0 -3 0 0 0 Z " fill="#000000" transform="translate(87,170)"/>
<path d="M0 0 C5.34042961 1.44335935 9.83978629 4.0341949 14.609375 6.7578125 C16.8467715 8.15369293 16.8467715 8.15369293 19 8 C17.9024777 10.99324263 17.32317108 11.84610901 14.375 13.25 C13.59125 13.4975 12.8075 13.745 12 14 C11.67 13.01 11.34 12.02 11 11 C9.68 11.33 8.36 11.66 7 12 C7 12.99 7 13.98 7 15 C7.99 15.66 8.98 16.32 10 17 C5.125 21 5.125 21 4 21 C3.32781493 18.25124318 2.66207565 15.50119274 2 12.75 C1.80921875 11.97269531 1.6184375 11.19539062 1.421875 10.39453125 C1.24140625 9.64042969 1.0609375 8.88632813 0.875 8.109375 C0.70742187 7.41811523 0.53984375 6.72685547 0.3671875 6.01464844 C0 4 0 4 0 0 Z M4 7 C4 7.66 4 8.32 4 9 C4.66 9 5.32 9 6 9 C6 8.34 6 7.68 6 7 C5.34 7 4.68 7 4 7 Z " fill="#000000" transform="translate(216,209)"/>
<path d="M0 0 C0 6.93 0 13.86 0 21 C-2.475 20.01 -2.475 20.01 -5 19 C-5.99 18.67 -6.98 18.34 -8 18 C-8 17.34 -8 16.68 -8 16 C-7.34 15.67 -6.68 15.34 -6 15 C-6 14.01 -6 13.02 -6 12 C-7.32 11.67 -8.64 11.34 -10 11 C-10.33 12.32 -10.66 13.64 -11 15 C-12.98 14.34 -14.96 13.68 -17 13 C-17 12.34 -17 11.68 -17 11 C-15.63114399 10.07602219 -14.25613754 9.16015837 -12.85546875 8.28515625 C-9.93731605 6.26395154 -7.41617993 3.81676853 -4.83203125 1.390625 C-3 0 -3 0 0 0 Z M-5 5 C-5.99 6.485 -5.99 6.485 -7 8 C-6.01 8.33 -5.02 8.66 -4 9 C-4.33 7.68 -4.66 6.36 -5 5 Z " fill="#000000" transform="translate(136,217)"/>
<path d="M0 0 C2.96175123 0.61277612 4.38058783 1.25372522 7 3 C7 3.66 7 4.32 7 5 C6.525625 5.4125 6.05125 5.825 5.5625 6.25 C3.41260332 8.65788428 3.34954602 10.85408584 3 14 C4.98 13.01 6.96 12.02 9 11 C9 9.68 9 8.36 9 7 C10.875 7.25 10.875 7.25 13 8 C14.1328125 10.046875 14.1328125 10.046875 15 12 C12.39939496 13.34070318 9.79495084 14.67273354 7.1875 16 C6.44951172 16.3815625 5.71152344 16.763125 4.95117188 17.15625 C4.23896484 17.5171875 3.52675781 17.878125 2.79296875 18.25 C2.1383667 18.58515625 1.48376465 18.9203125 0.80932617 19.265625 C-1 20 -1 20 -4 20 C-2.66666667 13.33333333 -1.33333333 6.66666667 0 0 Z " fill="#000000" transform="translate(116,205)"/>
<path d="M0 0 C6.6 1.98 13.2 3.96 20 6 C16.89082984 9.10917016 13.82182837 10.79472962 9.9375 12.6875 C9.30005859 13.00783203 8.66261719 13.32816406 8.00585938 13.65820312 C3.26734075 16 3.26734075 16 1 16 C1 13.69 1 11.38 1 9 C2.65 9 4.3 9 6 9 C6 8.01 6 7.02 6 6 C5.01 5.67 4.02 5.34 3 5 C2.67 5.66 2.34 6.32 2 7 C1.34 7 0.68 7 0 7 C0 4.69 0 2.38 0 0 Z M9 6 C9.33 6.66 9.66 7.32 10 8 C10.99 7.34 11.98 6.68 13 6 C11.68 6 10.36 6 9 6 Z " fill="#000000" transform="translate(250,131)"/>
<path d="M0 0 C4.32386211 2.16193106 5.45233155 3.66528194 8.125 7.5625 C10.52435062 11.38705618 10.52435062 11.38705618 14 14 C14 14.66 14 15.32 14 16 C11.69 16.66 9.38 17.32 7 18 C6.67 16.35 6.34 14.7 6 13 C4.68 13 3.36 13 2 13 C2 14.32 2 15.64 2 17 C2.99 17 3.98 17 5 17 C5 17.66 5 18.32 5 19 C3.02 19.33 1.04 19.66 -1 20 C-0.67 13.4 -0.34 6.8 0 0 Z M2 7 C2.33 8.32 2.66 9.64 3 11 C3.33 10.34 3.66 9.68 4 9 C3.34 8.34 2.68 7.68 2 7 Z " fill="#000000" transform="translate(139,47)"/>
<path d="M0 0 C4.2026393 2.63886654 7.56638098 5.36440339 11 9 C10.01 10.485 10.01 10.485 9 12 C8.34 12 7.68 12 7 12 C7 11.01 7 10.02 7 9 C3.18688695 10.4980087 1.27516449 12.62648024 -1 16 C-1.78946609 18.68507329 -1.78946609 18.68507329 -2 21 C-4.88437779 19.70700306 -6.87219421 18.34058637 -9 16 C-7.948125 15.5359375 -7.948125 15.5359375 -6.875 15.0625 C-2.78622137 12.12924577 -0.59415347 8.25227218 2 4 C0.35 4.33 -1.3 4.66 -3 5 C-1.125 1.125 -1.125 1.125 0 0 Z " fill="#000000" transform="translate(227,61)"/>
<path d="M0 0 C0.55171875 0.37898438 1.1034375 0.75796875 1.671875 1.1484375 C1.341875 2.1384375 1.011875 3.1284375 0.671875 4.1484375 C-0.318125 3.8184375 -1.308125 3.4884375 -2.328125 3.1484375 C-1.10800407 7.1842221 0.21049168 10.70250085 2.671875 14.1484375 C3.661875 14.4784375 4.651875 14.8084375 5.671875 15.1484375 C5.671875 15.8084375 5.671875 16.4684375 5.671875 17.1484375 C-0.078125 20.1484375 -0.078125 20.1484375 -2.328125 20.1484375 C-2.43125 19.1171875 -2.534375 18.0859375 -2.640625 17.0234375 C-3.32764683 13.15113266 -4.26544872 10.48045303 -6.328125 7.1484375 C-7.318125 6.8184375 -8.308125 6.4884375 -9.328125 6.1484375 C-9.328125 7.4684375 -9.328125 8.7884375 -9.328125 10.1484375 C-9.988125 10.1484375 -10.648125 10.1484375 -11.328125 10.1484375 C-11.658125 8.1684375 -11.988125 6.1884375 -12.328125 4.1484375 C-10.7556085 3.25414376 -9.16958759 2.38356323 -7.578125 1.5234375 C-6.69640625 1.03617188 -5.8146875 0.54890625 -4.90625 0.046875 C-2.328125 -0.8515625 -2.328125 -0.8515625 0 0 Z " fill="#000000" transform="translate(131.328125,51.8515625)"/>
<path d="M0 0 C0.625 2.0625 0.625 2.0625 1 4 C-1.97 3.505 -1.97 3.505 -5 3 C-4.55170486 4.98146451 -4.09107502 6.96014211 -3.625 8.9375 C-3.36976563 10.03964844 -3.11453125 11.14179687 -2.8515625 12.27734375 C-2.57054687 13.17582031 -2.28953125 14.07429688 -2 15 C-1.34 15.33 -0.68 15.66 0 16 C0 16.66 0 17.32 0 18 C-2.31 18.66 -4.62 19.32 -7 20 C-7 19.01 -7 18.02 -7 17 C-7.15551489 14.7700276 -7.32349235 12.54090904 -7.5 10.3125 C-7.5928125 9.13300781 -7.685625 7.95351563 -7.78125 6.73828125 C-7.8534375 5.83464844 -7.925625 4.93101563 -8 4 C-11.27773504 4.75150023 -11.27773504 4.75150023 -13 8 C-14 7 -14 7 -14.0625 4.4375 C-14.041875 3.633125 -14.02125 2.82875 -14 2 C-12.04396149 1.47061343 -10.08507711 0.95173199 -8.125 0.4375 C-7.03445312 0.14746094 -5.94390625 -0.14257812 -4.8203125 -0.44140625 C-2 -1 -2 -1 0 0 Z " fill="#000000" transform="translate(162,43)"/>
<path d="M0 0 C2.64 0.66 5.28 1.32 8 2 C8 2.66 8 3.32 8 4 C7.34 4 6.68 4 6 4 C5.34 8.29 4.68 12.58 4 17 C7.465 16.505 7.465 16.505 11 16 C11 17.32 11 18.64 11 20 C5.65998179 21.33500455 2.16044765 20.512545 -3 19 C-3 18.34 -3 17.68 -3 17 C-2.34 17 -1.68 17 -1 17 C0.46619907 10.97767819 1.32528788 6.09632423 0 0 Z " fill="#000000" transform="translate(141,220)"/>
<path d="M0 0 C2.64 0.33 5.28 0.66 8 1 C8 1.99 8 2.98 8 4 C7.01 4.66 6.02 5.32 5 6 C5.99 6 6.98 6 8 6 C8 10.29 8 14.58 8 19 C5.03 19 2.06 19 -1 19 C-1 17.68 -1 16.36 -1 15 C-0.01 15 0.98 15 2 15 C2.33 14.34 2.66 13.68 3 13 C1.68 13.33 0.36 13.66 -1 14 C-1 12.68 -1 11.36 -1 10 C1.31 10 3.62 10 6 10 C2.52852158 9.25042843 2.52852158 9.25042843 -1 9 C-0.7525 8.0409375 -0.7525 8.0409375 -0.5 7.0625 C0.03926667 5.19173179 0.03926667 5.19173179 0 4 C0 2.68 0 1.36 0 0 Z M4 13 C4 13.99 4 14.98 4 16 C4.99 15.67 5.98 15.34 7 15 C7 14.34 7 13.68 7 13 C6.01 13 5.02 13 4 13 Z " fill="#000000" transform="translate(105,130)"/>
<path d="M0 0 C2 2 2 2 2.375 4.9375 C2 8 2 8 0.3125 9.9375 C-2.61449654 11.28233625 -3.98584989 11.03115662 -7 10 C-9 8 -9 8 -9.375 5.0625 C-9 2 -9 2 -7.3125 0.0625 C-4.38550346 -1.28233625 -3.01415011 -1.03115662 0 0 Z " fill="#000000" transform="translate(719,154)"/>
<path d="M0 0 C2 2 2 2 2.375 4.9375 C2 8 2 8 0.3125 9.9375 C-2.61449654 11.28233625 -3.98584989 11.03115662 -7 10 C-9 8 -9 8 -9.375 5.0625 C-9 2 -9 2 -7.3125 0.0625 C-4.38550346 -1.28233625 -3.01415011 -1.03115662 0 0 Z " fill="#000000" transform="translate(684,88)"/>
<path d="M0 0 C2 2 2 2 2.3125 5.5 C2.1578125 7.2325 2.1578125 7.2325 2 9 C-1.23253796 11.15502531 -2.25150923 11.46856135 -6 11 C-7.875 9.9375 -7.875 9.9375 -9 8 C-8.8125 4.375 -8.8125 4.375 -8 1 C-5.23749964 -0.38125018 -3.05268901 -0.19079306 0 0 Z " fill="#000000" transform="translate(719,220)"/>
<path d="M0 0 C3 0.25 3 0.25 5 2.25 C5.25 5.75 5.25 5.75 5 9.25 C3 11.25 3 11.25 0.0625 11.625 C-3 11.25 -3 11.25 -4.9375 9.5625 C-6.28233625 6.63550346 -6.03115662 5.26415011 -5 2.25 C-3 0.25 -3 0.25 0 0 Z " fill="#000000" transform="translate(485,219.75)"/>
<path d="M0 0 C0.38091797 0.79664063 0.38091797 0.79664063 0.76953125 1.609375 C3.3837032 7.12558016 3.3837032 7.12558016 7 12 C7.99 12.33 8.98 12.66 10 13 C9.25 14.9375 9.25 14.9375 8 17 C5.875 17.75 5.875 17.75 4 18 C3.773125 17.319375 3.54625 16.63875 3.3125 15.9375 C1.68384019 12.29240424 -0.31094535 8.96833332 -3 6 C-3.99 5.67 -4.98 5.34 -6 5 C-3.74193548 0 -3.74193548 0 0 0 Z " fill="#000000" transform="translate(117,59)"/>
<path d="M0 0 C2.16796875 -0.3046875 2.16796875 -0.3046875 5 0 C7.67578125 2.1171875 7.67578125 2.1171875 10.3125 4.875 C11.19550781 5.77992187 12.07851563 6.68484375 12.98828125 7.6171875 C15 10 15 10 15 12 C11.07292782 11.40563232 8.12695274 10.22704839 4.6875 8.25 C3.80449219 7.76015625 2.92148437 7.2703125 2.01171875 6.765625 C0 5 0 5 -0.29296875 2.296875 C-0.19628906 1.53890625 -0.09960938 0.7809375 0 0 Z " fill="#000000" transform="translate(506,105)"/>
<path d="M0 0 C4.90999498 0.26656715 7.02527875 2.59996028 10.3125 6.0625 C11.19550781 6.98160156 12.07851563 7.90070313 12.98828125 8.84765625 C13.65214844 9.55792969 14.31601562 10.26820313 15 11 C13.35546875 11.69921875 13.35546875 11.69921875 11 12 C8.23828125 10.70703125 8.23828125 10.70703125 5.3125 8.8125 C4.33925781 8.20019531 3.36601563 7.58789062 2.36328125 6.95703125 C0 5 0 5 -0.89453125 2.82421875 C-0.92933594 2.22222656 -0.96414063 1.62023437 -1 1 C-0.67 0.67 -0.34 0.34 0 0 Z " fill="#000000" transform="translate(556,171)"/>
<path d="M0 0 C0.33 1.98 0.66 3.96 1 6 C0.071875 6.144375 -0.85625 6.28875 -1.8125 6.4375 C-5.00725111 6.92100111 -5.00725111 6.92100111 -8 8 C-8.33 5.69 -8.66 3.38 -9 1 C-3.375 -1.125 -3.375 -1.125 0 0 Z M-3 1 C-3 1.66 -3 2.32 -3 3 C-2.34 2.67 -1.68 2.34 -1 2 C-1.66 1.67 -2.32 1.34 -3 1 Z " fill="#000000" transform="translate(115,155)"/>
<path d="M0 0 C3.3 0.33 6.6 0.66 10 1 C8.125 6.75 8.125 6.75 7 9 C6.34 9 5.68 9 5 9 C3.7109375 7.5390625 3.7109375 7.5390625 2.375 5.625 C1.92898437 4.99851562 1.48296875 4.37203125 1.0234375 3.7265625 C0 2 0 2 0 0 Z M6 3 C6 3.66 6 4.32 6 5 C6.66 4.67 7.32 4.34 8 4 C7.34 3.67 6.68 3.34 6 3 Z " fill="#000000" transform="translate(112,110)"/>
<path d="M0 0 C0.66 0 1.32 0 2 0 C2.33 1.32 2.66 2.64 3 4 C1.35 4.66 -0.3 5.32 -2 6 C-2 6.99 -2 7.98 -2 9 C-3.875 8.875 -3.875 8.875 -6 8 C-7.25 4.9375 -7.25 4.9375 -8 2 C-7.01 1.67 -6.02 1.34 -5 1 C-4.67 1.66 -4.34 2.32 -4 3 C-2.68 2.67 -1.36 2.34 0 2 C0 1.34 0 0.68 0 0 Z " fill="#000000" transform="translate(116,162)"/>
<path d="M0 0 C1.32 0.66 2.64 1.32 4 2 C3.01 2.99 2.02 3.98 1 5 C2.65 5.33 4.3 5.66 6 6 C6.33 4.68 6.66 3.36 7 2 C8.125 6.75 8.125 6.75 7 9 C4.125 9.125 4.125 9.125 1 9 C0.34 8.34 -0.32 7.68 -1 7 C-0.625 3.375 -0.625 3.375 0 0 Z " fill="#000000" transform="translate(109,116)"/>
<path d="M0 0 C2.97 0.33 5.94 0.66 9 1 C8.67 2.32 8.34 3.64 8 5 C5.03 4.67 2.06 4.34 -1 4 C-0.67 2.68 -0.34 1.36 0 0 Z " fill="#000000" transform="translate(106,125)"/>
<path d="M0 0 C1.485 0.99 1.485 0.99 3 2 C3 1.34 3 0.68 3 0 C3.99 0.33 4.98 0.66 6 1 C5.67 2.32 5.34 3.64 5 5 C3.35 4.67 1.7 4.34 0 4 C0 2.68 0 1.36 0 0 Z " fill="#000000" transform="translate(105,150)"/>
<path d="M0 0 C1.65 0.33 3.3 0.66 5 1 C4.67 1.99 4.34 2.98 4 4 C2.35 3.67 0.7 3.34 -1 3 C-0.67 2.01 -0.34 1.02 0 0 Z " fill="#000000" transform="translate(197,101)"/>
<path d="M0 0 C1.65 0.33 3.3 0.66 5 1 C4.01 2.485 4.01 2.485 3 4 C1.68 3.67 0.36 3.34 -1 3 C-0.67 2.01 -0.34 1.02 0 0 Z " fill="#000000" transform="translate(139,101)"/>
</svg>
